G04 ================== begin FILE IDENTIFICATION RECORD ==================*
G04 Layout Name:  D:/Project/Circuit/AVANT/FIBER-E1/FIBER-E1_01v2/pcb/FIBER-E1_01v2.brd*
G04 Film Name:    BOTTOM*
G04 File Format:  Gerber RS274X*
G04 File Origin:  Cadence Allegro 16.6-2015-S073*
G04 Origin Date:  Tue Nov 13 09:29:43 2018*
G04 *
G04 Layer:  ETCH/BOTTOM*
G04 Layer:  PIN/BOTTOM*
G04 Layer:  VIA CLASS/BOTTOM*
G04 *
G04 Offset:    (0.000 0.000)*
G04 Mirror:    No*
G04 Mode:      Positive*
G04 Rotation:  0*
G04 FullContactRelief:  No*
G04 UndefLineWidth:     0.250*
G04 ================== end FILE IDENTIFICATION RECORD ====================*
%FSLAX34Y34*MOMM*%
%IR0*IPPOS*OFA0.00000B0.00000*MIA0B0*SFA1.00000B1.00000*%
%ADD27O,.55X1.*%
%ADD13C,1.*%
%ADD28R,.55X1.*%
%ADD30C,2.1*%
%ADD23C,1.3*%
%ADD17C,2.3*%
%ADD21C,1.5*%
%ADD10C,6.*%
%ADD16C,3.4*%
%ADD15C,1.7*%
%ADD11C,7.2*%
%ADD32R,2.1X2.1*%
%ADD22R,1.5X1.5*%
%ADD19R,1.7X1.7*%
%ADD14R,1.4X1.*%
%ADD20R,1.X1.4*%
%ADD18R,3.6X1.5*%
%ADD31R,1.7X1.7*%
%ADD24R,2.25X1.9*%
%ADD25R,1.9X2.25*%
%ADD12C,.8*%
%ADD29R,.9X.9*%
%ADD26R,.9X.9*%
%ADD33C,.4*%
%ADD34C,.5*%
%ADD35C,.25*%
%ADD36C,.45*%
%ADD37C,.75*%
G75*
%LPD*%
G75*
G36*
G01X-450850Y-304800D02*
G02X-457200Y-298450I0J6350D01*
G01Y-241300D01*
G03X-463550Y-234950I-6350J0D01*
G01X-476250D01*
G02X-482600Y-228600I0J6350D01*
G01Y57150D01*
G02X-476250Y63500I6350J0D01*
G01X-455020D01*
G02X-454020Y62500I0J-1000D01*
G01Y53330D01*
G03X-453020Y52330I1000J0D01*
G01X-435980D01*
G03X-434980Y53330I0J1000D01*
G01Y62500D01*
G02X-433980Y63500I1000J0D01*
G01X-429620D01*
G02X-428620Y62500I0J-1000D01*
G01Y53330D01*
G03X-427620Y52330I1000J0D01*
G01X-410580D01*
G03X-409580Y53330I0J1000D01*
G01Y62500D01*
G02X-408580Y63500I1000J0D01*
G01X-404220D01*
G02X-403220Y62500I0J-1000D01*
G01Y53330D01*
G03X-402220Y52330I1000J0D01*
G01X-385180D01*
G03X-384180Y53330I0J1000D01*
G01Y62500D01*
G02X-383180Y63500I1000J0D01*
G01X-378820D01*
G02X-377820Y62500I0J-1000D01*
G01Y53330D01*
G03X-376820Y52330I1000J0D01*
G01X-359780D01*
G03X-358780Y53330I0J1000D01*
G01Y62500D01*
G02X-357780Y63500I1000J0D01*
G01X-326320D01*
G02X-325320Y62500I0J-1000D01*
G01Y45930D01*
G03X-324320Y44930I1000J0D01*
G01X-285280D01*
G03X-284280Y45930I0J1000D01*
G01Y59770D01*
G02X-283600Y60720I1000J3D01*
G01X-281800Y61330D01*
G02X-280690Y60980I310J-951D01*
G02X-279400Y57150I-5058J-3836D01*
G01Y-209550D01*
G03X-273050Y-215900I6350J0D01*
G02X-266700Y-222250I0J-6350D01*
G01Y-298450D01*
G02X-273050Y-304800I-6350J0D01*
G01X-450850D01*
G37*
G36*
G01X-445850Y91440D02*
G02X-451500Y84850I-11152J3844D01*
G01X-444500Y79220D01*
X-437500Y84850D01*
G02X-443150Y91440I5502J10434D01*
G03X-445850I-1350J-2100D01*
G37*
G36*
G01X-437800Y102850D02*
G02X-431800I3000J-7200D01*
G01X-431360Y111790D01*
X-440300Y111350D01*
G02Y105350I-7200J-3000D01*
G03X-437800Y102850I2500J0D01*
G37*
G36*
G01X-369650Y91440D02*
G02X-375300Y84850I-11152J3844D01*
G01X-368300Y79220D01*
X-361300Y84850D01*
G02X-366950Y91440I5502J10434D01*
G03X-369650I-1350J-2100D01*
G37*
G36*
G01X-420450D02*
G02X-426100Y84850I-11152J3844D01*
G01X-419100Y79220D01*
X-412100Y84850D01*
G02X-417750Y91440I5502J10434D01*
G03X-420450I-1350J-2100D01*
G37*
G36*
G01X-395050D02*
G02X-400700Y84850I-11152J3844D01*
G01X-393700Y79220D01*
X-386700Y84850D01*
G02X-392350Y91440I5502J10434D01*
G03X-395050I-1350J-2100D01*
G37*
G36*
G01X-366530Y126490D02*
G02X-362300Y130750I7188J-2908D01*
G01X-368300Y137380D01*
X-374300Y130750D01*
G02X-370070Y126490I-2958J-7168D01*
G03X-366530I1770J1770D01*
G37*
G36*
G01X-417330D02*
G02X-413100Y130750I7188J-2908D01*
G01X-419100Y137380D01*
X-425100Y130750D01*
G02X-420870Y126490I-2958J-7168D01*
G03X-417330I1770J1770D01*
G37*
G36*
G01X-397900Y105350D02*
G02Y111350I7200J3000D01*
G01X-406840Y111790D01*
X-406400Y102850D01*
G02X-400400I3000J-7200D01*
G03X-397900Y105350I0J2500D01*
G37*
G36*
G01X-164090Y-141350D02*
G02X-157500Y-147000I-3844J-11152D01*
G01X-151880Y-140000D01*
X-157500Y-133000D01*
G02X-164090Y-138650I-10434J5502D01*
G03Y-141350I2100J-1350D01*
G37*
G36*
G01X-161290Y68500D02*
G02X-154700Y62850I-3844J-11152D01*
G01X-149080Y69850D01*
X-154700Y76850D01*
G02X-161290Y71200I-10434J5502D01*
G03Y68500I2100J-1350D01*
G37*
G36*
G01X-176150Y158410D02*
G02X-170500Y165000I11152J-3844D01*
G01X-177500Y170620D01*
X-184500Y165000D01*
G02X-178850Y158410I-5502J-10434D01*
G03X-176150I1350J2100D01*
G37*
G36*
G01X-178850Y201590D02*
G02X-184500Y195000I-11152J3844D01*
G01X-177500Y189380D01*
X-170500Y195000D01*
G02X-176150Y201590I5502J10434D01*
G03X-178850I-1350J-2100D01*
G37*
G36*
G01X-120910Y-138650D02*
G02X-127500Y-133000I3844J11152D01*
G01X-133120Y-140000D01*
X-127500Y-147000D01*
G02X-120910Y-141350I10434J-5502D01*
G03Y-138650I-2100J1350D01*
G37*
G36*
G01X-118110Y71200D02*
G02X-124700Y76850I3844J11152D01*
G01X-130320Y69850D01*
X-124700Y62850D01*
G02X-118110Y68500I10434J-5502D01*
G03Y71200I-2100J1350D01*
G37*
G36*
G01X26470Y-214900D02*
Y-206930D01*
G03X25470Y-205930I-1000J0D01*
G01X-1070D01*
Y-205990D01*
X-3160Y-207340D01*
X-3670Y-207370D01*
X-3900Y-207270D01*
G03X-5410Y-206790I-2715J-5925D01*
G01X-5570Y-206760D01*
X-5820Y-206630D01*
X-9240Y-203210D01*
G02X-9530Y-202510I710J704D01*
G01Y-193980D01*
G03X-10530Y-192980I-1000J0D01*
G01X-24400D01*
G02X-25400Y-191980I0J1000D01*
G01Y-189020D01*
G02X-24400Y-188020I1000J0D01*
G01X-10530D01*
G03X-9530Y-187020I0J1000D01*
G01Y-173980D01*
G03X-10530Y-172980I-1000J0D01*
G01X-24400D01*
G02X-25400Y-171980I0J1000D01*
G01Y-134350D01*
G02X-24400Y-133350I1000J0D01*
G01X1880D01*
G02X2590Y-133640I5J-1001D01*
G01X2780Y-133830D01*
X2920Y-134120D01*
X2950Y-134280D01*
G03X3010Y-134630I6452J926D01*
G01X3030Y-134730D01*
Y-134830D01*
G02X2030Y-135830I-1000J0D01*
G01X-14870D01*
G03X-15870Y-136830I0J-1000D01*
G01Y-149870D01*
G03X-14870Y-150870I1000J0D01*
G01X2170D01*
G03X3170Y-149870I0J1000D01*
G01Y-140750D01*
G02X3670Y-139880I1000J4D01*
G01X5400Y-138870D01*
X5920D01*
X6160Y-139010D01*
G03X12830Y-138900I3243J5659D01*
G01X13060Y-138750D01*
X13600Y-138740D01*
X15370Y-139720D01*
G02X15880Y-140600I-491J-873D01*
G01Y-149870D01*
G03X16880Y-150870I1000J0D01*
G01X33920D01*
G03X34920Y-149870I0J1000D01*
G01Y-136830D01*
G03X33920Y-135830I-1000J0D01*
G01X16770D01*
G02X15770Y-134830I0J1000D01*
G01Y-134730D01*
X15790Y-134630D01*
G03X15850Y-134270I-6396J1251D01*
G01X15880Y-134110D01*
X16020Y-133820D01*
X16200Y-133640D01*
G02X16910Y-133350I705J-711D01*
G01X38630D01*
G02X39630Y-134350I0J-1000D01*
G01Y-148220D01*
G03X40630Y-149220I1000J0D01*
G01X53670D01*
G03X54670Y-148220I0J1000D01*
G01Y-134350D01*
G02X55670Y-133350I1000J0D01*
G01X58630D01*
G02X59630Y-134350I0J-1000D01*
G01Y-147580D01*
G03X60130Y-148450I1001J-4D01*
G01X60900Y-148890D01*
G02X61770Y-149490I-3016J-5304D01*
G02X62130Y-150260I-640J-769D01*
G01Y-150710D01*
X62010Y-151040D01*
X61890Y-151180D01*
G03X61590Y-159360I4921J-4276D01*
G02X61790Y-159960I-799J-600D01*
G01Y-163030D01*
G02X60790Y-164030I-1000J0D01*
G01X60460D01*
X59880Y-164610D01*
Y-190570D01*
G03X60880Y-191570I1000J0D01*
G01X75200D01*
G02X76200Y-192570I0J-1000D01*
G01Y-203730D01*
G02X75200Y-204730I-1000J0D01*
G01X62330D01*
G03X61330Y-205730I0J-1000D01*
G01Y-214900D01*
G02X60330Y-215900I-1000J0D01*
G01X54970D01*
G02X53970Y-214900I0J1000D01*
G01Y-205730D01*
G03X52970Y-204730I-1000J0D01*
G01X35930D01*
G03X34930Y-205730I0J-1000D01*
G01Y-214900D01*
G02X33930Y-215900I-1000J0D01*
G01X27470D01*
G02X26470Y-214900I0J1000D01*
G37*
G36*
G01X-76200Y-95250D02*
G02X-82550Y-88900I0J6350D01*
G01Y-6350D01*
G02X-76200Y0I6350J0D01*
G01X-44450D01*
G02X-40470Y-1400I0J-6357D01*
G01X-40290Y-1540D01*
X-40100Y-1950D01*
Y-2180D01*
G02X-41100Y-3180I-1000J0D01*
G01X-54620D01*
G03X-55620Y-4180I0J-1000D01*
G01Y-21220D01*
G03X-54620Y-22220I1000J0D01*
G01X-41100D01*
G02X-40100Y-23220I0J-1000D01*
G01Y-23450D01*
X-40290Y-23860D01*
X-40470Y-24000D01*
G02X-44450Y-25400I-3980J4957D01*
G03X-57150Y-38100I0J-12700D01*
G01Y-44450D01*
G03X-44450Y-57150I12700J0D01*
G01X-8130D01*
G02X-7430Y-57440I-4J-1000D01*
G01X-4620Y-60250D01*
X-4480Y-60540D01*
X-4450Y-60700D01*
G03X4270Y-65880I6451J931D01*
G01X4440Y-65820D01*
X5100D01*
G03X5210I55J5021D01*
G01X8490D01*
G02X9260Y-66180I1J-1000D01*
G02X9860Y-67050I-4704J-3886D01*
G01X10300Y-67820D01*
G03X11170Y-68320I866J501D01*
G01X27570D01*
G03X28570Y-67320I0J1000D01*
G01Y-58150D01*
G02X29570Y-57150I1000J0D01*
G01X44450D01*
G03X57150Y-44450I0J12700D01*
G01Y-19480D01*
G02X57480Y-18740I999J-2D01*
G01X58740Y-17600D01*
X59140Y-17470D01*
X59350Y-17490D01*
G03X55700Y-6100I650J6488D01*
G02X55040Y-6350I-662J750D01*
G01X45450D01*
G02X44450Y-5350I0J1000D01*
G01Y-4170D01*
G02X45450Y-3170I1000J0D01*
G01X54620D01*
G03X55620Y-2170I0J1000D01*
G01Y14870D01*
G03X54620Y15870I-1000J0D01*
G01X45450D01*
G02X44450Y16870I0J1000D01*
G01Y18050D01*
G02X45450Y19050I1000J0D01*
G01X107950D01*
G02X114300Y12700I0J-6350D01*
G01Y12170D01*
G02X113300Y11170I-1000J0D01*
G01X99430D01*
G03X98430Y10170I0J-1000D01*
G01Y-2870D01*
G03X99430Y-3870I1000J0D01*
G01X113300D01*
G02X114300Y-4870I0J-1000D01*
G01Y-7830D01*
G02X113300Y-8830I-1000J0D01*
G01X99430D01*
G03X98430Y-9830I0J-1000D01*
G01Y-22870D01*
G03X99430Y-23870I1000J0D01*
G01X113300D01*
G02X114300Y-24870I0J-1000D01*
G01Y-88900D01*
G02X107950Y-95250I-6350J0D01*
G01X-76200D01*
G37*
G36*
G01X-44450Y-50800D02*
G02X-50800Y-44450I0J6350D01*
G01Y-34100D01*
G02X-50600Y-33500I1000J0D01*
G02X-44450Y-30420I6150J-4600D01*
G03X-33750Y-22880I0J11362D01*
G01X-33640Y-22580D01*
X-33130Y-22220D01*
X-21580D01*
G03X-20580Y-21220I0J1000D01*
G01Y-4180D01*
G03X-21580Y-3180I-1000J0D01*
G01X-33130D01*
X-33640Y-2820D01*
X-33750Y-2520D01*
G03X-35060Y50I-10700J-3835D01*
G01X-35210Y290D01*
X-35240Y830D01*
X-34290Y2650D01*
G02X-33400Y3180I884J-471D01*
G01X-21580D01*
G03X-20580Y4180I0J1000D01*
G01Y21220D01*
G03X-21580Y22220I-1000J0D01*
G01X-34620D01*
G03X-35620Y21220I0J-1000D01*
G01Y5140D01*
G02X-36130Y4270I-1000J2D01*
G01X-37870Y3280D01*
X-38410Y3290D01*
X-38640Y3420D01*
G03X-39970Y4100I-5829J-9760D01*
G01X-40260Y4220D01*
X-40580Y4710D01*
Y21220D01*
G03X-41580Y22220I-1000J0D01*
G01X-49800D01*
G02X-50800Y23220I0J1000D01*
G01Y44450D01*
G02X-44450Y50800I6350J0D01*
G01X2180D01*
G02X3180Y49800I0J-1000D01*
G01Y41580D01*
G03X4180Y40580I1000J0D01*
G01X21220D01*
G03X22220Y41580I0J1000D01*
G01Y49800D01*
G02X23220Y50800I1000J0D01*
G01X44450D01*
G02X50800Y44450I0J-6350D01*
G01Y25070D01*
G02X49800Y24070I-1000J0D01*
G01X40430D01*
G03X39430Y23070I0J-1000D01*
G01Y-10370D01*
G03X40430Y-11370I1000J0D01*
G01X40580D01*
Y-27570D01*
G03X41580Y-28570I1000J0D01*
G01X49800D01*
G02X50800Y-29570I0J-1000D01*
G01Y-44450D01*
G02X44450Y-50800I-6350J0D01*
G01X4170D01*
G02X3170Y-49800I0J1000D01*
G01Y-41580D01*
G03X2170Y-40580I-1000J0D01*
G01X-14870D01*
G03X-15870Y-41580I0J-1000D01*
G01Y-49800D01*
G02X-16870Y-50800I-1000J0D01*
G01X-44450D01*
G37*
G36*
G01X-56890Y12020D02*
G02X-53090Y7780I-3783J-7213D01*
G01X-47480Y12700D01*
X-53090Y17620D01*
G02X-56890Y13380I-7583J2973D01*
G03Y12020I2410J-680D01*
G37*
G36*
G01X-41350Y201590D02*
G02X-47000Y195000I-11152J3844D01*
G01X-40000Y189380D01*
X-33000Y195000D01*
G02X-38650Y201590I5502J10434D01*
G03X-41350I-1350J-2100D01*
G37*
G36*
G01X-38650Y158410D02*
G02X-33000Y165000I11152J-3844D01*
G01X-40000Y170620D01*
X-47000Y165000D01*
G02X-41350Y158410I-5502J-10434D01*
G03X-38650I1350J2100D01*
G37*
G36*
G01X-10600Y-211450D02*
G02Y-213200I-2037J-875D01*
G01X-6190Y-213670D01*
Y-209240D01*
G02X-7690Y-208980I-436J1943D01*
G03X-10600Y-211450I-407J-2470D01*
G37*
G36*
G01X-1690Y-218360D02*
G02X1480Y-222160I-3744J-6346D01*
G01X13320Y-217950D01*
X1480Y-213740D01*
G02X-1690Y-217540I-6914J2546D01*
G03Y-218360I2470J-410D01*
G37*
G36*
G01X56180Y-231140D02*
G02X51450Y-227250I2754J8170D01*
G01X43820Y-232250D01*
X51450Y-237250D01*
G02X56180Y-233360I7484J-4280D01*
G03Y-231140I-2240J1110D01*
G37*
G36*
G01X46980Y-240760D02*
G02X51450Y-237240I6935J-4209D01*
G01X44250Y-231660D01*
X37450Y-237240D01*
G02X46170Y-240790I-60J-12631D01*
G03X46980Y-240760I314J2481D01*
G37*
G36*
G01X15020Y-126790D02*
G02X18410Y-128350I-794J-6189D01*
G01X26000Y-123170D01*
X18410Y-118350D01*
G02X14850Y-125450I-10795J970D01*
G03X15020Y-126790I2472J-367D01*
G37*
G36*
G01X4030Y-125520D02*
G02X640Y-118350I7402J7886D01*
G01X-6950Y-123160D01*
X640Y-128350D01*
G02X3910Y-126660I4406J-4517D01*
G03X4030Y-125520I-2362J825D01*
G37*
G36*
G01X6920Y-59030D02*
G02X4820Y-56950I1433J3547D01*
G01X1410Y-59580D01*
X3100Y-63320D01*
G02X5190Y-63300I1069J-2485D01*
G03X6920Y-59030I-38J2501D01*
G37*
G36*
G01X7320Y-61910D02*
G02X12050Y-65800I-2754J-8170D01*
G01X19680Y-60800D01*
X12050Y-55800D01*
G02X7320Y-59690I-7484J4280D01*
G03Y-61910I2240J-1110D01*
G37*
G36*
G01X-100Y61100D02*
G02X-5700Y65800I3190J9487D01*
G01X-13320Y60860D01*
X-5700Y55800D01*
G02X-350Y58230I5880J-5841D01*
G03X-100Y61100I-1911J1612D01*
G37*
G36*
G01X108850Y-294090D02*
G02X114500Y-287500I11152J-3844D01*
G01X107500Y-281880D01*
X100500Y-287500D01*
G02X106150Y-294090I-5502J-10434D01*
G03X108850I1350J2100D01*
G37*
G36*
G01X106150Y-250910D02*
G02X100500Y-257500I-11152J3844D01*
G01X107500Y-263120D01*
X114500Y-257500D01*
G02X108850Y-250910I5502J10434D01*
G03X106150I-1350J-2100D01*
G37*
G36*
G01X118380Y-227590D02*
G02X114100Y-224100I2513J7451D01*
G01X108980Y-228600D01*
X114100Y-233100D01*
G02X118380Y-229610I6793J-3961D01*
G03Y-227590I-2290J1010D01*
G37*
G36*
G01X84820Y-229610D02*
G02X89100Y-233100I-2513J-7451D01*
G01X94220Y-228600D01*
X89100Y-224100D01*
G02X84820Y-227590I-6793J3961D01*
G03Y-229610I2290J-1010D01*
G37*
G36*
G01X81520Y-231310D02*
G02X77840Y-227250I3645J7002D01*
G01X70230Y-232270D01*
X77840Y-237250D01*
G02X81530Y-232520I8101J-2515D01*
G03X81520Y-231310I-2430J585D01*
G37*
G36*
G01X59120Y-233360D02*
G02X63850Y-237250I-2754J-8170D01*
G01X71480Y-232250D01*
X63850Y-227250D01*
G02X59120Y-231140I-7484J4280D01*
G03Y-233360I2240J-1110D01*
G37*
G36*
G01X65380Y-151220D02*
G02X63990Y-152630I-2324J901D01*
G01X66720Y-156070D01*
X70080Y-153250D01*
G02X69370Y-151850I1384J1582D01*
G03X65380Y-151220I-2225J-1140D01*
G37*
G36*
G01X64590Y-160410D02*
G02X63160Y-168640I-11025J-2324D01*
G01X72090Y-178400D01*
X75360Y-166570D01*
G02X68080Y-159390I5244J12598D01*
G03X64590Y-160410I-1263J-2158D01*
G37*
G36*
G01X68260Y-151430D02*
G02X72150Y-146700I8170J-2754D01*
G01X67150Y-139080D01*
X62150Y-146700D01*
G02X66040Y-151430I-4280J-7484D01*
G03X68260I1110J2240D01*
G37*
G36*
G01X119680Y4760D02*
G02X114950Y8650I2754J8170D01*
G01X107320Y3650D01*
X114950Y-1350D01*
G02X119680Y2540I7484J-4280D01*
G03Y4760I-2240J1110D01*
G37*
G36*
G01X119700Y37110D02*
G02X124700Y31850I-4258J-9054D01*
G01X130320Y38100D01*
X124700Y44350D01*
G02X119700Y39090I-9258J3794D01*
G03Y37110I2290J-990D01*
G37*
G36*
G01X85090Y157780D02*
G02X81200Y153050I-8170J2754D01*
G01X86200Y145420D01*
X91200Y153050D01*
G02X87310Y157780I4280J7484D01*
G03X85090I-1110J-2240D01*
G37*
G36*
G01X65090D02*
G02X61200Y153050I-8170J2754D01*
G01X66200Y145420D01*
X71200Y153050D01*
G02X67310Y157780I4280J7484D01*
G03X65090I-1110J-2240D01*
G37*
G36*
G01X199230Y-66390D02*
G02X194500Y-62500I2754J8170D01*
G01X186880Y-67500D01*
X194500Y-72500D01*
G02X199230Y-68610I7484J-4280D01*
G03Y-66390I-2240J1110D01*
G37*
G36*
G01Y-86390D02*
G02X194500Y-82500I2754J8170D01*
G01X186880Y-87500D01*
X194500Y-92500D01*
G02X199230Y-88610I7484J-4280D01*
G03Y-86390I-2240J1110D01*
G37*
G36*
G01X129960Y-27440D02*
G02X124700Y-31110I-7444J5065D01*
G01X129640Y-38720D01*
X134700Y-31110D01*
G02X131160Y-27490I3196J6666D01*
G03X129960Y-27440I-701J-2400D01*
G37*
G36*
G01X148590Y-26370D02*
G02X144700Y-31100I-8170J2754D01*
G01X149700Y-38720D01*
X154700Y-31100D01*
G02X150810Y-26370I4280J7484D01*
G03X148590I-1110J-2240D01*
G37*
G36*
G01Y49830D02*
G02X144700Y45100I-8170J2754D01*
G01X149700Y37480D01*
X154700Y45100D01*
G02X150810Y49830I4280J7484D01*
G03X148590I-1110J-2240D01*
G37*
G36*
G01X130810Y26370D02*
G02X134700Y31100I8170J-2754D01*
G01X129700Y38720D01*
X124700Y31100D01*
G02X128590Y26370I-4280J-7484D01*
G03X130810I1110J2240D01*
G37*
G36*
G01X159720Y186690D02*
G02X164450Y182800I-2754J-8170D01*
G01X172080Y187800D01*
X164450Y192800D01*
G02X159720Y188910I-7484J4280D01*
G03Y186690I2240J-1110D01*
G37*
G36*
G01X198200Y156210D02*
G02X203850Y162800I11152J-3844D01*
G01X196850Y168420D01*
X189850Y162800D01*
G02X195500Y156210I-5502J-10434D01*
G03X198200I1350J2100D01*
G37*
G36*
G01X172800D02*
G02X178450Y162800I11152J-3844D01*
G01X171450Y168420D01*
X164450Y162800D01*
G02X170100Y156210I-5502J-10434D01*
G03X172800I1350J2100D01*
G37*
G36*
G01X158560Y167770D02*
G02X164450Y162800I-3343J-9937D01*
G01X172070Y167730D01*
X164450Y172790D01*
G02X158940Y170820I-5362J6307D01*
G03X158560Y167770I1769J-1769D01*
G37*
G36*
G01X261700Y-129540D02*
G02X267350Y-122950I11152J-3844D01*
G01X260350Y-117320D01*
X253350Y-122950D01*
G02X259000Y-129540I-5502J-10434D01*
G03X261700I1350J2100D01*
G37*
G36*
G01X195610Y-69270D02*
G02X197930Y-71570I-1613J-3947D01*
G01X201340Y-68970D01*
X199500Y-67500D01*
X197380D01*
X195610Y-69270D01*
G37*
G36*
G01X259000Y-86360D02*
G02X253350Y-92950I-11152J3844D01*
G01X260350Y-98580D01*
X267350Y-92950D01*
G02X261700Y-86360I5502J10434D01*
G03X259000I-1350J-2100D01*
G37*
G36*
G01X233600D02*
G02X227950Y-92950I-11152J3844D01*
G01X234950Y-98580D01*
X241950Y-92950D01*
G02X236300Y-86360I5502J10434D01*
G03X233600I-1350J-2100D01*
G37*
G36*
G01X218330Y-114940D02*
G02X214050Y-111450I2513J7451D01*
G01X208920Y-115950D01*
X214050Y-120450D01*
G02X218330Y-116960I6793J-3961D01*
G03Y-114940I-2290J1010D01*
G37*
G36*
G01X221360Y-117300D02*
G02X227950Y-122950I-3844J-11152D01*
G01X235570Y-118060D01*
X227950Y-112950D01*
G02X222070Y-113870I-4145J7241D01*
G03X221360Y-117300I1391J-2076D01*
G37*
G36*
G01X208540Y-91170D02*
G02X205050Y-95450I-7451J2513D01*
G01X209550Y-100580D01*
X214050Y-95450D01*
G02X210560Y-91170I3961J6793D01*
G03X208540I-1010J-2290D01*
G37*
G36*
G01X211320Y-95340D02*
G02X214820Y-91820I5987J-2453D01*
G01X212300Y-88450D01*
X209550Y-91450D01*
Y-93570D01*
X211320Y-95340D01*
G37*
G36*
G01X197380Y-87500D02*
X199500D01*
X201580Y-85760D01*
X198180Y-83180D01*
G02X195610Y-85730I-4358J1822D01*
G01X197380Y-87500D01*
G37*
G36*
G01X208580Y188910D02*
G02X203850Y192800I2754J8170D01*
G01X196220Y187800D01*
X203850Y182800D01*
G02X208580Y186690I7484J-4280D01*
G03Y188910I-2240J1110D01*
G37*
G36*
G01X209360Y170820D02*
G02X203850Y172790I-148J8277D01*
G01X196230Y167730D01*
X203850Y162800D01*
G02X209740Y167770I9233J-4967D01*
G03X209360Y170820I-2149J1281D01*
G37*
G36*
G01X288650Y64090D02*
G02X283000Y57500I-11152J3844D01*
G01X290000Y51880D01*
X297000Y57500D01*
G02X291350Y64090I5502J10434D01*
G03X288650I-1350J-2100D01*
G37*
G36*
G01X291350Y20910D02*
G02X297000Y27500I11152J-3844D01*
G01X290000Y33120D01*
X283000Y27500D01*
G02X288650Y20910I-5502J-10434D01*
G03X291350I1350J2100D01*
G37*
G36*
G01X392810Y-280980D02*
G02X390880Y-282940I-3343J1362D01*
G01X393700Y-286060D01*
X396520Y-282940D01*
G02X394590Y-280980I1413J3322D01*
G03X392810I-890J-880D01*
G37*
G36*
G01X394590Y-241770D02*
G02X396520Y-239810I3343J-1362D01*
G01X393700Y-236690D01*
X390880Y-239810D01*
G02X392810Y-241770I-1413J-3322D01*
G03X394590I890J880D01*
G37*
G36*
G01X418210Y-293680D02*
G02X416280Y-295640I-3343J1362D01*
G01X419100Y-298760D01*
X421920Y-295640D01*
G02X419990Y-293680I1413J3322D01*
G03X418210I-890J-880D01*
G37*
G36*
G01X419990Y-241770D02*
G02X421920Y-239810I3343J-1362D01*
G01X419100Y-236690D01*
X416280Y-239810D01*
G02X418210Y-241770I-1413J-3322D01*
G03X419990I890J880D01*
G37*
G36*
G01X481350Y155910D02*
G02X487000Y162500I11152J-3844D01*
G01X480000Y168120D01*
X473000Y162500D01*
G02X478650Y155910I-5502J-10434D01*
G03X481350I1350J2100D01*
G37*
G36*
G01X478650Y199090D02*
G02X473000Y192500I-11152J3844D01*
G01X480000Y186880D01*
X487000Y192500D01*
G02X481350Y199090I5502J10434D01*
G03X478650I-1350J-2100D01*
G37*
G36*
G01X632560Y52570D02*
G02X628300Y56800I2908J7188D01*
G01X621680Y50800D01*
X628300Y44800D01*
G02X632560Y49030I7168J-2958D01*
G03Y52570I-1770J1770D01*
G37*
G36*
G01X662840Y49030D02*
G02X667100Y44800I-2908J-7188D01*
G01X673720Y50800D01*
X667100Y56800D01*
G02X662840Y52570I-7168J2958D01*
G03Y49030I1770J-1770D01*
G37*
G36*
G01X632560Y27170D02*
G02X628300Y31400I2908J7188D01*
G01X621680Y25400D01*
X628300Y19400D01*
G02X632560Y23630I7168J-2958D01*
G03Y27170I-1770J1770D01*
G37*
G36*
G01X662840Y23630D02*
G02X667100Y19400I-2908J-7188D01*
G01X673720Y25400D01*
X667100Y31400D01*
G02X662840Y27170I-7168J2958D01*
G03Y23630I1770J-1770D01*
G37*
G36*
G01X696350Y-111590D02*
G02X702000Y-105000I11152J-3844D01*
G01X695000Y-99380D01*
X688000Y-105000D01*
G02X693650Y-111590I-5502J-10434D01*
G03X696350I1350J2100D01*
G37*
G36*
G01X693650Y-68410D02*
G02X688000Y-75000I-11152J3844D01*
G01X695000Y-80620D01*
X702000Y-75000D01*
G02X696350Y-68410I5502J10434D01*
G03X693650I-1350J-2100D01*
G37*
G36*
G01X734160Y52570D02*
G02X729900Y56800I2908J7188D01*
G01X723280Y50800D01*
X729900Y44800D01*
G02X734160Y49030I7168J-2958D01*
G03Y52570I-1770J1770D01*
G37*
G36*
G01Y27170D02*
G02X729900Y31400I2908J7188D01*
G01X723280Y25400D01*
X729900Y19400D01*
G02X734160Y23630I7168J-2958D01*
G03Y27170I-1770J1770D01*
G37*
G36*
G01X765810Y-261700D02*
G02X772400Y-267350I-3844J-11152D01*
G01X778020Y-260350D01*
X772400Y-253350D01*
G02X765810Y-259000I-10434J5502D01*
G03Y-261700I2100J-1350D01*
G37*
G36*
G01X808990Y-259000D02*
G02X802400Y-253350I3844J11152D01*
G01X796780Y-260350D01*
X802400Y-267350D01*
G02X808990Y-261700I10434J-5502D01*
G03Y-259000I-2100J1350D01*
G37*
G36*
G01X764440Y49030D02*
G02X768700Y44800I-2908J-7188D01*
G01X775320Y50800D01*
X768700Y56800D01*
G02X764440Y52570I-7168J2958D01*
G03Y49030I1770J-1770D01*
G37*
G36*
G01Y23630D02*
G02X768700Y19400I-2908J-7188D01*
G01X775320Y25400D01*
X768700Y31400D01*
G02X764440Y27170I-7168J2958D01*
G03Y23630I1770J-1770D01*
G37*
%LPC*%
G75*
G36*
G01X-70Y-176430D02*
X25470D01*
G02X26470Y-177430I0J-1000D01*
G01Y-199470D01*
G02X25470Y-200470I-1000J0D01*
G01X-70D01*
G02X-1070Y-199470I0J1000D01*
G01Y-177430D01*
G02X-70Y-176430I1000J0D01*
G37*
G36*
G01X31380Y-164030D02*
X53420D01*
G02X54420Y-165030I0J-1000D01*
G01Y-190570D01*
G02X53420Y-191570I-1000J0D01*
G01X31380D01*
G02X30380Y-190570I0J1000D01*
G01Y-165030D01*
G02X31380Y-164030I1000J0D01*
G37*
G36*
G01X-21220Y48320D02*
X-4180D01*
G02X-3180Y47320I0J-1000D01*
G01Y34280D01*
G02X-4180Y33280I-1000J0D01*
G01X-21220D01*
G02X-22220Y34280I0J1000D01*
G01Y47320D01*
G02X-21220Y48320I1000J0D01*
G37*
G36*
G01X21580Y15870D02*
X34620D01*
G02X35620Y14870I0J-1000D01*
G01Y-2170D01*
G02X34620Y-3170I-1000J0D01*
G01X21580D01*
G02X20580Y-2170I0J1000D01*
G01Y14870D01*
G02X21580Y15870I1000J0D01*
G37*
G36*
G01X10530Y-33280D02*
X27570D01*
G02X28570Y-34280I0J-1000D01*
G01Y-47320D01*
G02X27570Y-48320I-1000J0D01*
G01X10530D01*
G02X9530Y-47320I0J1000D01*
G01Y-34280D01*
G02X10530Y-33280I1000J0D01*
G37*
G36*
G01X-14870Y-20580D02*
X2170D01*
G02X3170Y-21580I0J-1000D01*
G01Y-34620D01*
G02X2170Y-35620I-1000J0D01*
G01X-14870D01*
G02X-15870Y-34620I0J1000D01*
G01Y-21580D01*
G02X-14870Y-20580I1000J0D01*
G37*
G36*
G01X21580Y-9530D02*
X34620D01*
G02X35620Y-10530I0J-1000D01*
G01Y-27570D01*
G02X34620Y-28570I-1000J0D01*
G01X21580D01*
G02X20580Y-27570I0J1000D01*
G01Y-10530D01*
G02X21580Y-9530I1000J0D01*
G37*
G36*
G01X4180Y35620D02*
X21220D01*
G02X22220Y34620I0J-1000D01*
G01Y21580D01*
G02X21220Y20580I-1000J0D01*
G01X4180D01*
G02X3180Y21580I0J1000D01*
G01Y34620D01*
G02X4180Y35620I1000J0D01*
G37*
%LPD*%
G75*
G54D10*
X-551200Y-279750D03*
X948800D03*
Y200250D03*
G54D20*
X-152500Y-140000D03*
X-149700Y69850D03*
X-132500Y-140000D03*
X-129700Y69850D03*
X-28100Y-12700D03*
X-48100D03*
X-28100Y12700D03*
X-48100D03*
X47150Y-139700D03*
X28100Y6350D03*
X48100D03*
X28100Y-19050D03*
X48100D03*
X67150Y-139700D03*
X129700Y-38100D03*
Y38100D03*
X86200Y146050D03*
X66200D03*
X149700Y-38100D03*
Y38100D03*
X777400Y-260350D03*
X797400D03*
G54D11*
X-551200Y200250D03*
G54D12*
X-571000Y180450D03*
Y220050D03*
X-579200Y200250D03*
X-551200Y228250D03*
X-531400Y180450D03*
X-523200Y200250D03*
X-531400Y220050D03*
X-551200Y172250D03*
X-450850Y-298450D03*
X-444500Y-234950D03*
X-476250Y-184150D03*
X-450850Y-138970D03*
X-463550D03*
X-476250Y-76200D03*
X-431800D03*
X-476860Y12660D03*
X-432410D03*
X-381000Y-298450D03*
Y-241300D03*
Y-171450D03*
X-361950Y-138970D03*
X-412750D03*
X-400050D03*
X-381000Y-76200D03*
X-381610Y12660D03*
X-298450Y-301000D03*
Y-241300D03*
X-311150Y-138970D03*
X-298450D03*
X-349250D03*
X-298450Y-182000D03*
X-330200Y-76200D03*
X-330810Y12660D03*
X-285750Y-76200D03*
X-286360Y12660D03*
X-163500Y-140000D03*
X-162650Y69850D03*
X-165100Y88740D03*
X-177500Y158000D03*
Y202000D03*
X-123000Y-234950D03*
X-121000Y-140000D03*
X-118300Y-63700D03*
X-105250Y0D03*
X-148750D03*
X-117950Y69850D03*
X-12700Y-266700D03*
Y-279400D03*
Y-165100D03*
X-46350Y-187450D03*
X-25400Y-120650D03*
X-15000Y0D03*
X-59910Y-6760D03*
X-59880Y10770D03*
X-65700Y69850D03*
X-78650Y82550D03*
Y107950D03*
X-40000Y157000D03*
X-47150Y109000D03*
X-40000Y202000D03*
X41000Y-292100D03*
X31750Y-196850D03*
X50800D03*
X41000Y-256400D03*
X-6600Y-213200D03*
X53000Y-245000D03*
X0Y-158750D03*
X19050D03*
X0Y-171450D03*
X19050D03*
X50800Y-158750D03*
X31750D03*
X9400Y-133350D03*
X2000Y-59770D03*
X0Y-15000D03*
X15000Y0D03*
X0Y15000D03*
Y0D03*
X6000Y59850D03*
X69850Y-287700D03*
X107500Y-293500D03*
X63500Y-196850D03*
X107500Y-251000D03*
X120650Y-228600D03*
X66810Y-155450D03*
X121000Y3650D03*
X59850Y0D03*
X60000Y-11000D03*
X91000Y55000D03*
X116800Y40250D03*
X162000Y-293000D03*
X184150Y-177800D03*
X139700Y0D03*
X193000Y-32250D03*
X149700Y52000D03*
X193000Y25000D03*
X157000Y187800D03*
X157200Y169050D03*
X218300Y-233000D03*
X232000Y-247650D03*
X201000Y-213200D03*
X260350Y-133350D03*
X222250D03*
X203200Y-190500D03*
X241300D03*
X234950Y-86200D03*
X260350D03*
X200750Y-68750D03*
X201000Y-86000D03*
X212000Y-89000D03*
X211000Y187800D03*
X211100Y169050D03*
X337000Y-226220D03*
X298450Y-224950D03*
X281810Y-211950D03*
X327000Y-247650D03*
X279400D03*
X298450Y-177800D03*
X279400Y-190500D03*
X290000Y63500D03*
Y19050D03*
X393700Y-285750D03*
X375000Y-226220D03*
X393700Y-237000D03*
X362000Y-196000D03*
X349000D03*
X419100Y-298450D03*
X469900Y-215900D03*
Y-203200D03*
X419100Y-237000D03*
X495300Y-215900D03*
Y-203200D03*
X480000Y155000D03*
Y198500D03*
X603250Y-215900D03*
Y-203200D03*
X577850Y-215900D03*
Y-203200D03*
X626450Y-133350D03*
X670950Y-92100D03*
Y-73000D03*
X726020Y-133350D03*
X695000Y-111000D03*
Y-69000D03*
X766400Y-260350D03*
X772750Y-209550D03*
X808400Y-260350D03*
X772550Y-73000D03*
Y-92100D03*
G54D21*
X-152400Y196850D03*
X-76200D03*
Y171450D03*
X38100Y196850D03*
X114300D03*
Y171450D03*
X241300Y165100D03*
X266700D03*
X241300Y241300D03*
X266700D03*
X292100Y165100D03*
X317500D03*
X292100Y241300D03*
X317500D03*
X342900Y165100D03*
X368300D03*
X393700D03*
Y241300D03*
X368300D03*
X342900D03*
X419100Y165100D03*
X850900Y-285750D03*
Y-234950D03*
Y-133350D03*
Y-184150D03*
Y-82550D03*
Y-31750D03*
G54D30*
X622300Y208350D03*
X673100D03*
X723900D03*
G54D31*
X673100Y-25400D03*
X774700D03*
G54D22*
X-152400Y171450D03*
X38100D03*
X419100Y241300D03*
X825500Y-285750D03*
Y-234950D03*
Y-133350D03*
Y-184150D03*
Y-82550D03*
Y-31750D03*
G54D13*
G01X-551200Y200250D02*
X-523200D01*
G01X-476250Y215900D02*
X-490040Y202110D01*
G02X-494530Y200250I-4490J4490D01*
G01X-523200D01*
G01X-464700Y169750D02*
Y169970D01*
G03X-466560Y174460I-6350J0D01*
G01X-474390Y182290D01*
G02X-476250Y186780I4490J4490D01*
G01Y215900D01*
G01X-309900Y169750D02*
Y170070D01*
G02X-308040Y174560I6350J0D01*
G01X-300310Y182290D01*
G03X-298450Y186780I-4490J4490D01*
G01Y213270D01*
G03X-300310Y217760I-6350J0D01*
G01X-309290Y226740D01*
G03X-313780Y228600I-4490J-4490D01*
G01X-460920D01*
G03X-465410Y226740I0J-6350D01*
G01X-476250Y215900D01*
G01X-309900Y169750D02*
X-306660Y166510D01*
G02X-304800Y162020I-4490J-4490D01*
G01Y97450D01*
X-500000Y-300000D03*
Y150000D03*
X880000Y-300000D03*
Y220000D03*
G54D14*
X-444500Y79850D03*
Y59850D03*
X-419100Y79850D03*
Y59850D03*
X-393700Y79850D03*
Y59850D03*
X-368300Y79850D03*
Y59850D03*
X-177500Y170000D03*
Y190000D03*
X-19050Y-200500D03*
Y-180500D03*
X-12700Y40800D03*
Y60800D03*
X-40000Y190000D03*
Y170000D03*
X44450Y-212250D03*
Y-232250D03*
X25400Y-143350D03*
Y-123350D03*
X-6350Y-143350D03*
Y-123350D03*
X19050Y-60800D03*
Y-40800D03*
X-6350Y-28100D03*
Y-48100D03*
X12700Y28100D03*
Y48100D03*
X107500Y-262500D03*
Y-282500D03*
X70850Y-212250D03*
Y-232250D03*
X107950Y3650D03*
Y-16350D03*
X187500Y-67500D03*
Y-87500D03*
X196850Y187800D03*
Y167800D03*
X171450Y187800D03*
Y167800D03*
X260350Y-97950D03*
Y-117950D03*
X234950Y-97950D03*
Y-117950D03*
X290000Y52500D03*
Y32500D03*
X480000Y167500D03*
Y187500D03*
X695000Y-100000D03*
Y-80000D03*
G54D32*
X774700Y208350D03*
G54D23*
X-101600Y196850D03*
X-127000D03*
X-101600Y171450D03*
X-127000D03*
X88900Y196850D03*
X63500D03*
X88900Y171450D03*
X63500D03*
G54D33*
G01X-368300Y120650D02*
Y101600D01*
G01X-419100Y120650D02*
Y101600D01*
G01X-48100Y-23220D02*
Y-12700D01*
G01D02*
Y-2180D01*
G01X-56620Y-12700D02*
X-48100D01*
G01X48100Y-4170D02*
Y6350D01*
G01D02*
Y16870D01*
G01Y6350D02*
X56620D01*
G01X107950Y-24870D02*
Y-16350D01*
G01D02*
Y-7830D01*
G01X97430Y-16350D02*
X107950D01*
G54D24*
X12700Y-188450D03*
Y-217950D03*
G54D15*
X-431800Y111350D03*
X-355600D03*
X-419100Y136750D03*
X-381000Y111350D03*
X-368300Y136750D03*
X-406400Y111350D03*
X-393700Y136750D03*
X-196850Y-127000D03*
Y-50800D03*
Y-76200D03*
Y-101600D03*
Y0D03*
Y-25400D03*
Y25400D03*
X-95000Y-139600D03*
X254000Y-63500D03*
X228600D03*
X254000Y-38100D03*
X228600D03*
X254000Y-12700D03*
X228600D03*
X254000Y12700D03*
X228600D03*
X254000Y38100D03*
X342900Y-69850D03*
Y6350D03*
Y-19050D03*
Y-44450D03*
Y31750D03*
X368300Y6350D03*
Y-19050D03*
Y-44450D03*
Y31750D03*
X622300Y-25400D03*
Y25400D03*
Y50800D03*
Y76200D03*
X688800Y-144350D03*
X673100Y76200D03*
Y50800D03*
Y25400D03*
X723900Y-25400D03*
Y25400D03*
Y50800D03*
Y76200D03*
X774700D03*
Y50800D03*
Y25400D03*
G54D34*
G01X-431800Y111350D02*
X-442640Y100510D01*
G03X-444500Y96020I4490J-4490D01*
G01Y79850D01*
G01X-368300Y136750D02*
Y120650D01*
G01Y101600D02*
Y79850D01*
G01X-419100Y136750D02*
Y120650D01*
G01Y101600D02*
Y79850D01*
G01X-406400Y111350D02*
X-395560Y100510D01*
G02X-393700Y96020I-4490J-4490D01*
G01Y79850D01*
G01X-152500Y-140000D02*
X-163500D01*
G01X-162650Y69850D02*
X-149700D01*
G01X-177500Y170000D02*
Y158000D01*
G01Y190000D02*
Y202000D01*
G01X-132500Y-140000D02*
X-121000D01*
G01X-129700Y69850D02*
X-117950D01*
G01X-6600Y-213200D02*
Y-212950D01*
X-19050Y-200500D01*
G01X-16870Y-143350D02*
X-6350D01*
G01X-19050Y-189020D02*
Y-180500D01*
G01D02*
Y-171980D01*
G01Y-180500D02*
X-8530D01*
G01X-16870Y-28100D02*
X-6350D01*
G01X-28100Y2180D02*
Y12700D01*
G01D02*
Y23220D01*
G01X-36620Y12700D02*
X-28100D01*
G01D02*
X-19580D01*
G01X-28100Y-23220D02*
Y-12700D01*
G01D02*
Y-2180D01*
G01Y-12700D02*
X-19580D01*
G01X-48100Y12700D02*
X-54480D01*
G03X-56820Y11730I-3J-3300D01*
G02X-59140Y10770I-2319J2320D01*
G01X-59880D01*
G01X-12700Y32280D02*
Y40800D01*
G01D02*
Y49320D01*
G01X-23220Y40800D02*
X-12700D01*
G01D02*
X-2180D01*
G01X6000Y59850D02*
X-11750D01*
X-12700Y60800D01*
G01X-40000Y190000D02*
Y202000D01*
G01Y170000D02*
Y157000D01*
G01X12700Y-201470D02*
Y-188450D01*
G01X44450Y-212250D02*
Y-203730D01*
G01X33930Y-212250D02*
X44450D01*
G01D02*
X54970D01*
G01X12700Y-217950D02*
X780D01*
G02X-3710Y-216090I0J6350D01*
G01X-6600Y-213200D01*
G01X44450Y-232250D02*
G03X47420Y-239420I10140J0D01*
G01X53000Y-245000D01*
G01X70850Y-232250D02*
X44450D01*
G01X42400Y-192570D02*
Y-177800D01*
G01D02*
Y-163030D01*
G01X29380Y-177800D02*
X42400D01*
G01D02*
X55420D01*
G01X-6350Y-151870D02*
Y-143350D01*
G01D02*
Y-134830D01*
G01Y-143350D02*
X4170D01*
G01X25400Y-151870D02*
Y-143350D01*
G01D02*
Y-134830D01*
G01X14880Y-143350D02*
X25400D01*
G01D02*
X35920D01*
G01X47150Y-150220D02*
Y-139700D01*
G01X38630D02*
X47150D01*
G01D02*
X55670D01*
G01X12700Y-188450D02*
Y-175430D01*
G01X-2070Y-188450D02*
X12700D01*
G01D02*
X27470D01*
G01X25400Y-123350D02*
G03X15150Y-127590I-7J-14493D01*
G01X9400Y-133350D01*
G01X-6350Y-123350D02*
G02X3460Y-127420I-8J-13877D01*
G01X9400Y-133350D01*
G01X-6350Y-48100D02*
Y-48790D01*
G03X-4490Y-53280I6350J0D01*
G01X2000Y-59770D01*
G01X19050Y-60800D02*
X3030D01*
X2000Y-59770D01*
G01X28100Y-29570D02*
Y-19050D01*
G01D02*
Y-8530D01*
G01X19580Y-19050D02*
X28100D01*
G01D02*
X36620D01*
G01X-6350Y-36620D02*
Y-28100D01*
G01D02*
Y-19580D01*
G01Y-28100D02*
X4170D01*
G01X19050Y-49320D02*
Y-40800D01*
G01D02*
Y-32280D01*
G01X8530Y-40800D02*
X19050D01*
G01D02*
X29570D01*
G01X28100Y-4170D02*
Y6350D01*
G01D02*
Y16870D01*
G01X19580Y6350D02*
X28100D01*
G01D02*
X36620D01*
G01X60000Y-11000D02*
G03X53430Y-13720I0J-9295D01*
G01X48100Y-19050D01*
G01X12700Y19580D02*
Y28100D01*
G01D02*
Y36620D01*
G01X2180Y28100D02*
X12700D01*
G01D02*
X23220D01*
G01X12700Y50520D02*
Y57000D01*
G03X9850Y59850I-2850J0D01*
G01X6000D01*
G01X12700Y48100D02*
Y50520D01*
G01X107500Y-262500D02*
Y-251000D01*
G01Y-282500D02*
Y-293500D01*
G01X70850Y-212250D02*
Y-203730D01*
G01X60330Y-212250D02*
X70850D01*
G01X109600Y-228600D02*
X120650D01*
G01X93600D02*
X85690D01*
G03X82800Y-229800I0J-4080D01*
G02X76890Y-232250I-5913J5910D01*
G01X70850D01*
G01X71900Y-177800D02*
X68670Y-174570D01*
G02X66810Y-170080I4490J4490D01*
G01Y-155450D01*
G01X67150Y-139700D02*
Y-155110D01*
X66810Y-155450D01*
G01X107950Y3650D02*
X121000D01*
G01X107950Y-16350D02*
X123320D01*
G03X130200Y-13500I0J9730D01*
G01X129700Y38100D02*
X121990D01*
G02X116800Y40250I0J7340D01*
G01X86200Y146050D02*
Y164930D01*
G02X88900Y171450I9220J1D01*
G01X66200Y146050D02*
Y164930D01*
G03X63500Y171450I-9220J1D01*
G01X187500Y-67500D02*
X199500D01*
X200750Y-68750D01*
G01X187500Y-87500D02*
X199500D01*
X201000Y-86000D01*
G01X139700Y13500D02*
Y0D01*
G01D02*
Y-12700D01*
G02X135210Y-23540I-15330J0D01*
G01X133350Y-25400D01*
G03X129700Y-34210I8810J-8811D01*
G01Y-38100D01*
G01X130200Y22250D02*
Y13500D01*
G01X149200Y-13500D02*
Y-26100D01*
X149700Y-26600D01*
Y-38100D01*
G01Y38100D02*
Y52000D01*
G01X129700Y38100D02*
Y23500D01*
X130200Y23000D01*
Y22250D01*
G01X196850Y167800D02*
Y157400D01*
G02X192150Y146050I-16050J-2D01*
G01X171450Y167800D02*
Y157400D01*
G03X176150Y146050I16050J-2D01*
G01X171450Y187800D02*
X157000D01*
G01X211100Y169050D02*
X198100D01*
X196850Y167800D01*
G01X157200Y169050D02*
X170200D01*
X171450Y167800D01*
G01X260350Y-117950D02*
Y-133350D01*
G01Y-97950D02*
Y-86200D01*
G01X234950Y-97950D02*
Y-86200D01*
G01X209550Y-115950D02*
X230120D01*
G02X234950Y-117950I1J-6830D01*
G01X212000Y-89000D02*
X209550Y-91450D01*
Y-99950D01*
G01X196850Y187800D02*
X211000D01*
G01X290000Y52500D02*
Y63500D01*
G01Y32500D02*
Y19050D01*
G01X480000Y167500D02*
Y155000D01*
G01Y187500D02*
Y198500D01*
G01X673100Y50800D02*
X622300D01*
G01X673100Y25400D02*
X622300D01*
G01X695000Y-100000D02*
Y-111000D01*
G01Y-69000D02*
Y-80000D01*
G01X774700Y50800D02*
X723900D01*
G01X774700Y25400D02*
X723900D01*
G01X777400Y-260350D02*
X766400D01*
G01X797400D02*
X808400D01*
G54D25*
X42400Y-177800D03*
X71900D03*
G54D16*
X-444500Y200250D03*
X-330200D03*
G54D35*
G01X130200Y22250D02*
X131490Y23540D01*
G02X135980Y25400I4490J-4490D01*
G01X146050D01*
G02X149200Y22250I0J-3150D01*
G01Y13500D01*
G01X393700Y-237000D02*
Y-285750D01*
G01X419100Y-237000D02*
Y-298450D01*
G54D26*
X109600Y-228600D03*
X93600D03*
X192150Y146050D03*
X176150D03*
G54D17*
X-464700Y169750D03*
X-309900D03*
G54D36*
G01X-444500Y51330D02*
Y59850D01*
G01X-455020D02*
X-444500D01*
G01D02*
X-433980D01*
G01X-368300Y51330D02*
Y59850D01*
G01X-378820D02*
X-368300D01*
G01D02*
X-357780D01*
G01X-393700Y51330D02*
Y59850D01*
G01X-404220D02*
X-393700D01*
G01D02*
X-383180D01*
G01X-419100Y51330D02*
Y59850D01*
G01X-429620D02*
X-419100D01*
G01D02*
X-408580D01*
G01X-304800Y43930D02*
Y54950D01*
G01X-326320D02*
X-304800D01*
G01D02*
X-283280D01*
G54D18*
X-304800D03*
Y97450D03*
G54D27*
X130200Y-13500D03*
X149200D03*
Y13500D03*
X139700D03*
G54D37*
G01X234950Y-117950D02*
X260350D01*
G54D19*
X-342900Y136750D03*
X-196850Y-152400D03*
X-95000Y-165000D03*
X228600Y38100D03*
X368300Y-69850D03*
X688800Y-169750D03*
G54D28*
X130200Y13500D03*
G54D29*
X209550Y-115950D03*
Y-99950D03*
M02*
