M48
METRIC,TZ
T01C.3
T02C.6
T03C.8
T04C1.
T05C1.4
T06C1.6
T07C3.2
T08C3.4
;LEADER: 12 
;HEADER: 
;CODE  : ASCII 
;FILE  : FIBER-E1_01v1-1-4.drl for  ... layers TOP and BOTTOM
;DESIGN: FIBER-E1_01v1.brd
;T01 Holesize 1. = 0.300000 Tolerance = +0.000000/-0.000000 PLATED MM Quantity = 151
;T02 Holesize 2. = 0.600000 Tolerance = +0.000000/-0.000000 PLATED MM Quantity = 8
;T03 Holesize 3. = 0.800000 Tolerance = +0.000000/-0.000000 PLATED MM Quantity = 36
;T04 Holesize 4. = 1.000000 Tolerance = +0.000000/-0.000000 PLATED MM Quantity = 56
;T05 Holesize 5. = 1.400000 Tolerance = +0.000000/-0.000000 PLATED MM Quantity = 4
;T06 Holesize 6. = 1.600000 Tolerance = +0.000000/-0.000000 PLATED MM Quantity = 2
;T07 Holesize 7. = 3.200000 Tolerance = +0.000000/-0.000000 PLATED MM Quantity = 4
;T08 Holesize 8. = 3.400000 Tolerance = +0.000000/-0.000000 PLATED MM Quantity = 2
%
G90
T01
X-40000Y159250
X-177500Y200750
X-165100Y88740
X-162650Y69850
X157200Y169050
X-78650Y82550
X-47400Y109250
X-65700Y69850
X290000Y21750
X193000Y-32250
Y24750
X2000Y-59770
X6000Y59850
X-59880Y10770
X-148750Y0
X209550Y-87750
X116800Y40250
X419100Y-236150
Y-298450
X51150Y-243000
X279400Y-247650
X480000Y198250
X695000Y-69250
X808150Y-260350
X349250Y-195180
X361950
X469900Y-203200
Y-215900
X577850Y-203200
Y-215900
X773500Y-209550
X211100Y169050
X393700Y-236150
Y-285750
X-298450Y-299650
Y-182950
X-463550Y-138970
X-432410Y12660
R02X50800
X-286360
X-476860
X-431800Y-76200
X-381000Y-241300
Y-76200
X-330200
X-285750
X-476250
X-450850Y-138970
X-400050
X-412750
X-349250
X-361950
X-298450
X-311150
X-450850Y-298450
X-381000
X-476250Y-184150
X-444500Y-234950
X-381000Y-171450
X-298450Y-241300
X59850Y0
X-59910Y-6760
X-163250Y-140000
X107500Y-293250
X163900Y-292100
X-12700Y-279400
Y-266700
X-6600Y-213200
X120650Y-228600
X-46350Y-187450
X9400Y-133350
X66810Y-155450
X241300Y-190500
X279400
X203200
X184150Y-177800
X222250Y-133350
X298450Y-177800
X260350Y-133350
X-25400Y-120650
X325550Y-247650
X-121750Y-140000
X107500Y-251750
X200750Y-68750
X290000Y63250
X-40000Y200750
X-177500Y157510
X480000Y155000
X695000Y-110750
X766650Y-260350
X41000Y-292100
X69850Y-286950
X-122350Y-234950
X41000Y-256400
X31750Y-158750
X50800
X19050Y-171450
X50800Y-196850
X0Y-171450
X19050Y-158750
X63500Y-196850
X-12700Y-165100
X31750Y-196850
X233250Y-247650
X218300Y-230400
X203200Y-213400
X281810Y-211950
X298450Y-224950
X338100Y-224820
X373240
X495300Y-203200
Y-215900
X603250Y-203200
Y-215900
X626450Y-133350
X726020
X-118300Y-63700
X260350Y-86200
X234950
X670950Y-73000
Y-92100
X772550
Y-73000
X-105250Y0
X121200Y2400
X139700Y0
X-117950Y69850
X148450Y51350
X-78650Y107950
X157200Y186550
X211100
X0Y-158750
X91290Y54750
X0Y0
X13000Y-13000
R02X-13000
Y0
X13000Y0
Y13000
R02X-13000
X-579200Y200250
X-571000Y220050
Y180450
X-551200Y172250
X-531400Y220050
X-523200Y200250
X-531400Y180450
X-551200Y228250
T02
X-127000Y171450
X-101600
Y196850
X-127000
X63500Y171450
X88900
Y196850
X63500
T03
X-152400Y171450
X-76200
Y196850
X-152400
X38100Y171450
X114300
Y196850
X38100
X419100Y241300
R07X-25400
Y165100
R07X25400
X825500Y-285750
X850900
X825500Y-184150
X850900
X825500Y-133350
X850900
X825500Y-234950
X850900
X825500Y-82550
X850900
X825500Y-31750
X850900
T04
X-95000Y-165000
Y-139600
X-196850Y-152400
R07Y25400
X228600Y38100
X254000
X228600Y12700
X254000
X228600Y-12700
X254000
X228600Y-38100
X254000
X228600Y-63500
X254000
X-342900Y136750
X-355600Y111350
X-368300Y136750
X-381000Y111350
X-393700Y136750
X-406400Y111350
X-419100Y136750
X-431800Y111350
X368300Y-69850
X342900
X368300Y-44450
X342900
X368300Y-19050
X342900
X368300Y6350
X342900
X368300Y31750
X342900
X688800Y-169750
Y-144350
X673100Y-25400
Y25400
Y50800
Y76200
X622300
R02Y-25400
Y-25400
X774700
Y25400
R02Y25400
X723900
R02Y-25400
Y-25400
T05
X622300Y208350
R03X50800
T06
X-309900Y169750
X-464700
T07
X-551200Y-279750
Y200250
X948800
Y-279750
T08
X-330200Y200250
X-444500
M30
