G04 ================== begin FILE IDENTIFICATION RECORD ==================*
G04 Layout Name:  D:/Project/Circuit/AVANT/FIBER-E1/FIBER-E1_01v2/pcb/FIBER-E1_01v2.brd*
G04 Film Name:    GND*
G04 File Format:  Gerber RS274X*
G04 File Origin:  Cadence Allegro 16.6-2015-S073*
G04 Origin Date:  Tue Nov 13 09:29:43 2018*
G04 *
G04 Layer:  ETCH/GND*
G04 Layer:  PIN/GND*
G04 Layer:  VIA CLASS/GND*
G04 *
G04 Offset:    (0.000 0.000)*
G04 Mirror:    No*
G04 Mode:      Positive*
G04 Rotation:  0*
G04 FullContactRelief:  No*
G04 UndefLineWidth:     0.000*
G04 ================== end FILE IDENTIFICATION RECORD ====================*
%FSLAX34Y34*MOMM*%
%IR0*IPPOS*OFA0.00000B0.00000*MIA0B0*SFA1.00000B1.00000*%
%ADD17C,2.1*%
%ADD16C,1.3*%
%ADD12C,1.5*%
%ADD11C,3.4*%
%ADD15C,1.7*%
%ADD13R,1.5X1.5*%
%ADD14R,1.7X1.7*%
%ADD10C,.8*%
%ADD18C,.5*%
%ADD20C,2.004*%
%ADD24C,2.104*%
%ADD21C,2.204*%
%ADD19C,1.504*%
%ADD22C,1.704*%
%ADD23C,1.804*%
%ADD25C,1.904*%
G75*
%LPD*%
G75*
G36*
G01X-482600Y57150D02*
G02X-476250Y63500I6350J0D01*
G01X-285750D01*
G02X-279400Y57150I0J-6350D01*
G01Y-209550D01*
G03X-273050Y-215900I6350J0D01*
G02X-266700Y-222250I0J-6350D01*
G01Y-298450D01*
G02X-273050Y-304800I-6350J0D01*
G01X-476250D01*
G02X-482600Y-298450I0J6350D01*
G01Y57150D01*
G37*
G36*
G01X606900Y-19050D02*
X610560D01*
G02X611020Y-19160I4J-1001D01*
G01X611130Y-19220D01*
X611310Y-19380D01*
X611380Y-19480D01*
X612320Y-20830D01*
G02X612490Y-21270I-822J-570D01*
G01X612520Y-21520D01*
X612440Y-21750D01*
Y-21760D01*
G03X632170I9865J-3639D01*
G01X632160Y-21750D01*
X632120Y-21630D01*
X632110Y-21530D01*
G02X632280Y-20830I990J130D01*
G01X633220Y-19480D01*
G02X633580Y-19160I825J-566D01*
G02X634040Y-19050I456J-891D01*
G01X661360D01*
G02X661820Y-19160I4J-1001D01*
G01X661930Y-19220D01*
X662110Y-19380D01*
X662180Y-19480D01*
X663120Y-20830D01*
G02X663290Y-21270I-822J-570D01*
G01X663320Y-21520D01*
X663240Y-21750D01*
Y-21760D01*
G03X682970I9865J-3639D01*
G01X682960Y-21750D01*
X682920Y-21630D01*
X682910Y-21530D01*
G02X683080Y-20830I990J130D01*
G01X684020Y-19480D01*
G02X684380Y-19160I825J-566D01*
G02X684840Y-19050I456J-891D01*
G01X712160D01*
G02X712620Y-19160I4J-1001D01*
G01X712730Y-19220D01*
X712910Y-19380D01*
X712980Y-19480D01*
X713920Y-20830D01*
G02X714090Y-21270I-822J-570D01*
G01X714120Y-21520D01*
X714040Y-21750D01*
Y-21760D01*
G03X733770I9865J-3639D01*
G01X733760Y-21750D01*
X733720Y-21630D01*
X733710Y-21530D01*
G02X733880Y-20830I990J130D01*
G01X734820Y-19480D01*
G02X735180Y-19160I825J-566D01*
G02X735640Y-19050I456J-891D01*
G01X762960D01*
G02X763420Y-19160I4J-1001D01*
G01X763530Y-19220D01*
X763710Y-19380D01*
X763780Y-19480D01*
X764720Y-20830D01*
G02X764890Y-21270I-822J-570D01*
G01X764920Y-21520D01*
X764840Y-21750D01*
Y-21760D01*
G03X784570I9865J-3639D01*
G01X784560Y-21750D01*
X784520Y-21630D01*
X784510Y-21530D01*
G02X784680Y-20830I990J130D01*
G01X785620Y-19480D01*
G02X785980Y-19160I825J-566D01*
G02X786440Y-19050I456J-891D01*
G01X859950D01*
G02X869950Y-29050I0J-10000D01*
G01Y-294800D01*
G02X859950Y-304800I-10000J0D01*
G01X427570D01*
G02X426740Y-304370I-7J1002D01*
G02X426710Y-304320I843J540D01*
G01X425690Y-302630D01*
X425670Y-302130D01*
X425790Y-301890D01*
G03X412410I-6690J3440D01*
G01X412530Y-302130D01*
X412510Y-302630D01*
X411490Y-304320D01*
G02X411460Y-304370I-872J489D01*
G02X410630Y-304800I-823J572D01*
G01X-180500D01*
G02X-190500Y-294800I0J10000D01*
G01Y-161260D01*
X-190420Y-160870D01*
X-190250Y-160590D01*
X-190120Y-160480D01*
G03X-190140Y-144300I-6731J8082D01*
G02X-190500Y-143530I640J768D01*
G01Y-135860D01*
X-190420Y-135470D01*
X-190250Y-135190D01*
X-190120Y-135080D01*
G03X-190140Y-118900I-6731J8082D01*
G02X-190500Y-118130I640J768D01*
G01Y-110460D01*
X-190420Y-110070D01*
X-190250Y-109790D01*
X-190120Y-109680D01*
G03X-190140Y-93500I-6731J8082D01*
G02X-190500Y-92730I640J768D01*
G01Y-85060D01*
X-190420Y-84670D01*
X-190250Y-84390D01*
X-190120Y-84280D01*
G03X-190140Y-68100I-6731J8082D01*
G02X-190500Y-67330I640J768D01*
G01Y-59660D01*
X-190420Y-59270D01*
X-190250Y-58990D01*
X-190120Y-58880D01*
G03X-190140Y-42700I-6731J8082D01*
G02X-190500Y-41930I640J768D01*
G01Y-34260D01*
X-190420Y-33870D01*
X-190250Y-33590D01*
X-190120Y-33480D01*
G03X-190140Y-17300I-6731J8082D01*
G02X-190500Y-16530I640J768D01*
G01Y-8860D01*
X-190420Y-8470D01*
X-190250Y-8190D01*
X-190120Y-8080D01*
G03X-190140Y8100I-6731J8082D01*
G02X-190500Y8870I640J768D01*
G01Y16540D01*
X-190420Y16930D01*
X-190250Y17210D01*
X-190120Y17320D01*
G03X-190140Y33500I-6731J8082D01*
G02X-190500Y34270I640J768D01*
G01Y218600D01*
G02X-180500Y228600I10000J0D01*
G01X491650D01*
G02X501650Y218600I0J-10000D01*
G01Y143350D01*
G02X492400Y133370I-10009J0D01*
G02X492320I-40J1000D01*
G01X429100D01*
G03X406380Y110650I0J-22720D01*
G01Y-148750D01*
G03X429100Y-171470I22720J0D01*
G01X574200D01*
G03X596920Y-148750I0J22720D01*
G01Y-28380D01*
G02Y-28300I1000J40D01*
G02X606900Y-19050I9980J-759D01*
G37*
G36*
G01X268470Y232460D02*
G02X272000Y236000I6026J-2479D01*
G01X266700Y241920D01*
X261400Y236000D01*
G02X264930Y232460I-2496J-6019D01*
G03X268470I1770J1770D01*
G37*
G36*
G01X243070D02*
G02X246600Y236000I6026J-2479D01*
G01X241300Y241920D01*
X236000Y236000D01*
G02X239530Y232460I-2496J-6019D01*
G03X243070I1770J1770D01*
G37*
G36*
G01X293870D02*
G02X297400Y236000I6026J-2479D01*
G01X292100Y241920D01*
X286800Y236000D01*
G02X290330Y232460I-2496J-6019D01*
G03X293870I1770J1770D01*
G37*
G36*
G01X319270D02*
G02X322800Y236000I6026J-2479D01*
G01X317500Y241920D01*
X312200Y236000D01*
G02X315730Y232460I-2496J-6019D01*
G03X319270I1770J1770D01*
G37*
G36*
G01X344670D02*
G02X348200Y236000I6026J-2479D01*
G01X342900Y241920D01*
X337600Y236000D01*
G02X341130Y232460I-2496J-6019D01*
G03X344670I1770J1770D01*
G37*
G36*
G01X370070D02*
G02X373600Y236000I6026J-2479D01*
G01X368300Y241920D01*
X363000Y236000D01*
G02X366530Y232460I-2496J-6019D01*
G03X370070I1770J1770D01*
G37*
G36*
G01X395470D02*
G02X399000Y236000I6026J-2479D01*
G01X393700Y241920D01*
X388400Y236000D01*
G02X391930Y232460I-2496J-6019D01*
G03X395470I1770J1770D01*
G37*
G36*
G01X420480Y226730D02*
G02X426600Y233800I11872J-4093D01*
G01X419100Y241920D01*
X411600Y233800D01*
G02X417720Y226730I-5752J-11163D01*
G03X420480I1380J2080D01*
G37*
%LPC*%
G75*
G36*
G01X207320Y-81930D02*
G03X208620Y-82280I842J539D01*
G02X205680Y-93070I3381J-6717D01*
G03X204380Y-92720I-842J-539D01*
G02X207320Y-81930I-3381J6717D01*
G37*
G36*
G01X356870Y-201490D02*
G03X354130I-1370J-1465D01*
G02Y-190510I-5130J5490D01*
G03X356870I1370J1465D01*
G02Y-201490I5130J-5490D01*
G37*
G36*
G01X583450Y-208220D02*
G03Y-210880I1492J-1330D01*
G02X572250I-5600J-5020D01*
G03Y-208220I-1492J1330D01*
G02X583450I5600J5020D01*
G37*
G36*
G01X475500D02*
G03Y-210880I1492J-1330D01*
G02X464300I-5600J-5020D01*
G03Y-208220I-1492J1330D01*
G02X475500I5600J5020D01*
G37*
G36*
G01X-7100Y-271720D02*
G03Y-274380I1492J-1330D01*
G02X-18300I-5600J-5020D01*
G03Y-271720I-1492J1330D01*
G02X-7100I5600J5020D01*
G37*
G36*
G01X-161420Y181470D02*
X-143380D01*
G02X-142380Y180470I0J-1000D01*
G01Y162430D01*
G02X-143380Y161430I-1000J0D01*
G01X-161420D01*
G02X-162420Y162430I0J1000D01*
G01Y180470D01*
G02X-161420Y181470I1000J0D01*
G37*
G36*
G01X-105020Y-153980D02*
X-84980D01*
G02X-83980Y-154980I0J-1000D01*
G01Y-175020D01*
G02X-84980Y-176020I-1000J0D01*
G01X-105020D01*
G02X-106020Y-175020I0J1000D01*
G01Y-154980D01*
G02X-105020Y-153980I1000J0D01*
G37*
G36*
G01X29080Y181470D02*
X47120D01*
G02X48120Y180470I0J-1000D01*
G01Y162430D01*
G02X47120Y161430I-1000J0D01*
G01X29080D01*
G02X28080Y162430I0J1000D01*
G01Y180470D01*
G02X29080Y181470I1000J0D01*
G37*
G36*
G01X358280Y-58830D02*
X378320D01*
G02X379320Y-59830I0J-1000D01*
G01Y-79870D01*
G02X378320Y-80870I-1000J0D01*
G01X358280D01*
G02X357280Y-79870I0J1000D01*
G01Y-59830D01*
G02X358280Y-58830I1000J0D01*
G37*
G36*
G01X678780Y-158730D02*
X698820D01*
G02X699820Y-159730I0J-1000D01*
G01Y-179770D01*
G02X698820Y-180770I-1000J0D01*
G01X678780D01*
G02X677780Y-179770I0J1000D01*
G01Y-159730D01*
G02X678780Y-158730I1000J0D01*
G37*
G36*
G01X54170Y-4930D02*
G02X65660Y-4780I5682J4929D01*
G03X65680Y-6070I774J-633D01*
G02X54190Y-6220I-5682J-4929D01*
G03X54170Y-4930I-774J633D01*
G37*
G54D20*
X-152400Y196850D03*
X-76200D03*
Y171450D03*
X38100Y196850D03*
X114300D03*
Y171450D03*
X850900Y-285750D03*
Y-234950D03*
Y-133350D03*
Y-184150D03*
Y-82550D03*
Y-31750D03*
G54D24*
X228600Y-63500D03*
X254000Y-38100D03*
X228600D03*
X254000Y-12700D03*
X228600D03*
X254000Y12700D03*
X228600D03*
Y38100D03*
X342900Y-69850D03*
Y6350D03*
Y-19050D03*
Y-44450D03*
Y31750D03*
G54D21*
X-95000Y-139600D03*
X254000Y-63500D03*
Y38100D03*
X368300Y6350D03*
Y-19050D03*
Y-44450D03*
Y31750D03*
X688800Y-144350D03*
G54D19*
X-163500Y-140000D03*
X-162650Y69850D03*
X-165100Y88740D03*
X-177500Y202000D03*
X-148750Y0D03*
X-46350Y-187450D03*
X-25400Y-120650D03*
X-65700Y69850D03*
X-78650Y82550D03*
X-47150Y109000D03*
X-40000Y157000D03*
X53000Y-245000D03*
X-6600Y-213200D03*
X9400Y-133350D03*
X107500Y-293500D03*
X120650Y-228600D03*
X66810Y-155450D03*
X116800Y40250D03*
X162000Y-293000D03*
X184150Y-177800D03*
X193000Y-32250D03*
Y25000D03*
X157200Y169050D03*
X260350Y-133350D03*
X222250D03*
X203200Y-190500D03*
X241300D03*
X211100Y169050D03*
X279400Y-247650D03*
X298450Y-177800D03*
X279400Y-190500D03*
X290000Y19050D03*
X393700Y-285750D03*
Y-237000D03*
X419100D03*
X480000Y198500D03*
X695000Y-69000D03*
X808400Y-260350D03*
X772750Y-209550D03*
X6000Y59850D03*
X-59880Y10770D03*
X-59910Y-6760D03*
X2000Y-59770D03*
G54D22*
X-101600Y196850D03*
X-127000D03*
Y171450D03*
X88900Y196850D03*
X63500Y171450D03*
G54D23*
X-101600D03*
X63500Y196850D03*
X88900Y171450D03*
G54D25*
X241300Y165100D03*
X266700D03*
X292100D03*
X317500D03*
X342900D03*
X368300D03*
X393700D03*
X419100D03*
X825500Y-285750D03*
Y-234950D03*
Y-133350D03*
Y-184150D03*
Y-82550D03*
Y-31750D03*
%LPD*%
G75*
G54D10*
X-450850Y-298450D03*
X-444500Y-234950D03*
X-476250Y-184150D03*
X-450850Y-138970D03*
X-463550D03*
X-476250Y-76200D03*
X-431800D03*
X-476860Y12660D03*
X-432410D03*
X-381000Y-298450D03*
Y-241300D03*
Y-171450D03*
X-361950Y-138970D03*
X-412750D03*
X-400050D03*
X-381000Y-76200D03*
X-381610Y12660D03*
X-298450Y-301000D03*
Y-241300D03*
X-311150Y-138970D03*
X-298450D03*
X-349250D03*
X-298450Y-182000D03*
X-330200Y-76200D03*
X-330810Y12660D03*
X-285750Y-76200D03*
X-286360Y12660D03*
X-177500Y158000D03*
X-123000Y-234950D03*
X-121000Y-140000D03*
X-118300Y-63700D03*
X-105250Y0D03*
X-117950Y69850D03*
X-12700Y-165100D03*
X-15000Y0D03*
X-78650Y107950D03*
X-40000Y202000D03*
X41000Y-292100D03*
X31750Y-196850D03*
X50800D03*
X41000Y-256400D03*
X0Y-158750D03*
X19050D03*
X0Y-171450D03*
X19050D03*
X50800Y-158750D03*
X31750D03*
X0Y-15000D03*
X15000Y0D03*
X0Y15000D03*
Y0D03*
X69850Y-287700D03*
X63500Y-196850D03*
X107500Y-251000D03*
X121000Y3650D03*
X91000Y55000D03*
X139700Y0D03*
X149700Y52000D03*
X157000Y187800D03*
X218300Y-233000D03*
X232000Y-247650D03*
X201000Y-213200D03*
X234950Y-86200D03*
X260350D03*
X200750Y-68750D03*
X211000Y187800D03*
X337000Y-226220D03*
X298450Y-224950D03*
X281810Y-211950D03*
X327000Y-247650D03*
X290000Y63500D03*
X375000Y-226220D03*
X495300Y-215900D03*
Y-203200D03*
X480000Y155000D03*
X603250Y-215900D03*
Y-203200D03*
X626450Y-133350D03*
X670950Y-92100D03*
Y-73000D03*
X726020Y-133350D03*
X695000Y-111000D03*
X766400Y-260350D03*
X772550Y-73000D03*
Y-92100D03*
G54D11*
X-444500Y200250D03*
X-330200D03*
G54D12*
X-152400Y196850D03*
X-76200D03*
Y171450D03*
X38100Y196850D03*
X114300D03*
Y171450D03*
X241300Y241300D03*
X266700D03*
X292100D03*
X317500D03*
X393700D03*
X368300D03*
X342900D03*
X850900Y-285750D03*
Y-234950D03*
Y-133350D03*
Y-184150D03*
Y-82550D03*
Y-31750D03*
G54D13*
X-152400Y171450D03*
X38100D03*
X419100Y241300D03*
G54D14*
X-95000Y-165000D03*
X368300Y-69850D03*
X688800Y-169750D03*
G54D15*
X-95000Y-139600D03*
X254000Y-63500D03*
Y38100D03*
X368300Y6350D03*
Y-19050D03*
Y-44450D03*
Y31750D03*
X688800Y-144350D03*
G54D16*
X-101600Y171450D03*
X63500Y196850D03*
X88900Y171450D03*
G54D17*
X622300Y208350D03*
X673100D03*
X723900D03*
G54D18*
G01X-152400Y185830D02*
Y196850D01*
G01D02*
Y207870D01*
G01X-163420Y196850D02*
X-152400D01*
G01D02*
X-141380D01*
G01X-152400Y160430D02*
Y171450D01*
G01D02*
Y182470D01*
G01X-163420Y171450D02*
X-152400D01*
G01D02*
X-141380D01*
G01X-95000Y-151620D02*
Y-139600D01*
G01D02*
Y-127580D01*
G01X-107020Y-139600D02*
X-95000D01*
G01D02*
X-82980D01*
G01X-95000Y-177020D02*
Y-165000D01*
G01D02*
Y-152980D01*
G01X-107020Y-165000D02*
X-95000D01*
G01D02*
X-82980D01*
G01X-87220Y171450D02*
X-76200D01*
G01X-87220Y196850D02*
X-76200D01*
G01X-101600Y161430D02*
Y171450D01*
G01D02*
Y181470D01*
G01X-111620Y171450D02*
X-101600D01*
G01D02*
X-91580D01*
G01X-76200Y160430D02*
Y171450D01*
G01D02*
Y182470D01*
G01Y171450D02*
X-65180D01*
G01X-76200Y185830D02*
Y196850D01*
G01D02*
Y207870D01*
G01Y196850D02*
X-65180D01*
G01X53480D02*
X63500D01*
G01X38100Y185830D02*
Y196850D01*
G01D02*
Y207870D01*
G01X27080Y196850D02*
X38100D01*
G01D02*
X49120D01*
G01X38100Y160430D02*
Y171450D01*
G01D02*
Y182470D01*
G01X27080Y171450D02*
X38100D01*
G01D02*
X49120D01*
G01X88900Y161430D02*
Y171450D01*
G01D02*
Y181470D01*
G01X78880Y171450D02*
X88900D01*
G01D02*
X98920D01*
G01X63500Y186830D02*
Y196850D01*
G01D02*
Y206870D01*
G01Y196850D02*
X73520D01*
G01X114300Y160430D02*
Y171450D01*
G01D02*
Y182470D01*
G01X103280Y171450D02*
X114300D01*
G01D02*
X125320D01*
G01X114300Y185830D02*
Y196850D01*
G01D02*
Y207870D01*
G01X103280Y196850D02*
X114300D01*
G01D02*
X125320D01*
G01X254000Y-75520D02*
Y-63500D01*
G01D02*
Y-51480D01*
G01X241980Y-63500D02*
X254000D01*
G01D02*
X266020D01*
G01X254000Y26080D02*
Y38100D01*
G01D02*
Y50120D01*
G01X241980Y38100D02*
X254000D01*
G01D02*
X266020D01*
G01X241300Y241300D02*
Y222250D01*
G01X317500Y241300D02*
Y222250D01*
G01X292100Y241300D02*
Y222250D01*
G01X266700Y241300D02*
Y222250D01*
G01X368300Y-56470D02*
Y-44450D01*
G01Y-81870D02*
Y-69850D01*
G01D02*
Y-57830D01*
G01X356280Y-69850D02*
X368300D01*
G01D02*
X380320D01*
G01X368300Y-44450D02*
Y-32430D01*
G01X356280Y-44450D02*
X368300D01*
G01D02*
X380320D01*
G01X368300Y-31070D02*
Y-19050D01*
G01D02*
Y-7030D01*
G01X356280Y-19050D02*
X368300D01*
G01D02*
X380320D01*
G01X368300Y-5670D02*
Y6350D01*
G01D02*
Y18370D01*
G01X356280Y6350D02*
X368300D01*
G01D02*
X380320D01*
G01X368300Y19730D02*
Y31750D01*
G01D02*
Y43770D01*
G01X356280Y31750D02*
X368300D01*
G01D02*
X380320D01*
G01X393700Y241300D02*
Y222250D01*
G01X368300Y241300D02*
Y222250D01*
G01X342900Y241300D02*
Y222250D01*
G01X419100Y241300D02*
Y222250D01*
G01X676780Y-144350D02*
X688800D01*
G01X676780Y-169750D02*
X688800D01*
G01Y-156370D02*
Y-144350D01*
G01D02*
Y-132330D01*
G01Y-144350D02*
X700820D01*
G01X688800Y-181770D02*
Y-169750D01*
G01D02*
Y-157730D01*
G01Y-169750D02*
X700820D01*
G01X850900Y-296770D02*
Y-285750D01*
G01D02*
Y-274730D01*
G01X839880Y-285750D02*
X850900D01*
G01D02*
X861920D01*
G01X850900Y-195170D02*
Y-184150D01*
G01Y-245970D02*
Y-234950D01*
G01D02*
Y-223930D01*
G01X839880Y-234950D02*
X850900D01*
G01D02*
X861920D01*
G01X850900Y-184150D02*
Y-173130D01*
G01X839880Y-184150D02*
X850900D01*
G01D02*
X861920D01*
G01X850900Y-144370D02*
Y-133350D01*
G01D02*
Y-122330D01*
G01X839880Y-133350D02*
X850900D01*
G01D02*
X861920D01*
G01X850900Y-93570D02*
Y-82550D01*
G01D02*
Y-71530D01*
G01X839880Y-82550D02*
X850900D01*
G01D02*
X861920D01*
G01X850900Y-42770D02*
Y-31750D01*
G01D02*
Y-20730D01*
G01X839880Y-31750D02*
X850900D01*
G01D02*
X861920D01*
M02*
