G04 ================== begin FILE IDENTIFICATION RECORD ==================*
G04 Layout Name:  D:/Project/Circuit/FIBER-E1/01v1/pcb/FIBER-E1_01v1.brd*
G04 Film Name:    MASK_TOP*
G04 File Format:  Gerber RS274X*
G04 File Origin:  Cadence Allegro 16.6-2015-S073*
G04 Origin Date:  Wed Oct 12 15:12:10 2016*
G04 *
G04 Layer:  VIA CLASS/SOLDERMASK_TOP*
G04 Layer:  PIN/SOLDERMASK_TOP*
G04 Layer:  PACKAGE GEOMETRY/SOLDERMASK_TOP*
G04 *
G04 Offset:    (0.000 0.000)*
G04 Mirror:    No*
G04 Mode:      Positive*
G04 Rotation:  0*
G04 FullContactRelief:  No*
G04 UndefLineWidth:     0.000*
G04 ================== end FILE IDENTIFICATION RECORD ====================*
%FSLAX34Y34*MOMM*%
%IR0*IPPOS*OFA0.00000B0.00000*MIA0B0*SFA1.00000B1.00000*%
%ADD46O,1.3X.8*%
%ADD32C,2.*%
%ADD47R,1.3X.8*%
%ADD35O,.35X1.7*%
%ADD50C,2.3*%
%ADD36O,1.7X.35*%
%ADD31C,1.5*%
%ADD25O,1.8X.8*%
%ADD22O,2.11X.94*%
%ADD18C,2.5*%
%ADD17C,3.4*%
%ADD37R,1.7X.35*%
%ADD26C,1.7*%
%ADD10C,6.2*%
%ADD33O,.75X1.8*%
%ADD30R,1.8X.8*%
%ADD23R,2.11X.94*%
%ADD34O,1.8X.75*%
%ADD16C,1.9*%
%ADD11C,7.4*%
%ADD45R,2.3X2.3*%
%ADD38R,1.8X.75*%
%ADD27R,1.7X1.7*%
%ADD21R,1.9X1.9*%
%ADD12O,2.X1.2*%
%ADD19R,2.X1.2*%
%ADD24R,2.2X2.1*%
%ADD13R,3.X2.2*%
%ADD41R,4.X2.2*%
%ADD14R,2.2X3.*%
%ADD20R,1.6X1.1*%
%ADD28R,1.1X1.6*%
%ADD40R,1.7X2.2*%
%ADD42R,1.22X1.08*%
%ADD43R,2.5X1.72*%
%ADD39R,1.65X1.4*%
%ADD29R,1.4X1.65*%
%ADD15R,3.43X3.25*%
%ADD48R,1.9X1.9*%
%ADD44R,2.6X2.65*%
%ADD49R,2.475X2.3*%
G75*
%LPD*%
G75*
G36*
G01X-2000Y10000D02*
X-23000D01*
Y3000D01*
X-2000D01*
Y10000D01*
G37*
G36*
G01Y-3000D02*
X-23000D01*
Y-10000D01*
X-2000D01*
Y-3000D01*
G37*
G36*
G01Y-16000D02*
X-23000D01*
Y-23000D01*
X-2000D01*
Y-16000D01*
G37*
G36*
G01X-16000Y-2000D02*
X-23000D01*
Y-23000D01*
X-16000D01*
Y-2000D01*
G37*
G36*
G01Y23000D02*
X-23000D01*
Y2000D01*
X-16000D01*
Y23000D01*
G37*
G36*
G01X-2000D02*
X-23000D01*
Y16000D01*
X-2000D01*
Y23000D01*
G37*
G36*
G01X23000Y10000D02*
X2000D01*
Y3000D01*
X23000D01*
Y10000D01*
G37*
G36*
G01Y-3000D02*
X2000D01*
Y-10000D01*
X23000D01*
Y-3000D01*
G37*
G36*
G01X-3000Y-2000D02*
X-10000D01*
Y-23000D01*
X-3000D01*
Y-2000D01*
G37*
G36*
G01Y23000D02*
X-10000D01*
Y2000D01*
X-3000D01*
Y23000D01*
G37*
G36*
G01X10000Y-2000D02*
X3000D01*
Y-23000D01*
X10000D01*
Y-2000D01*
G37*
G36*
G01Y23000D02*
X3000D01*
Y2000D01*
X10000D01*
Y23000D01*
G37*
G36*
G01X23000D02*
X16000D01*
Y2000D01*
X23000D01*
Y23000D01*
G37*
G36*
G01Y-16000D02*
X2000D01*
Y-23000D01*
X23000D01*
Y-16000D01*
G37*
G36*
G01Y-2000D02*
X16000D01*
Y-23000D01*
X23000D01*
Y-2000D01*
G37*
G36*
G01Y23000D02*
X2000D01*
Y16000D01*
X23000D01*
Y23000D01*
G37*
G54D10*
X-551200Y-279750D03*
X948800D03*
Y200250D03*
G54D20*
X-298450Y-269650D03*
Y-289150D03*
Y-212950D03*
Y-193450D03*
X69850Y-276450D03*
Y-256950D03*
X77500Y35250D03*
Y54750D03*
X180000Y-32250D03*
Y-12750D03*
Y5250D03*
Y24750D03*
X393700Y-225650D03*
Y-206150D03*
X419100Y-225650D03*
Y-206150D03*
X615950Y-79150D03*
Y-98650D03*
X717550Y-79150D03*
Y-98650D03*
G54D11*
X-551200Y200250D03*
G54D12*
X-470670Y-279400D03*
Y-254000D03*
Y-228600D03*
Y-203200D03*
X-329430D03*
Y-228600D03*
Y-254000D03*
G54D21*
X-342900Y136750D03*
X-196850Y-152400D03*
X-95000Y-165000D03*
X228600Y38100D03*
X368300Y-69850D03*
X688800Y-169750D03*
G54D30*
X-93650Y69850D03*
X-27000Y-254000D03*
G54D40*
X264300Y-213400D03*
X241300D03*
X218300D03*
G54D13*
X-457200Y-154970D03*
Y-111730D03*
X-406400Y-154970D03*
X-355600D03*
X-406400Y-111730D03*
X-355600D03*
X-304800Y-154970D03*
Y-111730D03*
X-146000Y-287620D03*
Y-244380D03*
X-146050Y-212120D03*
Y-168880D03*
G54D22*
X-268750Y-285750D03*
Y-273050D03*
Y-260350D03*
Y-247650D03*
Y-234950D03*
Y-222250D03*
Y-209550D03*
Y-196850D03*
X-188450Y-260350D03*
Y-273050D03*
Y-196850D03*
Y-209550D03*
Y-222250D03*
Y-234950D03*
Y-247650D03*
G54D31*
X-101600Y196850D03*
X-127000D03*
X-101600Y171450D03*
X-127000D03*
X88900Y196850D03*
X63500D03*
X88900Y171450D03*
X63500D03*
G54D14*
X-453420Y-76200D03*
X-410180D03*
X-351820D03*
X-308580D03*
G54D41*
X241300Y-154900D03*
G54D23*
X-188450Y-285750D03*
G54D50*
X673100Y208350D03*
X723900D03*
X774700D03*
G54D32*
X-34600Y-231450D03*
X-45000Y-45000D03*
X45000Y45000D03*
X85400Y-111450D03*
G54D15*
X-457200Y-30550D03*
Y55950D03*
X-355600Y-30550D03*
X-406400D03*
X-355600Y55950D03*
X-406400D03*
X-304800Y-30550D03*
Y55950D03*
G54D42*
X323850Y-147050D03*
Y-183150D03*
X387350Y-147050D03*
Y-183150D03*
G54D24*
X-152700Y-63700D03*
Y-25200D03*
X-101300Y-63700D03*
Y-25200D03*
G54D33*
X-14600Y-228200D03*
Y-114700D03*
X57400Y-228200D03*
X49400D03*
X41400D03*
X33400D03*
X25400D03*
X17400D03*
X9400D03*
X1400D03*
X-6600D03*
Y-114700D03*
X1400D03*
X9400D03*
X17400D03*
X25400D03*
X33400D03*
X41400D03*
X49400D03*
X57400D03*
X65400Y-228200D03*
Y-114700D03*
G54D43*
X355600Y-224820D03*
Y-181580D03*
G54D16*
X-431800Y111350D03*
X-355600D03*
X-419100Y136750D03*
X-381000Y111350D03*
X-368300Y136750D03*
X-406400Y111350D03*
X-393700Y136750D03*
X-196850Y-127000D03*
Y-50800D03*
Y-76200D03*
Y-101600D03*
Y0D03*
Y-25400D03*
Y25400D03*
X-95000Y-139600D03*
X254000Y-63500D03*
X228600D03*
X254000Y-38100D03*
X228600D03*
X254000Y-12700D03*
X228600D03*
X254000Y12700D03*
X228600D03*
X254000Y38100D03*
X342900Y-69850D03*
Y6350D03*
Y-19050D03*
Y-44450D03*
Y31750D03*
X368300Y6350D03*
Y-19050D03*
Y-44450D03*
Y31750D03*
X622300Y-25400D03*
Y25400D03*
Y50800D03*
Y76200D03*
X688800Y-144350D03*
X673100Y76200D03*
Y50800D03*
Y25400D03*
X723900Y-25400D03*
Y25400D03*
Y50800D03*
Y76200D03*
X774700D03*
Y50800D03*
Y25400D03*
G54D34*
X-31350Y-211450D03*
Y-203450D03*
Y-195450D03*
Y-187450D03*
Y-179450D03*
Y-171450D03*
Y-163450D03*
Y-155450D03*
Y-147450D03*
Y-139450D03*
Y-131450D03*
X82150Y-195450D03*
Y-203450D03*
Y-131450D03*
Y-139450D03*
Y-147450D03*
Y-155450D03*
Y-163450D03*
Y-171450D03*
Y-179450D03*
Y-187450D03*
G54D25*
X-147650Y69850D03*
Y82550D03*
Y95250D03*
Y107950D03*
X-93650Y82550D03*
Y107950D03*
Y95250D03*
X-27000Y-292100D03*
Y-279400D03*
Y-266700D03*
X27000D03*
Y-279400D03*
Y-292100D03*
Y-254000D03*
G54D44*
X451350Y-209550D03*
X513850D03*
X621800D03*
X559300D03*
G54D26*
X-152400Y196850D03*
X-76200D03*
Y171450D03*
X38100Y196850D03*
X114300D03*
Y171450D03*
X241300Y165100D03*
X266700D03*
X241300Y241300D03*
X266700D03*
X292100Y165100D03*
X317500D03*
X292100Y241300D03*
X317500D03*
X342900Y165100D03*
X368300D03*
X393700D03*
Y241300D03*
X368300D03*
X342900D03*
X419100Y165100D03*
X850900Y-285750D03*
Y-234950D03*
Y-184150D03*
Y-133350D03*
Y-82550D03*
Y-31750D03*
G54D17*
X-444500Y200250D03*
X-330200D03*
G54D35*
X-14000Y-41750D03*
X-18000D03*
X-22000D03*
X-26000D03*
X-30000D03*
Y41750D03*
X-26000D03*
X-22000D03*
X-18000D03*
X-14000D03*
X30000Y-41750D03*
X26000D03*
X22000D03*
X18000D03*
X14000D03*
X10000D03*
X6000D03*
X2000D03*
X-2000D03*
X-6000D03*
X-10000D03*
Y41750D03*
X-6000D03*
X-2000D03*
X2000D03*
X6000D03*
X10000D03*
X14000D03*
X18000D03*
X22000D03*
X26000D03*
X30000D03*
G54D27*
X-152400Y171450D03*
X38100D03*
X419100Y241300D03*
X825500Y-285750D03*
Y-234950D03*
Y-184150D03*
Y-133350D03*
Y-82550D03*
Y-31750D03*
G54D45*
X622300Y208350D03*
G54D18*
X-464700Y169750D03*
X-309900D03*
G54D36*
X-41750Y-30000D03*
Y-26000D03*
Y-22000D03*
Y-18000D03*
Y-14000D03*
Y-10000D03*
Y-6000D03*
Y-2000D03*
Y2000D03*
Y6000D03*
Y10000D03*
Y14000D03*
Y18000D03*
Y22000D03*
Y26000D03*
Y30000D03*
X41750Y14000D03*
Y10000D03*
Y6000D03*
Y2000D03*
Y-2000D03*
Y-6000D03*
Y-10000D03*
Y-14000D03*
Y-18000D03*
Y-22000D03*
Y-26000D03*
Y30000D03*
Y26000D03*
Y22000D03*
Y18000D03*
G54D28*
X-91850Y-285750D03*
X-111350D03*
X-91850Y-260350D03*
X-111350D03*
X-34700Y69850D03*
X-54200D03*
X-47400Y95250D03*
X-66900D03*
X193900Y-292100D03*
X174400D03*
X193900Y-266700D03*
X174400D03*
X155800Y-279400D03*
X136300D03*
X155800Y-254000D03*
X136300D03*
X193900Y-241300D03*
X174400D03*
X657450Y-133350D03*
X637950D03*
X739550D03*
X784000Y-209550D03*
X803500D03*
X759050Y-133350D03*
G54D19*
X-329430Y-279400D03*
G54D37*
X41750Y-30000D03*
G54D46*
X636950Y-63500D03*
X658450Y-54000D03*
X636950Y-101600D03*
X658450Y-92100D03*
X738550Y-63500D03*
Y-101600D03*
X760050Y-54000D03*
Y-92100D03*
G54D29*
X-110350Y-209550D03*
X-92850D03*
Y-234950D03*
X-110350D03*
X-135750Y0D03*
X-118250D03*
X245250Y-247650D03*
X262750D03*
X313550D03*
X296050D03*
G54D38*
X82150Y-211450D03*
G54D47*
X658450Y-73000D03*
Y-111100D03*
X760050Y-73000D03*
Y-111100D03*
G54D48*
X673100Y-25400D03*
X774700D03*
G54D39*
X184150Y-211950D03*
Y-194450D03*
X298450Y-211950D03*
Y-194450D03*
G54D49*
X625820Y152400D03*
X669580D03*
X727420D03*
X771180D03*
M02*
