G04 ================== begin FILE IDENTIFICATION RECORD ==================*
G04 Layout Name:  D:/Project/Circuit/AVANT/FIBER-E1/FIBER-E1_01v2/pcb/FIBER-E1_01v2.brd*
G04 Film Name:    PASTE_BOT*
G04 File Format:  Gerber RS274X*
G04 File Origin:  Cadence Allegro 16.6-2015-S073*
G04 Origin Date:  Tue Nov 13 09:29:43 2018*
G04 *
G04 Layer:  VIA CLASS/PASTEMASK_BOTTOM*
G04 Layer:  PIN/PASTEMASK_BOTTOM*
G04 Layer:  PACKAGE GEOMETRY/PASTEMASK_BOTTOM*
G04 *
G04 Offset:    (0.000 0.000)*
G04 Mirror:    No*
G04 Mode:      Positive*
G04 Rotation:  0*
G04 FullContactRelief:  No*
G04 UndefLineWidth:     0.000*
G04 ================== end FILE IDENTIFICATION RECORD ====================*
%FSLAX34Y34*MOMM*%
%IR0*IPPOS*OFA0.00000B0.00000*MIA0B0*SFA1.00000B1.00000*%
%ADD17O,.55X1.*%
%ADD10C,1.*%
%ADD18R,.55X1.*%
%ADD11R,1.4X1.*%
%ADD13R,1.X1.4*%
%ADD12R,3.6X1.5*%
%ADD14R,2.25X1.9*%
%ADD15R,1.9X2.25*%
%ADD19R,.9X.9*%
%ADD16R,.9X.9*%
%LPD*%
G75*
G54D10*
X-500000Y-300000D03*
Y150000D03*
X880000Y-300000D03*
Y220000D03*
G54D11*
X-444500Y79850D03*
Y59850D03*
X-419100Y79850D03*
Y59850D03*
X-393700Y79850D03*
Y59850D03*
X-368300Y79850D03*
Y59850D03*
X-177500Y170000D03*
Y190000D03*
X-19050Y-200500D03*
Y-180500D03*
X-12700Y40800D03*
Y60800D03*
X-40000Y190000D03*
Y170000D03*
X44450Y-212250D03*
Y-232250D03*
X25400Y-143350D03*
Y-123350D03*
X-6350Y-143350D03*
Y-123350D03*
X19050Y-60800D03*
Y-40800D03*
X-6350Y-28100D03*
Y-48100D03*
X12700Y28100D03*
Y48100D03*
X107500Y-262500D03*
Y-282500D03*
X70850Y-212250D03*
Y-232250D03*
X107950Y3650D03*
Y-16350D03*
X187500Y-67500D03*
Y-87500D03*
X196850Y187800D03*
Y167800D03*
X171450Y187800D03*
Y167800D03*
X260350Y-97950D03*
Y-117950D03*
X234950Y-97950D03*
Y-117950D03*
X290000Y52500D03*
Y32500D03*
X480000Y167500D03*
Y187500D03*
X695000Y-100000D03*
Y-80000D03*
G54D12*
X-304800Y54950D03*
Y97450D03*
G54D13*
X-152500Y-140000D03*
X-149700Y69850D03*
X-132500Y-140000D03*
X-129700Y69850D03*
X-28100Y-12700D03*
X-48100D03*
X-28100Y12700D03*
X-48100D03*
X47150Y-139700D03*
X28100Y6350D03*
X48100D03*
X28100Y-19050D03*
X48100D03*
X67150Y-139700D03*
X129700Y-38100D03*
Y38100D03*
X86200Y146050D03*
X66200D03*
X149700Y-38100D03*
Y38100D03*
X777400Y-260350D03*
X797400D03*
G54D14*
X12700Y-188450D03*
Y-217950D03*
G54D15*
X42400Y-177800D03*
X71900D03*
G54D16*
X109600Y-228600D03*
X93600D03*
X192150Y146050D03*
X176150D03*
G54D17*
X130200Y-13500D03*
X149200D03*
Y13500D03*
X139700D03*
G54D18*
X130200D03*
G54D19*
X209550Y-115950D03*
Y-99950D03*
M02*
