G04 ================== begin FILE IDENTIFICATION RECORD ==================*
G04 Layout Name:  D:/Project/Circuit/AVANT/FIBER-E1/FIBER-E1_01v2/pcb/FIBER-E1_01v2.brd*
G04 Film Name:    PWR*
G04 File Format:  Gerber RS274X*
G04 File Origin:  Cadence Allegro 16.6-2015-S073*
G04 Origin Date:  Tue Nov 13 09:29:43 2018*
G04 *
G04 Layer:  ETCH/PWR*
G04 Layer:  PIN/PWR*
G04 Layer:  VIA CLASS/PWR*
G04 *
G04 Offset:    (0.000 0.000)*
G04 Mirror:    No*
G04 Mode:      Positive*
G04 Rotation:  0*
G04 FullContactRelief:  No*
G04 UndefLineWidth:     0.000*
G04 ================== end FILE IDENTIFICATION RECORD ====================*
%FSLAX34Y34*MOMM*%
%IR0*IPPOS*OFA0.00000B0.00000*MIA0B0*SFA1.00000B1.00000*%
%ADD14C,2.1*%
%ADD12C,1.3*%
%ADD10C,3.4*%
%ADD13C,1.7*%
%ADD11C,.8*%
%ADD15C,.5*%
%ADD17C,2.104*%
%ADD18C,2.204*%
%ADD16C,1.504*%
%ADD20C,1.704*%
%ADD21C,1.804*%
%ADD19C,1.904*%
G75*
%LPD*%
G75*
G36*
G01X-180500Y-304800D02*
G02X-190500Y-294800I0J10000D01*
G01Y-161270D01*
G02X-190140Y-160500I1001J1D01*
G03Y-144300I-6710J8100D01*
G02X-190500Y-143530I641J769D01*
G01Y-135870D01*
G02X-190140Y-135100I1001J1D01*
G03Y-118900I-6710J8100D01*
G01X-190320Y-118750D01*
X-190500Y-118360D01*
Y-117950D01*
G02X-180500Y-107950I10000J0D01*
G01X294800D01*
G02X304800Y-117950I0J-10000D01*
G01Y-186850D01*
G02X294800Y-196850I-10000J0D01*
G01X197800D01*
G03X177800Y-216850I0J-20000D01*
G01Y-294800D01*
G02X167800Y-304800I-10000J0D01*
G01X-180500D01*
G37*
G36*
G01X229470Y-94670D02*
G02X228550Y-95250I-909J423D01*
G01X-180500D01*
G02X-190500Y-85250I0J10000D01*
G01Y-84840D01*
X-190320Y-84450D01*
X-190140Y-84300D01*
G03Y-68100I-6710J8100D01*
G02X-190500Y-67330I640J768D01*
G01Y-59780D01*
G02X-190480Y-59560I1002J20D01*
G01X-190410Y-59240D01*
X-190310Y-59040D01*
X-190140Y-58900D01*
G03Y-42700I-6710J8100D01*
G02X-190500Y-41930I640J768D01*
G01Y-34380D01*
G02X-190480Y-34160I1002J20D01*
G01X-190410Y-33840D01*
X-190310Y-33640D01*
X-190140Y-33500D01*
G03Y-17300I-6710J8100D01*
G02X-190500Y-16530I640J768D01*
G01Y-8980D01*
G02X-190480Y-8760I1002J20D01*
G01X-190410Y-8440D01*
X-190310Y-8240D01*
X-190140Y-8100D01*
G03Y8100I-6710J8100D01*
G02X-190500Y8870I640J768D01*
G01Y16420D01*
G02X-190480Y16640I1002J20D01*
G01X-190410Y16960D01*
X-190310Y17160D01*
X-190140Y17300D01*
G03Y33500I-6710J8100D01*
G01X-190320Y33650D01*
X-190500Y34040D01*
Y34450D01*
G02X-180500Y44450I10000J0D01*
G01X-39050D01*
G03X-19050Y64450I0J20000D01*
G01Y110650D01*
G02X-9050Y120650I10000J0D01*
G01X294800D01*
G02X304800Y110650I0J-10000D01*
G01Y-85250D01*
G02X294800Y-95250I-10000J0D01*
G01X266750D01*
G02X265830Y-94670I-11J1003D01*
G02X265810Y-94610I940J347D01*
G01X265030Y-92570D01*
X265170Y-91980D01*
X265400Y-91770D01*
G03X255300I-5050J5570D01*
G01X255530Y-91980D01*
X255670Y-92570D01*
X254890Y-94610D01*
G02X254870Y-94670I-960J287D01*
G02X253950Y-95250I-909J423D01*
G01X241350D01*
G02X240430Y-94670I-11J1003D01*
G02X240410Y-94610I940J347D01*
G01X239630Y-92570D01*
X239770Y-91980D01*
X240000Y-91770D01*
G03X229900I-5050J5570D01*
G01X230130Y-91980D01*
X230270Y-92570D01*
X229490Y-94610D01*
G02X229470Y-94670I-960J287D01*
G37*
G36*
G01X177800Y143350D02*
G02X167800Y133350I-10000J0D01*
G01X-11750D01*
G03X-31750Y113350I0J-20000D01*
G01Y67150D01*
G02X-41750Y57150I-10000J0D01*
G01X-180500D01*
G02X-190500Y67150I0J10000D01*
G01Y218600D01*
G02X-180500Y228600I10000J0D01*
G01X167800D01*
G02X177800Y218600I0J-10000D01*
G01Y143350D01*
G37*
G36*
G01X200500Y-304800D02*
G02X190500Y-294800I0J10000D01*
G01Y-219550D01*
G02X190730Y-217410I10001J8D01*
G02X191560Y-216630I979J-210D01*
G01X193730Y-216310D01*
X194280Y-216580D01*
X194430Y-216860D01*
G03X208410Y-211900I6572J3657D01*
G01X208370Y-211670D01*
X208480Y-211250D01*
X209610Y-209910D01*
G02X210380Y-209550I768J-639D01*
G01X272300D01*
G02X273020Y-209860I-4J-999D01*
G01X274160Y-211050D01*
X274310Y-211430D01*
X274300Y-211630D01*
G03X289320I7510J-320D01*
G01X289310Y-211430D01*
X289460Y-211050D01*
X290600Y-209860D01*
G02X291320Y-209550I724J-689D01*
G01X297500D01*
G03X317500Y-189550I0J20000D01*
G01Y113350D01*
G03X297500Y133350I-20000J0D01*
G01X200500D01*
G02X190500Y143350I0J10000D01*
G01Y218600D01*
G02X200500Y228600I10000J0D01*
G01X491650D01*
G02X501650Y218600I0J-10000D01*
G01Y143350D01*
G02X492320Y133370I-10003J0D01*
G01X429100D01*
G03X406380Y110650I0J-22720D01*
G01Y-148750D01*
G03X429100Y-171470I22720J0D01*
G01X574200D01*
G03X596920Y-148750I0J22720D01*
G01Y-28450D01*
Y-28380D01*
G02X606900Y-19050I9980J-673D01*
G01X610560D01*
G02X611380Y-19480I-1J-999D01*
G01X612460Y-21030D01*
X612520Y-21510D01*
X612440Y-21740D01*
G03X632160I9860J-3660D01*
G01X632080Y-21510D01*
X632140Y-21030D01*
X633220Y-19480D01*
G02X634040Y-19050I821J-569D01*
G01X660830D01*
G02X661650Y-19470I4J-1002D01*
G01X662730Y-21010D01*
X662800Y-21480D01*
X662710Y-21720D01*
G03X683490I10390J-3680D01*
G01X683400Y-21480D01*
X683470Y-21010D01*
X684550Y-19470D01*
G02X685370Y-19050I816J-582D01*
G01X712160D01*
G02X712980Y-19480I-1J-999D01*
G01X714060Y-21030D01*
X714120Y-21510D01*
X714040Y-21740D01*
G03X733760I9860J-3660D01*
G01X733680Y-21510D01*
X733740Y-21030D01*
X734820Y-19480D01*
G02X735640Y-19050I821J-569D01*
G01X762430D01*
G02X763250Y-19470I4J-1002D01*
G01X764330Y-21010D01*
X764400Y-21480D01*
X764310Y-21720D01*
G03X785090I10390J-3680D01*
G01X785000Y-21480D01*
X785070Y-21010D01*
X786150Y-19470D01*
G02X786970Y-19050I816J-582D01*
G01X859950D01*
G02X869950Y-29050I0J-10000D01*
G01Y-294800D01*
G02X859950Y-304800I-10000J0D01*
G01X427570D01*
G02X426710Y-304320I-5J1001D01*
G01X425680Y-302630D01*
X425670Y-302130D01*
X425790Y-301890D01*
G03X412410I-6690J3440D01*
G01X412530Y-302130D01*
X412520Y-302630D01*
X411490Y-304320D01*
G02X410630Y-304800I-855J521D01*
G01X200500D01*
G37*
%LPC*%
G75*
G36*
G01X24060Y-164350D02*
Y-165410D01*
G03X24360Y-166120I1000J4D01*
G02X13450Y-166430I-5308J-5329D01*
G01X13580Y-166290D01*
X13700Y-165960D01*
Y-164240D01*
X13580Y-163910D01*
X13450Y-163770D01*
G02X24070Y-153150I5600J5020D01*
G01X24210Y-153280D01*
X24540Y-153400D01*
X26260D01*
X26590Y-153280D01*
X26730Y-153150D01*
G02Y-164350I5020J-5600D01*
G01X26590Y-164220D01*
X26260Y-164100D01*
X24540D01*
X24210Y-164220D01*
X24070Y-164350D01*
X24060D01*
G37*
G36*
G01X5350Y-164240D02*
Y-165960D01*
X5470Y-166290D01*
X5600Y-166430D01*
G02X-7260Y-173420I-5602J-5018D01*
G01X-7310Y-173210D01*
X-7580Y-172890D01*
X-9300Y-172030D01*
X-9720Y-172010D01*
X-9920Y-172090D01*
G02Y-158110I-2780J6990D01*
G01X-9720Y-158190D01*
X-9300Y-158170D01*
X-7580Y-157310D01*
X-7310Y-156990D01*
X-7260Y-156780D01*
G02X5600Y-163770I7258J-1972D01*
G01X5470Y-163910D01*
X5350Y-164240D01*
G37*
G36*
G01X55820Y-191250D02*
G03X58480I1330J1492D01*
G02Y-202450I5020J-5600D01*
G03X55820I-1330J-1492D01*
G02Y-191250I-5020J5600D01*
G37*
G36*
G01X48300Y-254590D02*
G02X43180Y-249200I-7301J-1808D01*
G03X45700Y-246810I579J1913D01*
G02X50820Y-252200I7301J1808D01*
G03X48300Y-254590I-579J-1913D01*
G37*
G36*
G01X4250Y-6710D02*
Y-8290D01*
G03X4630Y-9080I1001J-5D01*
G02X-4630I-4630J-5920D01*
G03X-4250Y-8290I-621J785D01*
G01Y-6710D01*
G03X-4630Y-5920I-1001J5D01*
G02X-5920Y-4630I4630J5920D01*
G03X-6710Y-4250I-785J-621D01*
G01X-8290D01*
G03X-9080Y-4630I-5J-1001D01*
G02Y4630I-5920J4630D01*
G03X-8290Y4250I785J621D01*
G01X-6710D01*
G03X-5920Y4630I5J1001D01*
G02X-4630Y5920I5920J-4630D01*
G03X-4250Y6710I-621J785D01*
G01Y8290D01*
G03X-4630Y9080I-1001J5D01*
G02X4630I4630J5920D01*
G03X4250Y8290I621J-785D01*
G01Y6710D01*
G03X4630Y5920I1001J-5D01*
G02X5920Y4630I-4630J-5920D01*
G03X6710Y4250I785J621D01*
G01X8290D01*
G03X9080Y4630I5J1001D01*
G02Y-4630I5920J-4630D01*
G03X8290Y-4250I-785J-621D01*
G01X6710D01*
G03X5920Y-4630I-5J-1001D01*
G02X4630Y-5920I-5920J4630D01*
G03X4250Y-6710I621J-785D01*
G37*
G36*
G01X608850Y-208220D02*
G03Y-210880I1492J-1330D01*
G02X597650I-5600J-5020D01*
G03Y-208220I-1492J1330D01*
G02X608850I5600J5020D01*
G37*
G36*
G01X500900D02*
G03Y-210880I1492J-1330D01*
G02X489700I-5600J-5020D01*
G03Y-208220I-1492J1330D01*
G02X500900I5600J5020D01*
G37*
G54D17*
X-95000Y-165000D03*
Y-139600D03*
X254000Y38100D03*
X228600D03*
Y12700D03*
Y-12700D03*
X254000D03*
X228600Y-38100D03*
X254000D03*
X228600Y-63500D03*
X254000D03*
X342900Y-69850D03*
Y6350D03*
Y-19050D03*
Y-44450D03*
Y31750D03*
X368300Y-69850D03*
Y6350D03*
Y-19050D03*
Y-44450D03*
Y31750D03*
X688800Y-169750D03*
Y-144350D03*
G54D18*
X254000Y12700D03*
G54D16*
X-123000Y-234950D03*
X-121000Y-140000D03*
X41000Y-292100D03*
X31750Y-196850D03*
X50800Y-158750D03*
X69850Y-287700D03*
X107500Y-251000D03*
X290000Y63500D03*
X200750Y-68750D03*
X149700Y52000D03*
X139700Y0D03*
X91000Y55000D03*
X121000Y3650D03*
X-105250Y0D03*
X-118300Y-63700D03*
X59850Y0D03*
X-59910Y-6760D03*
X-177500Y158000D03*
X-117950Y69850D03*
X-78650Y107950D03*
X-40000Y202000D03*
X157000Y187800D03*
X232000Y-247650D03*
X218300Y-233000D03*
X211000Y187800D03*
X337000Y-226220D03*
X327000Y-247650D03*
X298450Y-224950D03*
X393700Y-285750D03*
X375000Y-226220D03*
X393700Y-237000D03*
X419100D03*
X480000Y155000D03*
X626450Y-133350D03*
X670950Y-73000D03*
Y-92100D03*
X726020Y-133350D03*
X695000Y-111000D03*
X766400Y-260350D03*
X772550Y-92100D03*
Y-73000D03*
G54D20*
X-101600Y196850D03*
X-127000D03*
X-101600Y171450D03*
X-127000D03*
X88900Y196850D03*
X63500D03*
X88900Y171450D03*
G54D21*
X63500D03*
G54D19*
X-152400D03*
Y196850D03*
X-76200D03*
Y171450D03*
X38100D03*
Y196850D03*
X114300D03*
Y171450D03*
X241300Y165100D03*
X266700D03*
X292100D03*
X317500D03*
X342900D03*
X368300D03*
X393700D03*
X419100D03*
X825500Y-285750D03*
Y-234950D03*
Y-133350D03*
Y-184150D03*
Y-82550D03*
Y-31750D03*
X850900Y-285750D03*
Y-234950D03*
Y-133350D03*
Y-184150D03*
Y-82550D03*
Y-31750D03*
%LPD*%
G75*
G54D10*
X-444500Y200250D03*
X-330200D03*
G54D11*
X-163500Y-140000D03*
X-162650Y69850D03*
X-165100Y88740D03*
X-177500Y202000D03*
X-148750Y0D03*
X-12700Y-266700D03*
Y-279400D03*
X-46350Y-187450D03*
X-25400Y-120650D03*
X-59880Y10770D03*
X-65700Y69850D03*
X-78650Y82550D03*
X-40000Y157000D03*
X-47150Y109000D03*
X-6600Y-213200D03*
X9400Y-133350D03*
X2000Y-59770D03*
X6000Y59850D03*
X107500Y-293500D03*
X120650Y-228600D03*
X66810Y-155450D03*
X60000Y-11000D03*
X116800Y40250D03*
X162000Y-293000D03*
X184150Y-177800D03*
X193000Y-32250D03*
Y25000D03*
X157200Y169050D03*
X260350Y-133350D03*
X222250D03*
X203200Y-190500D03*
X241300D03*
X201000Y-86000D03*
X212000Y-89000D03*
X211100Y169050D03*
X279400Y-247650D03*
X298450Y-177800D03*
X279400Y-190500D03*
X290000Y19050D03*
X362000Y-196000D03*
X349000D03*
X469900Y-215900D03*
Y-203200D03*
X480000Y198500D03*
X577850Y-215900D03*
Y-203200D03*
X695000Y-69000D03*
X772750Y-209550D03*
X808400Y-260350D03*
G54D12*
X63500Y171450D03*
G54D13*
X254000Y12700D03*
X673100Y-25400D03*
X774700D03*
G54D14*
X622300Y208350D03*
X673100D03*
X723900D03*
G54D15*
G01X53480Y171450D02*
X63500D01*
G01Y161430D02*
Y171450D01*
G01D02*
Y181470D01*
G01Y171450D02*
X73520D01*
G01X254000Y680D02*
Y12700D01*
G01D02*
Y24720D01*
G01X241980Y12700D02*
X254000D01*
G01D02*
X266020D01*
G01X673100Y-37420D02*
Y-25400D01*
G01X661080D02*
X673100D01*
G01D02*
X685120D01*
G01X774700Y-37420D02*
Y-25400D01*
G01X762680D02*
X774700D01*
G01D02*
X786720D01*
M02*
