G04 ================== begin FILE IDENTIFICATION RECORD ==================*
G04 Layout Name:  D:/Project/Circuit/AVANT/FIBER-E1/FIBER-E1_01v2/pcb/FIBER-E1_01v2.brd*
G04 Film Name:    SILK_TOP*
G04 File Format:  Gerber RS274X*
G04 File Origin:  Cadence Allegro 16.6-2015-S073*
G04 Origin Date:  Tue Nov 13 09:29:43 2018*
G04 *
G04 Layer:  MANUFACTURING/AUTOSILK_TOP*
G04 *
G04 Offset:    (0.000 0.000)*
G04 Mirror:    No*
G04 Mode:      Positive*
G04 Rotation:  0*
G04 FullContactRelief:  No*
G04 UndefLineWidth:     0.200*
G04 ================== end FILE IDENTIFICATION RECORD ====================*
%FSLAX34Y34*MOMM*%
%IR0*IPPOS*OFA0.00000B0.00000*MIA0B0*SFA1.00000B1.00000*%
%ADD10C,.05*%
%ADD11C,.2*%
%ADD12C,.4*%
%ADD13C,.15*%
G75*
%LPD*%
G75*
G54D10*
G01X856160Y69030D02*
X856270Y67180D01*
X860000Y68960D01*
X864330Y71020D01*
X867450Y72620D01*
X868660Y73350D01*
X869680Y74060D01*
X870550Y74800D01*
X870570Y74830D01*
G02X871000Y74690I182J-173D01*
G01X871470Y70790D01*
X871320Y68680D01*
X870920Y67280D01*
X870350Y66360D01*
X869680Y65670D01*
X868430Y64660D01*
X867040Y63830D01*
X865280Y63030D01*
X862910Y62100D01*
X857040Y59870D01*
X857070Y59500D01*
X864530Y57790D01*
X868180Y57240D01*
X869020Y57310D01*
X869820Y57550D01*
X870570Y57960D01*
X870590Y57970D01*
X870870Y57830D01*
Y47640D01*
X870640Y47560D01*
X869890Y48270D01*
X869080Y48830D01*
X868240Y49270D01*
X866470Y49890D01*
X864630Y50330D01*
X850930Y53500D01*
X850010Y54500D01*
X848870Y55410D01*
X847620Y56170D01*
X846310Y56780D01*
X843700Y57590D01*
X841610Y57900D01*
Y64800D01*
X841680Y67720D01*
X841900Y69800D01*
X842240Y71230D01*
X842680Y72200D01*
X843060Y72770D01*
X843540Y73300D01*
X844120Y73790D01*
X844790Y74230D01*
X845540Y74590D01*
X846370Y74860D01*
X847270Y75040D01*
X848240Y75100D01*
X849990Y74930D01*
X851720Y74450D01*
X853280Y73680D01*
X854520Y72660D01*
X855270Y71640D01*
X855830Y70410D01*
X856160Y69030D01*
G01X855040Y63530D02*
X855520Y62350D01*
X855680Y61010D01*
X855460Y59820D01*
X844930Y62180D01*
Y62770D01*
X845010Y63960D01*
X845240Y64910D01*
X845600Y65650D01*
X846060Y66200D01*
X846600Y66560D01*
X847180Y66790D01*
X847760Y66890D01*
X848330Y66920D01*
X849700Y66820D01*
X851020Y66530D01*
X852260Y66050D01*
X853370Y65390D01*
X854310Y64540D01*
X855040Y63530D01*
G01X841700Y57890D02*
Y67880D01*
G01X842200Y57810D02*
Y71060D01*
G01X842700Y57740D02*
Y72230D01*
G01X843200Y57670D02*
Y72920D01*
G01X843700Y57590D02*
Y73430D01*
G01X844200Y57440D02*
Y73840D01*
G01X844700Y57280D02*
Y74170D01*
G01X845200Y64740D02*
Y74420D01*
G01Y57120D02*
Y62120D01*
G01X845700Y65770D02*
Y74640D01*
G01Y56970D02*
Y62010D01*
G01X846200Y66290D02*
Y74800D01*
G01Y56810D02*
Y61890D01*
G01X846700Y66600D02*
Y74930D01*
G01Y56600D02*
Y61780D01*
G01X847200Y66790D02*
Y75020D01*
G01Y56360D02*
Y61670D01*
G01X847700Y66880D02*
Y75060D01*
G01Y56120D02*
Y61560D01*
G01X848200Y66920D02*
Y75090D01*
G01Y55820D02*
Y61450D01*
G01X848700Y66900D02*
Y75050D01*
G01Y55520D02*
Y61340D01*
G01X849200Y66860D02*
Y75000D01*
G01Y55150D02*
Y61220D01*
G01X849700Y66820D02*
Y74960D01*
G01Y54750D02*
Y61110D01*
G01X850200Y66710D02*
Y74870D01*
G01Y54300D02*
Y61000D01*
G01X850700Y66600D02*
Y74730D01*
G01Y53760D02*
Y60890D01*
G01X851200Y66460D02*
Y74590D01*
G01Y53440D02*
Y60780D01*
G01X851700Y66270D02*
Y74450D01*
G01Y53330D02*
Y60660D01*
G01X852200Y66070D02*
Y74210D01*
G01Y53210D02*
Y60550D01*
G01X852700Y65790D02*
Y73970D01*
G01Y53100D02*
Y60440D01*
G01X853200Y65490D02*
Y73720D01*
G01Y52980D02*
Y60330D01*
G01X853700Y65090D02*
Y73340D01*
G01Y52860D02*
Y60220D01*
G01X854200Y64640D02*
Y72930D01*
G01Y52750D02*
Y60100D01*
G01X854700Y64010D02*
Y72420D01*
G01Y52630D02*
Y59990D01*
G01X855200Y63140D02*
Y71730D01*
G01Y52520D02*
Y59880D01*
G01X855700Y52400D02*
Y70680D01*
G01X856200Y52280D02*
Y68390D01*
G01X856700Y52170D02*
Y67380D01*
G01X857200Y59930D02*
Y67620D01*
G01Y52050D02*
Y59470D01*
G01X857700Y60120D02*
Y67860D01*
G01Y51940D02*
Y59350D01*
G01X858200Y60310D02*
Y68100D01*
G01Y51820D02*
Y59240D01*
G01X858700Y60500D02*
Y68340D01*
G01Y51700D02*
Y59120D01*
G01X859200Y60690D02*
Y68570D01*
G01Y51590D02*
Y59010D01*
G01X859700Y60880D02*
Y68810D01*
G01Y51470D02*
Y58900D01*
G01X860200Y61070D02*
Y69050D01*
G01Y51360D02*
Y58780D01*
G01X860700Y61260D02*
Y69290D01*
G01Y51240D02*
Y58670D01*
G01X861200Y61450D02*
Y69530D01*
G01Y51130D02*
Y58550D01*
G01X861700Y61640D02*
Y69760D01*
G01Y51010D02*
Y58440D01*
G01X862200Y61830D02*
Y70000D01*
G01Y50900D02*
Y58320D01*
G01X862700Y62020D02*
Y70240D01*
G01Y50780D02*
Y58210D01*
G01X863200Y62220D02*
Y70480D01*
G01Y50660D02*
Y58100D01*
G01X863700Y62410D02*
Y70720D01*
G01Y50550D02*
Y57980D01*
G01X864200Y62610D02*
Y70960D01*
G01Y50430D02*
Y57870D01*
G01X864700Y62810D02*
Y71210D01*
G01Y50320D02*
Y57770D01*
G01X865200Y63000D02*
Y71470D01*
G01Y50200D02*
Y57690D01*
G01X865700Y63220D02*
Y71720D01*
G01Y50080D02*
Y57610D01*
G01X866200Y63450D02*
Y71980D01*
G01Y49960D02*
Y57540D01*
G01X866700Y63680D02*
Y72240D01*
G01Y49810D02*
Y57460D01*
G01X867200Y63930D02*
Y72500D01*
G01Y49640D02*
Y57380D01*
G01X867700Y64220D02*
Y72770D01*
G01Y49460D02*
Y57310D01*
G01X868200Y64520D02*
Y73070D01*
G01Y49280D02*
Y57240D01*
G01X868700Y64870D02*
Y73380D01*
G01Y49030D02*
Y57280D01*
G01X869200Y65280D02*
Y73730D01*
G01Y48740D02*
Y57370D01*
G01X869700Y65690D02*
Y74080D01*
G01Y48400D02*
Y57520D01*
G01X870200Y66200D02*
Y74510D01*
G01Y47970D02*
Y57760D01*
G01X870700Y66920D02*
Y74900D01*
G01Y47580D02*
Y57920D01*
G01X871200Y68260D02*
Y73050D01*
G01X859500Y102640D02*
X860880Y102150D01*
G02X861010Y101780I-79J-236D01*
G01X858040Y97260D01*
X867040Y98220D01*
X867980Y97170D01*
X868880Y95930D01*
X869650Y94610D01*
X870300Y93190D01*
X870800Y91690D01*
X871170Y90110D01*
X871400Y88450D01*
X871470Y86730D01*
X871060Y82940D01*
X869950Y80090D01*
X868360Y78030D01*
X866460Y76620D01*
X864440Y75730D01*
X862510Y75250D01*
X860850Y75050D01*
X859680Y75020D01*
X857770Y75090D01*
X855880Y75330D01*
X854010Y75720D01*
X852200Y76250D01*
X850460Y76940D01*
X848820Y77770D01*
X847300Y78740D01*
X845900Y79840D01*
X844730Y81020D01*
X843730Y82280D01*
X842890Y83640D01*
X842200Y85100D01*
X841680Y86660D01*
X841310Y88330D01*
X841080Y90100D01*
X841010Y91990D01*
X841100Y93850D01*
X841520Y96150D01*
X841910Y97360D01*
X842470Y98570D01*
X843210Y99740D01*
X844170Y100820D01*
X845080Y101580D01*
X846060Y102190D01*
X847110Y102670D01*
X848200Y103020D01*
X850470Y103440D01*
X852750Y103560D01*
X855130Y103450D01*
X857380Y103140D01*
X859500Y102640D01*
G01X856530Y94960D02*
X859410Y94370D01*
X862190Y93500D01*
X863620Y92870D01*
X864820Y92190D01*
X865820Y91460D01*
X866620Y90710D01*
X867220Y89920D01*
X867640Y89120D01*
X867890Y88320D01*
X867970Y87530D01*
X867920Y86940D01*
X867730Y86260D01*
X867350Y85530D01*
X866730Y84820D01*
X865830Y84180D01*
X864600Y83660D01*
X863010Y83320D01*
X861000Y83190D01*
X858170Y83350D01*
X855210Y83790D01*
X852360Y84460D01*
X849900Y85290D01*
X848350Y86030D01*
X846590Y87200D01*
X845790Y87960D01*
X845120Y88850D01*
X844670Y89870D01*
X844510Y91000D01*
X844550Y91620D01*
X844720Y92310D01*
X845070Y93050D01*
X845660Y93770D01*
X846560Y94410D01*
X847790Y94920D01*
X849410Y95260D01*
X851470Y95390D01*
X853800Y95280D01*
X856530Y94960D01*
G01X842700Y84040D02*
Y98930D01*
G01X843200Y83140D02*
Y99720D01*
G01X843700Y82330D02*
Y100290D01*
G01X844200Y81690D02*
Y100850D01*
G01X844700Y81060D02*
Y89800D01*
G01X845200Y80550D02*
Y88750D01*
G01X845700Y80050D02*
Y88080D01*
G01X846200Y79610D02*
Y87570D01*
G01X846700Y79210D02*
Y87120D01*
G01X847200Y78810D02*
Y86790D01*
G01X847700Y78480D02*
Y86460D01*
G01X848200Y78160D02*
Y86120D01*
G01X848700Y77840D02*
Y85860D01*
G01X849200Y77580D02*
Y85620D01*
G01X849700Y77320D02*
Y85380D01*
G01X850200Y77070D02*
Y85190D01*
G01X850700Y76840D02*
Y85020D01*
G01X851200Y76650D02*
Y84850D01*
G01X851700Y76450D02*
Y84680D01*
G01X852200Y76250D02*
Y84510D01*
G01X852700Y76100D02*
Y84380D01*
G01X853200Y75960D02*
Y84260D01*
G01X853700Y75810D02*
Y84140D01*
G01X854200Y75680D02*
Y84020D01*
G01X854700Y75570D02*
Y83910D01*
G01X855200Y75470D02*
Y83790D01*
G01X855700Y75360D02*
Y83720D01*
G01X856200Y75290D02*
Y83640D01*
G01X856700Y75230D02*
Y83570D01*
G01X857200Y75160D02*
Y83490D01*
G01X857700Y75100D02*
Y83420D01*
G01X858200Y75080D02*
Y83350D01*
G01X858700Y75060D02*
Y83320D01*
G01X859200Y75040D02*
Y83290D01*
G01X859700Y75020D02*
Y83260D01*
G01X860200Y75030D02*
Y83240D01*
G01X860700Y75050D02*
Y83210D01*
G01X861200Y75100D02*
Y83200D01*
G01X861700Y75160D02*
Y83230D01*
G01X862200Y75220D02*
Y83260D01*
G01X862700Y75300D02*
Y83300D01*
G01X863200Y75420D02*
Y83360D01*
G01X863700Y75550D02*
Y83460D01*
G01X864200Y75680D02*
Y83570D01*
G01X864700Y75850D02*
Y83700D01*
G01X865200Y76070D02*
Y83910D01*
G01X865700Y76290D02*
Y84120D01*
G01X866200Y76510D02*
Y84440D01*
G01X866700Y76800D02*
Y84800D01*
G01X867200Y77180D02*
Y85360D01*
G01X867700Y77550D02*
Y86200D01*
G01X868200Y77920D02*
Y96870D01*
G01X868700Y78480D02*
Y96180D01*
G01X869200Y79120D02*
Y95380D01*
G01X869700Y79770D02*
Y94500D01*
G01X870200Y80730D02*
Y93400D01*
G01X870700Y82020D02*
Y92000D01*
G01X835990Y41020D02*
X835880Y39840D01*
Y38670D01*
X862280Y32900D01*
X867310Y32100D01*
X868020Y32150D01*
X868900Y32380D01*
X869950Y32900D01*
X870420Y33230D01*
G02X870810Y33030I141J-205D01*
G01Y18970D01*
G02X870360Y18820I-250J1D01*
G01X870350Y18830D01*
X869360Y19760D01*
X868300Y20500D01*
X867180Y21090D01*
X864830Y21910D01*
X862380Y22500D01*
X840150Y27440D01*
X835120Y28180D01*
X833980Y28060D01*
X832950Y27730D01*
X832030Y27200D01*
X831910Y27100D01*
X831620Y27240D01*
Y43120D01*
X831670Y45410D01*
X831910Y47770D01*
X832130Y48920D01*
X832450Y50040D01*
X832860Y51080D01*
X833400Y52060D01*
X834300Y53190D01*
X835680Y54290D01*
X836580Y54760D01*
X837640Y55130D01*
X838890Y55370D01*
X840330Y55460D01*
X842650Y55270D01*
X844940Y54700D01*
X847120Y53710D01*
X849100Y52290D01*
X850800Y50410D01*
X852120Y48050D01*
X852980Y45180D01*
X853290Y41760D01*
X853250Y40520D01*
X853080Y39130D01*
X852790Y37870D01*
G02X852460Y37690I-244J55D01*
G01X852410Y37710D01*
X851950Y39170D01*
X851340Y40240D01*
X850710Y40980D01*
X849790Y41790D01*
X848740Y42490D01*
X847580Y43080D01*
X846360Y43560D01*
X845070Y43930D01*
X843760Y44190D01*
X842430Y44340D01*
X841120Y44390D01*
X839480Y44250D01*
X838200Y43850D01*
X837260Y43260D01*
X836610Y42530D01*
X835990Y41020D01*
G01X831700Y27200D02*
Y45670D01*
G01X832200Y27300D02*
Y49160D01*
G01X832700Y27580D02*
Y50670D01*
G01X833200Y27810D02*
Y51700D01*
G01X833700Y27970D02*
Y52440D01*
G01X834200Y28090D02*
Y53070D01*
G01X834700Y28140D02*
Y53510D01*
G01X835200Y28170D02*
Y53910D01*
G01X835700Y28100D02*
Y54300D01*
G01X836200Y41540D02*
Y54560D01*
G01Y28020D02*
Y38600D01*
G01X836700Y42630D02*
Y54800D01*
G01Y27950D02*
Y38490D01*
G01X837200Y43190D02*
Y54970D01*
G01Y27870D02*
Y38380D01*
G01X837700Y43530D02*
Y55140D01*
G01Y27800D02*
Y38270D01*
G01X838200Y43850D02*
Y55240D01*
G01Y27720D02*
Y38160D01*
G01X838700Y44010D02*
Y55330D01*
G01Y27650D02*
Y38050D01*
G01X839200Y44160D02*
Y55390D01*
G01Y27580D02*
Y37940D01*
G01X839700Y44270D02*
Y55420D01*
G01Y27500D02*
Y37830D01*
G01X840200Y44310D02*
Y55450D01*
G01Y27420D02*
Y37720D01*
G01X840700Y44360D02*
Y55430D01*
G01Y27310D02*
Y37610D01*
G01X841200Y44390D02*
Y55390D01*
G01Y27200D02*
Y37500D01*
G01X841700Y44370D02*
Y55350D01*
G01Y27090D02*
Y37400D01*
G01X842200Y44350D02*
Y55310D01*
G01Y26980D02*
Y37290D01*
G01X842700Y44310D02*
Y55260D01*
G01Y26870D02*
Y37180D01*
G01X843200Y44250D02*
Y55130D01*
G01Y26760D02*
Y37070D01*
G01X843700Y44190D02*
Y55010D01*
G01Y26650D02*
Y36960D01*
G01X844200Y44100D02*
Y54880D01*
G01Y26540D02*
Y36850D01*
G01X844700Y44000D02*
Y54760D01*
G01Y26430D02*
Y36740D01*
G01X845200Y43890D02*
Y54580D01*
G01Y26320D02*
Y36630D01*
G01X845700Y43750D02*
Y54350D01*
G01Y26200D02*
Y36520D01*
G01X846200Y43600D02*
Y54130D01*
G01Y26090D02*
Y36410D01*
G01X846700Y43420D02*
Y53900D01*
G01Y25980D02*
Y36300D01*
G01X847200Y43230D02*
Y53660D01*
G01Y25870D02*
Y36190D01*
G01X847700Y43020D02*
Y53300D01*
G01Y25760D02*
Y36080D01*
G01X848200Y42770D02*
Y52940D01*
G01Y25650D02*
Y35980D01*
G01X848700Y42510D02*
Y52580D01*
G01Y25540D02*
Y35870D01*
G01X849200Y42180D02*
Y52180D01*
G01Y25430D02*
Y35760D01*
G01X849700Y41850D02*
Y51630D01*
G01Y25320D02*
Y35650D01*
G01X850200Y41430D02*
Y51080D01*
G01Y25210D02*
Y35540D01*
G01X850700Y40990D02*
Y50520D01*
G01Y25100D02*
Y35430D01*
G01X851200Y40400D02*
Y49700D01*
G01Y24980D02*
Y35320D01*
G01X851700Y39600D02*
Y48800D01*
G01Y24870D02*
Y35210D01*
G01X852200Y38380D02*
Y47790D01*
G01Y24760D02*
Y35100D01*
G01X852700Y37730D02*
Y46120D01*
G01Y24650D02*
Y34990D01*
G01X853200Y40120D02*
Y42750D01*
G01Y24540D02*
Y34880D01*
G01X853700Y24430D02*
Y34770D01*
G01X854200Y24320D02*
Y34660D01*
G01X854700Y24210D02*
Y34550D01*
G01X855200Y24100D02*
Y34440D01*
G01X855700Y23990D02*
Y34340D01*
G01X856200Y23880D02*
Y34230D01*
G01X856700Y23760D02*
Y34120D01*
G01X857200Y23650D02*
Y34010D01*
G01X857700Y23540D02*
Y33900D01*
G01X858200Y23430D02*
Y33790D01*
G01X858700Y23320D02*
Y33680D01*
G01X859200Y23210D02*
Y33570D01*
G01X859700Y23100D02*
Y33460D01*
G01X860200Y22990D02*
Y33350D01*
G01X860700Y22880D02*
Y33240D01*
G01X861200Y22760D02*
Y33130D01*
G01X861700Y22650D02*
Y33020D01*
G01X862200Y22540D02*
Y32910D01*
G01X862700Y22430D02*
Y32830D01*
G01X863200Y22310D02*
Y32750D01*
G01X863700Y22190D02*
Y32670D01*
G01X864200Y22070D02*
Y32590D01*
G01X864700Y21950D02*
Y32510D01*
G01X865200Y21780D02*
Y32430D01*
G01X865700Y21610D02*
Y32350D01*
G01X866200Y21440D02*
Y32280D01*
G01X866700Y21260D02*
Y32200D01*
G01X867200Y21080D02*
Y32120D01*
G01X867700Y20820D02*
Y32130D01*
G01X868200Y20560D02*
Y32200D01*
G01X868700Y20220D02*
Y32330D01*
G01X869200Y19880D02*
Y32530D01*
G01X869700Y19440D02*
Y32780D01*
G01X870200Y18980D02*
Y33080D01*
G01X870700Y18760D02*
Y33230D01*
G01X841200Y89180D02*
Y94390D01*
G01X841700Y86600D02*
Y96700D01*
G01X842200Y85110D02*
Y97980D01*
G01X844700Y92250D02*
Y101270D01*
G01X845200Y93210D02*
Y101660D01*
G01X845700Y93790D02*
Y101970D01*
G01X846200Y94150D02*
Y102250D01*
G01X846700Y94470D02*
Y102480D01*
G01X847200Y94680D02*
Y102700D01*
G01X847700Y94890D02*
Y102860D01*
G01X848200Y95010D02*
Y103020D01*
G01X848700Y95120D02*
Y103120D01*
G01X849200Y95220D02*
Y103210D01*
G01X849700Y95280D02*
Y103300D01*
G01X850200Y95310D02*
Y103390D01*
G01X850700Y95340D02*
Y103460D01*
G01X851200Y95370D02*
Y103480D01*
G01X851700Y95380D02*
Y103500D01*
G01X852200Y95360D02*
Y103530D01*
G01X852700Y95330D02*
Y103560D01*
G01X853200Y95310D02*
Y103540D01*
G01X853700Y95290D02*
Y103520D01*
G01X854200Y95240D02*
Y103490D01*
G01X854700Y95180D02*
Y103470D01*
G01X855200Y95120D02*
Y103440D01*
G01X855700Y95060D02*
Y103370D01*
G01X856200Y95000D02*
Y103300D01*
G01X856700Y94920D02*
Y103240D01*
G01X857200Y94820D02*
Y103170D01*
G01X857700Y94720D02*
Y103070D01*
G01X858200Y97500D02*
Y102950D01*
G01Y94620D02*
Y97280D01*
G01X858700Y98260D02*
Y102830D01*
G01Y94520D02*
Y97330D01*
G01X859200Y99020D02*
Y102710D01*
G01Y94420D02*
Y97390D01*
G01X859700Y99780D02*
Y102570D01*
G01Y94280D02*
Y97440D01*
G01X860200Y100540D02*
Y102390D01*
G01Y94130D02*
Y97490D01*
G01X860700Y101300D02*
Y102220D01*
G01Y93970D02*
Y97550D01*
G01X861200Y93810D02*
Y97600D01*
G01X861700Y93660D02*
Y97650D01*
G01X862200Y93500D02*
Y97700D01*
G01X862700Y93280D02*
Y97760D01*
G01X863200Y93060D02*
Y97810D01*
G01X863700Y92830D02*
Y97860D01*
G01X864200Y92540D02*
Y97920D01*
G01X864700Y92260D02*
Y97970D01*
G01X865200Y91920D02*
Y98020D01*
G01X865700Y91550D02*
Y98080D01*
G01X866200Y91100D02*
Y98130D01*
G01X866700Y90600D02*
Y98180D01*
G01X867200Y89950D02*
Y98040D01*
G01X867700Y88940D02*
Y97480D01*
G01X871200Y84230D02*
Y89920D01*
G01X892160Y117800D02*
X893060Y119130D01*
X893520Y121350D01*
X892630Y124030D01*
X890170Y125140D01*
X888720Y124440D01*
X888000Y122710D01*
X887700Y121700D01*
X886500Y119790D01*
X884720Y119160D01*
X883670Y119280D01*
X882680Y119630D01*
X881800Y120220D01*
X881070Y121050D01*
X880620Y121880D01*
X880360Y122720D01*
X880230Y123540D01*
X880200Y124290D01*
X880810Y126860D01*
X881480Y127690D01*
G02X881860Y127710I199J-155D01*
G01X882550Y127010D01*
X881780Y126020D01*
X881320Y124170D01*
X881970Y122040D01*
X882620Y121380D01*
X883260Y121020D01*
X883830Y120870D01*
X884270Y120840D01*
X885620Y121360D01*
X886410Y123040D01*
X886790Y124340D01*
X887820Y126160D01*
X889790Y126880D01*
X890830Y126730D01*
X891830Y126310D01*
X892720Y125660D01*
X893460Y124820D01*
X893890Y124100D01*
X894240Y123220D01*
X894470Y122160D01*
X894560Y120930D01*
X893900Y118050D01*
X893280Y117130D01*
G02X892900Y117080I-211J135D01*
G01X892160Y117800D01*
G01X880200Y124220D02*
Y124300D01*
G01X880700Y121740D02*
Y126400D01*
G01X881200Y120900D02*
Y127340D01*
G01X881700Y125700D02*
Y127780D01*
G01Y120330D02*
Y122930D01*
G01X882200Y126560D02*
Y127360D01*
G01Y119950D02*
Y121810D01*
G01X882700Y119620D02*
Y121340D01*
G01X883200Y119440D02*
Y121060D01*
G01X883700Y119270D02*
Y120910D01*
G01X884200Y119220D02*
Y120840D01*
G01X884700Y119160D02*
Y121000D01*
G01X885200Y119330D02*
Y121200D01*
G01X885700Y119510D02*
Y121530D01*
G01X886200Y119680D02*
Y122600D01*
G01X886700Y120110D02*
Y124030D01*
G01X887200Y120910D02*
Y125060D01*
G01X887700Y121700D02*
Y125950D01*
G01X888200Y123190D02*
Y126300D01*
G01X888700Y124400D02*
Y126480D01*
G01X889200Y124670D02*
Y126660D01*
G01X889700Y124920D02*
Y126840D01*
G01X890200Y125130D02*
Y126820D01*
G01X890700Y124910D02*
Y126750D01*
G01X891200Y124680D02*
Y126570D01*
G01X891700Y124450D02*
Y126360D01*
G01X892200Y124230D02*
Y126040D01*
G01Y117760D02*
Y117860D01*
G01X842470Y152990D02*
X843210Y154160D01*
X844170Y155250D01*
X845080Y156000D01*
X846060Y156610D01*
X847110Y157090D01*
X848200Y157450D01*
X850470Y157870D01*
X852750Y157980D01*
X856790Y157670D01*
X860420Y156770D01*
X863620Y155310D01*
X866330Y153340D01*
X868510Y150910D01*
X870130Y148040D01*
X871130Y144770D01*
X871470Y141140D01*
X871060Y137360D01*
X869950Y134520D01*
X868360Y132460D01*
X866460Y131040D01*
X864440Y130160D01*
X862510Y129680D01*
X860850Y129480D01*
X859680Y129440D01*
X857770Y129520D01*
X855880Y129750D01*
X854010Y130140D01*
X852200Y130680D01*
X850460Y131360D01*
X848820Y132190D01*
X847300Y133160D01*
X845900Y134270D01*
X844730Y135440D01*
X843730Y136710D01*
X842890Y138070D01*
X842200Y139530D01*
X841680Y141090D01*
X841310Y142750D01*
X841080Y144530D01*
X841010Y146410D01*
X841100Y148270D01*
X841520Y150570D01*
X841910Y151780D01*
X842470Y152990D01*
G01X856530Y149380D02*
X859410Y148800D01*
X862190Y147920D01*
X863620Y147290D01*
X864820Y146610D01*
X865820Y145890D01*
X866620Y145130D01*
X867220Y144350D01*
X867640Y143550D01*
X867890Y142740D01*
X867970Y141950D01*
X867920Y141360D01*
X867730Y140680D01*
X867350Y139960D01*
X866730Y139240D01*
X865830Y138600D01*
X864600Y138090D01*
X863010Y137740D01*
X861000Y137620D01*
X858170Y137780D01*
X855210Y138220D01*
X852360Y138880D01*
X849900Y139720D01*
X848350Y140450D01*
X846590Y141620D01*
X845790Y142380D01*
X845120Y143270D01*
X844670Y144290D01*
X844510Y145420D01*
X844550Y146040D01*
X844720Y146740D01*
X845070Y147470D01*
X845660Y148190D01*
X846560Y148830D01*
X847790Y149350D01*
X849410Y149690D01*
X851470Y149810D01*
X853800Y149710D01*
X856530Y149380D01*
G01X841200Y143600D02*
Y148810D01*
G01X841700Y141020D02*
Y151130D01*
G01X842200Y139540D02*
Y152400D01*
G01X842700Y138470D02*
Y153350D01*
G01X843200Y137560D02*
Y154140D01*
G01X843700Y136750D02*
Y154710D01*
G01X844200Y136110D02*
Y155270D01*
G01X844700Y146680D02*
Y155690D01*
G01Y135480D02*
Y144230D01*
G01X845200Y147630D02*
Y156080D01*
G01Y134970D02*
Y143170D01*
G01X845700Y148220D02*
Y156390D01*
G01Y134470D02*
Y142500D01*
G01X846200Y148580D02*
Y156680D01*
G01Y134030D02*
Y141990D01*
G01X846700Y148890D02*
Y156900D01*
G01Y133630D02*
Y141550D01*
G01X847200Y149100D02*
Y157120D01*
G01Y133240D02*
Y141220D01*
G01X847700Y149310D02*
Y157290D01*
G01Y132900D02*
Y140880D01*
G01X848200Y149430D02*
Y157450D01*
G01Y132590D02*
Y140550D01*
G01X848700Y149540D02*
Y157540D01*
G01Y132270D02*
Y140280D01*
G01X849200Y149640D02*
Y157630D01*
G01Y132000D02*
Y140050D01*
G01X849700Y149700D02*
Y157730D01*
G01Y131750D02*
Y139810D01*
G01X850200Y149730D02*
Y157820D01*
G01Y131490D02*
Y139610D01*
G01X850700Y149760D02*
Y157880D01*
G01Y131270D02*
Y139440D01*
G01X851200Y149790D02*
Y157910D01*
G01Y131070D02*
Y139270D01*
G01X851700Y149800D02*
Y157930D01*
G01Y130870D02*
Y139100D01*
G01X852200Y149780D02*
Y157960D01*
G01Y130680D02*
Y138940D01*
G01X852700Y149760D02*
Y157980D01*
G01Y130530D02*
Y138800D01*
G01X853200Y149730D02*
Y157950D01*
G01Y130380D02*
Y138680D01*
G01X853700Y149710D02*
Y157910D01*
G01Y130230D02*
Y138570D01*
G01X854200Y149660D02*
Y157870D01*
G01Y130100D02*
Y138450D01*
G01X854700Y149600D02*
Y157830D01*
G01Y130000D02*
Y138330D01*
G01X855200Y149540D02*
Y157800D01*
G01Y129890D02*
Y138220D01*
G01X855700Y149480D02*
Y157760D01*
G01Y129790D02*
Y138140D01*
G01X856200Y149420D02*
Y157720D01*
G01Y129710D02*
Y138070D01*
G01X856700Y149350D02*
Y157680D01*
G01Y129650D02*
Y137990D01*
G01X857200Y149240D02*
Y157570D01*
G01Y129590D02*
Y137920D01*
G01X857700Y149140D02*
Y157440D01*
G01Y129530D02*
Y137840D01*
G01X858200Y149040D02*
Y157320D01*
G01Y129500D02*
Y137770D01*
G01X858700Y148940D02*
Y157200D01*
G01Y129480D02*
Y137740D01*
G01X859200Y148840D02*
Y157070D01*
G01Y129460D02*
Y137720D01*
G01X859700Y148710D02*
Y156950D01*
G01Y129440D02*
Y137690D01*
G01X860200Y148550D02*
Y156820D01*
G01Y129460D02*
Y137660D01*
G01X860700Y148390D02*
Y156640D01*
G01Y129470D02*
Y137630D01*
G01X861200Y148240D02*
Y156410D01*
G01Y129520D02*
Y137630D01*
G01X861700Y148080D02*
Y156180D01*
G01Y129580D02*
Y137660D01*
G01X862200Y147920D02*
Y155960D01*
G01Y129640D02*
Y137690D01*
G01X862700Y147700D02*
Y155730D01*
G01Y129720D02*
Y137720D01*
G01X863200Y147480D02*
Y155500D01*
G01Y129850D02*
Y137780D01*
G01X863700Y147250D02*
Y155250D01*
G01Y129970D02*
Y137890D01*
G01X864200Y146970D02*
Y154890D01*
G01Y130100D02*
Y138000D01*
G01X864700Y146680D02*
Y154520D01*
G01Y130270D02*
Y138130D01*
G01X865200Y146340D02*
Y154160D01*
G01Y130490D02*
Y138340D01*
G01X865700Y145980D02*
Y153800D01*
G01Y130710D02*
Y138550D01*
G01X866200Y145530D02*
Y153440D01*
G01Y130930D02*
Y138860D01*
G01X866700Y145020D02*
Y152930D01*
G01Y131230D02*
Y139220D01*
G01X867200Y144370D02*
Y152370D01*
G01Y131600D02*
Y139780D01*
G01X867700Y143360D02*
Y151810D01*
G01Y131970D02*
Y140620D01*
G01X868200Y132340D02*
Y151250D01*
G01X868700Y132900D02*
Y150570D01*
G01X869200Y133550D02*
Y149680D01*
G01X869700Y134190D02*
Y148790D01*
G01X870200Y135160D02*
Y147790D01*
G01X870700Y136440D02*
Y146160D01*
G01X871200Y138650D02*
Y144020D01*
G01X894320Y157180D02*
Y156060D01*
G02X894010Y155820I-251J4D01*
G01X881700Y158440D01*
Y153890D01*
G02X881400Y153640I-250J-5D01*
G01X880490Y153830D01*
Y164660D01*
G02X880790Y164900I247J-2D01*
G01X881700Y164720D01*
Y159860D01*
X894320Y157180D01*
G01X880700Y153790D02*
Y164910D01*
G01X881200Y153680D02*
Y164820D01*
G01X881700Y153850D02*
Y164720D01*
G01X892160Y141670D02*
X893060Y143010D01*
X893520Y145230D01*
X892630Y147900D01*
X890170Y149020D01*
X888720Y148310D01*
X888000Y146580D01*
X887700Y145580D01*
X886500Y143660D01*
X884720Y143040D01*
X883670Y143150D01*
X882680Y143500D01*
X881800Y144090D01*
X881070Y144920D01*
X880620Y145750D01*
X880360Y146590D01*
X880230Y147410D01*
X880200Y148170D01*
X880810Y150730D01*
X881480Y151560D01*
G02X881860Y151580I199J-152D01*
G01X882550Y150890D01*
X881780Y149900D01*
X881320Y148040D01*
X881970Y145920D01*
X882620Y145260D01*
X883260Y144900D01*
X883830Y144750D01*
X884270Y144710D01*
X885620Y145240D01*
X886410Y146920D01*
X886790Y148220D01*
X887820Y150030D01*
X889790Y150750D01*
X890830Y150610D01*
X891830Y150180D01*
X892720Y149530D01*
X893460Y148700D01*
X893890Y147980D01*
X894240Y147090D01*
X894470Y146030D01*
X894560Y144800D01*
X893900Y141920D01*
X893280Y141000D01*
G02X892900Y140960I-207J141D01*
G01X892160Y141670D01*
G01X880200Y148100D02*
Y148180D01*
G01X880700Y145610D02*
Y150280D01*
G01X881200Y144780D02*
Y151210D01*
G01X881700Y149580D02*
Y151660D01*
G01Y144210D02*
Y146800D01*
G01X882200Y150440D02*
Y151240D01*
G01Y143820D02*
Y145680D01*
G01X882700Y143490D02*
Y145210D01*
G01X883200Y143320D02*
Y144930D01*
G01X883700Y143150D02*
Y144780D01*
G01X884200Y143090D02*
Y144720D01*
G01X884700Y143040D02*
Y144880D01*
G01X885200Y143210D02*
Y145070D01*
G01X885700Y143380D02*
Y145400D01*
G01X886200Y143560D02*
Y146480D01*
G01X886700Y143980D02*
Y147900D01*
G01X887200Y144780D02*
Y148940D01*
G01X887700Y145580D02*
Y149830D01*
G01X888200Y147070D02*
Y150170D01*
G01X888700Y148280D02*
Y150350D01*
G01X889200Y148550D02*
Y150540D01*
G01X889700Y148790D02*
Y150720D01*
G01X890200Y149010D02*
Y150700D01*
G01X890700Y148780D02*
Y150620D01*
G01X891200Y148550D02*
Y150450D01*
G01X891700Y148330D02*
Y150240D01*
G01X892200Y148100D02*
Y149910D01*
G01Y141630D02*
Y141740D01*
G01X880490Y131850D02*
X887620Y134610D01*
X880490Y140370D01*
Y141450D01*
G02X880900Y141640I249J0D01*
G01X888690Y135070D01*
X894320Y133880D01*
Y132760D01*
G02X894010Y132520I-251J4D01*
G01X888780Y133630D01*
X880830Y130300D01*
G02X880490Y130530I-93J229D01*
G01Y131850D01*
G01X880700Y140200D02*
Y141700D01*
G01Y130280D02*
Y131940D01*
G01X881200Y139800D02*
Y141380D01*
G01Y130450D02*
Y132130D01*
G01X881700Y139390D02*
Y140960D01*
G01Y130660D02*
Y132320D01*
G01X882200Y138990D02*
Y140540D01*
G01Y130870D02*
Y132520D01*
G01X882700Y138590D02*
Y140120D01*
G01Y131080D02*
Y132710D01*
G01X883200Y138180D02*
Y139700D01*
G01Y131290D02*
Y132900D01*
G01X883700Y137780D02*
Y139280D01*
G01Y131500D02*
Y133100D01*
G01X884200Y137370D02*
Y138850D01*
G01Y131710D02*
Y133290D01*
G01X884700Y136970D02*
Y138430D01*
G01Y131920D02*
Y133480D01*
G01X885200Y136570D02*
Y138010D01*
G01Y132130D02*
Y133680D01*
G01X885700Y136160D02*
Y137590D01*
G01Y132340D02*
Y133870D01*
G01X886200Y135760D02*
Y137170D01*
G01Y132550D02*
Y134060D01*
G01X886700Y135350D02*
Y136740D01*
G01Y132760D02*
Y134260D01*
G01X887200Y134950D02*
Y136320D01*
G01Y132970D02*
Y134450D01*
G01X887700Y133180D02*
Y135900D01*
G01X888200Y133390D02*
Y135480D01*
G01X888700Y133600D02*
Y135060D01*
G01X889200Y133540D02*
Y134960D01*
G01X889700Y133430D02*
Y134850D01*
G01X890200Y133330D02*
Y134750D01*
G01X890700Y133220D02*
Y134640D01*
G01X891200Y133110D02*
Y134540D01*
G01X891700Y133010D02*
Y134430D01*
G01X892200Y132900D02*
Y134320D01*
G01X831460Y125640D02*
X832050Y127760D01*
X832680Y129380D01*
X839400Y129000D01*
G02X839570Y128590I-21J-249D01*
G01X838880Y127730D01*
X837840Y126280D01*
X837050Y124960D01*
X836480Y123760D01*
X836090Y122650D01*
X835860Y121610D01*
X835750Y120620D01*
X835720Y119660D01*
X835840Y118190D01*
X836340Y116590D01*
X836820Y115850D01*
X837480Y115250D01*
X838340Y114850D01*
X839420Y114710D01*
X840430Y114820D01*
X841350Y115140D01*
X842240Y115680D01*
X843110Y116430D01*
X845040Y118550D01*
X847500Y121540D01*
X848560Y122810D01*
X849620Y123980D01*
X850700Y125050D01*
X851840Y125970D01*
X853100Y126730D01*
X854510Y127310D01*
X856120Y127680D01*
X857960Y127800D01*
X860550Y127560D01*
X863040Y126820D01*
X865360Y125590D01*
X867420Y123860D01*
X869160Y121630D01*
X870510Y118900D01*
X871370Y115660D01*
X871680Y111890D01*
X871600Y109650D01*
X871290Y106910D01*
X871000Y105400D01*
X870600Y103820D01*
X870080Y102200D01*
X869470Y100670D01*
X862680Y99780D01*
G02X862460Y100180I-26J246D01*
G01X862580Y100340D01*
X863490Y101620D01*
X864360Y103030D01*
X865150Y104530D01*
X865830Y106120D01*
X866360Y107750D01*
X866710Y109420D01*
X866840Y111100D01*
X866750Y112420D01*
X866500Y113630D01*
X866090Y114700D01*
X865520Y115630D01*
X864790Y116380D01*
X863920Y116950D01*
X862900Y117300D01*
X861770Y117420D01*
X860720Y117340D01*
X859780Y117080D01*
X858890Y116640D01*
X858000Y115990D01*
X856090Y114060D01*
X853580Y111150D01*
X852410Y109800D01*
X851250Y108550D01*
X850080Y107440D01*
X848870Y106480D01*
X847580Y105690D01*
X846190Y105100D01*
X844650Y104740D01*
X842940Y104610D01*
X840210Y104910D01*
X837810Y105780D01*
X835750Y107180D01*
X834040Y109040D01*
X832680Y111320D01*
X831690Y113970D01*
X831090Y116940D01*
X830890Y120170D01*
X831040Y123130D01*
X831460Y125640D01*
G01X831200Y116400D02*
Y124090D01*
G01X831700Y113950D02*
Y126520D01*
G01X832200Y112600D02*
Y128150D01*
G01X832700Y111280D02*
Y129380D01*
G01X833200Y110440D02*
Y129350D01*
G01X833700Y109600D02*
Y129320D01*
G01X834200Y108860D02*
Y129290D01*
G01X834700Y108320D02*
Y129260D01*
G01X835200Y107770D02*
Y129240D01*
G01X835700Y107230D02*
Y129210D01*
G01X836200Y122950D02*
Y129180D01*
G01Y106870D02*
Y117040D01*
G01X836700Y124220D02*
Y129150D01*
G01Y106530D02*
Y116030D01*
G01X837200Y125210D02*
Y129120D01*
G01Y106200D02*
Y115500D01*
G01X837700Y126040D02*
Y129090D01*
G01Y105860D02*
Y115150D01*
G01X838200Y126780D02*
Y129060D01*
G01Y105640D02*
Y114920D01*
G01X838700Y127490D02*
Y129040D01*
G01Y105460D02*
Y114800D01*
G01X839200Y128130D02*
Y129010D01*
G01Y105280D02*
Y114740D01*
G01X839700Y105100D02*
Y114740D01*
G01X840200Y104910D02*
Y114790D01*
G01X840700Y104860D02*
Y114910D01*
G01X841200Y104800D02*
Y115090D01*
G01X841700Y104750D02*
Y115350D01*
G01X842200Y104690D02*
Y115660D01*
G01X842700Y104640D02*
Y116080D01*
G01X843200Y104630D02*
Y116520D01*
G01X843700Y104660D02*
Y117080D01*
G01X844200Y104700D02*
Y117630D01*
G01X844700Y104750D02*
Y118180D01*
G01X845200Y104870D02*
Y118750D01*
G01X845700Y104990D02*
Y119360D01*
G01X846200Y105110D02*
Y119960D01*
G01X846700Y105320D02*
Y120570D01*
G01X847200Y105530D02*
Y121180D01*
G01X847700Y105760D02*
Y121780D01*
G01X848200Y106070D02*
Y122380D01*
G01X848700Y106370D02*
Y122960D01*
G01X849200Y106740D02*
Y123520D01*
G01X849700Y107130D02*
Y124060D01*
G01X850200Y107540D02*
Y124560D01*
G01X850700Y108020D02*
Y125050D01*
G01X851200Y108500D02*
Y125450D01*
G01X851700Y109030D02*
Y125860D01*
G01X852200Y109570D02*
Y126190D01*
G01X852700Y110130D02*
Y126490D01*
G01X853200Y110710D02*
Y126770D01*
G01X853700Y111290D02*
Y126980D01*
G01X854200Y111870D02*
Y127180D01*
G01X854700Y112450D02*
Y127350D01*
G01X855200Y113030D02*
Y127470D01*
G01X855700Y113610D02*
Y127580D01*
G01X856200Y114180D02*
Y127680D01*
G01X856700Y114680D02*
Y127720D01*
G01X857200Y115180D02*
Y127750D01*
G01X857700Y115680D02*
Y127790D01*
G01X858200Y116130D02*
Y127780D01*
G01X858700Y116500D02*
Y127740D01*
G01X859200Y116800D02*
Y127690D01*
G01X859700Y117040D02*
Y127640D01*
G01X860200Y117200D02*
Y127590D01*
G01X860700Y117330D02*
Y127520D01*
G01X861200Y117380D02*
Y127370D01*
G01X861700Y117420D02*
Y127220D01*
G01X862200Y117380D02*
Y127070D01*
G01X862700Y117320D02*
Y126920D01*
G01Y99780D02*
Y100500D01*
G01X863200Y117200D02*
Y126740D01*
G01Y99850D02*
Y101210D01*
G01X863700Y117020D02*
Y126470D01*
G01Y99910D02*
Y101960D01*
G01X864200Y116770D02*
Y126200D01*
G01Y99980D02*
Y102770D01*
G01X864700Y116440D02*
Y125940D01*
G01Y100040D02*
Y103670D01*
G01X865200Y115960D02*
Y125670D01*
G01Y100110D02*
Y104640D01*
G01X865700Y115340D02*
Y125300D01*
G01Y100180D02*
Y105810D01*
G01X866200Y114420D02*
Y124880D01*
G01Y100240D02*
Y107250D01*
G01X866700Y112670D02*
Y124470D01*
G01Y100310D02*
Y109370D01*
G01X867200Y100370D02*
Y124050D01*
G01X867700Y100440D02*
Y123510D01*
G01X868200Y100510D02*
Y122870D01*
G01X868700Y100570D02*
Y122230D01*
G01X869200Y100640D02*
Y121560D01*
G01X869700Y101250D02*
Y120540D01*
G01X870200Y102570D02*
Y119520D01*
G01X870700Y104210D02*
Y118170D01*
G01X871200Y106460D02*
Y116290D01*
G01X842030Y161770D02*
X842000Y161750D01*
G02X841610Y161950I-142J203D01*
G01Y177340D01*
G02X841920Y177580I248J0D01*
G01X846400Y176500D01*
G02X846510Y176060I-54J-247D01*
G01X846220Y175810D01*
X845920Y175350D01*
X845690Y174770D01*
X845540Y174070D01*
X845480Y173230D01*
Y170090D01*
X853810Y168190D01*
Y171280D01*
X853500Y174250D01*
G02X853800Y174520I247J27D01*
G01X858630Y173410D01*
X858640Y173210D01*
X858230Y172850D01*
X857940Y172410D01*
X857720Y171500D01*
X857690Y170630D01*
Y167320D01*
X864530Y165830D01*
X868310Y165280D01*
X869030Y165330D01*
X869720Y165540D01*
X870440Y165920D01*
X870480Y165940D01*
G02X870870Y165740I143J-202D01*
G01Y155350D01*
X870720Y155300D01*
X870060Y155950D01*
X869330Y156500D01*
X868530Y156950D01*
X866740Y157650D01*
X864630Y158200D01*
X847950Y161860D01*
X844170Y162420D01*
X843450Y162360D01*
X842760Y162160D01*
X842030Y161770D01*
G01X841700Y161760D02*
Y177540D01*
G01X842200Y161860D02*
Y177510D01*
G01X842700Y162120D02*
Y177390D01*
G01X843200Y162290D02*
Y177270D01*
G01X843700Y162380D02*
Y177150D01*
G01X844200Y162420D02*
Y177030D01*
G01X844700Y162340D02*
Y176910D01*
G01X845200Y162270D02*
Y176790D01*
G01X845700Y174790D02*
Y176660D01*
G01Y162190D02*
Y170040D01*
G01X846200Y175780D02*
Y176540D01*
G01Y162120D02*
Y169920D01*
G01X846700Y162040D02*
Y169810D01*
G01X847200Y161970D02*
Y169700D01*
G01X847700Y161900D02*
Y169580D01*
G01X848200Y161800D02*
Y169470D01*
G01X848700Y161700D02*
Y169360D01*
G01X849200Y161590D02*
Y169240D01*
G01X849700Y161480D02*
Y169130D01*
G01X850200Y161370D02*
Y169010D01*
G01X850700Y161260D02*
Y168900D01*
G01X851200Y161150D02*
Y168780D01*
G01X851700Y161040D02*
Y168670D01*
G01X852200Y160930D02*
Y168560D01*
G01X852700Y160820D02*
Y168440D01*
G01X853200Y160710D02*
Y168330D01*
G01X853700Y172330D02*
Y174520D01*
G01Y160600D02*
Y168220D01*
G01X854200Y160490D02*
Y174430D01*
G01X854700Y160380D02*
Y174310D01*
G01X855200Y160270D02*
Y174200D01*
G01X855700Y160160D02*
Y174080D01*
G01X856200Y160050D02*
Y173970D01*
G01X856700Y159940D02*
Y173850D01*
G01X857200Y159830D02*
Y173740D01*
G01X857700Y170980D02*
Y173620D01*
G01Y159720D02*
Y167320D01*
G01X858200Y172810D02*
Y173500D01*
G01Y159610D02*
Y167210D01*
G01X858700Y159500D02*
Y167100D01*
G01X859200Y159390D02*
Y166990D01*
G01X859700Y159280D02*
Y166880D01*
G01X860200Y159170D02*
Y166780D01*
G01X860700Y159060D02*
Y166670D01*
G01X861200Y158950D02*
Y166560D01*
G01X861700Y158840D02*
Y166450D01*
G01X862200Y158730D02*
Y166340D01*
G01X862700Y158620D02*
Y166230D01*
G01X863200Y158510D02*
Y166120D01*
G01X863700Y158400D02*
Y166010D01*
G01X864200Y158290D02*
Y165900D01*
G01X864700Y158180D02*
Y165800D01*
G01X865200Y158050D02*
Y165730D01*
G01X865700Y157920D02*
Y165660D01*
G01X866200Y157790D02*
Y165580D01*
G01X866700Y157660D02*
Y165510D01*
G01X867200Y157470D02*
Y165440D01*
G01X867700Y157280D02*
Y165360D01*
G01X868200Y157080D02*
Y165290D01*
G01X868700Y156860D02*
Y165310D01*
G01X869200Y156570D02*
Y165380D01*
G01X869700Y156220D02*
Y165530D01*
G01X870200Y155810D02*
Y165790D01*
G01X870700Y155320D02*
Y165980D01*
G01X894320Y174680D02*
Y164920D01*
G02X894010Y164680I-252J5D01*
G01X880490Y167550D01*
Y177170D01*
G02X880790Y177420I249J6D01*
G01X881700Y177230D01*
Y168720D01*
X886410Y167710D01*
Y175240D01*
G02X886710Y175480I248J-3D01*
G01X887620Y175290D01*
Y167460D01*
X893100Y166290D01*
Y174630D01*
G02X893400Y174870I249J-4D01*
G01X894320Y174680D01*
G01X880700Y167500D02*
Y177420D01*
G01X881200Y167400D02*
Y177330D01*
G01X881700Y167290D02*
Y177230D01*
G01X882200Y167190D02*
Y168620D01*
G01X882700Y167080D02*
Y168510D01*
G01X883200Y166980D02*
Y168400D01*
G01X883700Y166870D02*
Y168290D01*
G01X884200Y166760D02*
Y168180D01*
G01X884700Y166660D02*
Y168080D01*
G01X885200Y166550D02*
Y167970D01*
G01X885700Y166440D02*
Y167860D01*
G01X886200Y166340D02*
Y167750D01*
G01X886700Y166230D02*
Y175480D01*
G01X887200Y166130D02*
Y175380D01*
G01X887700Y166020D02*
Y167440D01*
G01X888200Y165910D02*
Y167340D01*
G01X888700Y165810D02*
Y167230D01*
G01X889200Y165700D02*
Y167120D01*
G01X889700Y165600D02*
Y167020D01*
G01X890200Y165490D02*
Y166910D01*
G01X890700Y165380D02*
Y166800D01*
G01X891200Y165280D02*
Y166690D01*
G01X891700Y165170D02*
Y166590D01*
G01X892200Y165060D02*
Y166480D01*
G01X882200Y158330D02*
Y159760D01*
G01X882700Y158220D02*
Y159650D01*
G01X883200Y158120D02*
Y159540D01*
G01X883700Y158010D02*
Y159440D01*
G01X884200Y157910D02*
Y159330D01*
G01X884700Y157800D02*
Y159220D01*
G01X885200Y157690D02*
Y159120D01*
G01X885700Y157590D02*
Y159010D01*
G01X886200Y157480D02*
Y158900D01*
G01X886700Y157370D02*
Y158800D01*
G01X887200Y157270D02*
Y158690D01*
G01X887700Y157160D02*
Y158580D01*
G01X888200Y157060D02*
Y158480D01*
G01X888700Y156950D02*
Y158370D01*
G01X889200Y156840D02*
Y158260D01*
G01X889700Y156740D02*
Y158160D01*
G01X890200Y156630D02*
Y158050D01*
G01X890700Y156520D02*
Y157940D01*
G01X891200Y156420D02*
Y157840D01*
G01X891700Y156310D02*
Y157730D01*
G01X892200Y156200D02*
Y157630D01*
G01X839200Y207310D02*
X833330D01*
Y208440D01*
X833340Y210590D01*
X834130Y212170D01*
X834850Y212360D01*
X835910Y211910D01*
X836590Y210280D01*
X837560Y211530D01*
X838300Y212010D01*
X838820Y212340D01*
G02X839200Y212120I129J-215D01*
G01Y211450D01*
X838280Y210950D01*
X837110Y210180D01*
X836570Y208850D01*
Y208190D01*
X839200D01*
Y207310D01*
G01X834900Y211440D02*
X835620Y211190D01*
X836070Y210120D01*
X836080Y209010D01*
Y208190D01*
X833830D01*
Y209020D01*
X833930Y210640D01*
X834900Y211440D01*
G01X833700Y207310D02*
Y211310D01*
G01X834200Y210870D02*
Y212190D01*
G01Y207310D02*
Y208190D01*
G01X834700Y211280D02*
Y212320D01*
G01Y207310D02*
Y208190D01*
G01X835200Y211340D02*
Y212210D01*
G01Y207310D02*
Y208190D01*
G01X835700Y211010D02*
Y212000D01*
G01Y207310D02*
Y208190D01*
G01X836200Y207310D02*
Y211210D01*
G01X836700Y209170D02*
Y210420D01*
G01Y207310D02*
Y208190D01*
G01X837200Y210240D02*
Y211060D01*
G01Y207310D02*
Y208190D01*
G01X837700Y210570D02*
Y211620D01*
G01Y207310D02*
Y208190D01*
G01X838200Y210890D02*
Y211940D01*
G01Y207310D02*
Y208190D01*
G01X838700Y211180D02*
Y212260D01*
G01Y207310D02*
Y208190D01*
G01X839200Y211450D02*
Y212150D01*
G01Y207310D02*
Y208190D01*
G01X830500Y209990D02*
X831260Y213100D01*
X833360Y215350D01*
X836250Y216180D01*
X839130Y215350D01*
X841220Y213080D01*
X841990Y209990D01*
X841210Y206870D01*
X839100Y204620D01*
X836250Y203800D01*
X833340Y204640D01*
X831240Y206940D01*
X830500Y209990D01*
G01X838820Y205280D02*
X836250Y204540D01*
X833690Y205300D01*
X831840Y207270D01*
X831170Y210000D01*
X831810Y212690D01*
X833670Y214700D01*
X836250Y215460D01*
X838790Y214730D01*
X840670Y212740D01*
X841350Y210000D01*
X840690Y207300D01*
X838820Y205280D01*
G01X830700Y209150D02*
Y210810D01*
G01X831200Y210130D02*
Y212840D01*
G01Y207090D02*
Y209860D01*
G01X831700Y212210D02*
Y213570D01*
G01Y206430D02*
Y207820D01*
G01X832200Y213110D02*
Y214110D01*
G01Y205890D02*
Y206880D01*
G01X832700Y213650D02*
Y214640D01*
G01Y205340D02*
Y206350D01*
G01X833200Y214190D02*
Y215180D01*
G01Y204800D02*
Y205820D01*
G01X833700Y214710D02*
Y215450D01*
G01Y204540D02*
Y205290D01*
G01X834200Y214860D02*
Y215590D01*
G01Y204390D02*
Y205140D01*
G01X834700Y215000D02*
Y215740D01*
G01Y204250D02*
Y205000D01*
G01X835200Y215150D02*
Y215880D01*
G01Y204100D02*
Y204850D01*
G01X835700Y215300D02*
Y216020D01*
G01Y203960D02*
Y204710D01*
G01X836200Y215440D02*
Y216160D01*
G01Y203810D02*
Y204560D01*
G01X836700Y215330D02*
Y216050D01*
G01Y203930D02*
Y204670D01*
G01X837200Y215190D02*
Y215900D01*
G01Y204070D02*
Y204820D01*
G01X837700Y215040D02*
Y215760D01*
G01Y204210D02*
Y204960D01*
G01X838200Y214900D02*
Y215610D01*
G01Y204360D02*
Y205100D01*
G01X838700Y214760D02*
Y215470D01*
G01Y204500D02*
Y205250D01*
G01X839200Y214300D02*
Y215270D01*
G01Y204720D02*
Y205690D01*
G01X839700Y213760D02*
Y214730D01*
G01Y205260D02*
Y206230D01*
G01X840200Y213230D02*
Y214190D01*
G01Y205790D02*
Y206780D01*
G01X840700Y212600D02*
Y213650D01*
G01Y206320D02*
Y207350D01*
G01X841200Y210610D02*
Y213110D01*
G01Y206860D02*
Y209380D01*
G01X841700Y208820D02*
Y211170D01*
G01X892160Y195860D02*
X893060Y197200D01*
X893520Y199420D01*
X892630Y202100D01*
X890170Y203210D01*
X888720Y202510D01*
X888000Y200770D01*
X887700Y199770D01*
X886500Y197850D01*
X884720Y197230D01*
X883670Y197340D01*
X882680Y197690D01*
X881800Y198280D01*
X881070Y199120D01*
X880620Y199940D01*
X880360Y200780D01*
X880230Y201610D01*
X880200Y202360D01*
X880810Y204920D01*
X881480Y205760D01*
G02X881860Y205780I199J-159D01*
G01X882550Y205080D01*
X881780Y204090D01*
X881320Y202230D01*
X881970Y200110D01*
X882620Y199450D01*
X883260Y199090D01*
X883830Y198940D01*
X884270Y198900D01*
X885620Y199430D01*
X886410Y201110D01*
X886790Y202410D01*
X887820Y204220D01*
X889790Y204950D01*
X890830Y204800D01*
X891830Y204380D01*
X892720Y203720D01*
X893460Y202890D01*
X893890Y202170D01*
X894240Y201280D01*
X894470Y200220D01*
X894560Y198990D01*
X893900Y196110D01*
X893280Y195190D01*
G02X892900Y195150I-207J143D01*
G01X892160Y195860D01*
G01X880200Y202290D02*
Y202370D01*
G01X880700Y199800D02*
Y204470D01*
G01X881200Y198970D02*
Y205400D01*
G01X881700Y203770D02*
Y205850D01*
G01Y198400D02*
Y200990D01*
G01X882200Y204630D02*
Y205430D01*
G01Y198020D02*
Y199870D01*
G01X882700Y197690D02*
Y199400D01*
G01X883200Y197510D02*
Y199120D01*
G01X883700Y197340D02*
Y198970D01*
G01X884200Y197280D02*
Y198910D01*
G01X884700Y197230D02*
Y199070D01*
G01X885200Y197400D02*
Y199260D01*
G01X885700Y197570D02*
Y199600D01*
G01X886200Y197750D02*
Y200670D01*
G01X886700Y198180D02*
Y202090D01*
G01X887200Y198970D02*
Y203130D01*
G01X887700Y199770D02*
Y204020D01*
G01X888200Y201260D02*
Y204360D01*
G01X888700Y202470D02*
Y204550D01*
G01X889200Y202740D02*
Y204730D01*
G01X889700Y202980D02*
Y204910D01*
G01X890200Y203200D02*
Y204890D01*
G01X890700Y202970D02*
Y204820D01*
G01X891200Y202740D02*
Y204640D01*
G01X891700Y202520D02*
Y204430D01*
G01X892200Y202290D02*
Y204100D01*
G01Y195820D02*
Y195930D01*
G01X841960Y200610D02*
X846830Y198360D01*
G02X846890Y197950I-109J-225D01*
G01X846840Y197900D01*
X846200Y197020D01*
X845690Y195790D01*
X845480Y194170D01*
Y192770D01*
X864530Y188560D01*
X868310Y188000D01*
X869230Y188120D01*
X870030Y188410D01*
X870720Y188810D01*
X870870Y188740D01*
Y178120D01*
X870680Y178050D01*
X870020Y178700D01*
X869340Y179240D01*
X868600Y179680D01*
X866870Y180360D01*
X864630Y180930D01*
X845480Y185160D01*
Y182420D01*
X845690Y180800D01*
X846200Y179560D01*
X846390Y179300D01*
G02X846130Y178900I-198J-156D01*
G01X841610Y179940D01*
Y200380D01*
G02X841960Y200610I250J1D01*
G01X841700Y179920D02*
Y200570D01*
G01X842200Y179800D02*
Y200500D01*
G01X842700Y179690D02*
Y200260D01*
G01X843200Y179570D02*
Y200030D01*
G01X843700Y179460D02*
Y199800D01*
G01X844200Y179350D02*
Y199570D01*
G01X844700Y179230D02*
Y199340D01*
G01X845200Y179120D02*
Y199110D01*
G01X845700Y195820D02*
Y198880D01*
G01Y185110D02*
Y192720D01*
G01Y179000D02*
Y180770D01*
G01X846200Y197030D02*
Y198650D01*
G01Y185000D02*
Y192610D01*
G01Y178900D02*
Y179560D01*
G01X846700Y197710D02*
Y198420D01*
G01Y184890D02*
Y192500D01*
G01X847200Y184780D02*
Y192390D01*
G01X847700Y184670D02*
Y192280D01*
G01X848200Y184560D02*
Y192170D01*
G01X848700Y184450D02*
Y192060D01*
G01X849200Y184340D02*
Y191950D01*
G01X849700Y184220D02*
Y191840D01*
G01X850200Y184120D02*
Y191730D01*
G01X850700Y184000D02*
Y191620D01*
G01X851200Y183890D02*
Y191510D01*
G01X851700Y183780D02*
Y191400D01*
G01X852200Y183670D02*
Y191280D01*
G01X852700Y183560D02*
Y191180D01*
G01X853200Y183450D02*
Y191060D01*
G01X853700Y183340D02*
Y190950D01*
G01X854200Y183230D02*
Y190840D01*
G01X854700Y183120D02*
Y190730D01*
G01X855200Y183010D02*
Y190620D01*
G01X855700Y182900D02*
Y190510D01*
G01X856200Y182790D02*
Y190400D01*
G01X856700Y182680D02*
Y190290D01*
G01X857200Y182570D02*
Y190180D01*
G01X857700Y182460D02*
Y190070D01*
G01X858200Y182350D02*
Y189960D01*
G01X858700Y182240D02*
Y189850D01*
G01X859200Y182130D02*
Y189740D01*
G01X859700Y182020D02*
Y189620D01*
G01X860200Y181900D02*
Y189520D01*
G01X860700Y181800D02*
Y189400D01*
G01X861200Y181680D02*
Y189290D01*
G01X861700Y181570D02*
Y189180D01*
G01X862200Y181460D02*
Y189070D01*
G01X862700Y181350D02*
Y188960D01*
G01X863200Y181240D02*
Y188850D01*
G01X863700Y181130D02*
Y188740D01*
G01X864200Y181020D02*
Y188630D01*
G01X864700Y180910D02*
Y188530D01*
G01X865200Y180780D02*
Y188460D01*
G01X865700Y180660D02*
Y188380D01*
G01X866200Y180530D02*
Y188310D01*
G01X866700Y180410D02*
Y188240D01*
G01X867200Y180230D02*
Y188160D01*
G01X867700Y180040D02*
Y188090D01*
G01X868200Y179840D02*
Y188020D01*
G01X868700Y179620D02*
Y188050D01*
G01X869200Y179320D02*
Y188110D01*
G01X869700Y178960D02*
Y188290D01*
G01X870200Y178530D02*
Y188510D01*
G01X870700Y178060D02*
Y188800D01*
G01X892600Y184810D02*
Y185220D01*
X880490Y191870D01*
Y193850D01*
G02X880790Y194090I248J-2D01*
G01X894320Y191220D01*
Y190170D01*
G02X894010Y189920I-253J-3D01*
G01X886150Y191590D01*
X882280Y192490D01*
Y192010D01*
X894320Y185400D01*
Y183850D01*
X882280Y182390D01*
Y181910D01*
X886050Y181150D01*
X894320Y179400D01*
Y178340D01*
G02X894010Y178100I-252J5D01*
G01X880490Y180970D01*
Y183310D01*
X892600Y184810D01*
G01X880700Y191750D02*
Y194100D01*
G01Y180930D02*
Y183340D01*
G01X881200Y191480D02*
Y194000D01*
G01Y180820D02*
Y183400D01*
G01X881700Y191200D02*
Y193900D01*
G01Y180710D02*
Y183460D01*
G01X882200Y190930D02*
Y193790D01*
G01Y180610D02*
Y183520D01*
G01X882700Y192390D02*
Y193690D01*
G01Y190660D02*
Y191780D01*
G01Y182440D02*
Y183580D01*
G01Y180500D02*
Y181820D01*
G01X883200Y192280D02*
Y193580D01*
G01Y190380D02*
Y191500D01*
G01Y182500D02*
Y183650D01*
G01Y180400D02*
Y181720D01*
G01X883700Y192160D02*
Y193480D01*
G01Y190110D02*
Y191230D01*
G01Y182560D02*
Y183710D01*
G01Y180290D02*
Y181620D01*
G01X884200Y192040D02*
Y193370D01*
G01Y189830D02*
Y190950D01*
G01Y182630D02*
Y183770D01*
G01Y180180D02*
Y181520D01*
G01X884700Y191930D02*
Y193260D01*
G01Y189560D02*
Y190680D01*
G01Y182690D02*
Y183830D01*
G01Y180080D02*
Y181420D01*
G01X885200Y191810D02*
Y193160D01*
G01Y189280D02*
Y190400D01*
G01Y182750D02*
Y183890D01*
G01Y179970D02*
Y181320D01*
G01X885700Y191700D02*
Y193050D01*
G01Y189010D02*
Y190130D01*
G01Y182810D02*
Y183960D01*
G01Y179860D02*
Y181220D01*
G01X886200Y191580D02*
Y192940D01*
G01Y188740D02*
Y189850D01*
G01Y182870D02*
Y184020D01*
G01Y179760D02*
Y181120D01*
G01X886700Y191480D02*
Y192840D01*
G01Y188460D02*
Y189580D01*
G01Y182930D02*
Y184080D01*
G01Y179650D02*
Y181010D01*
G01X887200Y191370D02*
Y192730D01*
G01Y188190D02*
Y189300D01*
G01Y182990D02*
Y184140D01*
G01Y179550D02*
Y180910D01*
G01X887700Y191260D02*
Y192630D01*
G01Y187910D02*
Y189030D01*
G01Y183050D02*
Y184200D01*
G01Y179440D02*
Y180800D01*
G01X888200Y191160D02*
Y192520D01*
G01Y187640D02*
Y188750D01*
G01Y183110D02*
Y184260D01*
G01Y179340D02*
Y180700D01*
G01X888700Y191050D02*
Y192410D01*
G01Y187360D02*
Y188480D01*
G01Y183170D02*
Y184330D01*
G01Y179230D02*
Y180590D01*
G01X889200Y190950D02*
Y192310D01*
G01Y187090D02*
Y188200D01*
G01Y183230D02*
Y184390D01*
G01Y179120D02*
Y180480D01*
G01X889700Y190840D02*
Y192200D01*
G01Y186810D02*
Y187930D01*
G01Y183290D02*
Y184450D01*
G01Y179020D02*
Y180380D01*
G01X890200Y190730D02*
Y192100D01*
G01Y186540D02*
Y187660D01*
G01Y183350D02*
Y184510D01*
G01Y178910D02*
Y180270D01*
G01X890700Y190630D02*
Y191990D01*
G01Y186260D02*
Y187380D01*
G01Y183410D02*
Y184580D01*
G01Y178800D02*
Y180170D01*
G01X891200Y190520D02*
Y191880D01*
G01Y185990D02*
Y187110D01*
G01Y183480D02*
Y184640D01*
G01Y178700D02*
Y180060D01*
G01X891700Y190420D02*
Y191780D01*
G01Y185720D02*
Y186830D01*
G01Y183540D02*
Y184700D01*
G01Y178590D02*
Y179960D01*
G01X892200Y190310D02*
Y191670D01*
G01Y185440D02*
Y186560D01*
G01Y183600D02*
Y184760D01*
G01Y178490D02*
Y179850D01*
G01X892700Y123810D02*
Y125680D01*
G01Y117280D02*
Y118600D01*
G01X893200Y122310D02*
Y125120D01*
G01Y117050D02*
Y119800D01*
G01X893700Y117750D02*
Y124420D01*
G01X894200Y119350D02*
Y123310D01*
G01X892700Y147680D02*
Y149550D01*
G01Y141150D02*
Y142470D01*
G01X893200Y146180D02*
Y149000D01*
G01Y140930D02*
Y143670D01*
G01X893700Y141620D02*
Y148300D01*
G01X894200Y143220D02*
Y147180D01*
G01X892700Y132800D02*
Y134220D01*
G01X893200Y132690D02*
Y134110D01*
G01X893700Y132580D02*
Y134000D01*
G01X894200Y132550D02*
Y133900D01*
G01X892700Y164960D02*
Y166370D01*
G01X893200Y164850D02*
Y174830D01*
G01X893700Y164750D02*
Y174810D01*
G01X894200Y164720D02*
Y174700D01*
G01X892700Y156100D02*
Y157520D01*
G01X893200Y155990D02*
Y157410D01*
G01X893700Y155880D02*
Y157310D01*
G01X894200Y155850D02*
Y157200D01*
G01X892700Y201870D02*
Y203740D01*
G01Y195350D02*
Y196660D01*
G01X893200Y200370D02*
Y203190D01*
G01Y195120D02*
Y197860D01*
G01X893700Y195810D02*
Y202490D01*
G01X894200Y197420D02*
Y201380D01*
G01X892700Y190200D02*
Y191570D01*
G01Y183660D02*
Y186280D01*
G01Y178380D02*
Y179740D01*
G01X893200Y190100D02*
Y191460D01*
G01Y183720D02*
Y186010D01*
G01Y178270D02*
Y179640D01*
G01X893700Y189990D02*
Y191350D01*
G01Y183780D02*
Y185730D01*
G01Y178170D02*
Y179530D01*
G01X894200Y189960D02*
Y191250D01*
G01Y183840D02*
Y185460D01*
G01Y178140D02*
Y179430D01*
G54D11*
G01X-343300Y-180800D02*
Y-301800D01*
X-456800D01*
Y-180800D01*
X-343300D01*
G01X-474200Y-155350D02*
X-476200D01*
Y-111350D01*
X-474200D01*
G01X-440200Y-155350D02*
X-439200D01*
Y-111350D01*
X-440200D01*
G01X-409800Y-93200D02*
Y-95200D01*
X-453800D01*
Y-93200D01*
G01X-409800Y-59200D02*
Y-58200D01*
X-453800D01*
Y-59200D01*
G01X-474200Y32700D02*
Y-7300D01*
G01X-440200D02*
Y32700D01*
G01X-306100Y155750D02*
Y99750D01*
X-468100D01*
Y154750D01*
G01Y185750D02*
Y266750D01*
X-306100D01*
G01X-372600Y-111350D02*
X-373600D01*
Y-155350D01*
X-372600D01*
G01X-423400D02*
X-425400D01*
Y-111350D01*
X-423400D01*
G01X-389400Y-155350D02*
X-388400D01*
Y-111350D01*
X-389400D01*
G01X-423400Y32700D02*
Y-7300D01*
G01X-389400D02*
Y32700D01*
G01X-372600D02*
Y-7300D01*
G01X-308450Y-263400D02*
Y-295400D01*
X-306450Y-297400D01*
X-290450D01*
X-288450Y-295400D01*
Y-263400D01*
X-290450Y-261400D01*
X-306450D01*
X-308450Y-263400D01*
G01X-288450Y-219200D02*
Y-187200D01*
X-290450Y-185200D01*
X-306450D01*
X-308450Y-187200D01*
Y-219200D01*
X-306450Y-221200D01*
X-290450D01*
X-288450Y-219200D01*
G01X-338600Y-111350D02*
X-336600D01*
Y-155350D01*
X-338600D01*
G01X-321800D02*
X-323800D01*
Y-111350D01*
X-321800D01*
G01X-308200Y-93200D02*
Y-95200D01*
X-352200D01*
Y-93200D01*
G01X-308200Y-59200D02*
Y-58200D01*
X-352200D01*
Y-59200D01*
G01X-338600Y-7300D02*
Y32700D01*
G01X-321800D02*
Y-7300D01*
G01X-306100Y266750D02*
Y184750D01*
G01X-203200Y-178400D02*
Y-304200D01*
X-254000D01*
Y-178400D01*
X-203200D01*
G01X-287800Y-155350D02*
X-286800D01*
Y-111350D01*
X-287800D01*
G01Y-7300D02*
Y32700D01*
G01X-163000Y-288000D02*
X-165000D01*
Y-244000D01*
X-163000D01*
G01X-163050Y-212500D02*
X-165050D01*
Y-168500D01*
X-163050D01*
G01X-184550Y-165100D02*
X-209150D01*
Y38100D01*
G01X-184550Y37800D02*
Y-165100D01*
G01X-166000Y-12450D02*
X-88000D01*
Y-76450D01*
X-166000D01*
Y-12450D01*
G01X-92000Y-44450D02*
X-162000D01*
G01X-209150Y38100D02*
X-184550D01*
G01X-50800Y234950D02*
Y133350D01*
X-177800D01*
Y234950D01*
G01D02*
X-50800D01*
G01X-129000Y-288000D02*
X-128000D01*
Y-244000D01*
X-129000D01*
G01X-85600Y-275750D02*
X-117600D01*
X-119600Y-277750D01*
Y-293750D01*
X-117600Y-295750D01*
X-85600D01*
X-83600Y-293750D01*
Y-277750D01*
X-85600Y-275750D01*
G01Y-250350D02*
X-117600D01*
X-119600Y-252350D01*
Y-268350D01*
X-117600Y-270350D01*
X-85600D01*
X-83600Y-268350D01*
Y-252350D01*
X-85600Y-250350D01*
G01X-119600Y-224950D02*
X-83600D01*
G01Y-244950D02*
X-119600D01*
G01D02*
Y-224950D01*
G01X-83600Y-219550D02*
X-119600D01*
G01D02*
Y-199550D01*
G01D02*
X-83600D01*
G01X-129050Y-212500D02*
X-128050D01*
Y-168500D01*
X-129050D01*
G01X-107700Y-126900D02*
X-82300D01*
G01X-107700Y-177700D02*
Y-126900D01*
G01X-82300Y-177700D02*
X-107700D01*
G01X-109000Y-10000D02*
X-145000D01*
G01D02*
Y10000D01*
G01D02*
X-109000D01*
G01D02*
Y-10000D01*
G01X-109330Y113400D02*
Y64400D01*
X-131970D01*
Y113400D01*
X-109330D01*
G01X-83600Y-224950D02*
Y-244950D01*
G01Y-199550D02*
Y-219550D01*
G01X69650Y-127200D02*
Y-215700D01*
X-18850D01*
Y-127200D01*
X69650D01*
G01X-82300Y-126900D02*
Y-177700D01*
G01X29750Y29750D02*
Y-29750D01*
X-29750D01*
Y29750D01*
X29750D01*
G01X-41150Y105250D02*
X-73150D01*
X-75150Y103250D01*
Y87250D01*
X-73150Y85250D01*
X-41150D01*
X-39150Y87250D01*
Y103250D01*
X-41150Y105250D01*
G01X-28450Y79850D02*
X-60450D01*
X-62450Y77850D01*
Y61850D01*
X-60450Y59850D01*
X-28450D01*
X-26450Y61850D01*
Y77850D01*
X-28450Y79850D01*
G01X-11320Y-297550D02*
Y-248550D01*
X11320D01*
Y-297550D01*
X-11320D01*
G01X139700Y234950D02*
Y133350D01*
X12700D01*
Y234950D01*
G01D02*
X139700D01*
G01X59850Y-250700D02*
Y-282700D01*
X61850Y-284700D01*
X77850D01*
X79850Y-282700D01*
Y-250700D01*
X77850Y-248700D01*
X61850D01*
X59850Y-250700D01*
G01X87500Y29000D02*
Y61000D01*
X85500Y63000D01*
X69500D01*
X67500Y61000D01*
Y29000D01*
X69500Y27000D01*
X85500D01*
X87500Y29000D01*
G01X200150Y-282100D02*
X168150D01*
X166150Y-284100D01*
Y-300100D01*
X168150Y-302100D01*
X200150D01*
X202150Y-300100D01*
Y-284100D01*
X200150Y-282100D01*
G01Y-256700D02*
X168150D01*
X166150Y-258700D01*
Y-274700D01*
X168150Y-276700D01*
X200150D01*
X202150Y-274700D01*
Y-258700D01*
X200150Y-256700D01*
G01X162050Y-269400D02*
X130050D01*
X128050Y-271400D01*
Y-287400D01*
X130050Y-289400D01*
X162050D01*
X164050Y-287400D01*
Y-271400D01*
X162050Y-269400D01*
G01Y-244000D02*
X130050D01*
X128050Y-246000D01*
Y-262000D01*
X130050Y-264000D01*
X162050D01*
X164050Y-262000D01*
Y-246000D01*
X162050Y-244000D01*
G01X194150Y-185200D02*
Y-221200D01*
G01D02*
X174150D01*
G01D02*
Y-185200D01*
G01X200150Y-231300D02*
X168150D01*
X166150Y-233300D01*
Y-249300D01*
X168150Y-251300D01*
X200150D01*
X202150Y-249300D01*
Y-233300D01*
X200150Y-231300D01*
G01X174150Y-185200D02*
X194150D01*
G01X190000Y-38500D02*
Y-6500D01*
X188000Y-4500D01*
X172000D01*
X170000Y-6500D01*
Y-38500D01*
X172000Y-40500D01*
X188000D01*
X190000Y-38500D01*
G01X170000Y31000D02*
Y-1000D01*
X172000Y-3000D01*
X188000D01*
X190000Y-1000D01*
Y31000D01*
X188000Y33000D01*
X172000D01*
X170000Y31000D01*
G01X208300Y-200150D02*
X273300D01*
Y-168150D01*
X208300D01*
Y-200150D01*
G01X272000Y-257650D02*
X236000D01*
G01D02*
Y-237650D01*
G01D02*
X272000D01*
G01X196300Y88550D02*
X286300D01*
Y-113950D01*
X196300D01*
Y88550D01*
G01X222250Y149860D02*
X438150D01*
G01X222250Y234950D02*
Y149860D01*
G01X272000Y-237650D02*
Y-257650D01*
G01X286800Y-237650D02*
X322800D01*
G01D02*
Y-257650D01*
G01D02*
X286800D01*
G01D02*
Y-237650D01*
G01X308450Y-185200D02*
Y-221200D01*
G01D02*
X288450D01*
G01D02*
Y-185200D01*
G01X317850Y-139100D02*
X314850D01*
Y-191100D01*
X317850D01*
G01X329850D02*
X332850D01*
Y-139100D01*
X329850D01*
G01X317850Y-133100D02*
X329850D01*
G01X323850Y-127100D02*
Y-139100D01*
G01X288450Y-185200D02*
X308450D01*
G01X400600Y-120300D02*
X310600D01*
Y82200D01*
X400600D01*
Y-120300D01*
G01X375600Y-168200D02*
Y-238200D01*
X335600D01*
Y-168200D01*
X375600D01*
G01X360600Y-247200D02*
X350600D01*
G01X355600Y-242200D02*
Y-252200D01*
G01X403700Y-231900D02*
Y-199900D01*
X401700Y-197900D01*
X385700D01*
X383700Y-199900D01*
Y-231900D01*
X385700Y-233900D01*
X401700D01*
X403700Y-231900D01*
G01X381350Y-139100D02*
X378350D01*
Y-191100D01*
X381350D01*
G01X393350D02*
X396350D01*
Y-139100D01*
X393350D01*
G01X381350Y-133100D02*
X393350D01*
G01X387350Y-127100D02*
Y-139100D01*
G01X435600Y-186550D02*
X529600D01*
Y-232550D01*
X435600D01*
Y-186550D01*
G01X429100Y-231900D02*
Y-199900D01*
X427100Y-197900D01*
X411100D01*
X409100Y-199900D01*
Y-231900D01*
X411100Y-233900D01*
X427100D01*
X429100Y-231900D01*
G01X431600Y-178550D02*
Y-188710D01*
G01X426520Y-183630D02*
X436680D01*
G01X438150Y149860D02*
Y234950D01*
G01X543550Y-186550D02*
X637550D01*
Y-232550D01*
X543550D01*
Y-186550D01*
G01X539550Y-178550D02*
Y-188710D01*
G01X534470Y-183630D02*
X544630D01*
G01X605950Y-72900D02*
Y-104900D01*
X607950Y-106900D01*
X623950D01*
X625950Y-104900D01*
Y-72900D01*
X623950Y-70900D01*
X607950D01*
X605950Y-72900D01*
G01X684700Y113100D02*
Y-36900D01*
X609700D01*
Y113100D01*
X684700D01*
G01X810100Y308350D02*
Y188350D01*
X586900D01*
Y308350D01*
X810100D01*
G01X676100Y-131650D02*
X701500D01*
G01X676100Y-182450D02*
Y-131650D01*
G01X701500Y-182450D02*
X676100D01*
G01X663700Y-123350D02*
X631700D01*
X629700Y-125350D01*
Y-141350D01*
X631700Y-143350D01*
X663700D01*
X665700Y-141350D01*
Y-125350D01*
X663700Y-123350D01*
G01X649700Y-116600D02*
X640700D01*
Y-108600D01*
G01Y-94600D02*
Y-86600D01*
X649700D01*
G01X654700Y-98600D02*
Y-104600D01*
G01X649700Y-78500D02*
X640700D01*
Y-70500D01*
G01Y-56500D02*
Y-48500D01*
X649700D01*
G01X654700Y-60500D02*
Y-66500D01*
G01X669700Y137400D02*
Y134400D01*
X625700D01*
Y137400D01*
G01X625750Y167390D02*
Y170390D01*
G01D02*
X669750D01*
G01D02*
Y167390D01*
G01X701500Y-131650D02*
Y-182450D01*
G01X765300Y-123350D02*
X733300D01*
X731300Y-125350D01*
Y-141350D01*
X733300Y-143350D01*
X765300D01*
X767300Y-141350D01*
Y-125350D01*
X765300Y-123350D01*
G01X751300Y-116600D02*
X742300D01*
Y-108600D01*
G01Y-94600D02*
Y-86600D01*
X751300D01*
G01Y-78500D02*
X742300D01*
Y-70500D01*
G01Y-56500D02*
Y-48500D01*
X751300D01*
G01X707550Y-72900D02*
Y-104900D01*
X709550Y-106900D01*
X725550D01*
X727550Y-104900D01*
Y-72900D01*
X725550Y-70900D01*
X709550D01*
X707550Y-72900D01*
G01X786300Y113100D02*
Y-36900D01*
X711300D01*
Y113100D01*
X786300D01*
G01X771300Y137400D02*
Y134400D01*
X727300D01*
Y137400D01*
G01X727350Y167390D02*
Y170390D01*
G01D02*
X771350D01*
G01X812200Y-279750D02*
Y-289750D01*
G01X807200Y-284750D02*
X816000D01*
G01X812200Y-228950D02*
Y-238950D01*
G01X807200Y-233950D02*
X816000D01*
G01X777750Y-219550D02*
X809750D01*
X811750Y-217550D01*
Y-201550D01*
X809750Y-199550D01*
X777750D01*
X775750Y-201550D01*
Y-217550D01*
X777750Y-219550D01*
G01X812200Y-127350D02*
Y-137350D01*
G01X807200Y-132350D02*
X816000D01*
G01X812200Y-178150D02*
Y-188150D01*
G01X807200Y-183150D02*
X816000D01*
G01X812200Y-76550D02*
Y-86550D01*
G01X807200Y-81550D02*
X816000D01*
G01X756300Y-98600D02*
Y-104600D01*
G01Y-60500D02*
Y-66500D01*
G01X812200Y-25750D02*
Y-35750D01*
G01X807200Y-30750D02*
X816000D01*
G01X771350Y170390D02*
Y167390D01*
G01X850200Y-274750D02*
G03X826200I-12000J-10633D01*
G01X826310Y-296600D02*
G03X850310I12000J10634D01*
G01X850200Y-223950D02*
G03X826200I-12000J-10633D01*
G01X826310Y-245800D02*
G03X850310I12000J10634D01*
G01X826310Y-195000D02*
G03X850310I12000J10634D01*
G01X895640Y-225570D02*
X898010Y-224040D01*
X899360Y-222010D01*
X899700Y-219730D01*
X899360Y-217690D01*
X897670Y-215660D01*
X895640Y-214390D01*
X893600Y-214140D01*
X891230Y-214650D01*
X889540Y-216420D01*
X888860Y-218200D01*
Y-220490D01*
G01Y-218200D02*
X887850Y-216680D01*
X886150Y-215410D01*
X884120Y-214900D01*
X882090Y-215410D01*
X880400Y-216680D01*
X879380Y-218960D01*
X879720Y-221250D01*
X881070Y-223540D01*
G01X900380Y-199660D02*
X900040Y-200170D01*
X899360D01*
X899020Y-199660D01*
X899360Y-199150D01*
X900040D01*
X900380Y-199660D01*
G01X899700Y-179340D02*
X879380D01*
X883440Y-182390D01*
G01X899700D02*
Y-176290D01*
G01Y-155970D02*
X879380D01*
X893940Y-165370D01*
Y-152670D01*
G01X879380Y-138700D02*
X880060Y-140730D01*
X881750Y-142260D01*
X883780Y-143270D01*
X886490Y-144030D01*
X889540Y-144290D01*
X892590Y-144030D01*
X895300Y-143270D01*
X897330Y-142260D01*
X899020Y-140730D01*
X899700Y-138700D01*
X899020Y-136670D01*
X897330Y-135140D01*
X895300Y-134130D01*
X892590Y-133370D01*
X889540Y-133110D01*
X886490Y-133370D01*
X883780Y-134130D01*
X881750Y-135140D01*
X880060Y-136670D01*
X879380Y-138700D01*
G01X900380Y-118380D02*
X900040Y-118890D01*
X899360D01*
X899020Y-118380D01*
X899360Y-117870D01*
X900040D01*
X900380Y-118380D01*
G01X897330Y-102380D02*
X899020Y-100600D01*
X899700Y-98570D01*
X899020Y-96540D01*
X896990Y-94760D01*
X893940Y-93490D01*
X890890Y-92980D01*
X887170D01*
X884120Y-93490D01*
X881410Y-94760D01*
X880060Y-96280D01*
X879380Y-98060D01*
X880060Y-100090D01*
X881410Y-101620D01*
X883440Y-102630D01*
X886150Y-103140D01*
X888520Y-102630D01*
X890890Y-101360D01*
X892250Y-99840D01*
X892590Y-98060D01*
X891910Y-96030D01*
X890220Y-94500D01*
X887170Y-92980D01*
G01X891230Y-82570D02*
X888860Y-80790D01*
X887510Y-79260D01*
X886830Y-77230D01*
X887510Y-75450D01*
X888860Y-74180D01*
X890890Y-73170D01*
X893270Y-72910D01*
X895300Y-73170D01*
X897330Y-74180D01*
X899020Y-75710D01*
X899700Y-77490D01*
X899020Y-79520D01*
X896990Y-81300D01*
X893940Y-82310D01*
X890560Y-82570D01*
X886150Y-82060D01*
X883780Y-81300D01*
X881410Y-80030D01*
X879720Y-78250D01*
X879380Y-76470D01*
X880060Y-74690D01*
X881750Y-73420D01*
G01X899700Y-57420D02*
X899360Y-55640D01*
X898350Y-53610D01*
X896650Y-52340D01*
X894280Y-51830D01*
X891910Y-52340D01*
X889880Y-53860D01*
X888860Y-56150D01*
Y-58690D01*
X888190Y-60210D01*
X886490Y-61480D01*
X884120Y-61990D01*
X881750Y-61230D01*
X880060Y-59450D01*
X879380Y-57420D01*
X880060Y-55390D01*
X881750Y-53610D01*
X884120Y-52850D01*
X886490Y-53360D01*
X888190Y-54630D01*
X888860Y-56150D01*
Y-58690D01*
X889880Y-60980D01*
X891910Y-62500D01*
X894280Y-63010D01*
X896650Y-62500D01*
X898350Y-61230D01*
X899360Y-59200D01*
X899700Y-57420D01*
G01X826310Y-144200D02*
G03X850310I12000J10634D01*
G01X850200Y-173150D02*
G03X826200I-12000J-10633D01*
G01X850200Y-122350D02*
G03X826200I-12000J-10633D01*
G01X850200Y-71550D02*
G03X826200I-12000J-10633D01*
G01X826310Y-93400D02*
G03X850310I12000J10634D01*
G01X850200Y-20750D02*
G03X826200I-12000J-10633D01*
G01X826310Y-42600D02*
G03X850310I12000J10634D01*
G01X895700Y-233600D02*
X897700Y-231600D01*
X899700Y-233600D01*
X895700D01*
G01X937800Y-224810D02*
X917480D01*
Y-215150D01*
G01X927300Y-218710D02*
Y-224810D01*
G01X917480Y-202710D02*
Y-196610D01*
G01Y-199660D02*
X937800D01*
G01Y-202710D02*
Y-196610D01*
G01X926960Y-177310D02*
X925950Y-176290D01*
X924250Y-175530D01*
X921880Y-175020D01*
X919850Y-175530D01*
X918500Y-176550D01*
X917480Y-178320D01*
Y-185180D01*
X937800D01*
Y-176800D01*
X936450Y-175020D01*
X934410Y-174010D01*
X932040Y-173500D01*
X929670Y-174010D01*
X927640Y-175530D01*
X926960Y-177310D01*
Y-185180D01*
G01X937800Y-153940D02*
Y-164100D01*
X917480D01*
Y-153940D01*
G01X927300Y-158000D02*
Y-164100D01*
G01X937800Y-143780D02*
X917480D01*
Y-137430D01*
X918500Y-135400D01*
X919850Y-134130D01*
X922560Y-133620D01*
X925270Y-134130D01*
X926960Y-135650D01*
X927980Y-137430D01*
Y-143780D01*
G01Y-137430D02*
X937800Y-133620D01*
G01X931030Y-121680D02*
Y-115080D01*
G01X937800Y-92980D02*
Y-103140D01*
X917480D01*
Y-92980D01*
G01X927300Y-97040D02*
Y-103140D01*
G01X937800Y-77740D02*
X917480D01*
X921540Y-80790D01*
G01X937800D02*
Y-74690D01*
G01X944570Y-65040D02*
Y-49800D01*
G01X917480Y-37100D02*
X918160Y-39130D01*
X919850Y-40660D01*
X921880Y-41670D01*
X924590Y-42430D01*
X927640Y-42690D01*
X930690Y-42430D01*
X933400Y-41670D01*
X935430Y-40660D01*
X937120Y-39130D01*
X937800Y-37100D01*
X937120Y-35070D01*
X935430Y-33540D01*
X933400Y-32530D01*
X930690Y-31770D01*
X927640Y-31510D01*
X924590Y-31770D01*
X921880Y-32530D01*
X919850Y-33540D01*
X918160Y-35070D01*
X917480Y-37100D01*
G01X937800Y-16780D02*
X917480D01*
X921540Y-19830D01*
G01X937800D02*
Y-13730D01*
G01X917480Y-2810D02*
X937800Y3540D01*
X917480Y9890D01*
G01X920870Y19030D02*
X918830Y20560D01*
X917820Y22340D01*
X917480Y24370D01*
X918160Y26910D01*
X919850Y28690D01*
X921880Y29190D01*
X923920Y28940D01*
X925610Y27920D01*
X928990Y22840D01*
X931370Y20560D01*
X934750Y19030D01*
X937800Y18530D01*
Y29190D01*
G01X933800Y-233600D02*
X935800Y-231600D01*
X937800Y-233600D01*
X933800D01*
G01X974900Y-220980D02*
X974560Y-223010D01*
X973210Y-224790D01*
X971170Y-226310D01*
X968800Y-227330D01*
X966090Y-227840D01*
X963390D01*
X960680Y-227330D01*
X958310Y-226310D01*
X956270Y-224790D01*
X954920Y-223010D01*
X954580Y-220980D01*
X954920Y-218950D01*
X956270Y-217170D01*
X958310Y-215650D01*
X960680Y-214630D01*
X963390Y-214120D01*
X966090D01*
X968800Y-214630D01*
X971170Y-215650D01*
X973210Y-217170D01*
X974560Y-218950D01*
X974900Y-220980D01*
G01X956270Y-195070D02*
X955260Y-196600D01*
X954580Y-198370D01*
Y-200410D01*
X955600Y-202690D01*
X957290Y-204470D01*
X959320Y-205740D01*
X962710Y-206760D01*
X965760Y-207010D01*
X968800Y-206500D01*
X970840Y-205740D01*
X972870Y-204220D01*
X974220Y-202440D01*
X974900Y-200660D01*
Y-198880D01*
X974220Y-197100D01*
X973210Y-195580D01*
X971850Y-194310D01*
G01X954580Y-180340D02*
X974900D01*
G01X954580Y-186180D02*
Y-174500D01*
G01X974900Y-160020D02*
X974560Y-162050D01*
X973210Y-163830D01*
X971170Y-165350D01*
X968800Y-166370D01*
X966090Y-166880D01*
X963390D01*
X960680Y-166370D01*
X958310Y-165350D01*
X956270Y-163830D01*
X954920Y-162050D01*
X954580Y-160020D01*
X954920Y-157990D01*
X956270Y-156210D01*
X958310Y-154690D01*
X960680Y-153670D01*
X963390Y-153160D01*
X966090D01*
X968800Y-153670D01*
X971170Y-154690D01*
X973210Y-156210D01*
X974560Y-157990D01*
X974900Y-160020D01*
G01X964060Y-137670D02*
X963050Y-136650D01*
X961350Y-135890D01*
X958980Y-135380D01*
X956950Y-135890D01*
X955600Y-136910D01*
X954580Y-138680D01*
Y-145540D01*
X974900D01*
Y-137160D01*
X973550Y-135380D01*
X971510Y-134370D01*
X969140Y-133860D01*
X966770Y-134370D01*
X964740Y-135890D01*
X964060Y-137670D01*
Y-145540D01*
G01X974900Y-114300D02*
Y-124460D01*
X954580D01*
Y-114300D01*
G01X964400Y-118360D02*
Y-124460D01*
G01X974900Y-104140D02*
X954580D01*
Y-97790D01*
X955600Y-95760D01*
X956950Y-94490D01*
X959660Y-93980D01*
X962370Y-94490D01*
X964060Y-96010D01*
X965080Y-97790D01*
Y-104140D01*
G01Y-97790D02*
X974900Y-93980D01*
G01X981670Y-86360D02*
Y-71120D01*
G01X957970Y-63250D02*
X955930Y-61720D01*
X954920Y-59940D01*
X954580Y-57910D01*
X955260Y-55370D01*
X956950Y-53590D01*
X958980Y-53090D01*
X961020Y-53340D01*
X962710Y-54360D01*
X966090Y-59440D01*
X968470Y-61720D01*
X971850Y-63250D01*
X974900Y-63750D01*
Y-53090D01*
G01X954580Y-38100D02*
X955260Y-40130D01*
X956950Y-41660D01*
X958980Y-42670D01*
X961690Y-43430D01*
X964740Y-43690D01*
X967790Y-43430D01*
X970500Y-42670D01*
X972530Y-41660D01*
X974220Y-40130D01*
X974900Y-38100D01*
X974220Y-36070D01*
X972530Y-34540D01*
X970500Y-33530D01*
X967790Y-32770D01*
X964740Y-32510D01*
X961690Y-32770D01*
X958980Y-33530D01*
X956950Y-34540D01*
X955260Y-36070D01*
X954580Y-38100D01*
G01X974900Y-17780D02*
X954580D01*
X958640Y-20830D01*
G01X974900D02*
Y-14730D01*
G01Y2540D02*
X974560Y4320D01*
X973550Y6350D01*
X971850Y7620D01*
X969480Y8130D01*
X967110Y7620D01*
X965080Y6100D01*
X964060Y3810D01*
Y1270D01*
X963390Y-250D01*
X961690Y-1520D01*
X959320Y-2030D01*
X956950Y-1270D01*
X955260Y510D01*
X954580Y2540D01*
X955260Y4570D01*
X956950Y6350D01*
X959320Y7110D01*
X961690Y6600D01*
X963390Y5330D01*
X964060Y3810D01*
Y1270D01*
X965080Y-1020D01*
X967110Y-2540D01*
X969480Y-3050D01*
X971850Y-2540D01*
X973550Y-1270D01*
X974560Y760D01*
X974900Y2540D01*
G01X910800Y117900D02*
Y59900D01*
X968800D01*
Y117900D01*
X910800D01*
G01X968800Y83900D02*
X910800D01*
G01X968800Y81900D02*
X910800D01*
G01X968800Y79900D02*
X910800D01*
G01X968800Y77900D02*
X910800D01*
G01X968800Y75900D02*
X910800D01*
G01X968800Y73900D02*
X910800D01*
G01X968800Y71900D02*
X910800D01*
G01X968800Y69900D02*
X910800D01*
G01X968800Y67900D02*
X910800D01*
G01X968800Y65900D02*
X910800D01*
G01X968800Y63900D02*
X910800D01*
G01X968800Y61900D02*
X910800D01*
G01X968800Y115900D02*
X910800D01*
G01X968800Y113900D02*
X910800D01*
G01X968800Y111900D02*
X910800D01*
G01X968800Y109900D02*
X910800D01*
G01X968800Y107900D02*
X910800D01*
G01X968800Y105900D02*
X910800D01*
G01X968800Y103900D02*
X910800D01*
G01X968800Y101900D02*
X910800D01*
G01X968800Y99900D02*
X910800D01*
G01X968800Y97900D02*
X910800D01*
G01X968800Y95900D02*
X910800D01*
G01X968800Y93900D02*
X910800D01*
G01X968800Y91900D02*
X910800D01*
G01X968800Y89900D02*
X910800D01*
G01X968800Y87900D02*
X910800D01*
G01X968800Y85900D02*
X910800D01*
G01X971900Y-233600D02*
X973900Y-231600D01*
X975900Y-233600D01*
X971900D01*
G54D12*
G01X-327920Y-292400D02*
G03I-2005J0D01*
G01X-183400Y-298450D02*
G03I-2000J0D01*
G01X-176550Y-152400D02*
G03I-2000J0D01*
G01X-169700Y-65200D02*
G03I-2000J0D01*
G01X-183400Y172350D02*
G03X-186400Y175350I-3000J0D01*
G01D02*
G03X-189400Y172350I0J-3000D01*
G01D02*
G03X-186400Y169350I3000J0D01*
G01D02*
G03X-183400Y172350I0J3000D01*
G01X-93320Y60350D02*
G03I-2005J0D01*
G01X-23320Y-244500D02*
G03X-25320Y-242500I-2000J0D01*
G01D02*
G03X-27330Y-244500I-10J-2000D01*
G01D02*
G03X-25320Y-246500I2000J0D01*
G01D02*
G03X-23320Y-244500I0J2000D01*
G01X45300Y-39000D02*
G03I-3000J0D01*
G01X7100Y172350D02*
G03I-3000J0D01*
G01X85650Y-222700D02*
G03X82650Y-219700I-3000J0D01*
G01D02*
G03X79650Y-222700I0J-3000D01*
G01D02*
G03X82650Y-225700I3000J0D01*
G01D02*
G03X85650Y-222700I0J3000D01*
G01X192300Y38100D02*
G03I-2000J0D01*
G01X206800Y-214400D02*
G03X205300Y-212900I-1500J0D01*
G01D02*
G03X203800Y-214400I0J-1500D01*
G01D02*
G03X205300Y-215900I1500J0D01*
G01D02*
G03X206800Y-214400I0J1500D01*
G01X408600Y-69850D02*
G03I-2000J0D01*
G01X438450Y241350D02*
G03I-2000J0D01*
G01X697100Y-26900D02*
G03I-4000J0D01*
G01X798700D02*
G03I-4000J0D01*
G01X778300Y180350D02*
G03I-3000J0D01*
G54D13*
G01X-531450Y-127000D02*
X-527430Y-139700D01*
X-523400Y-127000D01*
G01X-518010Y-139700D02*
Y-127000D01*
X-514800D01*
X-513510Y-127640D01*
X-512540Y-128480D01*
X-511740Y-129750D01*
X-511100Y-131230D01*
X-510940Y-133350D01*
X-511100Y-135470D01*
X-511740Y-136950D01*
X-512540Y-138220D01*
X-513510Y-139070D01*
X-514800Y-139700D01*
X-518010D01*
G01X-501530D02*
Y-127000D01*
X-503460Y-129540D01*
G01Y-139700D02*
X-499600D01*
G01X-492110Y-137160D02*
X-491150Y-138640D01*
X-489860Y-139490D01*
X-488410Y-139700D01*
X-487130Y-139490D01*
X-485840Y-138430D01*
X-485040Y-137160D01*
X-484880Y-135890D01*
X-485200Y-134410D01*
X-486320Y-133350D01*
X-487450Y-132930D01*
X-488900D01*
G01X-487450D02*
X-486480Y-132290D01*
X-485680Y-131230D01*
X-485360Y-129960D01*
X-485680Y-128690D01*
X-486480Y-127640D01*
X-487930Y-127000D01*
X-489380Y-127210D01*
X-490830Y-128060D01*
G01X-514300Y-57700D02*
X-510280Y-70400D01*
X-506250Y-57700D01*
G01X-500860Y-70400D02*
Y-57700D01*
X-497650D01*
X-496360Y-58340D01*
X-495390Y-59180D01*
X-494590Y-60450D01*
X-493950Y-61930D01*
X-493790Y-64050D01*
X-493950Y-66170D01*
X-494590Y-67650D01*
X-495390Y-68920D01*
X-496360Y-69770D01*
X-497650Y-70400D01*
X-500860D01*
G01X-484380D02*
Y-57700D01*
X-486310Y-60240D01*
G01Y-70400D02*
X-482450D01*
G01X-471430D02*
Y-57700D01*
X-473360Y-60240D01*
G01Y-70400D02*
X-469500D01*
G01X-484540Y-179700D02*
Y-192400D01*
X-478110D01*
G01X-471910Y-189860D02*
X-470950Y-191340D01*
X-469660Y-192190D01*
X-468210Y-192400D01*
X-466930Y-192190D01*
X-465640Y-191130D01*
X-464840Y-189860D01*
X-464680Y-188590D01*
X-465000Y-187110D01*
X-466120Y-186050D01*
X-467250Y-185630D01*
X-468700D01*
G01X-467250D02*
X-466280Y-184990D01*
X-465480Y-183930D01*
X-465160Y-182660D01*
X-465480Y-181390D01*
X-466280Y-180340D01*
X-467730Y-179700D01*
X-469180Y-179910D01*
X-470630Y-180760D01*
G01X-466730Y80550D02*
Y93250D01*
X-460620D01*
G01X-462870Y87110D02*
X-466730D01*
G01X-448790Y80550D02*
Y93250D01*
X-454750Y84150D01*
X-446700D01*
G01X-369100Y-168530D02*
X-366670Y-176400D01*
X-364240Y-168530D01*
G01X-360940Y-176400D02*
Y-168530D01*
X-358990D01*
X-358220Y-168920D01*
X-357630Y-169450D01*
X-357150Y-170240D01*
X-356760Y-171150D01*
X-356660Y-172470D01*
X-356760Y-173780D01*
X-357150Y-174690D01*
X-357630Y-175480D01*
X-358220Y-176010D01*
X-358990Y-176400D01*
X-360940D01*
G01X-350930D02*
Y-168530D01*
X-352100Y-170100D01*
G01Y-176400D02*
X-349760D01*
G01X-345200Y-175220D02*
X-344620Y-175880D01*
X-343940Y-176270D01*
X-343060Y-176400D01*
X-342180Y-176140D01*
X-341500Y-175610D01*
X-341020Y-174690D01*
X-340920Y-173650D01*
X-341110Y-172600D01*
X-341600Y-171940D01*
X-342280Y-171420D01*
X-342960Y-171280D01*
X-343640Y-171420D01*
X-344520Y-171940D01*
X-344230Y-168530D01*
X-341600D01*
G01X-421100D02*
X-418670Y-176400D01*
X-416240Y-168530D01*
G01X-412940Y-176400D02*
Y-168530D01*
X-410990D01*
X-410220Y-168920D01*
X-409630Y-169450D01*
X-409150Y-170240D01*
X-408760Y-171150D01*
X-408660Y-172470D01*
X-408760Y-173780D01*
X-409150Y-174690D01*
X-409630Y-175480D01*
X-410220Y-176010D01*
X-410990Y-176400D01*
X-412940D01*
G01X-402930D02*
Y-168530D01*
X-404100Y-170100D01*
G01Y-176400D02*
X-401760D01*
G01X-396910Y-169840D02*
X-396330Y-169050D01*
X-395640Y-168660D01*
X-394870Y-168530D01*
X-393890Y-168790D01*
X-393210Y-169450D01*
X-393020Y-170240D01*
X-393110Y-171020D01*
X-393500Y-171680D01*
X-395450Y-172990D01*
X-396330Y-173910D01*
X-396910Y-175220D01*
X-397100Y-176400D01*
X-393020D01*
G01X-415930Y80550D02*
Y93250D01*
X-409820D01*
G01X-412070Y87110D02*
X-415930D01*
G01X-403460Y83090D02*
X-402500Y81610D01*
X-401210Y80760D01*
X-399760Y80550D01*
X-398480Y80760D01*
X-397190Y81820D01*
X-396390Y83090D01*
X-396230Y84360D01*
X-396550Y85840D01*
X-397670Y86900D01*
X-398800Y87320D01*
X-400250D01*
G01X-398800D02*
X-397830Y87960D01*
X-397030Y89020D01*
X-396710Y90290D01*
X-397030Y91560D01*
X-397830Y92610D01*
X-399280Y93250D01*
X-400730Y93040D01*
X-402180Y92190D01*
G01X-365130Y80550D02*
Y93250D01*
X-359020D01*
G01X-361270Y87110D02*
X-365130D01*
G01X-352180Y91130D02*
X-351220Y92400D01*
X-350090Y93040D01*
X-348800Y93250D01*
X-347190Y92830D01*
X-346070Y91770D01*
X-345750Y90500D01*
X-345910Y89230D01*
X-346550Y88170D01*
X-349770Y86050D01*
X-351220Y84570D01*
X-352180Y82450D01*
X-352500Y80550D01*
X-345750D01*
G01X-315030Y-256400D02*
Y-243700D01*
X-311010D01*
X-309720Y-244340D01*
X-308920Y-245180D01*
X-308600Y-246880D01*
X-308920Y-248570D01*
X-309880Y-249630D01*
X-311010Y-250260D01*
X-315030D01*
G01X-311010D02*
X-308600Y-256400D01*
G01X-298870D02*
Y-243700D01*
X-300800Y-246240D01*
G01Y-256400D02*
X-296940D01*
G01X-285920D02*
X-284790Y-256190D01*
X-283500Y-255550D01*
X-282700Y-254500D01*
X-282380Y-253010D01*
X-282700Y-251530D01*
X-283660Y-250260D01*
X-285110Y-249630D01*
X-286720D01*
X-287680Y-249200D01*
X-288490Y-248150D01*
X-288810Y-246660D01*
X-288330Y-245180D01*
X-287200Y-244120D01*
X-285920Y-243700D01*
X-284630Y-244120D01*
X-283500Y-245180D01*
X-283020Y-246660D01*
X-283340Y-248150D01*
X-284150Y-249200D01*
X-285110Y-249630D01*
X-286720D01*
X-288170Y-250260D01*
X-289130Y-251530D01*
X-289450Y-253010D01*
X-289130Y-254500D01*
X-288330Y-255550D01*
X-287040Y-256190D01*
X-285920Y-256400D01*
G01X-315030Y-238400D02*
Y-225700D01*
X-311010D01*
X-309720Y-226340D01*
X-308920Y-227180D01*
X-308600Y-228880D01*
X-308920Y-230570D01*
X-309880Y-231630D01*
X-311010Y-232260D01*
X-315030D01*
G01X-311010D02*
X-308600Y-238400D01*
G01X-298870D02*
Y-225700D01*
X-300800Y-228240D01*
G01Y-238400D02*
X-296940D01*
G01X-286240D02*
X-285920Y-235650D01*
X-285430Y-233320D01*
X-284790Y-231200D01*
X-283980Y-228880D01*
X-282700Y-225700D01*
X-289130D01*
G01X-314330Y80550D02*
Y93250D01*
X-308220D01*
G01X-310470Y87110D02*
X-314330D01*
G01X-298330Y80550D02*
Y93250D01*
X-300260Y90710D01*
G01Y80550D02*
X-296400D01*
G01X-295600Y107950D02*
X-288850Y120650D01*
G01X-295600D02*
X-288850Y107950D01*
G01X-277340D02*
Y120650D01*
X-283300Y111550D01*
X-275250D01*
G01X-244970Y-161300D02*
Y-174000D01*
G01X-248660Y-161300D02*
X-241270D01*
G01X-235230Y-174000D02*
Y-161300D01*
X-231210D01*
X-229920Y-161940D01*
X-229120Y-162780D01*
X-228800Y-164480D01*
X-229120Y-166170D01*
X-230080Y-167230D01*
X-231210Y-167860D01*
X-235230D01*
G01X-231210D02*
X-228800Y-174000D01*
G01X-219070D02*
Y-161300D01*
X-221000Y-163840D01*
G01Y-174000D02*
X-217140D01*
G01X-282300Y-127700D02*
X-278280Y-140400D01*
X-274250Y-127700D01*
G01X-268860Y-140400D02*
Y-127700D01*
X-265650D01*
X-264360Y-128340D01*
X-263390Y-129180D01*
X-262590Y-130450D01*
X-261950Y-131930D01*
X-261790Y-134050D01*
X-261950Y-136170D01*
X-262590Y-137650D01*
X-263390Y-138920D01*
X-264360Y-139770D01*
X-265650Y-140400D01*
X-268860D01*
G01X-252380D02*
Y-127700D01*
X-254310Y-130240D01*
G01Y-140400D02*
X-250450D01*
G01X-237490D02*
Y-127700D01*
X-243450Y-136800D01*
X-235400D01*
G01X-291840Y-57700D02*
X-287820Y-70400D01*
X-283790Y-57700D01*
G01X-278400Y-70400D02*
Y-57700D01*
X-275190D01*
X-273900Y-58340D01*
X-272930Y-59180D01*
X-272130Y-60450D01*
X-271490Y-61930D01*
X-271330Y-64050D01*
X-271490Y-66170D01*
X-272130Y-67650D01*
X-272930Y-68920D01*
X-273900Y-69770D01*
X-275190Y-70400D01*
X-278400D01*
G01X-264650Y-68920D02*
X-263520Y-69980D01*
X-262240Y-70400D01*
X-260950Y-69980D01*
X-259820Y-68710D01*
X-259020Y-66800D01*
X-258700Y-64900D01*
Y-62570D01*
X-259020Y-60660D01*
X-259820Y-58970D01*
X-260790Y-58120D01*
X-261920Y-57700D01*
X-263200Y-58120D01*
X-264170Y-58970D01*
X-264810Y-60240D01*
X-265130Y-61930D01*
X-264810Y-63410D01*
X-264010Y-64900D01*
X-263040Y-65740D01*
X-261920Y-65960D01*
X-260630Y-65530D01*
X-259660Y-64470D01*
X-258700Y-62570D01*
G01X-160980Y-301300D02*
X-156960Y-314000D01*
X-152930Y-301300D01*
G01X-147540Y-314000D02*
Y-301300D01*
X-144330D01*
X-143040Y-301940D01*
X-142070Y-302780D01*
X-141270Y-304050D01*
X-140630Y-305530D01*
X-140470Y-307650D01*
X-140630Y-309770D01*
X-141270Y-311250D01*
X-142070Y-312520D01*
X-143040Y-313370D01*
X-144330Y-314000D01*
X-147540D01*
G01X-131060D02*
X-129930Y-313790D01*
X-128640Y-313150D01*
X-127840Y-312100D01*
X-127520Y-310610D01*
X-127840Y-309130D01*
X-128800Y-307860D01*
X-130250Y-307230D01*
X-131860D01*
X-132820Y-306800D01*
X-133630Y-305750D01*
X-133950Y-304260D01*
X-133470Y-302780D01*
X-132340Y-301720D01*
X-131060Y-301300D01*
X-129770Y-301720D01*
X-128640Y-302780D01*
X-128160Y-304260D01*
X-128480Y-305750D01*
X-129290Y-306800D01*
X-130250Y-307230D01*
X-131860D01*
X-133310Y-307860D01*
X-134270Y-309130D01*
X-134590Y-310610D01*
X-134270Y-312100D01*
X-133470Y-313150D01*
X-132180Y-313790D01*
X-131060Y-314000D01*
G01X-177450Y-139300D02*
X-173430Y-152000D01*
X-169400Y-139300D01*
G01X-164010Y-152000D02*
Y-139300D01*
X-160800D01*
X-159510Y-139940D01*
X-158540Y-140780D01*
X-157740Y-142050D01*
X-157100Y-143530D01*
X-156940Y-145650D01*
X-157100Y-147770D01*
X-157740Y-149250D01*
X-158540Y-150520D01*
X-159510Y-151370D01*
X-160800Y-152000D01*
X-164010D01*
G01X-147530D02*
Y-139300D01*
X-149460Y-141840D01*
G01Y-152000D02*
X-145600D01*
G01X-134580Y-139300D02*
X-135860Y-139720D01*
X-136830Y-140780D01*
X-137470Y-142050D01*
X-137950Y-143750D01*
X-138110Y-145650D01*
X-137950Y-147560D01*
X-137470Y-149250D01*
X-136830Y-150520D01*
X-135860Y-151580D01*
X-134580Y-152000D01*
X-133290Y-151580D01*
X-132320Y-150520D01*
X-131680Y-149250D01*
X-131200Y-147560D01*
X-131040Y-145650D01*
X-131200Y-143750D01*
X-131680Y-142050D01*
X-132320Y-140780D01*
X-133290Y-139720D01*
X-134580Y-139300D01*
G01X-206700Y44450D02*
X-199950Y57150D01*
G01X-206700D02*
X-199950Y44450D01*
G01X-190380D02*
Y57150D01*
X-192310Y54610D01*
G01Y44450D02*
X-188450D01*
G01X-200650Y114300D02*
Y127000D01*
X-197440D01*
X-196150Y126360D01*
X-195180Y125520D01*
X-194380Y124250D01*
X-193740Y122770D01*
X-193580Y120650D01*
X-193740Y118530D01*
X-194380Y117050D01*
X-195180Y115780D01*
X-196150Y114930D01*
X-197440Y114300D01*
X-200650D01*
G01X-187700D02*
Y127000D01*
X-184490D01*
X-183200Y126360D01*
X-182230Y125520D01*
X-181430Y124250D01*
X-180790Y122770D01*
X-180630Y120650D01*
X-180790Y118530D01*
X-181430Y117050D01*
X-182230Y115780D01*
X-183200Y114930D01*
X-184490Y114300D01*
X-187700D01*
G01X-174750Y116840D02*
X-173790Y115360D01*
X-172500Y114510D01*
X-171050Y114300D01*
X-169770Y114510D01*
X-168480Y115570D01*
X-167680Y116840D01*
X-167520Y118110D01*
X-167840Y119590D01*
X-168960Y120650D01*
X-170090Y121070D01*
X-171540D01*
G01X-170090D02*
X-169120Y121710D01*
X-168320Y122770D01*
X-168000Y124040D01*
X-168320Y125310D01*
X-169120Y126360D01*
X-170570Y127000D01*
X-172020Y126790D01*
X-173470Y125940D01*
G01X-110280Y-182760D02*
X-111240Y-182120D01*
X-112370Y-181700D01*
X-113650D01*
X-115100Y-182340D01*
X-116230Y-183390D01*
X-117030Y-184660D01*
X-117680Y-186780D01*
X-117840Y-188690D01*
X-117510Y-190590D01*
X-117030Y-191860D01*
X-116070Y-193130D01*
X-114940Y-193980D01*
X-113820Y-194400D01*
X-112690D01*
X-111560Y-193980D01*
X-110600Y-193340D01*
X-109790Y-192500D01*
G01X-103920Y-183820D02*
X-102960Y-182550D01*
X-101830Y-181910D01*
X-100540Y-181700D01*
X-98930Y-182120D01*
X-97810Y-183180D01*
X-97490Y-184450D01*
X-97650Y-185720D01*
X-98290Y-186780D01*
X-101510Y-188900D01*
X-102960Y-190380D01*
X-103920Y-192500D01*
X-104240Y-194400D01*
X-97490D01*
G01X-87920Y-181700D02*
X-89200Y-182120D01*
X-90170Y-183180D01*
X-90810Y-184450D01*
X-91290Y-186150D01*
X-91450Y-188050D01*
X-91290Y-189960D01*
X-90810Y-191650D01*
X-90170Y-192920D01*
X-89200Y-193980D01*
X-87920Y-194400D01*
X-86630Y-193980D01*
X-85660Y-192920D01*
X-85020Y-191650D01*
X-84540Y-189960D01*
X-84380Y-188050D01*
X-84540Y-186150D01*
X-85020Y-184450D01*
X-85660Y-183180D01*
X-86630Y-182120D01*
X-87920Y-181700D01*
G01X-86710Y-116150D02*
X-83490D01*
Y-119960D01*
X-84460Y-121230D01*
X-85580Y-122080D01*
X-87190Y-122500D01*
X-88800Y-122080D01*
X-89930Y-121230D01*
X-90890Y-119960D01*
X-91540Y-118480D01*
X-91860Y-116790D01*
Y-115300D01*
X-91540Y-114030D01*
X-90890Y-112550D01*
X-89930Y-111280D01*
X-88960Y-110440D01*
X-87680Y-109800D01*
X-86550D01*
X-85260Y-110220D01*
X-84300Y-111070D01*
G01X-78420Y-122500D02*
Y-109800D01*
X-71030Y-122500D01*
Y-109800D01*
G01X-65310Y-122500D02*
Y-109800D01*
X-62100D01*
X-60810Y-110440D01*
X-59840Y-111280D01*
X-59040Y-112550D01*
X-58400Y-114030D01*
X-58240Y-116150D01*
X-58400Y-118270D01*
X-59040Y-119750D01*
X-59840Y-121020D01*
X-60810Y-121870D01*
X-62100Y-122500D01*
X-65310D01*
G01X-143500Y-95250D02*
Y-82550D01*
X-140290D01*
X-139000Y-83190D01*
X-138030Y-84030D01*
X-137230Y-85300D01*
X-136590Y-86780D01*
X-136430Y-88900D01*
X-136590Y-91020D01*
X-137230Y-92500D01*
X-138030Y-93770D01*
X-139000Y-94620D01*
X-140290Y-95250D01*
X-143500D01*
G01X-130550D02*
Y-82550D01*
X-127340D01*
X-126050Y-83190D01*
X-125080Y-84030D01*
X-124280Y-85300D01*
X-123640Y-86780D01*
X-123480Y-88900D01*
X-123640Y-91020D01*
X-124280Y-92500D01*
X-125080Y-93770D01*
X-126050Y-94620D01*
X-127340Y-95250D01*
X-130550D01*
G01X-117600Y-93350D02*
X-116640Y-94400D01*
X-115510Y-95040D01*
X-114070Y-95250D01*
X-112620Y-94830D01*
X-111490Y-93980D01*
X-110690Y-92500D01*
X-110530Y-90810D01*
X-110850Y-89110D01*
X-111650Y-88050D01*
X-112780Y-87210D01*
X-113900Y-87000D01*
X-115030Y-87210D01*
X-116480Y-88050D01*
X-116000Y-82550D01*
X-111650D01*
G01X-136280Y27240D02*
X-137240Y27880D01*
X-138370Y28300D01*
X-139650D01*
X-141100Y27660D01*
X-142230Y26610D01*
X-143030Y25340D01*
X-143680Y23220D01*
X-143840Y21310D01*
X-143510Y19410D01*
X-143030Y18140D01*
X-142070Y16870D01*
X-140940Y16020D01*
X-139820Y15600D01*
X-138690D01*
X-137560Y16020D01*
X-136600Y16660D01*
X-135790Y17500D01*
G01X-126870Y15600D02*
Y28300D01*
X-128800Y25760D01*
G01Y15600D02*
X-124940D01*
G01X-113920D02*
X-112790Y15810D01*
X-111500Y16450D01*
X-110700Y17500D01*
X-110380Y18990D01*
X-110700Y20470D01*
X-111660Y21740D01*
X-113110Y22370D01*
X-114720D01*
X-115680Y22800D01*
X-116490Y23850D01*
X-116810Y25340D01*
X-116330Y26820D01*
X-115200Y27880D01*
X-113920Y28300D01*
X-112630Y27880D01*
X-111500Y26820D01*
X-111020Y25340D01*
X-111340Y23850D01*
X-112150Y22800D01*
X-113110Y22370D01*
X-114720D01*
X-116170Y21740D01*
X-117130Y20470D01*
X-117450Y18990D01*
X-117130Y17500D01*
X-116330Y16450D01*
X-115040Y15810D01*
X-113920Y15600D01*
G01X-137150Y44450D02*
Y57150D01*
X-133940D01*
X-132650Y56510D01*
X-131680Y55670D01*
X-130880Y54400D01*
X-130240Y52920D01*
X-130080Y50800D01*
X-130240Y48680D01*
X-130880Y47200D01*
X-131680Y45930D01*
X-132650Y45080D01*
X-133940Y44450D01*
X-137150D01*
G01X-124200D02*
Y57150D01*
X-120990D01*
X-119700Y56510D01*
X-118730Y55670D01*
X-117930Y54400D01*
X-117290Y52920D01*
X-117130Y50800D01*
X-117290Y48680D01*
X-117930Y47200D01*
X-118730Y45930D01*
X-119700Y45080D01*
X-120990Y44450D01*
X-124200D01*
G01X-110770Y55030D02*
X-109810Y56300D01*
X-108680Y56940D01*
X-107390Y57150D01*
X-105780Y56730D01*
X-104660Y55670D01*
X-104340Y54400D01*
X-104500Y53130D01*
X-105140Y52070D01*
X-108360Y49950D01*
X-109810Y48470D01*
X-110770Y46350D01*
X-111090Y44450D01*
X-104340D01*
G01X-14980Y-301300D02*
X-10960Y-314000D01*
X-6930Y-301300D01*
G01X-1540Y-314000D02*
Y-301300D01*
X1670D01*
X2960Y-301940D01*
X3930Y-302780D01*
X4730Y-304050D01*
X5370Y-305530D01*
X5530Y-307650D01*
X5370Y-309770D01*
X4730Y-311250D01*
X3930Y-312520D01*
X2960Y-313370D01*
X1670Y-314000D01*
X-1540D01*
G01X14620D02*
X14940Y-311250D01*
X15430Y-308920D01*
X16070Y-306800D01*
X16880Y-304480D01*
X18160Y-301300D01*
X11730D01*
G01X-79030Y-292400D02*
Y-279700D01*
X-75010D01*
X-73720Y-280340D01*
X-72920Y-281180D01*
X-72600Y-282880D01*
X-72920Y-284570D01*
X-73880Y-285630D01*
X-75010Y-286260D01*
X-79030D01*
G01X-75010D02*
X-72600Y-292400D01*
G01X-62870D02*
Y-279700D01*
X-64800Y-282240D01*
G01Y-292400D02*
X-60940D01*
G01X-53450Y-290500D02*
X-52490Y-291550D01*
X-51360Y-292190D01*
X-49920Y-292400D01*
X-48470Y-291980D01*
X-47340Y-291130D01*
X-46540Y-289650D01*
X-46380Y-287960D01*
X-46700Y-286260D01*
X-47500Y-285200D01*
X-48630Y-284360D01*
X-49750Y-284150D01*
X-50880Y-284360D01*
X-52330Y-285200D01*
X-51850Y-279700D01*
X-47500D01*
G01X-79030Y-266400D02*
Y-253700D01*
X-75010D01*
X-73720Y-254340D01*
X-72920Y-255180D01*
X-72600Y-256880D01*
X-72920Y-258570D01*
X-73880Y-259630D01*
X-75010Y-260260D01*
X-79030D01*
G01X-75010D02*
X-72600Y-266400D01*
G01X-62870D02*
Y-253700D01*
X-64800Y-256240D01*
G01Y-266400D02*
X-60940D01*
G01X-47980D02*
Y-253700D01*
X-53940Y-262800D01*
X-45890D01*
G01X-72280Y-228760D02*
X-73240Y-228120D01*
X-74370Y-227700D01*
X-75650D01*
X-77100Y-228340D01*
X-78230Y-229390D01*
X-79030Y-230660D01*
X-79680Y-232780D01*
X-79840Y-234690D01*
X-79510Y-236590D01*
X-79030Y-237860D01*
X-78070Y-239130D01*
X-76940Y-239980D01*
X-75820Y-240400D01*
X-74690D01*
X-73560Y-239980D01*
X-72600Y-239340D01*
X-71790Y-238500D01*
G01X-62870Y-240400D02*
Y-227700D01*
X-64800Y-230240D01*
G01Y-240400D02*
X-60940D01*
G01X-52650Y-238920D02*
X-51520Y-239980D01*
X-50240Y-240400D01*
X-48950Y-239980D01*
X-47820Y-238710D01*
X-47020Y-236800D01*
X-46700Y-234900D01*
Y-232570D01*
X-47020Y-230660D01*
X-47820Y-228970D01*
X-48790Y-228120D01*
X-49920Y-227700D01*
X-51200Y-228120D01*
X-52170Y-228970D01*
X-52810Y-230240D01*
X-53130Y-231930D01*
X-52810Y-233410D01*
X-52010Y-234900D01*
X-51040Y-235740D01*
X-49920Y-235960D01*
X-48630Y-235530D01*
X-47660Y-234470D01*
X-46700Y-232570D01*
G01X-78390Y-137460D02*
X-77590Y-138730D01*
X-76620Y-139580D01*
X-75500Y-140000D01*
X-74210Y-139580D01*
X-73240Y-138730D01*
X-72280Y-137460D01*
X-71960Y-135770D01*
Y-127300D01*
G01X-65280Y-129420D02*
X-64320Y-128150D01*
X-63190Y-127510D01*
X-61900Y-127300D01*
X-60290Y-127720D01*
X-59170Y-128780D01*
X-58850Y-130050D01*
X-59010Y-131320D01*
X-59650Y-132380D01*
X-62870Y-134500D01*
X-64320Y-135980D01*
X-65280Y-138100D01*
X-65600Y-140000D01*
X-58850D01*
G01X-22390Y63500D02*
Y76200D01*
X-18370D01*
X-17080Y75560D01*
X-16280Y74720D01*
X-15960Y73020D01*
X-16280Y71330D01*
X-17240Y70270D01*
X-18370Y69640D01*
X-22390D01*
G01X-18370D02*
X-15960Y63500D01*
G01X-9280Y74080D02*
X-8320Y75350D01*
X-7190Y75990D01*
X-5900Y76200D01*
X-4290Y75780D01*
X-3170Y74720D01*
X-2850Y73450D01*
X-3010Y72180D01*
X-3650Y71120D01*
X-6870Y69000D01*
X-8320Y67520D01*
X-9280Y65400D01*
X-9600Y63500D01*
X-2850D01*
G01X-35090Y88900D02*
Y101600D01*
X-31070D01*
X-29780Y100960D01*
X-28980Y100120D01*
X-28660Y98420D01*
X-28980Y96730D01*
X-29940Y95670D01*
X-31070Y95040D01*
X-35090D01*
G01X-31070D02*
X-28660Y88900D01*
G01X-18930D02*
Y101600D01*
X-20860Y99060D01*
G01Y88900D02*
X-17000D01*
G01X7000Y-100700D02*
Y-88000D01*
X10210D01*
X11500Y-88640D01*
X12470Y-89480D01*
X13270Y-90750D01*
X13910Y-92230D01*
X14070Y-94350D01*
X13910Y-96470D01*
X13270Y-97950D01*
X12470Y-99220D01*
X11500Y-100070D01*
X10210Y-100700D01*
X7000D01*
G01X19950D02*
Y-88000D01*
X23160D01*
X24450Y-88640D01*
X25420Y-89480D01*
X26220Y-90750D01*
X26860Y-92230D01*
X27020Y-94350D01*
X26860Y-96470D01*
X26220Y-97950D01*
X25420Y-99220D01*
X24450Y-100070D01*
X23160Y-100700D01*
X19950D01*
G01X33380Y-95410D02*
X34500Y-93930D01*
X35470Y-93080D01*
X36760Y-92660D01*
X37880Y-93080D01*
X38690Y-93930D01*
X39330Y-95200D01*
X39490Y-96680D01*
X39330Y-97950D01*
X38690Y-99220D01*
X37720Y-100280D01*
X36600Y-100700D01*
X35310Y-100280D01*
X34180Y-99010D01*
X33540Y-97100D01*
X33380Y-94990D01*
X33700Y-92230D01*
X34180Y-90750D01*
X34990Y-89270D01*
X36110Y-88210D01*
X37240Y-88000D01*
X38370Y-88420D01*
X39170Y-89480D01*
G01X15250Y57150D02*
Y69850D01*
X18460D01*
X19750Y69210D01*
X20720Y68370D01*
X21520Y67100D01*
X22160Y65620D01*
X22320Y63500D01*
X22160Y61380D01*
X21520Y59900D01*
X20720Y58630D01*
X19750Y57780D01*
X18460Y57150D01*
X15250D01*
G01X28200D02*
Y69850D01*
X31410D01*
X32700Y69210D01*
X33670Y68370D01*
X34470Y67100D01*
X35110Y65620D01*
X35270Y63500D01*
X35110Y61380D01*
X34470Y59900D01*
X33670Y58630D01*
X32700Y57780D01*
X31410Y57150D01*
X28200D01*
G01X44680D02*
Y69850D01*
X42750Y67310D01*
G01Y57150D02*
X46610D01*
G01X-3800Y114300D02*
Y127000D01*
X-590D01*
X700Y126360D01*
X1670Y125520D01*
X2470Y124250D01*
X3110Y122770D01*
X3270Y120650D01*
X3110Y118530D01*
X2470Y117050D01*
X1670Y115780D01*
X700Y114930D01*
X-590Y114300D01*
X-3800D01*
G01X9150D02*
Y127000D01*
X12360D01*
X13650Y126360D01*
X14620Y125520D01*
X15420Y124250D01*
X16060Y122770D01*
X16220Y120650D01*
X16060Y118530D01*
X15420Y117050D01*
X14620Y115780D01*
X13650Y114930D01*
X12360Y114300D01*
X9150D01*
G01X27570D02*
Y127000D01*
X21610Y117900D01*
X29660D01*
G01X104610Y-285750D02*
Y-273050D01*
X108630D01*
X109920Y-273690D01*
X110720Y-274530D01*
X111040Y-276230D01*
X110720Y-277920D01*
X109760Y-278980D01*
X108630Y-279610D01*
X104610D01*
G01X108630D02*
X111040Y-285750D01*
G01X120770D02*
X121900Y-285540D01*
X123190Y-284900D01*
X123990Y-283850D01*
X124310Y-282360D01*
X123990Y-280880D01*
X123030Y-279610D01*
X121580Y-278980D01*
X119970D01*
X119010Y-278550D01*
X118200Y-277500D01*
X117880Y-276010D01*
X118360Y-274530D01*
X119490Y-273470D01*
X120770Y-273050D01*
X122060Y-273470D01*
X123190Y-274530D01*
X123670Y-276010D01*
X123350Y-277500D01*
X122540Y-278550D01*
X121580Y-278980D01*
X119970D01*
X118520Y-279610D01*
X117560Y-280880D01*
X117240Y-282360D01*
X117560Y-283850D01*
X118360Y-284900D01*
X119650Y-285540D01*
X120770Y-285750D01*
G01X91770Y-260350D02*
Y-247650D01*
X95790D01*
X97080Y-248290D01*
X97880Y-249130D01*
X98200Y-250830D01*
X97880Y-252520D01*
X96920Y-253580D01*
X95790Y-254210D01*
X91770D01*
G01X95790D02*
X98200Y-260350D01*
G01X107930D02*
Y-247650D01*
X106000Y-250190D01*
G01Y-260350D02*
X109860D01*
G01X120880Y-247650D02*
X119600Y-248070D01*
X118630Y-249130D01*
X117990Y-250400D01*
X117510Y-252100D01*
X117350Y-254000D01*
X117510Y-255910D01*
X117990Y-257600D01*
X118630Y-258870D01*
X119600Y-259930D01*
X120880Y-260350D01*
X122170Y-259930D01*
X123140Y-258870D01*
X123780Y-257600D01*
X124260Y-255910D01*
X124420Y-254000D01*
X124260Y-252100D01*
X123780Y-250400D01*
X123140Y-249130D01*
X122170Y-248070D01*
X120880Y-247650D01*
G01X57320Y-305050D02*
Y-292350D01*
X61340D01*
X62630Y-292990D01*
X63430Y-293830D01*
X63750Y-295530D01*
X63430Y-297220D01*
X62470Y-298280D01*
X61340Y-298910D01*
X57320D01*
G01X61340D02*
X63750Y-305050D01*
G01X73480D02*
Y-292350D01*
X71550Y-294890D01*
G01Y-305050D02*
X75410D01*
G01X83380Y-299760D02*
X84500Y-298280D01*
X85470Y-297430D01*
X86760Y-297010D01*
X87880Y-297430D01*
X88690Y-298280D01*
X89330Y-299550D01*
X89490Y-301030D01*
X89330Y-302300D01*
X88690Y-303570D01*
X87720Y-304630D01*
X86600Y-305050D01*
X85310Y-304630D01*
X84180Y-303360D01*
X83540Y-301450D01*
X83380Y-299340D01*
X83700Y-296580D01*
X84180Y-295100D01*
X84990Y-293620D01*
X86110Y-292560D01*
X87240Y-292350D01*
X88370Y-292770D01*
X89170Y-293830D01*
G01X68310Y66000D02*
Y78700D01*
X72330D01*
X73620Y78060D01*
X74420Y77220D01*
X74740Y75520D01*
X74420Y73830D01*
X73460Y72770D01*
X72330Y72140D01*
X68310D01*
G01X72330D02*
X74740Y66000D01*
G01X81420Y71290D02*
X82540Y72770D01*
X83510Y73620D01*
X84800Y74040D01*
X85920Y73620D01*
X86730Y72770D01*
X87370Y71500D01*
X87530Y70020D01*
X87370Y68750D01*
X86730Y67480D01*
X85760Y66420D01*
X84640Y66000D01*
X83350Y66420D01*
X82220Y67690D01*
X81580Y69600D01*
X81420Y71710D01*
X81740Y74470D01*
X82220Y75950D01*
X83030Y77430D01*
X84150Y78490D01*
X85280Y78700D01*
X86410Y78280D01*
X87210Y77220D01*
G01X142970Y-197910D02*
X142010Y-197270D01*
X140880Y-196850D01*
X139600D01*
X138150Y-197490D01*
X137020Y-198540D01*
X136220Y-199810D01*
X135570Y-201930D01*
X135410Y-203840D01*
X135740Y-205740D01*
X136220Y-207010D01*
X137180Y-208280D01*
X138310Y-209130D01*
X139430Y-209550D01*
X140560D01*
X141690Y-209130D01*
X142650Y-208490D01*
X143460Y-207650D01*
G01X148850Y-207010D02*
X149810Y-208490D01*
X151100Y-209340D01*
X152550Y-209550D01*
X153830Y-209340D01*
X155120Y-208280D01*
X155920Y-207010D01*
X156080Y-205740D01*
X155760Y-204260D01*
X154640Y-203200D01*
X153510Y-202780D01*
X152060D01*
G01X153510D02*
X154480Y-202140D01*
X155280Y-201080D01*
X155600Y-199810D01*
X155280Y-198540D01*
X154480Y-197490D01*
X153030Y-196850D01*
X151580Y-197060D01*
X150130Y-197910D01*
G01X167270Y-209550D02*
Y-196850D01*
X161310Y-205950D01*
X169360D01*
G01X180350Y-158750D02*
Y-146050D01*
X183560D01*
X184850Y-146690D01*
X185820Y-147530D01*
X186620Y-148800D01*
X187260Y-150280D01*
X187420Y-152400D01*
X187260Y-154520D01*
X186620Y-156000D01*
X185820Y-157270D01*
X184850Y-158120D01*
X183560Y-158750D01*
X180350D01*
G01X192810D02*
X196830Y-146050D01*
X200860Y-158750D01*
G01X199410Y-154310D02*
X194260D01*
G01X206730Y-148170D02*
X207690Y-146900D01*
X208820Y-146260D01*
X210110Y-146050D01*
X211720Y-146470D01*
X212840Y-147530D01*
X213160Y-148800D01*
X213000Y-150070D01*
X212360Y-151130D01*
X209140Y-153250D01*
X207690Y-154730D01*
X206730Y-156850D01*
X206410Y-158750D01*
X213160D01*
G01X146310Y-26000D02*
Y-13300D01*
X150330D01*
X151620Y-13940D01*
X152420Y-14780D01*
X152740Y-16480D01*
X152420Y-18170D01*
X151460Y-19230D01*
X150330Y-19860D01*
X146310D01*
G01X150330D02*
X152740Y-26000D01*
G01X164410D02*
Y-13300D01*
X158450Y-22400D01*
X166500D01*
G01X146310Y14000D02*
Y26700D01*
X150330D01*
X151620Y26060D01*
X152420Y25220D01*
X152740Y23520D01*
X152420Y21830D01*
X151460Y20770D01*
X150330Y20140D01*
X146310D01*
G01X150330D02*
X152740Y14000D01*
G01X158940Y16540D02*
X159900Y15060D01*
X161190Y14210D01*
X162640Y14000D01*
X163920Y14210D01*
X165210Y15270D01*
X166010Y16540D01*
X166170Y17810D01*
X165850Y19290D01*
X164730Y20350D01*
X163600Y20770D01*
X162150D01*
G01X163600D02*
X164570Y21410D01*
X165370Y22470D01*
X165690Y23740D01*
X165370Y25010D01*
X164570Y26060D01*
X163120Y26700D01*
X161670Y26490D01*
X160220Y25640D01*
G01X255720Y-264760D02*
X254760Y-264120D01*
X253630Y-263700D01*
X252350D01*
X250900Y-264340D01*
X249770Y-265390D01*
X248970Y-266660D01*
X248320Y-268780D01*
X248160Y-270690D01*
X248490Y-272590D01*
X248970Y-273860D01*
X249930Y-275130D01*
X251060Y-275980D01*
X252180Y-276400D01*
X253310D01*
X254440Y-275980D01*
X255400Y-275340D01*
X256210Y-274500D01*
G01X261600Y-273860D02*
X262560Y-275340D01*
X263850Y-276190D01*
X265300Y-276400D01*
X266580Y-276190D01*
X267870Y-275130D01*
X268670Y-273860D01*
X268830Y-272590D01*
X268510Y-271110D01*
X267390Y-270050D01*
X266260Y-269630D01*
X264810D01*
G01X266260D02*
X267230Y-268990D01*
X268030Y-267930D01*
X268350Y-266660D01*
X268030Y-265390D01*
X267230Y-264340D01*
X265780Y-263700D01*
X264330Y-263910D01*
X262880Y-264760D01*
G01X274550Y-273860D02*
X275510Y-275340D01*
X276800Y-276190D01*
X278250Y-276400D01*
X279530Y-276190D01*
X280820Y-275130D01*
X281620Y-273860D01*
X281780Y-272590D01*
X281460Y-271110D01*
X280340Y-270050D01*
X279210Y-269630D01*
X277760D01*
G01X279210D02*
X280180Y-268990D01*
X280980Y-267930D01*
X281300Y-266660D01*
X280980Y-265390D01*
X280180Y-264340D01*
X278730Y-263700D01*
X277280Y-263910D01*
X275830Y-264760D01*
G01X206970Y-298400D02*
Y-285700D01*
X210990D01*
X212280Y-286340D01*
X213080Y-287180D01*
X213400Y-288880D01*
X213080Y-290570D01*
X212120Y-291630D01*
X210990Y-292260D01*
X206970D01*
G01X210990D02*
X213400Y-298400D01*
G01X220080Y-287820D02*
X221040Y-286550D01*
X222170Y-285910D01*
X223460Y-285700D01*
X225070Y-286120D01*
X226190Y-287180D01*
X226510Y-288450D01*
X226350Y-289720D01*
X225710Y-290780D01*
X222490Y-292900D01*
X221040Y-294380D01*
X220080Y-296500D01*
X219760Y-298400D01*
X226510D01*
G01X232550Y-296500D02*
X233510Y-297550D01*
X234640Y-298190D01*
X236080Y-298400D01*
X237530Y-297980D01*
X238660Y-297130D01*
X239460Y-295650D01*
X239620Y-293960D01*
X239300Y-292260D01*
X238500Y-291200D01*
X237370Y-290360D01*
X236250Y-290150D01*
X235120Y-290360D01*
X233670Y-291200D01*
X234150Y-285700D01*
X238500D01*
G01X206970Y-278400D02*
Y-265700D01*
X210990D01*
X212280Y-266340D01*
X213080Y-267180D01*
X213400Y-268880D01*
X213080Y-270570D01*
X212120Y-271630D01*
X210990Y-272260D01*
X206970D01*
G01X210990D02*
X213400Y-278400D01*
G01X223130D02*
Y-265700D01*
X221200Y-268240D01*
G01Y-278400D02*
X225060D01*
G01X233030Y-267820D02*
X233990Y-266550D01*
X235120Y-265910D01*
X236410Y-265700D01*
X238020Y-266120D01*
X239140Y-267180D01*
X239460Y-268450D01*
X239300Y-269720D01*
X238660Y-270780D01*
X235440Y-272900D01*
X233990Y-274380D01*
X233030Y-276500D01*
X232710Y-278400D01*
X239460D01*
G01X205460Y-248400D02*
Y-235700D01*
X209480D01*
X210770Y-236340D01*
X211570Y-237180D01*
X211890Y-238880D01*
X211570Y-240570D01*
X210610Y-241630D01*
X209480Y-242260D01*
X205460D01*
G01X209480D02*
X211890Y-248400D01*
G01X221300D02*
X221620Y-245650D01*
X222110Y-243320D01*
X222750Y-241200D01*
X223560Y-238880D01*
X224840Y-235700D01*
X218410D01*
G01X263700Y-125700D02*
X267720Y-138400D01*
X271750Y-125700D01*
G01X277140Y-138400D02*
Y-125700D01*
X280350D01*
X281640Y-126340D01*
X282610Y-127180D01*
X283410Y-128450D01*
X284050Y-129930D01*
X284210Y-132050D01*
X284050Y-134170D01*
X283410Y-135650D01*
X282610Y-136920D01*
X281640Y-137770D01*
X280350Y-138400D01*
X277140D01*
G01X293620D02*
Y-125700D01*
X291690Y-128240D01*
G01Y-138400D02*
X295550D01*
G01X306570D02*
X307700Y-138190D01*
X308990Y-137550D01*
X309790Y-136500D01*
X310110Y-135010D01*
X309790Y-133530D01*
X308830Y-132260D01*
X307380Y-131630D01*
X305770D01*
X304810Y-131200D01*
X304000Y-130150D01*
X303680Y-128660D01*
X304160Y-127180D01*
X305290Y-126120D01*
X306570Y-125700D01*
X307860Y-126120D01*
X308990Y-127180D01*
X309470Y-128660D01*
X309150Y-130150D01*
X308340Y-131200D01*
X307380Y-131630D01*
X305770D01*
X304320Y-132260D01*
X303360Y-133530D01*
X303040Y-135010D01*
X303360Y-136500D01*
X304160Y-137550D01*
X305450Y-138190D01*
X306570Y-138400D01*
G01X235150Y95000D02*
X241900Y107700D01*
G01X235150D02*
X241900Y95000D01*
G01X248420Y105580D02*
X249380Y106850D01*
X250510Y107490D01*
X251800Y107700D01*
X253410Y107280D01*
X254530Y106220D01*
X254850Y104950D01*
X254690Y103680D01*
X254050Y102620D01*
X250830Y100500D01*
X249380Y99020D01*
X248420Y96900D01*
X248100Y95000D01*
X254850D01*
G01X331700Y-249700D02*
X335720Y-262400D01*
X339750Y-249700D01*
G01X345140Y-262400D02*
Y-249700D01*
X348350D01*
X349640Y-250340D01*
X350610Y-251180D01*
X351410Y-252450D01*
X352050Y-253930D01*
X352210Y-256050D01*
X352050Y-258170D01*
X351410Y-259650D01*
X350610Y-260920D01*
X349640Y-261770D01*
X348350Y-262400D01*
X345140D01*
G01X358570Y-251820D02*
X359530Y-250550D01*
X360660Y-249910D01*
X361950Y-249700D01*
X363560Y-250120D01*
X364680Y-251180D01*
X365000Y-252450D01*
X364840Y-253720D01*
X364200Y-254780D01*
X360980Y-256900D01*
X359530Y-258380D01*
X358570Y-260500D01*
X358250Y-262400D01*
X365000D01*
G01X374570Y-249700D02*
X373290Y-250120D01*
X372320Y-251180D01*
X371680Y-252450D01*
X371200Y-254150D01*
X371040Y-256050D01*
X371200Y-257960D01*
X371680Y-259650D01*
X372320Y-260920D01*
X373290Y-261980D01*
X374570Y-262400D01*
X375860Y-261980D01*
X376830Y-260920D01*
X377470Y-259650D01*
X377950Y-257960D01*
X378110Y-256050D01*
X377950Y-254150D01*
X377470Y-252450D01*
X376830Y-251180D01*
X375860Y-250120D01*
X374570Y-249700D01*
G01X300570Y-264360D02*
X299610Y-263720D01*
X298480Y-263300D01*
X297200D01*
X295750Y-263940D01*
X294620Y-264990D01*
X293820Y-266260D01*
X293170Y-268380D01*
X293010Y-270290D01*
X293340Y-272190D01*
X293820Y-273460D01*
X294780Y-274730D01*
X295910Y-275580D01*
X297030Y-276000D01*
X298160D01*
X299290Y-275580D01*
X300250Y-274940D01*
X301060Y-274100D01*
G01X306450Y-273460D02*
X307410Y-274940D01*
X308700Y-275790D01*
X310150Y-276000D01*
X311430Y-275790D01*
X312720Y-274730D01*
X313520Y-273460D01*
X313680Y-272190D01*
X313360Y-270710D01*
X312240Y-269650D01*
X311110Y-269230D01*
X309660D01*
G01X311110D02*
X312080Y-268590D01*
X312880Y-267530D01*
X313200Y-266260D01*
X312880Y-264990D01*
X312080Y-263940D01*
X310630Y-263300D01*
X309180Y-263510D01*
X307730Y-264360D01*
G01X319880Y-265420D02*
X320840Y-264150D01*
X321970Y-263510D01*
X323260Y-263300D01*
X324870Y-263720D01*
X325990Y-264780D01*
X326310Y-266050D01*
X326150Y-267320D01*
X325510Y-268380D01*
X322290Y-270500D01*
X320840Y-271980D01*
X319880Y-274100D01*
X319560Y-276000D01*
X326310D01*
G01X291510Y-171830D02*
X290870Y-172790D01*
X290450Y-173920D01*
Y-175200D01*
X291090Y-176650D01*
X292140Y-177780D01*
X293410Y-178580D01*
X295530Y-179230D01*
X297440Y-179390D01*
X299340Y-179060D01*
X300610Y-178580D01*
X301880Y-177620D01*
X302730Y-176490D01*
X303150Y-175370D01*
Y-174240D01*
X302730Y-173110D01*
X302090Y-172150D01*
X301250Y-171340D01*
G01X300610Y-165950D02*
X302090Y-164990D01*
X302940Y-163700D01*
X303150Y-162250D01*
X302940Y-160970D01*
X301880Y-159680D01*
X300610Y-158880D01*
X299340Y-158720D01*
X297860Y-159040D01*
X296800Y-160160D01*
X296380Y-161290D01*
Y-162740D01*
G01Y-161290D02*
X295740Y-160320D01*
X294680Y-159520D01*
X293410Y-159200D01*
X292140Y-159520D01*
X291090Y-160320D01*
X290450Y-161770D01*
X290660Y-163220D01*
X291510Y-164670D01*
G01X301250Y-153000D02*
X302300Y-152040D01*
X302940Y-150910D01*
X303150Y-149470D01*
X302730Y-148020D01*
X301880Y-146890D01*
X300400Y-146090D01*
X298710Y-145930D01*
X297010Y-146250D01*
X295950Y-147050D01*
X295110Y-148180D01*
X294900Y-149300D01*
X295110Y-150430D01*
X295950Y-151880D01*
X290450Y-151400D01*
Y-147050D01*
G01X314250Y133940D02*
X315530Y132880D01*
X316980Y132250D01*
X318270D01*
X319560Y132880D01*
X320520Y133940D01*
X321000Y135430D01*
X320680Y136910D01*
X319880Y138180D01*
X318430Y139020D01*
X316500Y139450D01*
X315370Y140290D01*
X314890Y141770D01*
X315210Y143260D01*
X316020Y144310D01*
X317140Y144950D01*
X318270D01*
X319390Y144530D01*
X320360Y143470D01*
G01X325750Y144950D02*
X328000Y132250D01*
X330570Y144950D01*
X333150Y132250D01*
X335400Y144950D01*
G01X343520Y132250D02*
Y144950D01*
X341590Y142410D01*
G01Y132250D02*
X345450D01*
G01X399150Y-272580D02*
X386450D01*
Y-268560D01*
X387090Y-267270D01*
X387930Y-266470D01*
X389630Y-266150D01*
X391320Y-266470D01*
X392380Y-267430D01*
X393010Y-268560D01*
Y-272580D01*
G01Y-268560D02*
X399150Y-266150D01*
G01X388570Y-259470D02*
X387300Y-258510D01*
X386660Y-257380D01*
X386450Y-256090D01*
X386870Y-254480D01*
X387930Y-253360D01*
X389200Y-253040D01*
X390470Y-253200D01*
X391530Y-253840D01*
X393650Y-257060D01*
X395130Y-258510D01*
X397250Y-259470D01*
X399150Y-259790D01*
Y-253040D01*
G01X393860Y-246520D02*
X392380Y-245400D01*
X391530Y-244430D01*
X391110Y-243140D01*
X391530Y-242020D01*
X392380Y-241210D01*
X393650Y-240570D01*
X395130Y-240410D01*
X396400Y-240570D01*
X397670Y-241210D01*
X398730Y-242180D01*
X399150Y-243300D01*
X398730Y-244590D01*
X397460Y-245720D01*
X395550Y-246360D01*
X393440Y-246520D01*
X390680Y-246200D01*
X389200Y-245720D01*
X387720Y-244910D01*
X386660Y-243790D01*
X386450Y-242660D01*
X386870Y-241530D01*
X387930Y-240730D01*
G01X402450Y-187850D02*
X415150Y-183830D01*
X402450Y-179800D01*
G01X415150Y-174410D02*
X402450D01*
Y-171200D01*
X403090Y-169910D01*
X403930Y-168940D01*
X405200Y-168140D01*
X406680Y-167500D01*
X408800Y-167340D01*
X410920Y-167500D01*
X412400Y-168140D01*
X413670Y-168940D01*
X414520Y-169910D01*
X415150Y-171200D01*
Y-174410D01*
G01Y-157930D02*
X402450D01*
X404990Y-159860D01*
G01X415150D02*
Y-156000D01*
G01X409860Y-148030D02*
X408380Y-146910D01*
X407530Y-145940D01*
X407110Y-144650D01*
X407530Y-143530D01*
X408380Y-142720D01*
X409650Y-142080D01*
X411130Y-141920D01*
X412400Y-142080D01*
X413670Y-142720D01*
X414730Y-143690D01*
X415150Y-144810D01*
X414730Y-146100D01*
X413460Y-147230D01*
X411550Y-147870D01*
X409440Y-148030D01*
X406680Y-147710D01*
X405200Y-147230D01*
X403720Y-146420D01*
X402660Y-145300D01*
X402450Y-144170D01*
X402870Y-143040D01*
X403930Y-142240D01*
G01X345750Y88900D02*
X352500Y101600D01*
G01X345750D02*
X352500Y88900D01*
G01X358540Y90800D02*
X359500Y89750D01*
X360630Y89110D01*
X362070Y88900D01*
X363520Y89320D01*
X364650Y90170D01*
X365450Y91650D01*
X365610Y93340D01*
X365290Y95040D01*
X364490Y96100D01*
X363360Y96940D01*
X362240Y97150D01*
X361110Y96940D01*
X359660Y96100D01*
X360140Y101600D01*
X364490D01*
G01X425150Y-274580D02*
X412450D01*
Y-270560D01*
X413090Y-269270D01*
X413930Y-268470D01*
X415630Y-268150D01*
X417320Y-268470D01*
X418380Y-269430D01*
X419010Y-270560D01*
Y-274580D01*
G01Y-270560D02*
X425150Y-268150D01*
G01X414570Y-261470D02*
X413300Y-260510D01*
X412660Y-259380D01*
X412450Y-258090D01*
X412870Y-256480D01*
X413930Y-255360D01*
X415200Y-255040D01*
X416470Y-255200D01*
X417530Y-255840D01*
X419650Y-259060D01*
X421130Y-260510D01*
X423250Y-261470D01*
X425150Y-261790D01*
Y-255040D01*
G01X422610Y-249000D02*
X424090Y-248040D01*
X424940Y-246750D01*
X425150Y-245300D01*
X424940Y-244020D01*
X423880Y-242730D01*
X422610Y-241930D01*
X421340Y-241770D01*
X419860Y-242090D01*
X418800Y-243210D01*
X418380Y-244340D01*
Y-245790D01*
G01Y-244340D02*
X417740Y-243370D01*
X416680Y-242570D01*
X415410Y-242250D01*
X414140Y-242570D01*
X413090Y-243370D01*
X412450Y-244820D01*
X412660Y-246270D01*
X413510Y-247720D01*
G01X473720Y-240760D02*
X472760Y-240120D01*
X471630Y-239700D01*
X470350D01*
X468900Y-240340D01*
X467770Y-241390D01*
X466970Y-242660D01*
X466320Y-244780D01*
X466160Y-246690D01*
X466490Y-248590D01*
X466970Y-249860D01*
X467930Y-251130D01*
X469060Y-251980D01*
X470180Y-252400D01*
X471310D01*
X472440Y-251980D01*
X473400Y-251340D01*
X474210Y-250500D01*
G01X479600Y-249860D02*
X480560Y-251340D01*
X481850Y-252190D01*
X483300Y-252400D01*
X484580Y-252190D01*
X485870Y-251130D01*
X486670Y-249860D01*
X486830Y-248590D01*
X486510Y-247110D01*
X485390Y-246050D01*
X484260Y-245630D01*
X482810D01*
G01X484260D02*
X485230Y-244990D01*
X486030Y-243930D01*
X486350Y-242660D01*
X486030Y-241390D01*
X485230Y-240340D01*
X483780Y-239700D01*
X482330Y-239910D01*
X480880Y-240760D01*
G01X496080Y-252400D02*
Y-239700D01*
X494150Y-242240D01*
G01Y-252400D02*
X498010D01*
G01X579720Y-240760D02*
X578760Y-240120D01*
X577630Y-239700D01*
X576350D01*
X574900Y-240340D01*
X573770Y-241390D01*
X572970Y-242660D01*
X572320Y-244780D01*
X572160Y-246690D01*
X572490Y-248590D01*
X572970Y-249860D01*
X573930Y-251130D01*
X575060Y-251980D01*
X576180Y-252400D01*
X577310D01*
X578440Y-251980D01*
X579400Y-251340D01*
X580210Y-250500D01*
G01X585600Y-249860D02*
X586560Y-251340D01*
X587850Y-252190D01*
X589300Y-252400D01*
X590580Y-252190D01*
X591870Y-251130D01*
X592670Y-249860D01*
X592830Y-248590D01*
X592510Y-247110D01*
X591390Y-246050D01*
X590260Y-245630D01*
X588810D01*
G01X590260D02*
X591230Y-244990D01*
X592030Y-243930D01*
X592350Y-242660D01*
X592030Y-241390D01*
X591230Y-240340D01*
X589780Y-239700D01*
X588330Y-239910D01*
X586880Y-240760D01*
G01X602080Y-239700D02*
X600800Y-240120D01*
X599830Y-241180D01*
X599190Y-242450D01*
X598710Y-244150D01*
X598550Y-246050D01*
X598710Y-247960D01*
X599190Y-249650D01*
X599830Y-250920D01*
X600800Y-251980D01*
X602080Y-252400D01*
X603370Y-251980D01*
X604340Y-250920D01*
X604980Y-249650D01*
X605460Y-247960D01*
X605620Y-246050D01*
X605460Y-244150D01*
X604980Y-242450D01*
X604340Y-241180D01*
X603370Y-240120D01*
X602080Y-239700D01*
G01X605110Y-123750D02*
Y-111050D01*
X609130D01*
X610420Y-111690D01*
X611220Y-112530D01*
X611540Y-114230D01*
X611220Y-115920D01*
X610260Y-116980D01*
X609130Y-117610D01*
X605110D01*
G01X609130D02*
X611540Y-123750D01*
G01X617740Y-121850D02*
X618700Y-122900D01*
X619830Y-123540D01*
X621270Y-123750D01*
X622720Y-123330D01*
X623850Y-122480D01*
X624650Y-121000D01*
X624810Y-119310D01*
X624490Y-117610D01*
X623690Y-116550D01*
X622560Y-115710D01*
X621440Y-115500D01*
X620310Y-115710D01*
X618860Y-116550D01*
X619340Y-111050D01*
X623690D01*
G01X598960Y-44450D02*
X602980Y-57150D01*
X607010Y-44450D01*
G01X612400Y-57150D02*
Y-44450D01*
X615610D01*
X616900Y-45090D01*
X617870Y-45930D01*
X618670Y-47200D01*
X619310Y-48680D01*
X619470Y-50800D01*
X619310Y-52920D01*
X618670Y-54400D01*
X617870Y-55670D01*
X616900Y-56520D01*
X615610Y-57150D01*
X612400D01*
G01X628880D02*
Y-44450D01*
X626950Y-46990D01*
G01Y-57150D02*
X630810D01*
G01X573010Y176700D02*
X577030Y164000D01*
X581060Y176700D01*
G01X586450Y164000D02*
Y176700D01*
X589660D01*
X590950Y176060D01*
X591920Y175220D01*
X592720Y173950D01*
X593360Y172470D01*
X593520Y170350D01*
X593360Y168230D01*
X592720Y166750D01*
X591920Y165480D01*
X590950Y164630D01*
X589660Y164000D01*
X586450D01*
G01X599880Y174580D02*
X600840Y175850D01*
X601970Y176490D01*
X603260Y176700D01*
X604870Y176280D01*
X605990Y175220D01*
X606310Y173950D01*
X606150Y172680D01*
X605510Y171620D01*
X602290Y169500D01*
X600840Y168020D01*
X599880Y165900D01*
X599560Y164000D01*
X606310D01*
G01X558150Y206000D02*
X564900Y218700D01*
G01X558150D02*
X564900Y206000D01*
G01X570940Y208540D02*
X571900Y207060D01*
X573190Y206210D01*
X574640Y206000D01*
X575920Y206210D01*
X577210Y207270D01*
X578010Y208540D01*
X578170Y209810D01*
X577850Y211290D01*
X576730Y212350D01*
X575600Y212770D01*
X574150D01*
G01X575600D02*
X576570Y213410D01*
X577370Y214470D01*
X577690Y215740D01*
X577370Y217010D01*
X576570Y218060D01*
X575120Y218700D01*
X573670Y218490D01*
X572220Y217640D01*
G01X658290Y-193650D02*
X661510D01*
Y-197460D01*
X660540Y-198730D01*
X659420Y-199580D01*
X657810Y-200000D01*
X656200Y-199580D01*
X655070Y-198730D01*
X654110Y-197460D01*
X653460Y-195980D01*
X653140Y-194290D01*
Y-192800D01*
X653460Y-191530D01*
X654110Y-190050D01*
X655070Y-188780D01*
X656040Y-187940D01*
X657320Y-187300D01*
X658450D01*
X659740Y-187720D01*
X660700Y-188570D01*
G01X666580Y-200000D02*
Y-187300D01*
X673970Y-200000D01*
Y-187300D01*
G01X679690Y-200000D02*
Y-187300D01*
X682900D01*
X684190Y-187940D01*
X685160Y-188780D01*
X685960Y-190050D01*
X686600Y-191530D01*
X686760Y-193650D01*
X686600Y-195770D01*
X685960Y-197250D01*
X685160Y-198520D01*
X684190Y-199370D01*
X682900Y-200000D01*
X679690D01*
G01X654110Y-179960D02*
X654910Y-181230D01*
X655880Y-182080D01*
X657000Y-182500D01*
X658290Y-182080D01*
X659260Y-181230D01*
X660220Y-179960D01*
X660540Y-178270D01*
Y-169800D01*
G01X670270Y-182500D02*
Y-169800D01*
X668340Y-172340D01*
G01Y-182500D02*
X672200D01*
G01X668010Y-112300D02*
X672030Y-125000D01*
X676060Y-112300D01*
G01X684980D02*
Y-125000D01*
G01X681290Y-112300D02*
X688680D01*
G01X697930Y-125000D02*
Y-112300D01*
X696000Y-114840D01*
G01Y-125000D02*
X699860D01*
G01X637110Y-159750D02*
Y-147050D01*
X641130D01*
X642420Y-147690D01*
X643220Y-148530D01*
X643540Y-150230D01*
X643220Y-151920D01*
X642260Y-152980D01*
X641130Y-153610D01*
X637110D01*
G01X641130D02*
X643540Y-159750D01*
G01X650540Y-158270D02*
X651670Y-159330D01*
X652950Y-159750D01*
X654240Y-159330D01*
X655370Y-158060D01*
X656170Y-156150D01*
X656490Y-154250D01*
Y-151920D01*
X656170Y-150010D01*
X655370Y-148320D01*
X654400Y-147470D01*
X653270Y-147050D01*
X651990Y-147470D01*
X651020Y-148320D01*
X650380Y-149590D01*
X650060Y-151280D01*
X650380Y-152760D01*
X651180Y-154250D01*
X652150Y-155090D01*
X653270Y-155310D01*
X654560Y-154880D01*
X655530Y-153820D01*
X656490Y-151920D01*
G01X675140Y117600D02*
Y130300D01*
G01X681250D02*
X675140Y122470D01*
G01X682210Y117600D02*
X677870Y126070D01*
G01X691620Y117600D02*
Y130300D01*
X689690Y127760D01*
G01Y117600D02*
X693550D01*
G01X732620Y-159750D02*
Y-147050D01*
X736640D01*
X737930Y-147690D01*
X738730Y-148530D01*
X739050Y-150230D01*
X738730Y-151920D01*
X737770Y-152980D01*
X736640Y-153610D01*
X732620D01*
G01X736640D02*
X739050Y-159750D01*
G01X748780D02*
Y-147050D01*
X746850Y-149590D01*
G01Y-159750D02*
X750710D01*
G01X758200Y-157210D02*
X759160Y-158690D01*
X760450Y-159540D01*
X761900Y-159750D01*
X763180Y-159540D01*
X764470Y-158480D01*
X765270Y-157210D01*
X765430Y-155940D01*
X765110Y-154460D01*
X763990Y-153400D01*
X762860Y-152980D01*
X761410D01*
G01X762860D02*
X763830Y-152340D01*
X764630Y-151280D01*
X764950Y-150010D01*
X764630Y-148740D01*
X763830Y-147690D01*
X762380Y-147050D01*
X760930Y-147260D01*
X759480Y-148110D01*
G01X722500Y-141180D02*
X709800D01*
Y-137160D01*
X710440Y-135870D01*
X711280Y-135070D01*
X712980Y-134750D01*
X714670Y-135070D01*
X715730Y-136030D01*
X716360Y-137160D01*
Y-141180D01*
G01Y-137160D02*
X722500Y-134750D01*
G01Y-125020D02*
X709800D01*
X712340Y-126950D01*
G01X722500D02*
Y-123090D01*
G01Y-112070D02*
X709800D01*
X712340Y-114000D01*
G01X722500D02*
Y-110140D01*
G01X814750Y-254000D02*
X818770Y-266700D01*
X822800Y-254000D01*
G01X828190Y-266700D02*
Y-254000D01*
X831400D01*
X832690Y-254640D01*
X833660Y-255480D01*
X834460Y-256750D01*
X835100Y-258230D01*
X835260Y-260350D01*
X835100Y-262470D01*
X834460Y-263950D01*
X833660Y-265220D01*
X832690Y-266070D01*
X831400Y-266700D01*
X828190D01*
G01X844670D02*
Y-254000D01*
X842740Y-256540D01*
G01Y-266700D02*
X846600D01*
G01X857300D02*
X857620Y-263950D01*
X858110Y-261620D01*
X858750Y-259500D01*
X859560Y-257180D01*
X860840Y-254000D01*
X854410D01*
G01X814750Y-203200D02*
X818770Y-215900D01*
X822800Y-203200D01*
G01X828190Y-215900D02*
Y-203200D01*
X831400D01*
X832690Y-203840D01*
X833660Y-204680D01*
X834460Y-205950D01*
X835100Y-207430D01*
X835260Y-209550D01*
X835100Y-211670D01*
X834460Y-213150D01*
X833660Y-214420D01*
X832690Y-215270D01*
X831400Y-215900D01*
X828190D01*
G01X841620Y-205320D02*
X842580Y-204050D01*
X843710Y-203410D01*
X845000Y-203200D01*
X846610Y-203620D01*
X847730Y-204680D01*
X848050Y-205950D01*
X847890Y-207220D01*
X847250Y-208280D01*
X844030Y-210400D01*
X842580Y-211880D01*
X841620Y-214000D01*
X841300Y-215900D01*
X848050D01*
G01X854570Y-205320D02*
X855530Y-204050D01*
X856660Y-203410D01*
X857950Y-203200D01*
X859560Y-203620D01*
X860680Y-204680D01*
X861000Y-205950D01*
X860840Y-207220D01*
X860200Y-208280D01*
X856980Y-210400D01*
X855530Y-211880D01*
X854570Y-214000D01*
X854250Y-215900D01*
X861000D01*
G01X772970Y-196400D02*
Y-183700D01*
X776990D01*
X778280Y-184340D01*
X779080Y-185180D01*
X779400Y-186880D01*
X779080Y-188570D01*
X778120Y-189630D01*
X776990Y-190260D01*
X772970D01*
G01X776990D02*
X779400Y-196400D01*
G01X786080Y-185820D02*
X787040Y-184550D01*
X788170Y-183910D01*
X789460Y-183700D01*
X791070Y-184120D01*
X792190Y-185180D01*
X792510Y-186450D01*
X792350Y-187720D01*
X791710Y-188780D01*
X788490Y-190900D01*
X787040Y-192380D01*
X786080Y-194500D01*
X785760Y-196400D01*
X792510D01*
G01X804020D02*
Y-183700D01*
X798060Y-192800D01*
X806110D01*
G01X814750Y-152400D02*
X818770Y-165100D01*
X822800Y-152400D01*
G01X828190Y-165100D02*
Y-152400D01*
X831400D01*
X832690Y-153040D01*
X833660Y-153880D01*
X834460Y-155150D01*
X835100Y-156630D01*
X835260Y-158750D01*
X835100Y-160870D01*
X834460Y-162350D01*
X833660Y-163620D01*
X832690Y-164470D01*
X831400Y-165100D01*
X828190D01*
G01X844670D02*
Y-152400D01*
X842740Y-154940D01*
G01Y-165100D02*
X846600D01*
G01X854890Y-163620D02*
X856020Y-164680D01*
X857300Y-165100D01*
X858590Y-164680D01*
X859720Y-163410D01*
X860520Y-161500D01*
X860840Y-159600D01*
Y-157270D01*
X860520Y-155360D01*
X859720Y-153670D01*
X858750Y-152820D01*
X857620Y-152400D01*
X856340Y-152820D01*
X855370Y-153670D01*
X854730Y-154940D01*
X854410Y-156630D01*
X854730Y-158110D01*
X855530Y-159600D01*
X856500Y-160440D01*
X857620Y-160660D01*
X858910Y-160230D01*
X859880Y-159170D01*
X860840Y-157270D01*
G01X814750Y-101600D02*
X818770Y-114300D01*
X822800Y-101600D01*
G01X828190Y-114300D02*
Y-101600D01*
X831400D01*
X832690Y-102240D01*
X833660Y-103080D01*
X834460Y-104350D01*
X835100Y-105830D01*
X835260Y-107950D01*
X835100Y-110070D01*
X834460Y-111550D01*
X833660Y-112820D01*
X832690Y-113670D01*
X831400Y-114300D01*
X828190D01*
G01X841620Y-103720D02*
X842580Y-102450D01*
X843710Y-101810D01*
X845000Y-101600D01*
X846610Y-102020D01*
X847730Y-103080D01*
X848050Y-104350D01*
X847890Y-105620D01*
X847250Y-106680D01*
X844030Y-108800D01*
X842580Y-110280D01*
X841620Y-112400D01*
X841300Y-114300D01*
X848050D01*
G01X857620D02*
Y-101600D01*
X855690Y-104140D01*
G01Y-114300D02*
X859550D01*
G01X821210Y-50800D02*
X825230Y-63500D01*
X829260Y-50800D01*
G01X834650Y-63500D02*
Y-50800D01*
X837860D01*
X839150Y-51440D01*
X840120Y-52280D01*
X840920Y-53550D01*
X841560Y-55030D01*
X841720Y-57150D01*
X841560Y-59270D01*
X840920Y-60750D01*
X840120Y-62020D01*
X839150Y-62870D01*
X837860Y-63500D01*
X834650D01*
G01X847600Y-60960D02*
X848560Y-62440D01*
X849850Y-63290D01*
X851300Y-63500D01*
X852580Y-63290D01*
X853870Y-62230D01*
X854670Y-60960D01*
X854830Y-59690D01*
X854510Y-58210D01*
X853390Y-57150D01*
X852260Y-56730D01*
X850810D01*
G01X852260D02*
X853230Y-56090D01*
X854030Y-55030D01*
X854350Y-53760D01*
X854030Y-52490D01*
X853230Y-51440D01*
X851780Y-50800D01*
X850330Y-51010D01*
X848880Y-51860D01*
G01X769810Y-99050D02*
X773830Y-111750D01*
X777860Y-99050D01*
G01X786780D02*
Y-111750D01*
G01X783090Y-99050D02*
X790480D01*
G01X796680Y-101170D02*
X797640Y-99900D01*
X798770Y-99260D01*
X800060Y-99050D01*
X801670Y-99470D01*
X802790Y-100530D01*
X803110Y-101800D01*
X802950Y-103070D01*
X802310Y-104130D01*
X799090Y-106250D01*
X797640Y-107730D01*
X796680Y-109850D01*
X796360Y-111750D01*
X803110D01*
G01X769810Y-47050D02*
X773830Y-59750D01*
X777860Y-47050D01*
G01X783250Y-59750D02*
Y-47050D01*
X786460D01*
X787750Y-47690D01*
X788720Y-48530D01*
X789520Y-49800D01*
X790160Y-51280D01*
X790320Y-53400D01*
X790160Y-55520D01*
X789520Y-57000D01*
X788720Y-58270D01*
X787750Y-59120D01*
X786460Y-59750D01*
X783250D01*
G01X796200Y-57850D02*
X797160Y-58900D01*
X798290Y-59540D01*
X799730Y-59750D01*
X801180Y-59330D01*
X802310Y-58480D01*
X803110Y-57000D01*
X803270Y-55310D01*
X802950Y-53610D01*
X802150Y-52550D01*
X801020Y-51710D01*
X799900Y-51500D01*
X798770Y-51710D01*
X797320Y-52550D01*
X797800Y-47050D01*
X802150D01*
G01X821210Y0D02*
X825230Y-12700D01*
X829260Y0D01*
G01X834650Y-12700D02*
Y0D01*
X837860D01*
X839150Y-640D01*
X840120Y-1480D01*
X840920Y-2750D01*
X841560Y-4230D01*
X841720Y-6350D01*
X841560Y-8470D01*
X840920Y-9950D01*
X840120Y-11220D01*
X839150Y-12070D01*
X837860Y-12700D01*
X834650D01*
G01X853070D02*
Y0D01*
X847110Y-9100D01*
X855160D01*
G01X779140Y117600D02*
Y130300D01*
G01X785250D02*
X779140Y122470D01*
G01X786210Y117600D02*
X781870Y126070D01*
G01X792570Y128180D02*
X793530Y129450D01*
X794660Y130090D01*
X795950Y130300D01*
X797560Y129880D01*
X798680Y128820D01*
X799000Y127550D01*
X798840Y126280D01*
X798200Y125220D01*
X794980Y123100D01*
X793530Y121620D01*
X792570Y119500D01*
X792250Y117600D01*
X799000D01*
G01X789010Y174700D02*
X793030Y162000D01*
X797060Y174700D01*
G01X802450Y162000D02*
Y174700D01*
X805660D01*
X806950Y174060D01*
X807920Y173220D01*
X808720Y171950D01*
X809360Y170470D01*
X809520Y168350D01*
X809360Y166230D01*
X808720Y164750D01*
X807920Y163480D01*
X806950Y162630D01*
X805660Y162000D01*
X802450D01*
G01X815880Y167290D02*
X817000Y168770D01*
X817970Y169620D01*
X819260Y170040D01*
X820380Y169620D01*
X821190Y168770D01*
X821830Y167500D01*
X821990Y166020D01*
X821830Y164750D01*
X821190Y163480D01*
X820220Y162420D01*
X819100Y162000D01*
X817810Y162420D01*
X816680Y163690D01*
X816040Y165600D01*
X815880Y167710D01*
X816200Y170470D01*
X816680Y171950D01*
X817490Y173430D01*
X818610Y174490D01*
X819740Y174700D01*
X820870Y174280D01*
X821670Y173220D01*
M02*
