G04 ================== begin FILE IDENTIFICATION RECORD ==================*
G04 Layout Name:  D:/Project/Circuit/FIBER-E1/01v1/pcb/FIBER-E1_01v1.brd*
G04 Film Name:    SILK_BOT*
G04 File Format:  Gerber RS274X*
G04 File Origin:  Cadence Allegro 16.6-2015-S073*
G04 Origin Date:  Wed Oct 12 15:12:10 2016*
G04 *
G04 Layer:  MANUFACTURING/AUTOSILK_BOTTOM*
G04 *
G04 Offset:    (0.000 0.000)*
G04 Mirror:    No*
G04 Mode:      Positive*
G04 Rotation:  0*
G04 FullContactRelief:  No*
G04 UndefLineWidth:     0.200*
G04 ================== end FILE IDENTIFICATION RECORD ====================*
%FSLAX34Y34*MOMM*%
%IR0*IPPOS*OFA0.00000B0.00000*MIA0B0*SFA1.00000B1.00000*%
%ADD10C,.1*%
%ADD11C,.2*%
%ADD12C,.15*%
G75*
%LPD*%
G75*
G54D10*
G01X841000Y8000D02*
Y207000D01*
G01X842000Y8000D02*
Y207000D01*
G01X843000Y8000D02*
Y207000D01*
G01X844000Y8000D02*
Y207000D01*
G01X845000Y8000D02*
Y207000D01*
G01X846000Y8000D02*
Y207000D01*
G01X847000Y8000D02*
Y207000D01*
G01X848000Y8000D02*
Y207000D01*
G01X849000Y8000D02*
Y207000D01*
G01X850000Y8000D02*
Y207000D01*
G01X851000Y8000D02*
Y207000D01*
G01X852000Y8000D02*
Y207000D01*
G01X853000Y8000D02*
Y207000D01*
G01X854000Y8000D02*
Y207000D01*
G01X855000Y8000D02*
Y207000D01*
G01X856000Y8000D02*
Y207000D01*
G01X857000Y8000D02*
Y207000D01*
G01X858000Y8000D02*
Y207000D01*
G01X859000Y8000D02*
Y207000D01*
G01X860000Y8000D02*
Y207000D01*
G01X861000Y8000D02*
Y207000D01*
G01X862000Y8000D02*
Y207000D01*
G01X863000Y8000D02*
Y207000D01*
G01X864000Y8000D02*
Y207000D01*
G01X865000Y8000D02*
Y207000D01*
G01X866000Y8000D02*
Y207000D01*
G01X867000Y8000D02*
Y207000D01*
G01X868000Y8000D02*
Y207000D01*
G01X869000Y8000D02*
Y207000D01*
G01X870000Y8000D02*
Y207000D01*
G01X871000Y8000D02*
Y207000D01*
G01X872000Y8000D02*
Y207000D01*
G01X873000Y8000D02*
Y207000D01*
G01X874000Y8000D02*
Y207000D01*
G01X875000Y8000D02*
Y207000D01*
G01X876000Y8000D02*
Y207000D01*
G01X877000Y8000D02*
Y207000D01*
G01X878000Y8000D02*
Y207000D01*
G01X879000Y8000D02*
Y207000D01*
G01X880000Y8000D02*
Y207000D01*
G01X881000Y8000D02*
Y207000D01*
G01X882000Y8000D02*
Y207000D01*
G01X883000Y8000D02*
Y207000D01*
G01X884000Y8000D02*
Y207000D01*
G01X885000Y8000D02*
Y207000D01*
G01X886000Y8000D02*
Y207000D01*
G01X887000Y8000D02*
Y207000D01*
G01X888000Y8000D02*
Y207000D01*
G01X889000Y8000D02*
Y207000D01*
G01X890000Y8000D02*
Y207000D01*
G01X891000Y8000D02*
Y207000D01*
G01X892000Y8000D02*
Y207000D01*
G01X840500D02*
Y8000D01*
X899500D01*
Y207000D01*
X840500D01*
G01X893000Y8000D02*
Y207000D01*
G01X894000Y8000D02*
Y207000D01*
G01X895000Y8000D02*
Y207000D01*
G01X896000Y8000D02*
Y207000D01*
G01X897000Y8000D02*
Y207000D01*
G01X898000Y8000D02*
Y207000D01*
G01X899000Y8000D02*
Y207000D01*
G54D11*
G01X-434500Y87100D02*
Y52600D01*
G01D02*
X-454500D01*
G01D02*
Y87100D01*
G01D02*
X-434500D01*
G01X-409100D02*
Y52600D01*
G01D02*
X-429100D01*
G01D02*
Y87100D01*
G01X-383700D02*
Y52600D01*
G01D02*
X-403700D01*
G01D02*
Y87100D01*
G01X-358300Y52600D02*
X-378300D01*
G01D02*
Y87100D01*
G01X-429100D02*
X-409100D01*
G01X-403700D02*
X-383700D01*
G01X-378300D02*
X-358300D01*
G01X-324800Y107200D02*
Y45200D01*
G01X-284800D02*
X-324800D01*
G01X-358300Y87100D02*
Y52600D01*
G01X-324800Y107200D02*
X-284800D01*
G01D02*
Y45200D01*
G01X-160500Y-151000D02*
X-124500D01*
G01Y-129000D02*
X-160500D01*
G01D02*
Y-151000D01*
G01X-157700Y58850D02*
X-121700D01*
G01Y80850D02*
X-157700D01*
G01D02*
Y58850D01*
G01X-188500Y198000D02*
Y162000D01*
G01D02*
X-166500D01*
G01D02*
Y198000D01*
G01D02*
X-188500D01*
G01X-124500Y-151000D02*
Y-129000D01*
G01X-121700Y58850D02*
Y80850D01*
G01X-30050Y-172500D02*
Y-208500D01*
G01D02*
X-8050D01*
G01X-17350Y-115350D02*
Y-151350D01*
G01D02*
X4650D01*
G01X-8050Y-172500D02*
X-30050D01*
G01X4650Y-115350D02*
X-17350D01*
G01Y-20100D02*
Y-56100D01*
G01D02*
X4650D01*
G01X-56100Y1700D02*
X-20100D01*
G01D02*
Y23700D01*
G01X-56100D02*
Y1700D01*
G01X4650Y-20100D02*
X-17350D01*
G01X-56100Y-23700D02*
X-20100D01*
G01D02*
Y-1700D01*
G01D02*
X-56100D01*
G01D02*
Y-23700D01*
G01X-23700Y68800D02*
Y32800D01*
G01D02*
X-1700D01*
G01Y68800D02*
X-23700D01*
G01X-20100Y23700D02*
X-56100D01*
G01X-29000Y162000D02*
Y198000D01*
G01D02*
X-51000D01*
G01D02*
Y162000D01*
G01D02*
X-29000D01*
G01X-8050Y-208500D02*
Y-172500D01*
G01X55450Y-240250D02*
Y-204250D01*
G01D02*
X33450D01*
G01D02*
Y-240250D01*
G01D02*
X55450D01*
G01X27700Y-231200D02*
Y-175200D01*
X-2300D01*
Y-231200D01*
X27700D01*
G01X-2120Y-235740D02*
X-12280D01*
G01X-7200Y-240820D02*
Y-230660D01*
G01X4650Y-151350D02*
Y-115350D01*
G01X14400D02*
Y-151350D01*
G01D02*
X36400D01*
G01D02*
Y-115350D01*
G01X75150Y-128700D02*
X39150D01*
G01D02*
Y-150700D01*
G01D02*
X75150D01*
G01X85150Y-162800D02*
X29150D01*
Y-192800D01*
X85150D01*
Y-162800D01*
G01X36400Y-115350D02*
X14400D01*
G01X4650Y-56100D02*
Y-20100D01*
G01X30050Y-68800D02*
Y-32800D01*
G01X8050D02*
Y-68800D01*
G01D02*
X30050D01*
G01X56100Y-8050D02*
X20100D01*
G01D02*
Y-30050D01*
G01D02*
X56100D01*
G01X30050Y-32800D02*
X8050D01*
G01X20100Y17350D02*
Y-4650D01*
G01D02*
X56100D01*
G01X1700Y56100D02*
Y20100D01*
G01D02*
X23700D01*
G01D02*
Y56100D01*
G01D02*
X1700D01*
G01X-1700Y32800D02*
Y68800D01*
G01X56100Y17350D02*
X20100D01*
G01X118500Y-290500D02*
Y-254500D01*
G01X96500D02*
Y-290500D01*
G01D02*
X118500D01*
G01X80850Y-240250D02*
Y-204250D01*
G01D02*
X58850D01*
G01D02*
Y-240250D01*
G01D02*
X80850D01*
G01X118500Y-254500D02*
X96500D01*
G01X85600Y-236600D02*
X117600D01*
Y-220600D01*
X85600D01*
Y-236600D01*
G01X75150Y-150700D02*
Y-128700D01*
G01X89440Y-152720D02*
Y-162880D01*
G01X94520Y-157800D02*
X84360D01*
G01X56100Y-30050D02*
Y-8050D01*
G01Y-4650D02*
Y17350D01*
G01X118950Y-24350D02*
Y11650D01*
G01D02*
X96950D01*
G01D02*
Y-24350D01*
G01D02*
X118950D01*
G01X121700Y-49100D02*
X157700D01*
G01Y-27100D02*
X121700D01*
G01D02*
Y-49100D01*
G01X124700Y-4000D02*
X154700D01*
Y4000D01*
X124700D01*
Y-4000D01*
G01X121700Y27100D02*
X157700D01*
G01Y49100D02*
X121700D01*
G01D02*
Y27100D01*
G01X58200Y135050D02*
X94200D01*
G01D02*
Y157050D01*
G01X58200D02*
Y135050D01*
G01X94200Y157050D02*
X58200D01*
G01X198500Y-59500D02*
X176500D01*
G01D02*
Y-95500D01*
G01D02*
X198500D01*
G01X157700Y-49100D02*
Y-27100D01*
G01Y27100D02*
Y49100D01*
G01X168150Y138050D02*
X200150D01*
Y154050D01*
X168150D01*
Y138050D01*
G01X182450Y159800D02*
Y195800D01*
G01D02*
X160450D01*
G01D02*
Y159800D01*
G01D02*
X182450D01*
G01X207850Y195800D02*
X185850D01*
G01D02*
Y159800D01*
G01D02*
X207850D01*
G01X245950Y-125950D02*
Y-89950D01*
G01X223950D02*
Y-125950D01*
G01D02*
X245950D01*
G01X249350Y-89950D02*
Y-125950D01*
G01D02*
X271350D01*
G01X245950Y-89950D02*
X223950D01*
G01X271350D02*
X249350D01*
G01X198500Y-95500D02*
Y-59500D01*
G01X201550Y-91950D02*
Y-123950D01*
X217550D01*
Y-91950D01*
X201550D01*
G01X207850Y159800D02*
Y195800D01*
G01X271350Y-125950D02*
Y-89950D01*
G01X301000Y24500D02*
Y60500D01*
G01D02*
X279000D01*
G01D02*
Y24500D01*
G01D02*
X301000D01*
G01X469000Y195500D02*
Y159500D01*
G01D02*
X491000D01*
G01Y195500D02*
X469000D01*
G01X491000Y159500D02*
Y195500D01*
G01X684000Y-72000D02*
Y-108000D01*
G01D02*
X706000D01*
G01D02*
Y-72000D01*
G01D02*
X684000D01*
G01X769400Y-249350D02*
Y-271350D01*
G01D02*
X805400D01*
G01D02*
Y-249350D01*
G01D02*
X769400D01*
G54D12*
G01X-451200Y14070D02*
X-438500D01*
Y18090D01*
X-439140Y19380D01*
X-439980Y20180D01*
X-441680Y20500D01*
X-443370Y20180D01*
X-444430Y19220D01*
X-445060Y18090D01*
Y14070D01*
G01Y18090D02*
X-451200Y20500D01*
G01X-440620Y27180D02*
X-439350Y28140D01*
X-438710Y29270D01*
X-438500Y30560D01*
X-438920Y32170D01*
X-439980Y33290D01*
X-441250Y33610D01*
X-442520Y33450D01*
X-443580Y32810D01*
X-445700Y29590D01*
X-447180Y28140D01*
X-449300Y27180D01*
X-451200Y26860D01*
Y33610D01*
G01X-440620Y40130D02*
X-439350Y41090D01*
X-438710Y42220D01*
X-438500Y43510D01*
X-438920Y45120D01*
X-439980Y46240D01*
X-441250Y46560D01*
X-442520Y46400D01*
X-443580Y45760D01*
X-445700Y42540D01*
X-447180Y41090D01*
X-449300Y40130D01*
X-451200Y39810D01*
Y46560D01*
G01X-425200Y16070D02*
X-412500D01*
Y20090D01*
X-413140Y21380D01*
X-413980Y22180D01*
X-415680Y22500D01*
X-417370Y22180D01*
X-418430Y21220D01*
X-419060Y20090D01*
Y16070D01*
G01Y20090D02*
X-425200Y22500D01*
G01X-414620Y29180D02*
X-413350Y30140D01*
X-412710Y31270D01*
X-412500Y32560D01*
X-412920Y34170D01*
X-413980Y35290D01*
X-415250Y35610D01*
X-416520Y35450D01*
X-417580Y34810D01*
X-419700Y31590D01*
X-421180Y30140D01*
X-423300Y29180D01*
X-425200Y28860D01*
Y35610D01*
G01Y45180D02*
X-412500D01*
X-415040Y43250D01*
G01X-425200D02*
Y47110D01*
G01X-401200Y14070D02*
X-388500D01*
Y18090D01*
X-389140Y19380D01*
X-389980Y20180D01*
X-391680Y20500D01*
X-393370Y20180D01*
X-394430Y19220D01*
X-395060Y18090D01*
Y14070D01*
G01Y18090D02*
X-401200Y20500D01*
G01X-390620Y27180D02*
X-389350Y28140D01*
X-388710Y29270D01*
X-388500Y30560D01*
X-388920Y32170D01*
X-389980Y33290D01*
X-391250Y33610D01*
X-392520Y33450D01*
X-393580Y32810D01*
X-395700Y29590D01*
X-397180Y28140D01*
X-399300Y27180D01*
X-401200Y26860D01*
Y33610D01*
G01X-388500Y43180D02*
X-388920Y41900D01*
X-389980Y40930D01*
X-391250Y40290D01*
X-392950Y39810D01*
X-394850Y39650D01*
X-396760Y39810D01*
X-398450Y40290D01*
X-399720Y40930D01*
X-400780Y41900D01*
X-401200Y43180D01*
X-400780Y44470D01*
X-399720Y45440D01*
X-398450Y46080D01*
X-396760Y46560D01*
X-394850Y46720D01*
X-392950Y46560D01*
X-391250Y46080D01*
X-389980Y45440D01*
X-388920Y44470D01*
X-388500Y43180D01*
G01X-375200Y16070D02*
X-362500D01*
Y20090D01*
X-363140Y21380D01*
X-363980Y22180D01*
X-365680Y22500D01*
X-367370Y22180D01*
X-368430Y21220D01*
X-369060Y20090D01*
Y16070D01*
G01Y20090D02*
X-375200Y22500D01*
G01Y32230D02*
X-362500D01*
X-365040Y30300D01*
G01X-375200D02*
Y34160D01*
G01X-373720Y42450D02*
X-374780Y43580D01*
X-375200Y44860D01*
X-374780Y46150D01*
X-373510Y47280D01*
X-371600Y48080D01*
X-369700Y48400D01*
X-367370D01*
X-365460Y48080D01*
X-363770Y47280D01*
X-362920Y46310D01*
X-362500Y45180D01*
X-362920Y43900D01*
X-363770Y42930D01*
X-365040Y42290D01*
X-366730Y41970D01*
X-368210Y42290D01*
X-369700Y43090D01*
X-370540Y44060D01*
X-370760Y45180D01*
X-370330Y46470D01*
X-369270Y47440D01*
X-367370Y48400D01*
G01X-293780Y125890D02*
X-292820Y126530D01*
X-291690Y126950D01*
X-290410D01*
X-288960Y126310D01*
X-287830Y125260D01*
X-287030Y123990D01*
X-286380Y121870D01*
X-286220Y119960D01*
X-286550Y118060D01*
X-287030Y116790D01*
X-287990Y115520D01*
X-289120Y114670D01*
X-290240Y114250D01*
X-291370D01*
X-292500Y114670D01*
X-293460Y115310D01*
X-294270Y116150D01*
G01X-300140Y124830D02*
X-301100Y126100D01*
X-302230Y126740D01*
X-303520Y126950D01*
X-305130Y126530D01*
X-306250Y125470D01*
X-306570Y124200D01*
X-306410Y122930D01*
X-305770Y121870D01*
X-302550Y119750D01*
X-301100Y118270D01*
X-300140Y116150D01*
X-299820Y114250D01*
X-306570D01*
G01X-312610Y116150D02*
X-313570Y115100D01*
X-314700Y114460D01*
X-316140Y114250D01*
X-317590Y114670D01*
X-318720Y115520D01*
X-319520Y117000D01*
X-319680Y118690D01*
X-319360Y120390D01*
X-318560Y121450D01*
X-317430Y122290D01*
X-316310Y122500D01*
X-315180Y122290D01*
X-313730Y121450D01*
X-314210Y126950D01*
X-318560D01*
G01X-130580Y-113360D02*
X-129620Y-112720D01*
X-128490Y-112300D01*
X-127210D01*
X-125760Y-112940D01*
X-124630Y-113990D01*
X-123830Y-115260D01*
X-123180Y-117380D01*
X-123020Y-119290D01*
X-123350Y-121190D01*
X-123830Y-122460D01*
X-124790Y-123730D01*
X-125920Y-124580D01*
X-127040Y-125000D01*
X-128170D01*
X-129300Y-124580D01*
X-130260Y-123940D01*
X-131070Y-123100D01*
G01X-141930Y-125000D02*
Y-112300D01*
X-135970Y-121400D01*
X-144020D01*
G01X-154880Y-125000D02*
Y-112300D01*
X-148920Y-121400D01*
X-156970D01*
G01X-193360Y170570D02*
X-192720Y169610D01*
X-192300Y168480D01*
Y167200D01*
X-192940Y165750D01*
X-193990Y164620D01*
X-195260Y163820D01*
X-197380Y163170D01*
X-199290Y163010D01*
X-201190Y163340D01*
X-202460Y163820D01*
X-203730Y164780D01*
X-204580Y165910D01*
X-205000Y167030D01*
Y168160D01*
X-204580Y169290D01*
X-203940Y170250D01*
X-203100Y171060D01*
G01X-202460Y176450D02*
X-203940Y177410D01*
X-204790Y178700D01*
X-205000Y180150D01*
X-204790Y181430D01*
X-203730Y182720D01*
X-202460Y183520D01*
X-201190Y183680D01*
X-199710Y183360D01*
X-198650Y182240D01*
X-198230Y181110D01*
Y179660D01*
G01Y181110D02*
X-197590Y182080D01*
X-196530Y182880D01*
X-195260Y183200D01*
X-193990Y182880D01*
X-192940Y182080D01*
X-192300Y180630D01*
X-192510Y179180D01*
X-193360Y177730D01*
G01X-203520Y190200D02*
X-204580Y191330D01*
X-205000Y192610D01*
X-204580Y193900D01*
X-203310Y195030D01*
X-201400Y195830D01*
X-199500Y196150D01*
X-197170D01*
X-195260Y195830D01*
X-193570Y195030D01*
X-192720Y194060D01*
X-192300Y192930D01*
X-192720Y191650D01*
X-193570Y190680D01*
X-194840Y190040D01*
X-196530Y189720D01*
X-198010Y190040D01*
X-199500Y190840D01*
X-200340Y191810D01*
X-200560Y192930D01*
X-200130Y194220D01*
X-199070Y195190D01*
X-197170Y196150D01*
G01X-138260Y97890D02*
X-137300Y98530D01*
X-136170Y98950D01*
X-134890D01*
X-133440Y98310D01*
X-132310Y97260D01*
X-131510Y95990D01*
X-130860Y93870D01*
X-130700Y91960D01*
X-131030Y90060D01*
X-131510Y88790D01*
X-132470Y87520D01*
X-133600Y86670D01*
X-134720Y86250D01*
X-135850D01*
X-136980Y86670D01*
X-137940Y87310D01*
X-138750Y88150D01*
G01X-147670Y86250D02*
Y98950D01*
X-145740Y96410D01*
G01Y86250D02*
X-149600D01*
G01X-29080Y-129060D02*
X-28120Y-128420D01*
X-26990Y-128000D01*
X-25710D01*
X-24260Y-128640D01*
X-23130Y-129690D01*
X-22330Y-130960D01*
X-21680Y-133080D01*
X-21520Y-134990D01*
X-21850Y-136890D01*
X-22330Y-138160D01*
X-23290Y-139430D01*
X-24420Y-140280D01*
X-25540Y-140700D01*
X-26670D01*
X-27800Y-140280D01*
X-28760Y-139640D01*
X-29570Y-138800D01*
G01X-35440Y-130120D02*
X-36400Y-128850D01*
X-37530Y-128210D01*
X-38820Y-128000D01*
X-40430Y-128420D01*
X-41550Y-129480D01*
X-41870Y-130750D01*
X-41710Y-132020D01*
X-41070Y-133080D01*
X-37850Y-135200D01*
X-36400Y-136680D01*
X-35440Y-138800D01*
X-35120Y-140700D01*
X-41870D01*
G01X-51440D02*
Y-128000D01*
X-49510Y-130540D01*
G01Y-140700D02*
X-53370D01*
G01X-43080Y-167060D02*
X-42120Y-166420D01*
X-40990Y-166000D01*
X-39710D01*
X-38260Y-166640D01*
X-37130Y-167690D01*
X-36330Y-168960D01*
X-35680Y-171080D01*
X-35520Y-172990D01*
X-35850Y-174890D01*
X-36330Y-176160D01*
X-37290Y-177430D01*
X-38420Y-178280D01*
X-39540Y-178700D01*
X-40670D01*
X-41800Y-178280D01*
X-42760Y-177640D01*
X-43570Y-176800D01*
G01X-49440Y-168120D02*
X-50400Y-166850D01*
X-51530Y-166210D01*
X-52820Y-166000D01*
X-54430Y-166420D01*
X-55550Y-167480D01*
X-55870Y-168750D01*
X-55710Y-170020D01*
X-55070Y-171080D01*
X-51850Y-173200D01*
X-50400Y-174680D01*
X-49440Y-176800D01*
X-49120Y-178700D01*
X-55870D01*
G01X-62390Y-173410D02*
X-63510Y-171930D01*
X-64480Y-171080D01*
X-65770Y-170660D01*
X-66890Y-171080D01*
X-67700Y-171930D01*
X-68340Y-173200D01*
X-68500Y-174680D01*
X-68340Y-175950D01*
X-67700Y-177220D01*
X-66730Y-178280D01*
X-65610Y-178700D01*
X-64320Y-178280D01*
X-63190Y-177010D01*
X-62550Y-175100D01*
X-62390Y-172990D01*
X-62710Y-170230D01*
X-63190Y-168750D01*
X-64000Y-167270D01*
X-65120Y-166210D01*
X-66250Y-166000D01*
X-67380Y-166420D01*
X-68180Y-167480D01*
G01X-16260Y-62110D02*
X-15300Y-61470D01*
X-14170Y-61050D01*
X-12890D01*
X-11440Y-61690D01*
X-10310Y-62740D01*
X-9510Y-64010D01*
X-8860Y-66130D01*
X-8700Y-68040D01*
X-9030Y-69940D01*
X-9510Y-71210D01*
X-10470Y-72480D01*
X-11600Y-73330D01*
X-12720Y-73750D01*
X-13850D01*
X-14980Y-73330D01*
X-15940Y-72690D01*
X-16750Y-71850D01*
G01X-25670Y-73750D02*
X-26800Y-73540D01*
X-28090Y-72900D01*
X-28890Y-71850D01*
X-29210Y-70360D01*
X-28890Y-68880D01*
X-27930Y-67610D01*
X-26480Y-66980D01*
X-24870D01*
X-23910Y-66550D01*
X-23100Y-65500D01*
X-22780Y-64010D01*
X-23260Y-62530D01*
X-24390Y-61470D01*
X-25670Y-61050D01*
X-26960Y-61470D01*
X-28090Y-62530D01*
X-28570Y-64010D01*
X-28250Y-65500D01*
X-27440Y-66550D01*
X-26480Y-66980D01*
X-24870D01*
X-23420Y-67610D01*
X-22460Y-68880D01*
X-22140Y-70360D01*
X-22460Y-71850D01*
X-23260Y-72900D01*
X-24550Y-73540D01*
X-25670Y-73750D01*
G01X-45780Y-28110D02*
X-44820Y-27470D01*
X-43690Y-27050D01*
X-42410D01*
X-40960Y-27690D01*
X-39830Y-28740D01*
X-39030Y-30010D01*
X-38380Y-32130D01*
X-38220Y-34040D01*
X-38550Y-35940D01*
X-39030Y-37210D01*
X-39990Y-38480D01*
X-41120Y-39330D01*
X-42240Y-39750D01*
X-43370D01*
X-44500Y-39330D01*
X-45460Y-38690D01*
X-46270Y-37850D01*
G01X-55190Y-39750D02*
Y-27050D01*
X-53260Y-29590D01*
G01Y-39750D02*
X-57120D01*
G01X-70080D02*
Y-27050D01*
X-64120Y-36150D01*
X-72170D01*
G01X-10260Y85890D02*
X-9300Y86530D01*
X-8170Y86950D01*
X-6890D01*
X-5440Y86310D01*
X-4310Y85260D01*
X-3510Y83990D01*
X-2860Y81870D01*
X-2700Y79960D01*
X-3030Y78060D01*
X-3510Y76790D01*
X-4470Y75520D01*
X-5600Y74670D01*
X-6720Y74250D01*
X-7850D01*
X-8980Y74670D01*
X-9940Y75310D01*
X-10750Y76150D01*
G01X-16940Y75730D02*
X-18070Y74670D01*
X-19350Y74250D01*
X-20640Y74670D01*
X-21770Y75940D01*
X-22570Y77850D01*
X-22890Y79750D01*
Y82080D01*
X-22570Y83990D01*
X-21770Y85680D01*
X-20800Y86530D01*
X-19670Y86950D01*
X-18390Y86530D01*
X-17420Y85680D01*
X-16780Y84410D01*
X-16460Y82720D01*
X-16780Y81240D01*
X-17580Y79750D01*
X-18550Y78910D01*
X-19670Y78690D01*
X-20960Y79120D01*
X-21930Y80180D01*
X-22890Y82080D01*
G01X-48260Y39890D02*
X-47300Y40530D01*
X-46170Y40950D01*
X-44890D01*
X-43440Y40310D01*
X-42310Y39260D01*
X-41510Y37990D01*
X-40860Y35870D01*
X-40700Y33960D01*
X-41030Y32060D01*
X-41510Y30790D01*
X-42470Y29520D01*
X-43600Y28670D01*
X-44720Y28250D01*
X-45850D01*
X-46980Y28670D01*
X-47940Y29310D01*
X-48750Y30150D01*
G01X-57350Y28250D02*
X-57670Y31000D01*
X-58160Y33330D01*
X-58800Y35450D01*
X-59610Y37770D01*
X-60890Y40950D01*
X-54460D01*
G01X-15360Y170570D02*
X-14720Y169610D01*
X-14300Y168480D01*
Y167200D01*
X-14940Y165750D01*
X-15990Y164620D01*
X-17260Y163820D01*
X-19380Y163170D01*
X-21290Y163010D01*
X-23190Y163340D01*
X-24460Y163820D01*
X-25730Y164780D01*
X-26580Y165910D01*
X-27000Y167030D01*
Y168160D01*
X-26580Y169290D01*
X-25940Y170250D01*
X-25100Y171060D01*
G01X-27000Y181920D02*
X-14300D01*
X-23400Y175960D01*
Y184010D01*
G01X-14300Y192930D02*
X-14720Y191650D01*
X-15780Y190680D01*
X-17050Y190040D01*
X-18750Y189560D01*
X-20650Y189400D01*
X-22560Y189560D01*
X-24250Y190040D01*
X-25520Y190680D01*
X-26580Y191650D01*
X-27000Y192930D01*
X-26580Y194220D01*
X-25520Y195190D01*
X-24250Y195830D01*
X-22560Y196310D01*
X-20650Y196470D01*
X-18750Y196310D01*
X-17050Y195830D01*
X-15780Y195190D01*
X-14720Y194220D01*
X-14300Y192930D01*
G01X49140Y-272130D02*
X49780Y-273090D01*
X50200Y-274220D01*
Y-275500D01*
X49560Y-276950D01*
X48510Y-278080D01*
X47240Y-278880D01*
X45120Y-279530D01*
X43210Y-279690D01*
X41310Y-279360D01*
X40040Y-278880D01*
X38770Y-277920D01*
X37920Y-276790D01*
X37500Y-275670D01*
Y-274540D01*
X37920Y-273410D01*
X38560Y-272450D01*
X39400Y-271640D01*
G01X48080Y-265770D02*
X49350Y-264810D01*
X49990Y-263680D01*
X50200Y-262390D01*
X49780Y-260780D01*
X48720Y-259660D01*
X47450Y-259340D01*
X46180Y-259500D01*
X45120Y-260140D01*
X43000Y-263360D01*
X41520Y-264810D01*
X39400Y-265770D01*
X37500Y-266090D01*
Y-259340D01*
G01Y-249770D02*
X37710Y-248640D01*
X38350Y-247350D01*
X39400Y-246550D01*
X40890Y-246230D01*
X42370Y-246550D01*
X43640Y-247510D01*
X44270Y-248960D01*
Y-250570D01*
X44700Y-251530D01*
X45750Y-252340D01*
X47240Y-252660D01*
X48720Y-252180D01*
X49780Y-251050D01*
X50200Y-249770D01*
X49780Y-248480D01*
X48720Y-247350D01*
X47240Y-246870D01*
X45750Y-247190D01*
X44700Y-248000D01*
X44270Y-248960D01*
Y-250570D01*
X43640Y-252020D01*
X42370Y-252980D01*
X40890Y-253300D01*
X39400Y-252980D01*
X38350Y-252180D01*
X37710Y-250890D01*
X37500Y-249770D01*
G01X17140Y-264130D02*
X17780Y-265090D01*
X18200Y-266220D01*
Y-267500D01*
X17560Y-268950D01*
X16510Y-270080D01*
X15240Y-270880D01*
X13120Y-271530D01*
X11210Y-271690D01*
X9310Y-271360D01*
X8040Y-270880D01*
X6770Y-269920D01*
X5920Y-268790D01*
X5500Y-267670D01*
Y-266540D01*
X5920Y-265410D01*
X6560Y-264450D01*
X7400Y-263640D01*
G01X16080Y-257770D02*
X17350Y-256810D01*
X17990Y-255680D01*
X18200Y-254390D01*
X17780Y-252780D01*
X16720Y-251660D01*
X15450Y-251340D01*
X14180Y-251500D01*
X13120Y-252140D01*
X11000Y-255360D01*
X9520Y-256810D01*
X7400Y-257770D01*
X5500Y-258090D01*
Y-251340D01*
G01Y-242090D02*
X8250Y-241770D01*
X10580Y-241280D01*
X12700Y-240640D01*
X15020Y-239830D01*
X18200Y-238550D01*
Y-244980D01*
G01X74920Y-113060D02*
X75880Y-112420D01*
X77010Y-112000D01*
X78290D01*
X79740Y-112640D01*
X80870Y-113690D01*
X81670Y-114960D01*
X82320Y-117080D01*
X82480Y-118990D01*
X82150Y-120890D01*
X81670Y-122160D01*
X80710Y-123430D01*
X79580Y-124280D01*
X78460Y-124700D01*
X77330D01*
X76200Y-124280D01*
X75240Y-123640D01*
X74430Y-122800D01*
G01X68560Y-114120D02*
X67600Y-112850D01*
X66470Y-112210D01*
X65180Y-112000D01*
X63570Y-112420D01*
X62450Y-113480D01*
X62130Y-114750D01*
X62290Y-116020D01*
X62930Y-117080D01*
X66150Y-119200D01*
X67600Y-120680D01*
X68560Y-122800D01*
X68880Y-124700D01*
X62130D01*
G01X56090Y-122160D02*
X55130Y-123640D01*
X53840Y-124490D01*
X52390Y-124700D01*
X51110Y-124490D01*
X49820Y-123430D01*
X49020Y-122160D01*
X48860Y-120890D01*
X49180Y-119410D01*
X50300Y-118350D01*
X51430Y-117930D01*
X52880D01*
G01X51430D02*
X50460Y-117290D01*
X49660Y-116230D01*
X49340Y-114960D01*
X49660Y-113690D01*
X50460Y-112640D01*
X51910Y-112000D01*
X53360Y-112210D01*
X54810Y-113060D01*
G01X30920Y-97060D02*
X31880Y-96420D01*
X33010Y-96000D01*
X34290D01*
X35740Y-96640D01*
X36870Y-97690D01*
X37670Y-98960D01*
X38320Y-101080D01*
X38480Y-102990D01*
X38150Y-104890D01*
X37670Y-106160D01*
X36710Y-107430D01*
X35580Y-108280D01*
X34460Y-108700D01*
X33330D01*
X32200Y-108280D01*
X31240Y-107640D01*
X30430Y-106800D01*
G01X24560Y-98120D02*
X23600Y-96850D01*
X22470Y-96210D01*
X21180Y-96000D01*
X19570Y-96420D01*
X18450Y-97480D01*
X18130Y-98750D01*
X18290Y-100020D01*
X18930Y-101080D01*
X22150Y-103200D01*
X23600Y-104680D01*
X24560Y-106800D01*
X24880Y-108700D01*
X18130D01*
G01X11610Y-98120D02*
X10650Y-96850D01*
X9520Y-96210D01*
X8230Y-96000D01*
X6620Y-96420D01*
X5500Y-97480D01*
X5180Y-98750D01*
X5340Y-100020D01*
X5980Y-101080D01*
X9200Y-103200D01*
X10650Y-104680D01*
X11610Y-106800D01*
X11930Y-108700D01*
X5180D01*
G01X30220Y-74110D02*
X31180Y-73470D01*
X32310Y-73050D01*
X33590D01*
X35040Y-73690D01*
X36170Y-74740D01*
X36970Y-76010D01*
X37620Y-78130D01*
X37780Y-80040D01*
X37450Y-81940D01*
X36970Y-83210D01*
X36010Y-84480D01*
X34880Y-85330D01*
X33760Y-85750D01*
X32630D01*
X31500Y-85330D01*
X30540Y-84690D01*
X29730Y-83850D01*
G01X20810Y-85750D02*
Y-73050D01*
X22740Y-75590D01*
G01Y-85750D02*
X18880D01*
G01X7860Y-73050D02*
X9140Y-73470D01*
X10110Y-74530D01*
X10750Y-75800D01*
X11230Y-77500D01*
X11390Y-79400D01*
X11230Y-81310D01*
X10750Y-83000D01*
X10110Y-84270D01*
X9140Y-85330D01*
X7860Y-85750D01*
X6570Y-85330D01*
X5600Y-84270D01*
X4960Y-83000D01*
X4480Y-81310D01*
X4320Y-79400D01*
X4480Y-77500D01*
X4960Y-75800D01*
X5600Y-74530D01*
X6570Y-73470D01*
X7860Y-73050D01*
G01X57740Y-36110D02*
X58700Y-35470D01*
X59830Y-35050D01*
X61110D01*
X62560Y-35690D01*
X63690Y-36740D01*
X64490Y-38010D01*
X65140Y-40130D01*
X65300Y-42040D01*
X64970Y-43940D01*
X64490Y-45210D01*
X63530Y-46480D01*
X62400Y-47330D01*
X61280Y-47750D01*
X60150D01*
X59020Y-47330D01*
X58060Y-46690D01*
X57250Y-45850D01*
G01X51860D02*
X50900Y-46900D01*
X49770Y-47540D01*
X48330Y-47750D01*
X46880Y-47330D01*
X45750Y-46480D01*
X44950Y-45000D01*
X44790Y-43310D01*
X45110Y-41610D01*
X45910Y-40550D01*
X47040Y-39710D01*
X48160Y-39500D01*
X49290Y-39710D01*
X50740Y-40550D01*
X50260Y-35050D01*
X45910D01*
G01X23740Y71890D02*
X24700Y72530D01*
X25830Y72950D01*
X27110D01*
X28560Y72310D01*
X29690Y71260D01*
X30490Y69990D01*
X31140Y67870D01*
X31300Y65960D01*
X30970Y64060D01*
X30490Y62790D01*
X29530Y61520D01*
X28400Y60670D01*
X27280Y60250D01*
X26150D01*
X25020Y60670D01*
X24060Y61310D01*
X23250Y62150D01*
G01X17380Y65540D02*
X16260Y67020D01*
X15290Y67870D01*
X14000Y68290D01*
X12880Y67870D01*
X12070Y67020D01*
X11430Y65750D01*
X11270Y64270D01*
X11430Y63000D01*
X12070Y61730D01*
X13040Y60670D01*
X14160Y60250D01*
X15450Y60670D01*
X16580Y61940D01*
X17220Y63850D01*
X17380Y65960D01*
X17060Y68720D01*
X16580Y70200D01*
X15770Y71680D01*
X14650Y72740D01*
X13520Y72950D01*
X12390Y72530D01*
X11590Y71470D01*
G01X60220Y33890D02*
X61180Y34530D01*
X62310Y34950D01*
X63590D01*
X65040Y34310D01*
X66170Y33260D01*
X66970Y31990D01*
X67620Y29870D01*
X67780Y27960D01*
X67450Y26060D01*
X66970Y24790D01*
X66010Y23520D01*
X64880Y22670D01*
X63760Y22250D01*
X62630D01*
X61500Y22670D01*
X60540Y23310D01*
X59730Y24150D01*
G01X50810Y22250D02*
Y34950D01*
X52740Y32410D01*
G01Y22250D02*
X48880D01*
G01X41390Y24790D02*
X40430Y23310D01*
X39140Y22460D01*
X37690Y22250D01*
X36410Y22460D01*
X35120Y23520D01*
X34320Y24790D01*
X34160Y26060D01*
X34480Y27540D01*
X35600Y28600D01*
X36730Y29020D01*
X38180D01*
G01X36730D02*
X35760Y29660D01*
X34960Y30720D01*
X34640Y31990D01*
X34960Y33260D01*
X35760Y34310D01*
X37210Y34950D01*
X38660Y34740D01*
X40110Y33890D01*
G01X77140Y-270130D02*
X77780Y-271090D01*
X78200Y-272220D01*
Y-273500D01*
X77560Y-274950D01*
X76510Y-276080D01*
X75240Y-276880D01*
X73120Y-277530D01*
X71210Y-277690D01*
X69310Y-277360D01*
X68040Y-276880D01*
X66770Y-275920D01*
X65920Y-274790D01*
X65500Y-273670D01*
Y-272540D01*
X65920Y-271410D01*
X66560Y-270450D01*
X67400Y-269640D01*
G01X76080Y-263770D02*
X77350Y-262810D01*
X77990Y-261680D01*
X78200Y-260390D01*
X77780Y-258780D01*
X76720Y-257660D01*
X75450Y-257340D01*
X74180Y-257500D01*
X73120Y-258140D01*
X71000Y-261360D01*
X69520Y-262810D01*
X67400Y-263770D01*
X65500Y-264090D01*
Y-257340D01*
G01X66980Y-250500D02*
X65920Y-249370D01*
X65500Y-248090D01*
X65920Y-246800D01*
X67190Y-245670D01*
X69100Y-244870D01*
X71000Y-244550D01*
X73330D01*
X75240Y-244870D01*
X76930Y-245670D01*
X77780Y-246640D01*
X78200Y-247770D01*
X77780Y-249050D01*
X76930Y-250020D01*
X75660Y-250660D01*
X73970Y-250980D01*
X72490Y-250660D01*
X71000Y-249860D01*
X70160Y-248890D01*
X69940Y-247770D01*
X70370Y-246480D01*
X71430Y-245510D01*
X73330Y-244550D01*
G01X149420Y-263360D02*
X150380Y-262720D01*
X151510Y-262300D01*
X152790D01*
X154240Y-262940D01*
X155370Y-263990D01*
X156170Y-265260D01*
X156820Y-267380D01*
X156980Y-269290D01*
X156650Y-271190D01*
X156170Y-272460D01*
X155210Y-273730D01*
X154080Y-274580D01*
X152960Y-275000D01*
X151830D01*
X150700Y-274580D01*
X149740Y-273940D01*
X148930Y-273100D01*
G01X138070Y-275000D02*
Y-262300D01*
X144030Y-271400D01*
X135980D01*
G01X130590Y-272460D02*
X129630Y-273940D01*
X128340Y-274790D01*
X126890Y-275000D01*
X125610Y-274790D01*
X124320Y-273730D01*
X123520Y-272460D01*
X123360Y-271190D01*
X123680Y-269710D01*
X124800Y-268650D01*
X125930Y-268230D01*
X127380D01*
G01X125930D02*
X124960Y-267590D01*
X124160Y-266530D01*
X123840Y-265260D01*
X124160Y-263990D01*
X124960Y-262940D01*
X126410Y-262300D01*
X127860Y-262510D01*
X129310Y-263360D01*
G01X111190Y-202000D02*
Y-214700D01*
X104760D01*
G01X93090D02*
Y-202000D01*
X99050Y-211100D01*
X91000D01*
G01X114920Y-173060D02*
X115880Y-172420D01*
X117010Y-172000D01*
X118290D01*
X119740Y-172640D01*
X120870Y-173690D01*
X121670Y-174960D01*
X122320Y-177080D01*
X122480Y-178990D01*
X122150Y-180890D01*
X121670Y-182160D01*
X120710Y-183430D01*
X119580Y-184280D01*
X118460Y-184700D01*
X117330D01*
X116200Y-184280D01*
X115240Y-183640D01*
X114430Y-182800D01*
G01X108560Y-174120D02*
X107600Y-172850D01*
X106470Y-172210D01*
X105180Y-172000D01*
X103570Y-172420D01*
X102450Y-173480D01*
X102130Y-174750D01*
X102290Y-176020D01*
X102930Y-177080D01*
X106150Y-179200D01*
X107600Y-180680D01*
X108560Y-182800D01*
X108880Y-184700D01*
X102130D01*
G01X90620D02*
Y-172000D01*
X96580Y-181100D01*
X88530D01*
G01X150220Y-54110D02*
X151180Y-53470D01*
X152310Y-53050D01*
X153590D01*
X155040Y-53690D01*
X156170Y-54740D01*
X156970Y-56010D01*
X157620Y-58130D01*
X157780Y-60040D01*
X157450Y-61940D01*
X156970Y-63210D01*
X156010Y-64480D01*
X154880Y-65330D01*
X153760Y-65750D01*
X152630D01*
X151500Y-65330D01*
X150540Y-64690D01*
X149730Y-63850D01*
G01X140810Y-65750D02*
Y-53050D01*
X142740Y-55590D01*
G01Y-65750D02*
X138880D01*
G01X130910Y-60460D02*
X129790Y-58980D01*
X128820Y-58130D01*
X127530Y-57710D01*
X126410Y-58130D01*
X125600Y-58980D01*
X124960Y-60250D01*
X124800Y-61730D01*
X124960Y-63000D01*
X125600Y-64270D01*
X126570Y-65330D01*
X127690Y-65750D01*
X128980Y-65330D01*
X130110Y-64060D01*
X130750Y-62150D01*
X130910Y-60040D01*
X130590Y-57280D01*
X130110Y-55800D01*
X129300Y-54320D01*
X128180Y-53260D01*
X127050Y-53050D01*
X125920Y-53470D01*
X125120Y-54530D01*
G01X102220Y27890D02*
X103180Y28530D01*
X104310Y28950D01*
X105590D01*
X107040Y28310D01*
X108170Y27260D01*
X108970Y25990D01*
X109620Y23870D01*
X109780Y21960D01*
X109450Y20060D01*
X108970Y18790D01*
X108010Y17520D01*
X106880Y16670D01*
X105760Y16250D01*
X104630D01*
X103500Y16670D01*
X102540Y17310D01*
X101730Y18150D01*
G01X92810Y16250D02*
Y28950D01*
X94740Y26410D01*
G01Y16250D02*
X90880D01*
G01X83390Y18150D02*
X82430Y17100D01*
X81300Y16460D01*
X79860Y16250D01*
X78410Y16670D01*
X77280Y17520D01*
X76480Y19000D01*
X76320Y20690D01*
X76640Y22390D01*
X77440Y23450D01*
X78570Y24290D01*
X79690Y24500D01*
X80820Y24290D01*
X82270Y23450D01*
X81790Y28950D01*
X77440D01*
G01X150220Y65890D02*
X151180Y66530D01*
X152310Y66950D01*
X153590D01*
X155040Y66310D01*
X156170Y65260D01*
X156970Y63990D01*
X157620Y61870D01*
X157780Y59960D01*
X157450Y58060D01*
X156970Y56790D01*
X156010Y55520D01*
X154880Y54670D01*
X153760Y54250D01*
X152630D01*
X151500Y54670D01*
X150540Y55310D01*
X149730Y56150D01*
G01X140810Y54250D02*
Y66950D01*
X142740Y64410D01*
G01Y54250D02*
X138880D01*
G01X128180D02*
X127860Y57000D01*
X127370Y59330D01*
X126730Y61450D01*
X125920Y63770D01*
X124640Y66950D01*
X131070D01*
G01X77740Y128240D02*
X78700Y128880D01*
X79830Y129300D01*
X81110D01*
X82560Y128660D01*
X83690Y127610D01*
X84490Y126340D01*
X85140Y124220D01*
X85300Y122310D01*
X84970Y120410D01*
X84490Y119140D01*
X83530Y117870D01*
X82400Y117020D01*
X81280Y116600D01*
X80150D01*
X79020Y117020D01*
X78060Y117660D01*
X77250Y118500D01*
G01X71380Y127180D02*
X70420Y128450D01*
X69290Y129090D01*
X68000Y129300D01*
X66390Y128880D01*
X65270Y127820D01*
X64950Y126550D01*
X65110Y125280D01*
X65750Y124220D01*
X68970Y122100D01*
X70420Y120620D01*
X71380Y118500D01*
X71700Y116600D01*
X64950D01*
G01X199420Y-43360D02*
X200380Y-42720D01*
X201510Y-42300D01*
X202790D01*
X204240Y-42940D01*
X205370Y-43990D01*
X206170Y-45260D01*
X206820Y-47380D01*
X206980Y-49290D01*
X206650Y-51190D01*
X206170Y-52460D01*
X205210Y-53730D01*
X204080Y-54580D01*
X202960Y-55000D01*
X201830D01*
X200700Y-54580D01*
X199740Y-53940D01*
X198930Y-53100D01*
G01X188070Y-55000D02*
Y-42300D01*
X194030Y-51400D01*
X185980D01*
G01X180110Y-44420D02*
X179150Y-43150D01*
X178020Y-42510D01*
X176730Y-42300D01*
X175120Y-42720D01*
X174000Y-43780D01*
X173680Y-45050D01*
X173840Y-46320D01*
X174480Y-47380D01*
X177700Y-49500D01*
X179150Y-50980D01*
X180110Y-53100D01*
X180430Y-55000D01*
X173680D01*
G01X194690Y-107300D02*
Y-120000D01*
X188260D01*
G01X181580Y-109420D02*
X180620Y-108150D01*
X179490Y-107510D01*
X178200Y-107300D01*
X176590Y-107720D01*
X175470Y-108780D01*
X175150Y-110050D01*
X175310Y-111320D01*
X175950Y-112380D01*
X179170Y-114500D01*
X180620Y-115980D01*
X181580Y-118100D01*
X181900Y-120000D01*
X175150D01*
G01X160800Y-16250D02*
X173500D01*
Y-13040D01*
X172860Y-11750D01*
X172020Y-10780D01*
X170750Y-9980D01*
X169270Y-9340D01*
X167150Y-9180D01*
X165030Y-9340D01*
X163550Y-9980D01*
X162280Y-10780D01*
X161430Y-11750D01*
X160800Y-13040D01*
Y-16250D01*
G01Y-3790D02*
X173500Y230D01*
X160800Y4260D01*
G01X165240Y2810D02*
Y-2340D01*
G01X160800Y13180D02*
X173500D01*
X170960Y11250D01*
G01X160800D02*
Y15110D01*
G01X192490Y132950D02*
Y120250D01*
X186060D01*
G01X176330D02*
Y132950D01*
X178260Y130410D01*
G01Y120250D02*
X174400D01*
G01X163740Y211890D02*
X164700Y212530D01*
X165830Y212950D01*
X167110D01*
X168560Y212310D01*
X169690Y211260D01*
X170490Y209990D01*
X171140Y207870D01*
X171300Y205960D01*
X170970Y204060D01*
X170490Y202790D01*
X169530Y201520D01*
X168400Y200670D01*
X167280Y200250D01*
X166150D01*
X165020Y200670D01*
X164060Y201310D01*
X163250Y202150D01*
G01X157860Y202790D02*
X156900Y201310D01*
X155610Y200460D01*
X154160Y200250D01*
X152880Y200460D01*
X151590Y201520D01*
X150790Y202790D01*
X150630Y204060D01*
X150950Y205540D01*
X152070Y206600D01*
X153200Y207020D01*
X154650D01*
G01X153200D02*
X152230Y207660D01*
X151430Y208720D01*
X151110Y209990D01*
X151430Y211260D01*
X152230Y212310D01*
X153680Y212950D01*
X155130Y212740D01*
X156580Y211890D01*
G01X207740D02*
X208700Y212530D01*
X209830Y212950D01*
X211110D01*
X212560Y212310D01*
X213690Y211260D01*
X214490Y209990D01*
X215140Y207870D01*
X215300Y205960D01*
X214970Y204060D01*
X214490Y202790D01*
X213530Y201520D01*
X212400Y200670D01*
X211280Y200250D01*
X210150D01*
X209020Y200670D01*
X208060Y201310D01*
X207250Y202150D01*
G01X196390Y200250D02*
Y212950D01*
X202350Y203850D01*
X194300D01*
G01X244420Y-133360D02*
X245380Y-132720D01*
X246510Y-132300D01*
X247790D01*
X249240Y-132940D01*
X250370Y-133990D01*
X251170Y-135260D01*
X251820Y-137380D01*
X251980Y-139290D01*
X251650Y-141190D01*
X251170Y-142460D01*
X250210Y-143730D01*
X249080Y-144580D01*
X247960Y-145000D01*
X246830D01*
X245700Y-144580D01*
X244740Y-143940D01*
X243930Y-143100D01*
G01X235010Y-145000D02*
Y-132300D01*
X236940Y-134840D01*
G01Y-145000D02*
X233080D01*
G01X222060D02*
Y-132300D01*
X223990Y-134840D01*
G01Y-145000D02*
X220130D01*
G01X302320Y-102110D02*
X303280Y-101470D01*
X304410Y-101050D01*
X305690D01*
X307140Y-101690D01*
X308270Y-102740D01*
X309070Y-104010D01*
X309720Y-106130D01*
X309880Y-108040D01*
X309550Y-109940D01*
X309070Y-111210D01*
X308110Y-112480D01*
X306980Y-113330D01*
X305860Y-113750D01*
X304730D01*
X303600Y-113330D01*
X302640Y-112690D01*
X301830Y-111850D01*
G01X292910Y-113750D02*
Y-101050D01*
X294840Y-103590D01*
G01Y-113750D02*
X290980D01*
G01X283010Y-103170D02*
X282050Y-101900D01*
X280920Y-101260D01*
X279630Y-101050D01*
X278020Y-101470D01*
X276900Y-102530D01*
X276580Y-103800D01*
X276740Y-105070D01*
X277380Y-106130D01*
X280600Y-108250D01*
X282050Y-109730D01*
X283010Y-111850D01*
X283330Y-113750D01*
X276580D01*
G01X299420Y76640D02*
X300380Y77280D01*
X301510Y77700D01*
X302790D01*
X304240Y77060D01*
X305370Y76010D01*
X306170Y74740D01*
X306820Y72620D01*
X306980Y70710D01*
X306650Y68810D01*
X306170Y67540D01*
X305210Y66270D01*
X304080Y65420D01*
X302960Y65000D01*
X301830D01*
X300700Y65420D01*
X299740Y66060D01*
X298930Y66900D01*
G01X288070Y65000D02*
Y77700D01*
X294030Y68600D01*
X285980D01*
G01X277060Y65000D02*
Y77700D01*
X278990Y75160D01*
G01Y65000D02*
X275130D01*
G01X519420Y186640D02*
X520380Y187280D01*
X521510Y187700D01*
X522790D01*
X524240Y187060D01*
X525370Y186010D01*
X526170Y184740D01*
X526820Y182620D01*
X526980Y180710D01*
X526650Y178810D01*
X526170Y177540D01*
X525210Y176270D01*
X524080Y175420D01*
X522960Y175000D01*
X521830D01*
X520700Y175420D01*
X519740Y176060D01*
X518930Y176900D01*
G01X513540Y177540D02*
X512580Y176060D01*
X511290Y175210D01*
X509840Y175000D01*
X508560Y175210D01*
X507270Y176270D01*
X506470Y177540D01*
X506310Y178810D01*
X506630Y180290D01*
X507750Y181350D01*
X508880Y181770D01*
X510330D01*
G01X508880D02*
X507910Y182410D01*
X507110Y183470D01*
X506790Y184740D01*
X507110Y186010D01*
X507910Y187060D01*
X509360Y187700D01*
X510810Y187490D01*
X512260Y186640D01*
G01X497060Y175000D02*
X495930Y175210D01*
X494640Y175850D01*
X493840Y176900D01*
X493520Y178390D01*
X493840Y179870D01*
X494800Y181140D01*
X496250Y181770D01*
X497860D01*
X498820Y182200D01*
X499630Y183250D01*
X499950Y184740D01*
X499470Y186220D01*
X498340Y187280D01*
X497060Y187700D01*
X495770Y187280D01*
X494640Y186220D01*
X494160Y184740D01*
X494480Y183250D01*
X495290Y182200D01*
X496250Y181770D01*
X497860D01*
X499310Y181140D01*
X500270Y179870D01*
X500590Y178390D01*
X500270Y176900D01*
X499470Y175850D01*
X498180Y175210D01*
X497060Y175000D01*
G01X734420Y-83360D02*
X735380Y-82720D01*
X736510Y-82300D01*
X737790D01*
X739240Y-82940D01*
X740370Y-83990D01*
X741170Y-85260D01*
X741820Y-87380D01*
X741980Y-89290D01*
X741650Y-91190D01*
X741170Y-92460D01*
X740210Y-93730D01*
X739080Y-94580D01*
X737960Y-95000D01*
X736830D01*
X735700Y-94580D01*
X734740Y-93940D01*
X733930Y-93100D01*
G01X728540Y-92460D02*
X727580Y-93940D01*
X726290Y-94790D01*
X724840Y-95000D01*
X723560Y-94790D01*
X722270Y-93730D01*
X721470Y-92460D01*
X721310Y-91190D01*
X721630Y-89710D01*
X722750Y-88650D01*
X723880Y-88230D01*
X725330D01*
G01X723880D02*
X722910Y-87590D01*
X722110Y-86530D01*
X721790Y-85260D01*
X722110Y-83990D01*
X722910Y-82940D01*
X724360Y-82300D01*
X725810Y-82510D01*
X727260Y-83360D01*
G01X712380Y-95000D02*
X712060Y-92250D01*
X711570Y-89920D01*
X710930Y-87800D01*
X710120Y-85480D01*
X708840Y-82300D01*
X715270D01*
G01X794420Y-233360D02*
X795380Y-232720D01*
X796510Y-232300D01*
X797790D01*
X799240Y-232940D01*
X800370Y-233990D01*
X801170Y-235260D01*
X801820Y-237380D01*
X801980Y-239290D01*
X801650Y-241190D01*
X801170Y-242460D01*
X800210Y-243730D01*
X799080Y-244580D01*
X797960Y-245000D01*
X796830D01*
X795700Y-244580D01*
X794740Y-243940D01*
X793930Y-243100D01*
G01X788540Y-242460D02*
X787580Y-243940D01*
X786290Y-244790D01*
X784840Y-245000D01*
X783560Y-244790D01*
X782270Y-243730D01*
X781470Y-242460D01*
X781310Y-241190D01*
X781630Y-239710D01*
X782750Y-238650D01*
X783880Y-238230D01*
X785330D01*
G01X783880D02*
X782910Y-237590D01*
X782110Y-236530D01*
X781790Y-235260D01*
X782110Y-233990D01*
X782910Y-232940D01*
X784360Y-232300D01*
X785810Y-232510D01*
X787260Y-233360D01*
G01X775110Y-239710D02*
X773990Y-238230D01*
X773020Y-237380D01*
X771730Y-236960D01*
X770610Y-237380D01*
X769800Y-238230D01*
X769160Y-239500D01*
X769000Y-240980D01*
X769160Y-242250D01*
X769800Y-243520D01*
X770770Y-244580D01*
X771890Y-245000D01*
X773180Y-244580D01*
X774310Y-243310D01*
X774950Y-241400D01*
X775110Y-239290D01*
X774790Y-236530D01*
X774310Y-235050D01*
X773500Y-233570D01*
X772380Y-232510D01*
X771250Y-232300D01*
X770120Y-232720D01*
X769320Y-233780D01*
M02*
