G04 ================== begin FILE IDENTIFICATION RECORD ==================*
G04 Layout Name:  D:/Project/Circuit/FIBER-E1/01v1/pcb/FIBER-E1_01v1.brd*
G04 Film Name:    TOP*
G04 File Format:  Gerber RS274X*
G04 File Origin:  Cadence Allegro 16.6-2015-S073*
G04 Origin Date:  Wed Oct 12 15:12:10 2016*
G04 *
G04 Layer:  ETCH/TOP*
G04 Layer:  PIN/TOP*
G04 Layer:  VIA CLASS/TOP*
G04 *
G04 Offset:    (0.000 0.000)*
G04 Mirror:    No*
G04 Mode:      Positive*
G04 Rotation:  0*
G04 FullContactRelief:  No*
G04 UndefLineWidth:     0.250*
G04 ================== end FILE IDENTIFICATION RECORD ====================*
%FSLAX34Y34*MOMM*%
%IR0*IPPOS*OFA0.00000B0.00000*MIA0B0*SFA1.00000B1.00000*%
%ADD48O,1.1X.6*%
%ADD49R,1.1X.6*%
%ADD33C,1.*%
%ADD37O,.25X1.6*%
%ADD26O,1.6X.6*%
%ADD52C,2.1*%
%ADD38O,1.6X.25*%
%ADD32C,1.3*%
%ADD34O,.55X1.6*%
%ADD31R,1.6X.6*%
%ADD21R,1.4X.9*%
%ADD19C,2.3*%
%ADD39R,1.6X.25*%
%ADD35O,1.6X.55*%
%ADD29R,.9X1.4*%
%ADD27C,1.5*%
%ADD10C,6.*%
%ADD18C,3.4*%
%ADD17C,1.7*%
%ADD40R,1.6X.55*%
%ADD11C,7.2*%
%ADD47R,2.1X2.1*%
%ADD44R,1.02X.88*%
%ADD23O,1.91X.74*%
%ADD28R,1.5X1.5*%
%ADD24R,1.91X.74*%
%ADD22R,1.7X1.7*%
%AMMACRO36*
4,1,5,2.25,-1.75,
1.75,-2.25,
-2.25,-2.25,
-2.25,2.25,
2.25,2.25,
2.25,-1.75,
0.0*
%
%ADD36MACRO36*%
%ADD42R,1.5X2.*%
%ADD13O,1.8X1.*%
%ADD20R,1.8X1.*%
%ADD25R,2.X1.9*%
%ADD14R,2.8X2.*%
%ADD45R,2.3X1.52*%
%ADD43R,3.8X2.*%
%ADD41R,1.45X1.2*%
%ADD15R,2.X2.8*%
%ADD30R,1.2X1.45*%
%ADD50R,1.7X1.7*%
%ADD46R,2.4X2.45*%
%ADD51R,2.275X2.1*%
%ADD16R,3.43X3.25*%
%ADD12C,.8*%
%ADD53C,.4*%
%ADD54C,.5*%
%ADD55C,.25*%
G75*
%LPD*%
G75*
G36*
G01X-460490Y-278520D02*
G02X-463140Y-275870I1855J4505D01*
G01X-470980Y-279400D01*
X-463140Y-282930D01*
G02X-460490Y-280280I4505J-1855D01*
G03Y-278520I-880J880D01*
G37*
G36*
G01Y-227720D02*
G02X-463140Y-225070I1855J4505D01*
G01X-470980Y-228600D01*
X-463140Y-232130D01*
G02X-460490Y-229480I4505J-1855D01*
G03Y-227720I-880J880D01*
G37*
G36*
G01Y-202320D02*
G02X-463140Y-199670I1855J4505D01*
G01X-470980Y-203200D01*
X-463140Y-206730D01*
G02X-460490Y-204080I4505J-1855D01*
G03Y-202320I-880J880D01*
G37*
G36*
G01Y-253120D02*
G02X-463140Y-250470I1855J4505D01*
G01X-470980Y-254000D01*
X-463140Y-257530D01*
G02X-460490Y-254880I4505J-1855D01*
G03Y-253120I-880J880D01*
G37*
G36*
G01X-391930Y126490D02*
G02X-387700Y130750I7188J-2908D01*
G01X-393700Y137380D01*
X-399700Y130750D01*
G02X-395470Y126490I-2958J-7168D01*
G03X-391930I1770J1770D01*
G37*
G36*
G01X-379230Y101090D02*
G02X-375000Y105350I7188J-2908D01*
G01X-381000Y111980D01*
X-387000Y105350D01*
G02X-382770Y101090I-2958J-7168D01*
G03X-379230I1770J1770D01*
G37*
G36*
G01X-315690Y-278650D02*
G02X-320430Y-274400I2806J7898D01*
G01X-329740Y-279400D01*
X-320430Y-284400D01*
G02X-315690Y-280150I7546J-3648D01*
G03Y-278650I-1000J750D01*
G37*
G36*
G01X-297100Y-300240D02*
G02X-291450Y-293650I11152J-3844D01*
G01X-298450Y-288520D01*
X-305450Y-293650D01*
G02X-299800Y-300240I-5502J-10434D01*
G03X-297100I1350J2100D01*
G37*
G36*
G01X-287200Y-268920D02*
G02X-291450Y-265150I2529J7131D01*
G01X-298760Y-269650D01*
X-291450Y-274150D01*
G02X-287200Y-270380I6779J-3361D01*
G03Y-268920I-1010J730D01*
G37*
G36*
G01X-319250Y-202320D02*
G02X-321900Y-199670I1855J4505D01*
G01X-329740Y-203200D01*
X-321900Y-206730D01*
G02X-319250Y-204080I4505J-1855D01*
G03Y-202320I-880J880D01*
G37*
G36*
G01Y-253120D02*
G02X-321900Y-250470I1855J4505D01*
G01X-329740Y-254000D01*
X-321900Y-257530D01*
G02X-319250Y-254880I4505J-1855D01*
G03Y-253120I-880J880D01*
G37*
G36*
G01X-287200Y-212220D02*
G02X-291450Y-208450I2529J7131D01*
G01X-298760Y-212950D01*
X-291450Y-217450D01*
G02X-287200Y-213680I6779J-3361D01*
G03Y-212220I-1010J730D01*
G37*
G36*
G01X-319250Y-227720D02*
G02X-321900Y-225070I1855J4505D01*
G01X-329740Y-228600D01*
X-321900Y-232130D01*
G02X-319250Y-229480I4505J-1855D01*
G03Y-227720I-880J880D01*
G37*
G36*
G01X-299800Y-182360D02*
G02X-305450Y-188950I-11152J3844D01*
G01X-298450Y-194080D01*
X-291450Y-188950D01*
G02X-297100Y-182360I5502J10434D01*
G03X-299800I-1350J-2100D01*
G37*
G36*
G01X-353830Y101090D02*
G02X-349600Y105350I7188J-2908D01*
G01X-355600Y111980D01*
X-361600Y105350D01*
G02X-357370Y101090I-2958J-7168D01*
G03X-353830I1770J1770D01*
G37*
G36*
G01X-280510Y-285870D02*
G02X-277980Y-287230I-530J-4018D01*
G01X-268440Y-285770D01*
X-277500Y-283480D01*
G02X-280300Y-284180I-2334J3385D01*
G03X-280510Y-285870I808J-958D01*
G37*
G36*
G01X-280300Y-198420D02*
G02X-277500Y-199120I466J-4085D01*
G01X-268440Y-196830D01*
X-277980Y-195370D01*
G02X-280510Y-196730I-3060J2658D01*
G03X-280300Y-198420I1018J-732D01*
G37*
G36*
G01X-280510Y-260470D02*
G02X-277980Y-261830I-530J-4018D01*
G01X-268440Y-260370D01*
X-277500Y-258080D01*
G02X-280300Y-258780I-2334J3385D01*
G03X-280510Y-260470I808J-958D01*
G37*
G36*
G01X-280300Y-223820D02*
G02X-277500Y-224520I466J-4085D01*
G01X-268440Y-222230D01*
X-277980Y-220770D01*
G02X-280510Y-222130I-3060J2658D01*
G03X-280300Y-223820I1018J-732D01*
G37*
G36*
G01X-175420Y-285060D02*
G02X-178900Y-282050I2026J5859D01*
G01X-188760Y-285750D01*
X-178900Y-289450D01*
G02X-175420Y-286440I5506J-2849D01*
G03Y-285060I-1040J690D01*
G37*
G36*
G01X-189600Y-118500D02*
G02X-196850I-3625J8765D01*
G01X-197070Y-127220D01*
X-188350Y-127000D01*
G02Y-119750I8635J3625D01*
G03X-189600Y-118500I-1250J0D01*
G37*
G36*
G01X-167010Y-64380D02*
G02X-162690Y-68730I-3194J-7492D01*
G01X-152390Y-63700D01*
X-162690Y-58670D01*
G02X-167010Y-63020I-7514J3142D01*
G03Y-64380I1050J-680D01*
G37*
G36*
G01X-188350Y-83450D02*
G02Y-76200I8635J3625D01*
G01X-197070Y-75980D01*
X-196850Y-84700D01*
G02X-189600I3625J-8765D01*
G03X-188350Y-83450I0J1250D01*
G37*
G36*
G01Y-58050D02*
G02Y-50800I8635J3625D01*
G01X-197070Y-50580D01*
X-196850Y-59300D01*
G02X-189600I3625J-8765D01*
G03X-188350Y-58050I0J1250D01*
G37*
G36*
G01X-185720Y-100720D02*
G02X-190840Y-95600I3610J8730D01*
G01X-197160Y-101600D01*
X-190840Y-107600D01*
G02X-185720Y-102480I8730J-3610D01*
G03Y-100720I-880J880D01*
G37*
G36*
G01X-166170Y-26050D02*
G02X-162650Y-29450I-2474J-6084D01*
G01X-152390Y-25190D01*
X-162690Y-21230D01*
G02X-166180Y-24770I-6164J2587D01*
G03X-166170Y-26050I1080J-632D01*
G37*
G36*
G01X-189600Y8500D02*
G02X-196850I-3625J8765D01*
G01X-197070Y-220D01*
X-188350Y0D01*
G02Y7250I8635J3625D01*
G03X-189600Y8500I-1250J0D01*
G37*
G36*
G01Y-16900D02*
G02X-196850I-3625J8765D01*
G01X-197070Y-25620D01*
X-188350Y-25400D01*
G02Y-18150I8635J3625D01*
G03X-189600Y-16900I-1250J0D01*
G37*
G36*
G01X-190040Y33460D02*
G02X-196410Y33450I-3197J7665D01*
G01X-197070Y25180D01*
X-188800Y25840D01*
G02X-188790Y32210I7675J3173D01*
G03X-190040Y33460I-1250J0D01*
G37*
G36*
G01X-162350Y92740D02*
G02X-165100I-1375J3236D01*
G01X-165320Y88520D01*
X-161100Y88740D01*
G02Y91490I3236J1375D01*
G03X-162350Y92740I-1250J0D01*
G37*
G36*
G01X-161100Y85990D02*
G02Y88740I3236J1375D01*
G01X-165320Y88960D01*
X-165100Y84740D01*
G02X-162350I1375J-3236D01*
G03X-161100Y85990I0J1250D01*
G37*
G36*
G01X-91120Y-271600D02*
G02X-87350Y-267350I7131J-2529D01*
G01X-91850Y-260040D01*
X-96350Y-267350D01*
G02X-92580Y-271600I-3361J-6779D01*
G03X-91120I730J1010D01*
G37*
G36*
G01X-92580Y-274500D02*
G02X-96350Y-278750I-7131J2529D01*
G01X-91850Y-286060D01*
X-87350Y-278750D01*
G02X-91120Y-274500I3361J6779D01*
G03X-92580I-730J-1010D01*
G37*
G36*
G01X-121850Y-286490D02*
G02X-115830Y-292530I-4336J-10341D01*
G01X-111040Y-285750D01*
X-115830Y-278970D01*
G02X-121850Y-285010I-10356J4301D01*
G03Y-286490I1000J-740D01*
G37*
G36*
G01X-110620Y-297000D02*
G02X-106850Y-292750I7131J-2529D01*
G01X-111350Y-285440D01*
X-115850Y-292750D01*
G02X-112080Y-297000I-3361J-6779D01*
G03X-110620I730J1010D01*
G37*
G36*
G01X-121850Y-261090D02*
G02X-115830Y-267130I-4336J-10341D01*
G01X-111040Y-260350D01*
X-115830Y-253570D01*
G02X-121850Y-259610I-10356J4301D01*
G03Y-261090I1000J-740D01*
G37*
G36*
G01X-123180Y-236320D02*
G02X-116350Y-242200I-3946J-11491D01*
G01X-109720Y-234950D01*
X-116350Y-227700D01*
G02X-123180Y-233580I-10776J5611D01*
G03Y-236320I2090J-1370D01*
G37*
G36*
G01X-92580Y-249100D02*
G02X-96350Y-253350I-7131J2529D01*
G01X-91850Y-260660D01*
X-87350Y-253350D01*
G02X-91120Y-249100I3361J6779D01*
G03X-92580I-730J-1010D01*
G37*
G36*
G01X-92170Y-246510D02*
G02X-87820Y-242200I7438J-3157D01*
G01X-92850Y-234640D01*
X-97880Y-242200D01*
G02X-93530Y-246510I-3088J-7467D01*
G03X-92170I680J1050D01*
G37*
G36*
G01X-120080Y-210200D02*
G02X-116330Y-213980I-2766J-6495D01*
G01X-110040Y-209550D01*
X-116330Y-205120D01*
G02X-120080Y-208900I-6516J2715D01*
G03Y-210200I1070J-650D01*
G37*
G36*
G01X-80850Y-208810D02*
G02X-86870Y-202780I4351J10364D01*
G01X-93160Y-209550D01*
X-86870Y-216320D01*
G02X-80850Y-210290I10371J-4334D01*
G03Y-208810I-1000J740D01*
G37*
G36*
G01X-118460Y-64960D02*
G02X-111300Y-72240I-5479J-12550D01*
G01X-100680Y-63700D01*
X-111300Y-55160D01*
G02X-118460Y-62440I-12639J5270D01*
G03Y-64960I2160J-1260D01*
G37*
G36*
G01X-105420Y1370D02*
G02X-112250Y7250I3946J11491D01*
G01X-118880Y0D01*
X-112250Y-7250D01*
G02X-105420Y-1370I10776J-5611D01*
G03Y1370I-2090J1370D01*
G37*
G36*
G01X-148580Y-1370D02*
G02X-141750Y-7250I-3946J-11491D01*
G01X-135120Y0D01*
X-141750Y7250D01*
G02X-148580Y1370I-10776J5611D01*
G03Y-1370I2090J-1370D01*
G37*
G36*
G01X-134490Y-12900D02*
G02X-129750Y-7250I9602J-3242D01*
G01X-135750Y620D01*
X-141750Y-7250D01*
G02X-137010Y-12900I-4862J-8892D01*
G03X-134490I1260J2160D01*
G37*
G36*
G01X-83960Y70120D02*
G02X-85670Y72100I1822J3302D01*
G01X-93960Y69850D01*
X-85670Y67600D01*
G02X-83960Y69580I3532J-1322D01*
G03Y70120I-1220J270D01*
G37*
G36*
G01X-119570Y198620D02*
G02X-122410Y201440I2003J4858D01*
G01X-127620Y196850D01*
X-122410Y192260D01*
G02X-119570Y195080I4843J-2038D01*
G03Y198620I-1770J1770D01*
G37*
G36*
G01X-125230Y189420D02*
G02X-122410Y192260I4858J-2003D01*
G01X-127000Y197480D01*
X-131590Y192260D01*
G02X-128770Y189420I-2038J-4843D01*
G03X-125230I1770J1770D01*
G37*
G36*
G01X-109030Y195080D02*
G02X-106190Y192260I-2003J-4858D01*
G01X-100980Y196850D01*
X-106190Y201440D01*
G02X-109030Y198620I-4843J2038D01*
G03Y195080I1770J-1770D01*
G37*
G36*
G01X-128770Y178880D02*
G02X-131590Y176040I-4858J2003D01*
G01X-127000Y170820D01*
X-122410Y176040D01*
G02X-125230Y178880I2038J4843D01*
G03X-128770I-1770J-1770D01*
G37*
G36*
G01X-125230Y164020D02*
G02X-122410Y166860I4858J-2003D01*
G01X-127000Y172080D01*
X-131590Y166860D01*
G02X-128770Y164020I-2038J-4843D01*
G03X-125230I1770J1770D01*
G37*
G36*
G01X-1710Y-124200D02*
G03X2110Y-125170I3112J4250D01*
G01X2330Y-125140D01*
X2730Y-125260D01*
X4040Y-126400D01*
G02X4380Y-127150I-661J-752D01*
G01Y-129010D01*
X4280Y-129310D01*
X4180Y-129440D01*
G03X14620I5220J-3910D01*
G01X14520Y-129310D01*
X14420Y-129010D01*
Y-127150D01*
G02X14760Y-126400I1001J-2D01*
G01X16070Y-125260D01*
X16470Y-125140D01*
X16690Y-125170D01*
G03X20510Y-124200I708J5220D01*
G02X21110Y-124010I587J-811D01*
G01X21690D01*
G02X22290Y-124200I13J-1001D01*
G03X28510I3110J4250D01*
G02X29110Y-124010I587J-811D01*
G01X29690D01*
G02X30290Y-124200I13J-1001D01*
G03X36510I3110J4250D01*
G02X37110Y-124010I587J-811D01*
G01X37690D01*
G02X38290Y-124200I13J-1001D01*
G03X44510I3110J4250D01*
G02X45110Y-124010I587J-811D01*
G01X45690D01*
G02X46290Y-124200I13J-1001D01*
G03X52510I3110J4250D01*
G02X53110Y-124010I587J-811D01*
G01X53690D01*
G02X54290Y-124200I13J-1001D01*
G03X60510I3110J4250D01*
G02X61110Y-124010I587J-811D01*
G01X61690D01*
G02X62290Y-124200I13J-1001D01*
G03X67180Y-124910I3114J4250D01*
G01X67410Y-124830D01*
X67890Y-124890D01*
X69430Y-125980D01*
G02X69850Y-126790I-580J-815D01*
G01Y-127000D01*
X70060D01*
G02X70870Y-127420I-5J-1000D01*
G01X71960Y-128960D01*
X72020Y-129440D01*
X71940Y-129670D01*
G03X72650Y-134560I4960J-1776D01*
G02X72840Y-135160I-811J-587D01*
G01Y-135740D01*
G02X72650Y-136340I-1001J-13D01*
G03Y-142560I4250J-3110D01*
G02X72840Y-143160I-811J-587D01*
G01Y-143740D01*
G02X72650Y-144340I-1001J-13D01*
G03X71630Y-147420I4249J-3116D01*
G01Y-147670D01*
X71410Y-148090D01*
X69680Y-149310D01*
X69200Y-149380D01*
X68970Y-149300D01*
G03Y-161600I-2160J-6150D01*
G01X69200Y-161520D01*
X69680Y-161590D01*
X71410Y-162810D01*
X71630Y-163230D01*
Y-163480D01*
G03X72650Y-166560I5269J36D01*
G02X72840Y-167160I-811J-587D01*
G01Y-167740D01*
G02X72650Y-168340I-1001J-13D01*
G03Y-174560I4250J-3110D01*
G02X72840Y-175160I-811J-587D01*
G01Y-175740D01*
G02X72650Y-176340I-1001J-13D01*
G03Y-182560I4250J-3110D01*
G02X72840Y-183160I-811J-587D01*
G01Y-183740D01*
G02X72650Y-184340I-1001J-13D01*
G03Y-190560I4250J-3110D01*
G02X72840Y-191160I-811J-587D01*
G01Y-191740D01*
G02X72650Y-192340I-1001J-13D01*
G03Y-198560I4250J-3110D01*
G02X72840Y-199160I-811J-587D01*
G01Y-199740D01*
G02X72650Y-200340I-1001J-13D01*
G03X71830Y-204900I4249J-3118D01*
G01X71870Y-205040D01*
Y-206180D01*
X71630D01*
Y-214900D01*
G02X70630Y-215900I-1000J0D01*
G01X70430D01*
X69850Y-216480D01*
Y-216620D01*
X67890Y-218010D01*
X67410Y-218070D01*
X67180Y-217990D01*
G03X62290Y-218700I-1776J-4960D01*
G02X61690Y-218890I-587J811D01*
G01X61110D01*
G02X60510Y-218700I-13J1001D01*
G03X54290I-3110J-4250D01*
G02X53690Y-218890I-587J811D01*
G01X53110D01*
G02X52510Y-218700I-13J1001D01*
G03X46290I-3110J-4250D01*
G02X45690Y-218890I-587J811D01*
G01X45110D01*
G02X44510Y-218700I-13J1001D01*
G03X38290I-3110J-4250D01*
G02X37690Y-218890I-587J811D01*
G01X37110D01*
G02X36510Y-218700I-13J1001D01*
G03X30290I-3110J-4250D01*
G02X29690Y-218890I-587J811D01*
G01X29110D01*
G02X28510Y-218700I-13J1001D01*
G03X22290I-3110J-4250D01*
G02X21690Y-218890I-587J811D01*
G01X21110D01*
G02X20510Y-218700I-13J1001D01*
G03X14290I-3110J-4250D01*
G02X13690Y-218890I-587J811D01*
G01X13110D01*
G02X12510Y-218700I-13J1001D01*
G03X6290I-3110J-4250D01*
G02X5690Y-218890I-587J811D01*
G01X5110D01*
G02X4510Y-218700I-13J1001D01*
G03X1510Y-217680I-3118J-4248D01*
G01X1270D01*
X860Y-217460D01*
X-360Y-215790D01*
X-430Y-215330D01*
X-360Y-215100D01*
G03X-12840I-6240J1900D01*
G01X-12770Y-215330D01*
X-12840Y-215790D01*
X-14060Y-217460D01*
X-14470Y-217680D01*
X-14710D01*
G03X-16380Y-217990I114J-5269D01*
G01X-16610Y-218070D01*
X-17090Y-218010D01*
X-18630Y-216920D01*
G02X-19050Y-216110I580J815D01*
G01Y-215900D01*
X-19260D01*
G02X-20070Y-215480I5J1000D01*
G01X-21160Y-213940D01*
X-21220Y-213460D01*
X-21140Y-213230D01*
G03X-21850Y-208340I-4960J1776D01*
G02X-22040Y-207740I811J587D01*
G01Y-207160D01*
G02X-21850Y-206560I1001J13D01*
G03Y-200340I-4250J3110D01*
G02X-22040Y-199740I811J587D01*
G01Y-199160D01*
G02X-21850Y-198560I1001J13D01*
G03Y-192340I-4250J3110D01*
G02X-22040Y-191740I811J587D01*
G01Y-191160D01*
G02X-21850Y-190560I1001J13D01*
G03Y-184340I-4250J3110D01*
G02X-22040Y-183740I811J587D01*
G01Y-183160D01*
G02X-21850Y-182560I1001J13D01*
G03Y-176340I-4250J3110D01*
G02X-22040Y-175740I811J587D01*
G01Y-175160D01*
G02X-21850Y-174560I1001J13D01*
G03Y-168340I-4250J3110D01*
G02X-22040Y-167740I811J587D01*
G01Y-167160D01*
G02X-21850Y-166560I1001J13D01*
G03Y-160340I-4250J3110D01*
G02X-22040Y-159740I811J587D01*
G01Y-159160D01*
G02X-21850Y-158560I1001J13D01*
G03Y-152340I-4250J3110D01*
G02X-22040Y-151740I811J587D01*
G01Y-151160D01*
G02X-21850Y-150560I1001J13D01*
G03Y-144340I-4250J3110D01*
G02X-22040Y-143740I811J587D01*
G01Y-143160D01*
G02X-21850Y-142560I1001J13D01*
G03Y-136340I-4250J3110D01*
G02X-22040Y-135740I811J587D01*
G01Y-135160D01*
G02X-21850Y-134560I1001J13D01*
G03X-21140Y-129670I-4250J3114D01*
G01X-21220Y-129440D01*
X-21160Y-128960D01*
X-20070Y-127420D01*
G02X-19260Y-127000I815J-580D01*
G01X-19050D01*
Y-126790D01*
G02X-18630Y-125980I1000J-5D01*
G01X-17090Y-124890D01*
X-16610Y-124830D01*
X-16380Y-124910D01*
G03X-11490Y-124200I1776J4960D01*
G02X-10890Y-124010I587J-811D01*
G01X-10310D01*
G02X-9710Y-124200I13J-1001D01*
G03X-3490I3110J4250D01*
G02X-2890Y-124010I587J-811D01*
G01X-2310D01*
G02X-1710Y-124200I13J-1001D01*
G37*
G36*
G01X-16180Y-253370D02*
G02X-19000Y-251000I1604J4771D01*
G01X-27310Y-254000D01*
X-19000Y-257000D01*
G02X-16180Y-254630I4424J-2401D01*
G03Y-253370I-1080J630D01*
G37*
G36*
G01X-37820Y-254630D02*
G02X-35000Y-257000I-1604J-4771D01*
G01X-26690Y-254000D01*
X-35000Y-251000D01*
G02X-37820Y-253370I-4424J2401D01*
G03Y-254630I1080J-630D01*
G37*
G36*
G01X-42110Y-186030D02*
G02X-43540Y-184630I953J2403D01*
G01X-46850Y-187450D01*
X-43540Y-190270D01*
G02X-42110Y-188870I2383J-1003D01*
G03Y-186030I-1410J1420D01*
G37*
G36*
G01X-55880Y8020D02*
G02Y10770I3236J1375D01*
G01X-60100Y10990D01*
X-59880Y6770D01*
G02X-57130I1375J-3366D01*
G03X-55880Y8020I0J1250D01*
G37*
G36*
G01X-13890Y17770D02*
G02X-15820Y15810I-3343J1362D01*
G01X-13000Y12690D01*
X-10180Y15810D01*
G02X-12110Y17770I1413J3322D01*
G03X-13890I-890J-880D01*
G37*
G36*
G01X-34580Y61480D02*
G02X-32790Y62900I2882J-1795D01*
G01X-34700Y70160D01*
X-36610Y62900D01*
G02X-34820Y61480I-1092J-3215D01*
G03X-34580I120J1240D01*
G37*
G36*
G01X-35710Y81130D02*
G02X-39200Y76850I-7451J2513D01*
G01X-34700Y69220D01*
X-30200Y76850D01*
G02X-33690Y81130I3961J6793D01*
G03X-35710I-1010J-2290D01*
G37*
G36*
G01X-83420Y81660D02*
G02X-81460Y79730I-1362J-3343D01*
G01X-78340Y82550D01*
X-81460Y85370D01*
G02X-83420Y83440I-3322J1413D01*
G03Y81660I880J-890D01*
G37*
G36*
G01X-65290Y68500D02*
G02X-58700Y62850I-3844J-11152D01*
G01X-53580Y69850D01*
X-58700Y76850D01*
G02X-65290Y71200I-10434J5502D01*
G03Y68500I2100J-1350D01*
G37*
G36*
G01X-48410Y106530D02*
G02X-51900Y102250I-7451J2513D01*
G01X-47400Y94620D01*
X-42900Y102250D01*
G02X-46390Y106530I3961J6793D01*
G03X-48410I-1010J-2290D01*
G37*
G36*
G01X-77990Y93900D02*
G02X-71400Y88250I-3844J-11152D01*
G01X-66280Y95250D01*
X-71400Y102250D01*
G02X-77990Y96600I-10434J5502D01*
G03Y93900I2100J-1350D01*
G37*
G36*
G01X1110Y-55000D02*
G02X-820Y-56960I-3343J1362D01*
G01X2000Y-60080D01*
X4820Y-56960D01*
G02X2890Y-55000I1413J3322D01*
G03X1110I-890J-880D01*
G37*
G36*
G01X54380Y-2900D02*
G02X56980Y-2780I1467J-3563D01*
G01X60140Y110D01*
X55870Y300D01*
G02X53790Y-1270I-3189J2062D01*
G03X54380Y-2900I1140J-509D01*
G37*
G36*
G01X6890Y55080D02*
G02X8820Y57040I3343J-1362D01*
G01X6000Y60160D01*
X3180Y57040D01*
G02X5110Y55080I-1413J-3322D01*
G03X6890I890J880D01*
G37*
G36*
G01X71200Y-287540D02*
G02X76850Y-280950I11152J-3844D01*
G01X69850Y-275820D01*
X62850Y-280950D01*
G02X68500Y-287540I-5502J-10434D01*
G03X71200I1350J2100D01*
G37*
G36*
G01X92740Y-210850D02*
G02X90150Y-208700I1458J4391D01*
G01X81840Y-211450D01*
X90150Y-214200D01*
G02X92740Y-212050I4048J-2241D01*
G03Y-210850I-1100J600D01*
G37*
G36*
G01X69240Y-249190D02*
G02X65900Y-252470I-5730J2494D01*
G01X69850Y-257260D01*
X73800Y-252470D01*
G02X70460Y-249190I2390J5774D01*
G03X69240I-610J-1090D01*
G37*
G36*
G01X88780Y55760D02*
G02X84500Y59250I2513J7451D01*
G01X76880Y54750D01*
X84500Y50250D01*
G02X88780Y53740I6793J-3961D01*
G03Y55760I-2290J1010D01*
G37*
G36*
G01X88750Y35980D02*
G02X84500Y39750I2529J7131D01*
G01X77190Y35250D01*
X84500Y30750D01*
G02X88750Y34520I6779J-3361D01*
G03Y35980I-1010J730D01*
G37*
G36*
G01X68440Y34850D02*
G02X70510Y32610I-1841J-3778D01*
G01X77810Y35250D01*
X70510Y37890D01*
G02X68440Y35650I-3911J1538D01*
G03Y34850I1190J-400D01*
G37*
G36*
G01X84900Y190350D02*
G02X88900I2000J-4800D01*
G01X89340Y197290D01*
X82400Y196850D01*
G02Y192850I-4800J-2000D01*
G03X84900Y190350I2500J0D01*
G37*
G36*
G01X163310Y-293450D02*
G02X169900Y-299100I-3844J-11152D01*
G01X175020Y-292100D01*
X169900Y-285100D01*
G02X163310Y-290750I-10434J5502D01*
G03Y-293450I2100J-1350D01*
G37*
G36*
G01X166300Y-278660D02*
G02X160290Y-272630I4315J10310D01*
G01X155490Y-279400D01*
X160290Y-286170D01*
G02X166300Y-280140I10325J-4280D01*
G03Y-278660I-1000J740D01*
G37*
G36*
G01X201660Y-266090D02*
G02X198390Y-262760I2543J5768D01*
G01X193590Y-266700D01*
X198390Y-270640D01*
G02X201660Y-267310I5813J-2438D01*
G03Y-266090I-1090J610D01*
G37*
G36*
G01X204400Y-291360D02*
G02X198390Y-285330I4315J10310D01*
G01X193590Y-292100D01*
X198390Y-298870D01*
G02X204400Y-292840I10325J-4280D01*
G03Y-291360I-1000J740D01*
G37*
G36*
G01X163900Y-267440D02*
G02X169910Y-273470I-4315J-10310D01*
G01X174710Y-266700D01*
X169910Y-259930D01*
G02X163900Y-265960I-10325J4280D01*
G03Y-267440I1000J-740D01*
G37*
G36*
G01X125990Y-280140D02*
G02X131810Y-285970I-4143J-9956D01*
G01X136610Y-279400D01*
X131810Y-272830D01*
G02X125990Y-278660I-9963J4126D01*
G03Y-280140I1010J-740D01*
G37*
G36*
G01X198420Y-212020D02*
G02X191400Y-205950I4059J11789D01*
G01X183530Y-211880D01*
X191400Y-217950D01*
G02X198030Y-215240I6795J-7158D01*
G03X198420Y-212020I-1691J1838D01*
G37*
G36*
G01X247650Y-215900D02*
G02X234950I-6350J0D01*
G01Y-203200D01*
G03X228600Y-196850I-6350J0D01*
G01X194920D01*
G02X193920Y-195850I0J1000D01*
G01Y-186930D01*
G03X192920Y-185930I-1000J0D01*
G01X178800D01*
G02X177800Y-184930I0J1000D01*
G01Y-177800D01*
G02X184150Y-171450I6350J0D01*
G01X190500D01*
G03X196850Y-165100I0J6350D01*
G01Y-133350D01*
G02X203200Y-127000I6350J0D01*
G01X279400D01*
G02X285750Y-133350I0J-6350D01*
G01Y-165100D01*
G03X292100Y-171450I6350J0D01*
G01X298450D01*
G02X304800Y-177800I0J-6350D01*
G01Y-184930D01*
G02X303800Y-185930I-1000J0D01*
G01X289680D01*
G03X288680Y-186930I0J-1000D01*
G01Y-195850D01*
G02X287680Y-196850I-1000J0D01*
G01X254000D01*
G03X247650Y-203200I0J-6350D01*
G01Y-215900D01*
G37*
G36*
G01X135570Y-242750D02*
G02X131800Y-247000I-7131J2529D01*
G01X136300Y-254310D01*
X140800Y-247000D01*
G02X137030Y-242750I3361J6779D01*
G03X135570I-730J-1010D01*
G37*
G36*
G01X201660Y-240690D02*
G02X198390Y-237360I2543J5768D01*
G01X193590Y-241300D01*
X198390Y-245240D01*
G02X201660Y-241910I5813J-2438D01*
G03Y-240690I-1090J610D01*
G37*
G36*
G01X166300Y-253260D02*
G02X160290Y-247230I4315J10310D01*
G01X155490Y-254000D01*
X160290Y-260770D01*
G02X166300Y-254740I10325J-4280D01*
G03Y-253260I-1000J740D01*
G37*
G36*
G01X191280Y-31240D02*
G02X187000Y-27750I2513J7451D01*
G01X179380Y-32250D01*
X187000Y-36750D01*
G02X191280Y-33260I6793J-3961D01*
G03Y-31240I-2290J1010D01*
G37*
G36*
G01X168750Y4520D02*
G02X173000Y750I-2529J-7131D01*
G01X180310Y5250D01*
X173000Y9750D01*
G02X168750Y5980I-6779J3361D01*
G03Y4520I1010J-730D01*
G37*
G36*
G01X191250Y5980D02*
G02X187000Y9750I2529J7131D01*
G01X179690Y5250D01*
X187000Y750D01*
G02X191250Y4520I6779J-3361D01*
G03Y5980I-1010J730D01*
G37*
G36*
G01X168750Y-13480D02*
G02X173000Y-17250I-2529J-7131D01*
G01X180310Y-12750D01*
X173000Y-8250D01*
G02X168750Y-12020I-6779J3361D01*
G03Y-13480I1010J-730D01*
G37*
G36*
G01X191250Y-12020D02*
G02X187000Y-8250I2529J7131D01*
G01X179690Y-12750D01*
X187000Y-17250D01*
G02X191250Y-13480I6779J-3361D01*
G03Y-12020I-1010J730D01*
G37*
G36*
G01X191280Y25760D02*
G02X187000Y29250I2513J7451D01*
G01X179380Y24750D01*
X187000Y20250D01*
G02X191280Y23740I6793J-3961D01*
G03Y25760I-2290J1010D01*
G37*
G36*
G01X232420Y-249020D02*
G02X239250Y-254900I-3946J-11491D01*
G01X245880Y-247650D01*
X239250Y-240400D01*
G02X232420Y-246280I-10776J5611D01*
G03Y-249020I2090J-1370D01*
G37*
G36*
G01X219680Y-230470D02*
G02X225800Y-223400I11872J-4093D01*
G01X218300Y-212780D01*
X210800Y-223400D01*
G02X216920Y-230470I-5752J-11163D01*
G03X219680I1380J2080D01*
G37*
G36*
G01X203640Y-214660D02*
G02X210800Y-221940I-5479J-12550D01*
G01X218920Y-213400D01*
X210800Y-204860D01*
G02X203640Y-212140I-12639J5270D01*
G03Y-214660I2160J-1260D01*
G37*
G36*
G01X275580Y-246280D02*
G02X268750Y-240400I3946J11491D01*
G01X262120Y-247650D01*
X268750Y-254900D01*
G02X275580Y-249020I10776J-5611D01*
G03Y-246280I-2090J1370D01*
G37*
G36*
G01X261490Y-234750D02*
G02X256750Y-240400I-9602J3242D01*
G01X262750Y-248280D01*
X268750Y-240400D01*
G02X264010Y-234750I4862J8892D01*
G03X261490I-1260J-2160D01*
G37*
G36*
G01X265590Y-230040D02*
G02X271800Y-223400I11409J-4447D01*
G01X264300Y-212780D01*
X256800Y-223400D01*
G02X263010Y-230040I-5199J-11087D01*
G03X265590I1290J2140D01*
G37*
G36*
G01X235850Y-55000D02*
G02X228600I-3625J8765D01*
G01X228380Y-63720D01*
X237100Y-63500D01*
G02Y-56250I8765J3625D01*
G03X235850Y-55000I-1250J0D01*
G37*
G36*
G01X217470Y-13580D02*
G02X222590Y-18700I-3610J-8730D01*
G01X228910Y-12700D01*
X222590Y-6700D01*
G02X217470Y-11820I-8730J3610D01*
G03Y-13580I880J-880D01*
G37*
G36*
G01X235850Y21200D02*
G02X228600I-3625J8765D01*
G01X228380Y12480D01*
X237100Y12700D01*
G02Y19950I8765J3625D01*
G03X235850Y21200I-1250J0D01*
G37*
G36*
G01X214100Y37360D02*
G02X220110Y31330I-4315J-10310D01*
G01X228910Y38100D01*
X220110Y44870D01*
G02X214100Y38840I-10325J4280D01*
G03Y37360I1000J-740D01*
G37*
G36*
G01X242180Y155380D02*
G02X246600Y159800I7540J-3120D01*
G01X241300Y165410D01*
X236000Y159800D01*
G02X240420Y155380I-3120J-7540D01*
G03X242180I880J880D01*
G37*
G36*
G01X267580D02*
G02X272000Y159800I7540J-3120D01*
G01X266700Y165410D01*
X261400Y159800D01*
G02X265820Y155380I-3120J-7540D01*
G03X267580I880J880D01*
G37*
G36*
G01X326380Y-246280D02*
G02X319550Y-240400I3946J11491D01*
G01X312920Y-247650D01*
X319550Y-254900D01*
G02X326380Y-249020I10776J-5611D01*
G03Y-246280I-2090J1370D01*
G37*
G36*
G01X299820Y-224780D02*
G02X305700Y-217950I11491J-3946D01*
G01X298450Y-211320D01*
X291200Y-217950D01*
G02X297080Y-224780I-5611J-10776D01*
G03X299820I1370J2090D01*
G37*
G36*
G01X285550Y-213210D02*
G02X291200Y-217950I-3242J-9602D01*
G01X299080Y-211950D01*
X291200Y-205950D01*
G02X285550Y-210690I-8892J4862D01*
G03Y-213210I2160J-1260D01*
G37*
G36*
G01X283220Y-249020D02*
G02X290050Y-254900I-3946J-11491D01*
G01X296680Y-247650D01*
X290050Y-240400D01*
G02X283220Y-246280I-10776J5611D01*
G03Y-249020I2090J-1370D01*
G37*
G36*
G01X333110Y-146320D02*
G02X328950Y-142650I2432J6950D01*
G01X323540Y-147050D01*
X328950Y-151450D01*
G02X333110Y-147780I6592J-3280D01*
G03Y-146320I-1020J730D01*
G37*
G36*
G01X322720Y-137830D02*
G02X318750Y-142650I-8252J2752D01*
G01X323850Y-147680D01*
X328950Y-142650D01*
G02X324980Y-137830I4282J7572D01*
G03X322720I-1130J-2230D01*
G37*
G36*
G01X333140Y-182160D02*
G02X328950Y-178750I2518J7374D01*
G01X323220Y-183150D01*
X328950Y-187550D01*
G02X333140Y-184140I6708J-3964D01*
G03Y-182160I-2300J990D01*
G37*
G36*
G01X332640Y4580D02*
G02X336900Y350I-2908J-7188D01*
G01X343520Y6350D01*
X336900Y12350D01*
G02X332640Y8120I-7168J2958D01*
G03Y4580I1770J-1770D01*
G37*
G36*
G01X318380Y155380D02*
G02X322800Y159800I7540J-3120D01*
G01X317500Y165410D01*
X312200Y159800D01*
G02X316620Y155380I-3120J-7540D01*
G03X318380I880J880D01*
G37*
G36*
G01X292980D02*
G02X297400Y159800I7540J-3120D01*
G01X292100Y165410D01*
X286800Y159800D01*
G02X291220Y155380I-3120J-7540D01*
G03X292980I880J880D01*
G37*
G36*
G01X398470Y-284860D02*
G02X396510Y-282930I1362J3343D01*
G01X393390Y-285750D01*
X396510Y-288570D01*
G02X398470Y-286640I3322J-1413D01*
G03Y-284860I-880J890D01*
G37*
G36*
G01X374190Y-223450D02*
G02X367100Y-217220I4255J11992D01*
G01X354980Y-224820D01*
X367100Y-232420D01*
G02X374190Y-226190I11345J-5762D01*
G03Y-223450I-2090J1370D01*
G37*
G36*
G01X337010Y-226190D02*
G02X344100Y-232420I-4255J-11992D01*
G01X356220Y-224820D01*
X344100Y-217220D01*
G02X337010Y-223450I-11345J5762D01*
G03Y-226190I2090J-1370D01*
G37*
G36*
G01X392810Y-231380D02*
G02X390880Y-233340I-3343J1362D01*
G01X393700Y-236460D01*
X396520Y-233340D01*
G02X394590Y-231380I1413J3322D01*
G03X392810I-890J-880D01*
G37*
G36*
G01X394440Y-236150D02*
G02X400470Y-230130I10364J-4351D01*
G01X393700Y-225340D01*
X386930Y-230130D01*
G02X392960Y-236150I-4334J-10371D01*
G03X394440I740J1000D01*
G37*
G36*
G01X393090Y-198390D02*
G02X389760Y-201670I-5753J2511D01*
G01X393700Y-206460D01*
X397640Y-201670D01*
G02X394310Y-198390I2423J5791D01*
G03X393090I-610J-1090D01*
G37*
G36*
G01X378060Y-148040D02*
G02X382250Y-151450I-2518J-7374D01*
G01X387980Y-147050D01*
X382250Y-142650D01*
G02X378060Y-146060I-6708J3964D01*
G03Y-148040I2300J-990D01*
G37*
G36*
G01Y-184140D02*
G02X382250Y-187550I-2518J-7374D01*
G01X387980Y-183150D01*
X382250Y-178750D01*
G02X378060Y-182160I-6708J3964D01*
G03Y-184140I2300J-990D01*
G37*
G36*
G01X337450Y-182850D02*
G02X344100Y-189180I-4622J-11513D01*
G01X356220Y-181580D01*
X344100Y-173980D01*
G02X337450Y-180310I-11272J5183D01*
G03Y-182850I2150J-1270D01*
G37*
G36*
G01X373750Y-180310D02*
G02X367100Y-173980I4622J11513D01*
G01X354980Y-181580D01*
X367100Y-189180D01*
G02X373750Y-182850I11272J-5183D01*
G03Y-180310I-2150J1270D01*
G37*
G36*
G01X362540Y-192870D02*
G02X367100Y-189170I7192J-4204D01*
G01X355240Y-181070D01*
X344100Y-189170D01*
G02X361770Y-192930I4272J-23323D01*
G03X362540Y-192870I193J2492D01*
G37*
G36*
G01X349430Y-192930D02*
G02X367100Y-189170I13398J-19563D01*
G01X355960Y-181070D01*
X344100Y-189170D01*
G02X348660Y-192870I-2632J-7904D01*
G03X349430Y-192930I577J2432D01*
G37*
G36*
G01X344670Y-80110D02*
G02X348900Y-75850I7188J-2908D01*
G01X342900Y-69220D01*
X336900Y-75850D01*
G02X341130Y-80110I-2958J-7168D01*
G03X344670I1770J1770D01*
G37*
G36*
G01X341130Y-59590D02*
G02X336900Y-63850I-7188J2908D01*
G01X342900Y-70480D01*
X348900Y-63850D01*
G02X344670Y-59590I2958J7168D01*
G03X341130I-1770J-1770D01*
G37*
G36*
G01X344670Y-54710D02*
G02X348900Y-50450I7188J-2908D01*
G01X342900Y-43820D01*
X336900Y-50450D01*
G02X341130Y-54710I-2958J-7168D01*
G03X344670I1770J1770D01*
G37*
G36*
G01X341130Y16610D02*
G02X336900Y12350I-7188J2908D01*
G01X342900Y5720D01*
X348900Y12350D01*
G02X344670Y16610I2958J7168D01*
G03X341130I-1770J-1770D01*
G37*
G36*
G01X344670Y21490D02*
G02X348900Y25750I7188J-2908D01*
G01X342900Y32380D01*
X336900Y25750D01*
G02X341130Y21490I-2958J-7168D01*
G03X344670I1770J1770D01*
G37*
G36*
G01X343780Y155380D02*
G02X348200Y159800I7540J-3120D01*
G01X342900Y165410D01*
X337600Y159800D01*
G02X342020Y155380I-3120J-7540D01*
G03X343780I880J880D01*
G37*
G36*
G01X369180D02*
G02X373600Y159800I7540J-3120D01*
G01X368300Y165410D01*
X363000Y159800D01*
G02X367420Y155380I-3120J-7540D01*
G03X369180I880J880D01*
G37*
G36*
G01X394580D02*
G02X399000Y159800I7540J-3120D01*
G01X393700Y165410D01*
X388400Y159800D01*
G02X392820Y155380I-3120J-7540D01*
G03X394580I880J880D01*
G37*
G36*
G01X423870Y-297560D02*
G02X421910Y-295630I1362J3343D01*
G01X418790Y-298450D01*
X421910Y-301270D01*
G02X423870Y-299340I3322J-1413D01*
G03Y-297560I-880J890D01*
G37*
G36*
G01X418360Y-195650D02*
G02X412330Y-201670I-10364J4351D01*
G01X419100Y-206460D01*
X425870Y-201670D01*
G02X419840Y-195650I4334J10371D01*
G03X418360I-740J-1000D01*
G37*
G36*
G01X470510Y-214630D02*
G02X463330Y-207350I5418J12524D01*
G01X450760Y-209330D01*
X461400Y-219920D01*
G02X469600Y-218060I6432J-9349D01*
G03X470510Y-214630I-1248J2167D01*
G37*
G36*
G01X469600Y-201040D02*
G02X461400Y-199180I-1768J11209D01*
G01X450760Y-209770D01*
X463330Y-211750D01*
G02X470510Y-204470I12598J-5244D01*
G03X469600Y-201040I-2158J1263D01*
G37*
G36*
G01X418210Y-231380D02*
G02X416280Y-233340I-3343J1362D01*
G01X419100Y-236460D01*
X421920Y-233340D01*
G02X419990Y-231380I1413J3322D01*
G03X418210I-890J-880D01*
G37*
G36*
G01X419840Y-236150D02*
G02X425870Y-230130I10364J-4351D01*
G01X419100Y-225340D01*
X412330Y-230130D01*
G02X418360Y-236150I-4334J-10371D01*
G03X419840I740J1000D01*
G37*
G36*
G01X419980Y155380D02*
G02X424400Y159800I7540J-3120D01*
G01X419100Y165410D01*
X413800Y159800D01*
G02X418220Y155380I-3120J-7540D01*
G03X419980I880J880D01*
G37*
G36*
G01X495600Y-218060D02*
G02X503800Y-219920I1768J-11209D01*
G01X514440Y-209330D01*
X501870Y-207350D01*
G02X494690Y-214630I-12598J5244D01*
G03X495600Y-218060I2158J-1263D01*
G37*
G36*
G01X494690Y-204470D02*
G02X501870Y-211750I-5418J-12524D01*
G01X514440Y-209770D01*
X503800Y-199180D01*
G02X495600Y-201040I-6432J9349D01*
G03X494690Y-204470I1248J-2167D01*
G37*
G36*
G01X603550Y-218060D02*
G02X611730Y-219920I1734J-11291D01*
G01X622390Y-209330D01*
X609810Y-207360D01*
G02X602640Y-214630I-12565J5222D01*
G03X603550Y-218060I2158J-1263D01*
G37*
G36*
G01X602640Y-204470D02*
G02X609810Y-211740I-5395J-12492D01*
G01X622390Y-209770D01*
X611730Y-199180D01*
G02X603550Y-201040I-6446J9431D01*
G03X602640Y-204470I1248J-2167D01*
G37*
G36*
G01X578460Y-214630D02*
G02X571290Y-207360I5395J12492D01*
G01X558710Y-209330D01*
X569370Y-219920D01*
G02X577550Y-218060I6446J-9431D01*
G03X578460Y-214630I-1248J2167D01*
G37*
G36*
G01X577550Y-201040D02*
G02X569370Y-199180I-1734J11291D01*
G01X558710Y-209770D01*
X571290Y-211740D01*
G02X578460Y-204470I12565J-5222D01*
G03X577550Y-201040I-2158J1263D01*
G37*
G36*
G01X614600Y-68060D02*
G02X608950Y-74650I-11152J3844D01*
G01X615950Y-79780D01*
X622950Y-74650D01*
G02X617300Y-68060I5502J10434D01*
G03X614600I-1350J-2100D01*
G37*
G36*
G01X626860Y-134700D02*
G02X633450Y-140350I-3844J-11152D01*
G01X638580Y-133350D01*
X633450Y-126350D01*
G02X626860Y-132000I-10434J5502D01*
G03Y-134700I2100J-1350D01*
G37*
G36*
G01X658180Y-144600D02*
G02X661950Y-140350I7131J-2529D01*
G01X657450Y-133040D01*
X652950Y-140350D01*
G02X656720Y-144600I-3361J-6779D01*
G03X658180I730J1010D01*
G37*
G36*
G01X656720Y-122100D02*
G02X652950Y-126350I-7131J2529D01*
G01X657450Y-133660D01*
X661950Y-126350D01*
G02X658180Y-122100I3361J6779D01*
G03X656720I-730J-1010D01*
G37*
G36*
G01X666910Y-72600D02*
G02X663950Y-70000I2584J5926D01*
G01X657820Y-73000D01*
X663950Y-76000D01*
G02X666910Y-73400I5544J-3326D01*
G03Y-72600I-2470J400D01*
G37*
G36*
G01X659210Y-119330D02*
G02X663950Y-114100I8781J-3195D01*
G01X658450Y-110790D01*
X652950Y-114100D01*
G02X657690Y-119330I-4041J-8425D01*
G03X659210I760J990D01*
G37*
G36*
G01X626090Y-98230D02*
G02X622910Y-94440I3640J6284D01*
G01X615320Y-98650D01*
X622910Y-102860D01*
G02X626090Y-99070I6820J-2494D01*
G03Y-98230I-2470J420D01*
G37*
G36*
G01X624070Y-35660D02*
G02X628300Y-31400I7188J-2908D01*
G01X622300Y-24780D01*
X616300Y-31400D01*
G02X620530Y-35660I-2958J-7168D01*
G03X624070I1770J1770D01*
G37*
G36*
G01X674370Y-41050D02*
G02X681600Y-33900I12480J-5389D01*
G01X673100Y-24780D01*
X664600Y-33900D01*
G02X671830Y-41050I-5250J-12539D01*
G03X674370I1270J2150D01*
G37*
G36*
G01X632560Y52570D02*
G02X628300Y56800I2908J7188D01*
G01X621680Y50800D01*
X628300Y44800D01*
G02X632560Y49030I7168J-2958D01*
G03Y52570I-1770J1770D01*
G37*
G36*
G01Y27170D02*
G02X628300Y31400I2908J7188D01*
G01X621680Y25400D01*
X628300Y19400D01*
G02X632560Y23630I7168J-2958D01*
G03Y27170I-1770J1770D01*
G37*
G36*
G01X626880Y136550D02*
G02X632450Y141910I9599J-4401D01*
G01X625820Y153020D01*
X619190Y141910D01*
G02X624760Y136550I-4029J-9761D01*
G03X626880I1060J2260D01*
G37*
G36*
G01X670400Y137670D02*
G02X674990Y141910I7849J-3892D01*
G01X669580Y153020D01*
X664170Y141910D01*
G02X668760Y137670I-3259J-8132D01*
G03X670400I820J2360D01*
G37*
G36*
G01X728460Y-134700D02*
G02X735050Y-140350I-3844J-11152D01*
G01X740180Y-133350D01*
X735050Y-126350D01*
G02X728460Y-132000I-10434J5502D01*
G03Y-134700I2100J-1350D01*
G37*
G36*
G01X716200Y-68060D02*
G02X710550Y-74650I-11152J3844D01*
G01X717550Y-79780D01*
X724550Y-74650D01*
G02X718900Y-68060I5502J10434D01*
G03X716200I-1350J-2100D01*
G37*
G36*
G01X727690Y-98230D02*
G02X724510Y-94440I3640J6284D01*
G01X716920Y-98650D01*
X724510Y-102860D01*
G02X727690Y-99070I6820J-2494D01*
G03Y-98230I-2470J420D01*
G37*
G36*
G01X725670Y-35660D02*
G02X729900Y-31400I7188J-2908D01*
G01X723900Y-24780D01*
X717900Y-31400D01*
G02X722130Y-35660I-2958J-7168D01*
G03X725670I1770J1770D01*
G37*
G36*
G01X734160Y52570D02*
G02X729900Y56800I2908J7188D01*
G01X723280Y50800D01*
X729900Y44800D01*
G02X734160Y49030I7168J-2958D01*
G03Y52570I-1770J1770D01*
G37*
G36*
G01Y27170D02*
G02X729900Y31400I2908J7188D01*
G01X723280Y25400D01*
X729900Y19400D01*
G02X734160Y23630I7168J-2958D01*
G03Y27170I-1770J1770D01*
G37*
G36*
G01X728240Y137670D02*
G02X732830Y141910I7849J-3892D01*
G01X727420Y153020D01*
X722010Y141910D01*
G02X726600Y137670I-3259J-8132D01*
G03X728240I820J2360D01*
G37*
G36*
G01X811990Y-286490D02*
G02X818000Y-292530I-4365J-10354D01*
G01X825810Y-285750D01*
X818000Y-278970D01*
G02X811990Y-285010I-10375J4314D01*
G03Y-286490I1010J-740D01*
G37*
G36*
G01X802770Y-198300D02*
G02X799000Y-202550I-7131J2529D01*
G01X803500Y-209860D01*
X808000Y-202550D01*
G02X804230Y-198300I3361J6779D01*
G03X802770I-730J-1010D01*
G37*
G36*
G01X811990Y-235690D02*
G02X818000Y-241730I-4365J-10354D01*
G01X825810Y-234950D01*
X818000Y-228170D01*
G02X811990Y-234210I-10375J4314D01*
G03Y-235690I1010J-740D01*
G37*
G36*
G01X772910Y-210900D02*
G02X779500Y-216550I-3844J-11152D01*
G01X784620Y-209550D01*
X779500Y-202550D01*
G02X772910Y-208200I-10434J5502D01*
G03Y-210900I2100J-1350D01*
G37*
G36*
G01X814360Y-184790D02*
G02X818010Y-188490I-2731J-6345D01*
G01X825810Y-184150D01*
X818010Y-179810D01*
G02X814360Y-183510I-6381J2645D01*
G03Y-184790I1070J-640D01*
G37*
G36*
G01X816100Y-135300D02*
G02X818010Y-140850I-5850J-5117D01*
G01X825810Y-133280D01*
X818010Y-125850D01*
G02X816090Y-135070I-12109J-2288D01*
G03X816100Y-135300I1249J-61D01*
G37*
G36*
G01X759380Y-142190D02*
G02X761460Y-140330I3552J-1879D01*
G01X759050Y-133040D01*
X756640Y-140330D01*
G02X758720Y-142190I-1472J-3739D01*
G03X759380I330J1210D01*
G37*
G36*
G01X758320Y-122100D02*
G02X754550Y-126350I-7131J2529D01*
G01X759050Y-133660D01*
X763550Y-126350D01*
G02X759780Y-122100I3361J6779D01*
G03X758320I-730J-1010D01*
G37*
G36*
G01X768510Y-72600D02*
G02X765550Y-70000I2584J5926D01*
G01X759420Y-73000D01*
X765550Y-76000D01*
G02X768510Y-73400I5544J-3326D01*
G03Y-72600I-2470J400D01*
G37*
G36*
G01X760810Y-119330D02*
G02X765550Y-114100I8781J-3195D01*
G01X760050Y-110790D01*
X754550Y-114100D01*
G02X759290Y-119330I-4041J-8425D01*
G03X760810I760J990D01*
G37*
G36*
G01X775970Y-41050D02*
G02X783200Y-33900I12480J-5389D01*
G01X774700Y-24780D01*
X766200Y-33900D01*
G02X773430Y-41050I-5250J-12539D01*
G03X775970I1270J2150D01*
G37*
G36*
G01X772000Y137670D02*
G02X776590Y141910I7849J-3892D01*
G01X771180Y153020D01*
X765770Y141910D01*
G02X770360Y137670I-3259J-8132D01*
G03X772000I820J2360D01*
G37*
G54D10*
X-551200Y-279750D03*
X948800D03*
Y200250D03*
G54D20*
X-329430Y-279400D03*
G54D11*
X-551200Y200250D03*
G54D12*
X-571000Y180450D03*
Y220050D03*
X-579200Y200250D03*
X-551200Y228250D03*
X-531400Y180450D03*
X-523200Y200250D03*
X-531400Y220050D03*
X-551200Y172250D03*
X-450850Y-298450D03*
X-444500Y-234950D03*
X-476250Y-184150D03*
X-450850Y-138970D03*
X-463550D03*
X-476250Y-76200D03*
X-431800D03*
X-476860Y12660D03*
X-432410D03*
X-381000Y-298450D03*
Y-241300D03*
Y-171450D03*
X-361950Y-138970D03*
X-412750D03*
X-400050D03*
X-381000Y-76200D03*
X-381610Y12660D03*
X-298450Y-299650D03*
Y-241300D03*
X-311150Y-138970D03*
X-298450D03*
X-349250D03*
X-298450Y-182950D03*
X-330200Y-76200D03*
X-330810Y12660D03*
X-285750Y-76200D03*
X-286360Y12660D03*
X-163250Y-140000D03*
X-162650Y69850D03*
X-177500Y157510D03*
X-165100Y88740D03*
X-177500Y200750D03*
X-122350Y-234950D03*
X-121750Y-140000D03*
X-118300Y-63700D03*
X-105250Y0D03*
X-148750D03*
X-117950Y69850D03*
X-12700Y-266700D03*
Y-279400D03*
Y-165100D03*
X-46350Y-187450D03*
X-25400Y-120650D03*
X-13000Y13000D03*
Y0D03*
Y-13000D03*
X-59910Y-6760D03*
X-59880Y10770D03*
X-65700Y69850D03*
X-78650Y82550D03*
Y107950D03*
X-47400Y109250D03*
X-40000Y200750D03*
Y159250D03*
X41000Y-292100D03*
X31750Y-196850D03*
X50800D03*
X41000Y-256400D03*
X-6600Y-213200D03*
X51150Y-243000D03*
X0Y-158750D03*
X19050D03*
X0Y-171450D03*
X19050D03*
X50800Y-158750D03*
X31750D03*
X9400Y-133350D03*
X2000Y-59770D03*
X0Y13000D03*
X13000D03*
Y0D03*
X0Y-13000D03*
X13000D03*
X0Y0D03*
X6000Y59850D03*
X69850Y-286950D03*
X107500Y-293250D03*
X63500Y-196850D03*
X107500Y-251750D03*
X120650Y-228600D03*
X66810Y-155450D03*
X121200Y2400D03*
X59850Y0D03*
X91290Y54750D03*
X116800Y40250D03*
X163900Y-292100D03*
X184150Y-177800D03*
X139700Y0D03*
X193000Y-32250D03*
X148450Y51350D03*
X193000Y24750D03*
X157200Y186550D03*
Y169050D03*
X203200Y-213400D03*
X218300Y-230400D03*
X233250Y-247650D03*
X260350Y-133350D03*
X222250D03*
X203200Y-190500D03*
X241300D03*
X234950Y-86200D03*
X260350D03*
X200750Y-68750D03*
X209550Y-87750D03*
X211100Y186550D03*
Y169050D03*
X298450Y-224950D03*
X281810Y-211950D03*
X325550Y-247650D03*
X279400D03*
X298450Y-177800D03*
X279400Y-190500D03*
X290000Y63250D03*
Y21750D03*
X393700Y-285750D03*
X373240Y-224820D03*
X338100D03*
X393700Y-236150D03*
X361950Y-195180D03*
X349250D03*
X419100Y-298450D03*
X469900Y-215900D03*
Y-203200D03*
X419100Y-236150D03*
X495300Y-215900D03*
Y-203200D03*
X480000Y155000D03*
Y198250D03*
X603250Y-215900D03*
Y-203200D03*
X577850Y-215900D03*
Y-203200D03*
X626450Y-133350D03*
X670950Y-92100D03*
Y-73000D03*
X726020Y-133350D03*
X695000Y-110750D03*
Y-69250D03*
X766650Y-260350D03*
X773500Y-209550D03*
X808150Y-260350D03*
X772550Y-73000D03*
Y-92100D03*
G54D30*
X-110350Y-209550D03*
X-92850D03*
Y-234950D03*
X-110350D03*
X-135750Y0D03*
X-118250D03*
X245250Y-247650D03*
X262750D03*
X313550D03*
X296050D03*
G54D21*
X-298450Y-269650D03*
Y-289150D03*
Y-212950D03*
Y-193450D03*
X69850Y-276450D03*
Y-256950D03*
X77500Y35250D03*
Y54750D03*
X180000Y-32250D03*
Y-12750D03*
Y5250D03*
Y24750D03*
X393700Y-225650D03*
Y-206150D03*
X419100Y-225650D03*
Y-206150D03*
X615950Y-79150D03*
Y-98650D03*
X717550Y-79150D03*
Y-98650D03*
G54D13*
X-470670Y-279400D03*
Y-254000D03*
Y-228600D03*
Y-203200D03*
X-329430D03*
Y-228600D03*
Y-254000D03*
G54D22*
X-342900Y136750D03*
X-196850Y-152400D03*
X-95000Y-165000D03*
X228600Y38100D03*
X368300Y-69850D03*
X688800Y-169750D03*
G54D40*
X82150Y-211450D03*
G54D31*
X-93650Y69850D03*
X-27000Y-254000D03*
G54D50*
X673100Y-25400D03*
X774700D03*
G54D41*
X184150Y-211950D03*
Y-194450D03*
X298450Y-211950D03*
Y-194450D03*
G54D14*
X-457200Y-154970D03*
Y-111730D03*
X-406400Y-154970D03*
X-355600D03*
X-406400Y-111730D03*
X-355600D03*
X-304800Y-154970D03*
Y-111730D03*
X-146000Y-287620D03*
Y-244380D03*
X-146050Y-212120D03*
Y-168880D03*
G54D23*
X-268750Y-285750D03*
Y-273050D03*
Y-260350D03*
Y-247650D03*
Y-234950D03*
Y-222250D03*
Y-209550D03*
Y-196850D03*
X-188450Y-260350D03*
Y-273050D03*
Y-196850D03*
Y-209550D03*
Y-222250D03*
Y-234950D03*
Y-247650D03*
G54D32*
X-101600Y196850D03*
X-127000D03*
X-101600Y171450D03*
X-127000D03*
X88900Y196850D03*
X63500D03*
X88900Y171450D03*
X63500D03*
G54D51*
X625820Y152400D03*
X669580D03*
X727420D03*
X771180D03*
G54D15*
X-453420Y-76200D03*
X-410180D03*
X-351820D03*
X-308580D03*
G54D42*
X264300Y-213400D03*
X241300D03*
X218300D03*
G54D24*
X-188450Y-285750D03*
G54D33*
G01X622300Y208350D02*
Y175900D01*
G03X624050Y171670I5980J-3D01*
G02X625820Y167400I-4260J-4268D01*
G01Y152400D01*
G01X673100Y208350D02*
Y175900D01*
G02X671350Y171670I-5980J-3D01*
G03X669580Y167400I4260J-4268D01*
G01Y152400D01*
G01X723900Y208350D02*
Y175900D01*
G03X725650Y171670I5980J-3D01*
G02X727420Y167400I-4260J-4268D01*
G01Y152400D01*
G01X774700Y208350D02*
Y175900D01*
G02X772950Y171670I-5980J-3D01*
G03X771180Y167400I4260J-4268D01*
G01Y152400D01*
X-34600Y-231450D03*
X-45000Y-45000D03*
X45000Y45000D03*
X85400Y-111450D03*
G54D16*
X-457200Y-30550D03*
Y55950D03*
X-355600Y-30550D03*
X-406400D03*
X-355600Y55950D03*
X-406400D03*
X-304800Y-30550D03*
Y55950D03*
G54D43*
X241300Y-154900D03*
G54D25*
X-152700Y-63700D03*
Y-25200D03*
X-101300Y-63700D03*
Y-25200D03*
G54D34*
X-14600Y-228200D03*
Y-114700D03*
X57400Y-228200D03*
X49400D03*
X41400D03*
X33400D03*
X25400D03*
X17400D03*
X9400D03*
X1400D03*
X-6600D03*
Y-114700D03*
X1400D03*
X9400D03*
X17400D03*
X25400D03*
X33400D03*
X41400D03*
X49400D03*
X57400D03*
X65400Y-228200D03*
Y-114700D03*
G54D52*
X673100Y208350D03*
X723900D03*
X774700D03*
G54D53*
G01X-393700Y120650D02*
Y101600D01*
G01X-31350Y-131450D02*
X-27260Y-127360D01*
G03X-25400Y-122870I-4490J4490D01*
G01Y-120650D01*
G01X-31350Y-187450D02*
X-46350D01*
G54D44*
X323850Y-147050D03*
Y-183150D03*
X387350Y-147050D03*
Y-183150D03*
G54D17*
X-431800Y111350D03*
X-355600D03*
X-419100Y136750D03*
X-381000Y111350D03*
X-368300Y136750D03*
X-406400Y111350D03*
X-393700Y136750D03*
X-196850Y-127000D03*
Y-50800D03*
Y-76200D03*
Y-101600D03*
Y0D03*
Y-25400D03*
Y25400D03*
X-95000Y-139600D03*
X254000Y-63500D03*
X228600D03*
X254000Y-38100D03*
X228600D03*
X254000Y-12700D03*
X228600D03*
X254000Y12700D03*
X228600D03*
X254000Y38100D03*
X342900Y-69850D03*
Y6350D03*
Y-19050D03*
Y-44450D03*
Y31750D03*
X368300Y6350D03*
Y-19050D03*
Y-44450D03*
Y31750D03*
X622300Y-25400D03*
Y25400D03*
Y50800D03*
Y76200D03*
X688800Y-144350D03*
X673100Y76200D03*
Y50800D03*
Y25400D03*
X723900Y-25400D03*
Y25400D03*
Y50800D03*
Y76200D03*
X774700D03*
Y50800D03*
Y25400D03*
G54D35*
X-31350Y-211450D03*
Y-203450D03*
Y-195450D03*
Y-187450D03*
Y-179450D03*
Y-171450D03*
Y-163450D03*
Y-155450D03*
Y-147450D03*
Y-139450D03*
Y-131450D03*
X82150Y-195450D03*
Y-203450D03*
Y-131450D03*
Y-139450D03*
Y-147450D03*
Y-155450D03*
Y-163450D03*
Y-171450D03*
Y-179450D03*
Y-187450D03*
G54D26*
X-147650Y69850D03*
Y82550D03*
Y95250D03*
Y107950D03*
X-93650Y82550D03*
Y107950D03*
Y95250D03*
X-27000Y-292100D03*
Y-279400D03*
Y-266700D03*
X27000D03*
Y-279400D03*
Y-292100D03*
Y-254000D03*
G54D54*
G01X-463550Y-138970D02*
Y-151430D01*
G03X-460010Y-154970I3540J0D01*
G01X-457200D01*
G01X-450850Y-138970D02*
Y-151430D01*
G02X-454390Y-154970I-3540J0D01*
G01X-457200D01*
G01Y-30550D02*
Y-51290D01*
G03X-455340Y-55780I6350J0D01*
G01X-454350Y-56770D01*
G02X-453420Y-59020I-2250J-2247D01*
G01Y-76200D01*
G01X-457200Y-111730D02*
Y-82610D01*
G02X-455340Y-78120I6350J0D01*
G01X-453420Y-76200D01*
G01X-393700Y136750D02*
Y120650D01*
G01Y101600D02*
X-412750Y82550D01*
X-438650D01*
X-457200Y64000D01*
Y55950D01*
G01X-400050Y-138970D02*
Y-151430D01*
G02X-403590Y-154970I-3540J0D01*
G01X-406400D01*
G01X-412750Y-138970D02*
Y-151430D01*
G03X-409210Y-154970I3540J0D01*
G01X-406400D01*
G01X-361950Y-138970D02*
Y-151430D01*
G03X-358410Y-154970I3540J0D01*
G01X-355600D01*
G01X-406400Y-30550D02*
Y-51290D01*
G02X-408260Y-55780I-6350J0D01*
G01X-409250Y-56770D01*
G03X-410180Y-59020I2250J-2247D01*
G01Y-76200D01*
G01X-406400Y-111730D02*
Y-82610D01*
G03X-408260Y-78120I-6350J0D01*
G01X-410180Y-76200D01*
G01X-381000Y111350D02*
Y93150D01*
X-406400Y67750D01*
Y55950D01*
G01X-298450Y-289150D02*
Y-299650D01*
G01Y-193450D02*
Y-182950D01*
G01X-349250Y-138970D02*
Y-151430D01*
G02X-352790Y-154970I-3540J0D01*
G01X-355600D01*
G01X-298450Y-138970D02*
Y-151430D01*
G02X-301990Y-154970I-3540J0D01*
G01X-304800D01*
G01X-311150Y-138970D02*
Y-151430D01*
G03X-307610Y-154970I3540J0D01*
G01X-304800D01*
G01Y-30550D02*
Y-51290D01*
G02X-306660Y-55780I-6350J0D01*
G01X-307650Y-56770D01*
G03X-308580Y-59020I2250J-2247D01*
G01Y-76200D01*
G01X-304800Y-111730D02*
Y-82610D01*
G03X-306660Y-78120I-6350J0D01*
G01X-308580Y-76200D01*
G01X-355600Y-30550D02*
Y-51290D01*
G03X-353740Y-55780I6350J0D01*
G01X-352750Y-56770D01*
G02X-351820Y-59020I-2250J-2247D01*
G01Y-76200D01*
G01X-355600Y-111730D02*
Y-82610D01*
G02X-353740Y-78120I6350J0D01*
G01X-351820Y-76200D01*
G01X-342900Y136750D02*
X-325140Y118990D01*
Y88090D01*
X-304800Y67750D01*
Y55950D01*
G01X-355600Y111350D02*
Y55950D01*
G01X-135750Y0D02*
Y-12470D01*
G02X-137610Y-16960I-6350J0D01*
G01X-143990Y-23340D01*
G02X-148480Y-25200I-4490J4490D01*
G01X-152700D01*
G01X-147650Y69850D02*
X-162650D01*
G01X-110350Y-234950D02*
X-122350D01*
G01X-101300Y-63700D02*
X-118300D01*
G01X-118250Y0D02*
X-105250D01*
G01X-135750D02*
X-148750D01*
G01X-93650Y107950D02*
X-78650D01*
G01X-93650Y95250D02*
X-66900D01*
G01X-127000Y171450D02*
Y118730D01*
G03X-125140Y114240I6350J0D01*
G01X-108010Y97110D01*
G03X-103520Y95250I4490J4490D01*
G01X-93650D01*
G01X-127000Y196850D02*
Y171450D01*
G01X-101600Y196850D02*
X-127000D01*
G01X-27000Y-266700D02*
X-12700D01*
G01X-27000Y-279400D02*
X-12700D01*
G01X-31350Y-195450D02*
X-19830D01*
G01X-31350Y-203450D02*
X-19830D01*
G01X-31350Y-211450D02*
X-19830D01*
G01X-31350Y-155450D02*
X-19830D01*
G01X-31350Y-163450D02*
X-19830D01*
G01X-31350Y-171450D02*
X-19830D01*
G01X-34700Y69850D02*
Y140470D01*
G02X-32840Y144960I6350J0D01*
G01X4490Y182290D01*
G02X8980Y184150I4490J-4490D01*
G01X73570D01*
G03X78060Y186010I0J6350D01*
G01X88900Y196850D01*
G01X-54200Y69850D02*
X-65700D01*
G01X-47400Y95250D02*
Y109250D01*
G01X27000Y-292100D02*
X41000D01*
G01X27000Y-254000D02*
X35060D01*
G02X37950Y-255200I0J-4080D01*
G03X40840Y-256400I2890J2880D01*
G01X41000D01*
G01X17400Y-228200D02*
Y-216680D01*
G01X25400Y-228200D02*
Y-216680D01*
G01X-6600Y-228200D02*
Y-213200D01*
G01X49400Y-228200D02*
Y-238780D01*
G03X51150Y-243000I5960J-1D01*
G01X33400Y-126220D02*
Y-114700D01*
G01X25400Y-126220D02*
Y-114700D01*
G01X17400Y-126220D02*
Y-114700D01*
G01X1400Y-126220D02*
Y-114700D01*
G01X-6600Y-126220D02*
Y-114700D01*
G01X9400D02*
Y-133350D01*
G01X69850Y-276450D02*
Y-286950D01*
G01X70630Y-195450D02*
X82150D01*
G01X65400Y-228200D02*
Y-216680D01*
G01X70630Y-139450D02*
X82150D01*
G01X70630Y-131450D02*
X82150D01*
G01X57400Y-126220D02*
Y-114700D01*
G01X82150Y-155450D02*
X66810D01*
G01X77500Y54750D02*
X91290D01*
G01X174400Y-292100D02*
X163900D01*
G01X203200Y-213400D02*
X187650D01*
G02X184150Y-211950I-4J4940D01*
G01Y-194450D02*
Y-184930D01*
G01Y-194450D02*
X194920D01*
G01X180000Y-32250D02*
X193000D01*
G01X180000Y24750D02*
X193000D01*
G01X218300Y-213400D02*
X203200D01*
G01X218300D02*
Y-230400D01*
G01X245250Y-247650D02*
X233250D01*
G01X262750D02*
Y-229450D01*
X264300Y-227900D01*
Y-213400D01*
G01X262750Y-247650D02*
X279400D01*
G01X298450Y-211950D02*
X281810D01*
G01X298450D02*
Y-224950D01*
G01X313550Y-247650D02*
X325550D01*
G01X298450Y-194450D02*
Y-184930D01*
G01X287680Y-194450D02*
X298450D01*
G01X296050Y-247650D02*
X279400D01*
G01X323850Y-147050D02*
Y800D01*
G02X329400Y6350I5550J0D01*
G01X342900D01*
G01X323850Y-183150D02*
X338030D01*
X339600Y-181580D01*
X355600D01*
G01Y-224820D02*
X338100D01*
G01X355600D02*
X373240D01*
G01X349250Y-195180D02*
Y-190560D01*
G02X351110Y-186070I6350J0D01*
G01X355600Y-181580D01*
G01X361950Y-195180D02*
Y-190560D01*
G03X360090Y-186070I-6350J0D01*
G01X355600Y-181580D01*
G01X387350Y-147050D02*
X378280D01*
G02X373790Y-145190I0J6350D01*
G01X370160Y-141560D01*
G02X368300Y-137070I4490J4490D01*
G01Y-123280D01*
G03X366440Y-118790I-6350J0D01*
G01X344760Y-97110D01*
G02X342900Y-92620I4490J4490D01*
G01Y-69850D01*
G01X387350Y-183150D02*
X373170D01*
X371600Y-181580D01*
X355600D01*
G01X342900Y-44450D02*
Y-69850D01*
G01Y31750D02*
Y6350D01*
G01X469900Y-215900D02*
X457200D01*
G02X451350Y-210050I0J5850D01*
G01Y-209550D01*
G01X469900Y-203200D02*
X457200D01*
G03X451350Y-209050I0J-5850D01*
G01Y-209550D01*
G01X495300Y-215900D02*
X508000D01*
G03X513850Y-210050I0J5850D01*
G01Y-209550D01*
G01X495300Y-203200D02*
X508000D01*
G02X513850Y-209050I0J-5850D01*
G01Y-209550D01*
G01X603250Y-215900D02*
X615950D01*
G03X621800Y-210050I0J5850D01*
G01Y-209550D01*
G01X603250Y-203200D02*
X615950D01*
G02X621800Y-209050I0J-5850D01*
G01Y-209550D01*
G01X577850Y-215900D02*
X565150D01*
G02X559300Y-210050I0J5850D01*
G01Y-209550D01*
G01X577850Y-203200D02*
X565150D01*
G03X559300Y-209050I0J-5850D01*
G01Y-209550D01*
G01X637950Y-133350D02*
X626450D01*
G01X658450Y-92100D02*
X670950D01*
G01X658450Y-73000D02*
X670950D01*
G01X622300Y-25400D02*
Y-39870D01*
G03X624160Y-44360I6350J0D01*
G01X635090Y-55290D01*
G02X636950Y-59780I-4490J-4490D01*
G01Y-63500D01*
G01X615950Y-79150D02*
Y-69850D01*
G02X622300Y-63500I6350J0D01*
G01X636950D01*
G01X658450Y-54000D02*
X668450D01*
G03X673100Y-49350I0J4650D01*
G01Y-25400D01*
G01X615950Y-98650D02*
X623620D01*
G02X627170Y-100120I1J-5020D01*
G03X630740Y-101600I3568J3560D01*
G01X636950D01*
G01X622300Y50800D02*
X635800D01*
G03X641350Y56350I0J5550D01*
G01Y118020D01*
G03X639490Y122510I-6350J0D01*
G01X627680Y134320D01*
G02X625820Y138810I4490J4490D01*
G01Y152400D01*
G01X622300Y25400D02*
X647700D01*
G03X654050Y31750I0J6350D01*
G01Y119240D01*
G02X655910Y123730I6350J0D01*
G01X667720Y135540D01*
G03X669580Y140030I-4490J4490D01*
G01Y152400D01*
G01X739550Y-133350D02*
X726020D01*
G01X717550Y-79150D02*
Y-69850D01*
G02X723900Y-63500I6350J0D01*
G01X738550D01*
G01D02*
Y-61730D01*
G03X736690Y-57240I-6350J0D01*
G01X725760Y-46310D01*
G02X723900Y-41820I4490J4490D01*
G01Y-25400D01*
G01X717550Y-98650D02*
X725220D01*
G02X728770Y-100120I1J-5020D01*
G03X732340Y-101600I3568J3560D01*
G01X738550D01*
G01X727420Y152400D02*
Y140030D01*
G03X729280Y135540I6350J0D01*
G01X741090Y123730D01*
G02X742950Y119240I-4490J-4490D01*
G01Y56350D01*
G02X737400Y50800I-5550J0D01*
G01X723900D01*
G01X771180Y152400D02*
Y140030D01*
G02X769320Y135540I-6350J0D01*
G01X757510Y123730D01*
G03X755650Y119240I4490J-4490D01*
G01Y31750D01*
G02X749300Y25400I-6350J0D01*
G01X723900D01*
G01X784000Y-209550D02*
X773500D01*
G01X760050Y-73000D02*
X772550D01*
G01X760050Y-92100D02*
X772550D01*
G01X760050Y-54000D02*
X770050D01*
G03X774700Y-49350I0J4650D01*
G01Y-25400D01*
G54D45*
X355600Y-224820D03*
Y-181580D03*
G54D36*
X0Y0D03*
G54D18*
X-444500Y200250D03*
X-330200D03*
G54D27*
X-152400Y196850D03*
X-76200D03*
Y171450D03*
X38100Y196850D03*
X114300D03*
Y171450D03*
X241300Y165100D03*
X266700D03*
X241300Y241300D03*
X266700D03*
X292100Y165100D03*
X317500D03*
X292100Y241300D03*
X317500D03*
X342900Y165100D03*
X368300D03*
X393700D03*
Y241300D03*
X368300D03*
X342900D03*
X419100Y165100D03*
X850900Y-285750D03*
Y-234950D03*
Y-184150D03*
Y-133350D03*
Y-82550D03*
Y-31750D03*
G54D55*
G01X-470670Y-279400D02*
X-458650D01*
G03X-456150Y-276900I0J2500D01*
G01Y-271700D01*
G02X-453650Y-269200I2500J0D01*
G01X-446270D01*
X-407750Y-230680D01*
Y-198930D01*
X-397970Y-189150D01*
X-340820D01*
X-327700Y-176030D01*
Y-114230D01*
G02X-325200Y-111730I2500J0D01*
G01X-304800D01*
G01X-470670Y-254000D02*
X-458650D01*
G02X-456150Y-256500I0J-2500D01*
G01Y-261700D01*
G03X-453650Y-264200I2500J0D01*
G01X-448350D01*
X-412750Y-228600D01*
Y-196850D01*
X-400050Y-184150D01*
X-342900D01*
X-332700Y-173950D01*
Y-114230D01*
G03X-335200Y-111730I-2500J0D01*
G01X-355600D01*
G01X-470670Y-228600D02*
X-458650D01*
G03X-456150Y-226100I0J2500D01*
G01Y-220900D01*
G02X-453650Y-218400I2500J0D01*
G01X-446270D01*
X-429300Y-201430D01*
Y-114230D01*
G02X-426800Y-111730I2500J0D01*
G01X-406400D01*
G01X-470670Y-203200D02*
X-458650D01*
G02X-456150Y-205700I0J-2500D01*
G01Y-210900D01*
G03X-453650Y-213400I2500J0D01*
G01X-448350D01*
X-434300Y-199350D01*
Y-114230D01*
G03X-436800Y-111730I-2500J0D01*
G01X-457200D01*
G01X-268750Y-285750D02*
X-276770D01*
G02X-281260Y-283890I0J6350D01*
G01X-283890Y-281260D01*
G03X-288380Y-279400I-4490J-4490D01*
G01X-329430D01*
G01X-298450Y-269650D02*
X-287360D01*
G02X-283260Y-271350I2J-5790D01*
G03X-279160Y-273050I4098J4090D01*
G01X-268750D01*
G01Y-196850D02*
X-276770D01*
G03X-281260Y-198710I0J-6350D01*
G01X-283890Y-201340D01*
G02X-288380Y-203200I-4490J4490D01*
G01X-329430D01*
G01X-268750Y-260350D02*
X-276770D01*
G02X-281260Y-258490I0J6350D01*
G01X-283890Y-255860D01*
G03X-288380Y-254000I-4490J-4490D01*
G01X-329430D01*
G01X-298450Y-212950D02*
X-287360D01*
G03X-283260Y-211250I2J5790D01*
G02X-279160Y-209550I4098J-4090D01*
G01X-268750D01*
G01Y-222250D02*
X-276770D01*
G03X-281260Y-224110I0J-6350D01*
G01X-283890Y-226740D01*
G02X-288380Y-228600I-4490J4490D01*
G01X-329430D01*
G01X-188450Y-285750D02*
X-165130D01*
X-163260Y-287620D01*
X-146000D01*
G01X-146050Y-168880D02*
X-150050D01*
X-177800Y-196630D01*
Y-196850D01*
X-188450D01*
G01Y-222250D02*
X-173440D01*
X-163310Y-212120D01*
X-146050D01*
G01X-146000Y-244380D02*
X-148000D01*
X-148700Y-245080D01*
X-150050D01*
X-163460Y-258490D01*
G02X-167950Y-260350I-4490J4490D01*
G01X-188450D01*
G01X-41750Y-30000D02*
X-45870D01*
G03X-50360Y-31860I0J-6350D01*
G01X-55020Y-36520D01*
G03X-56880Y-41010I4490J-4490D01*
G01Y-86000D01*
G02X-58740Y-90490I-6350J0D01*
G01X-74340Y-106090D01*
G02X-78830Y-107950I-4490J4490D01*
G01X-175170D01*
G03X-179660Y-109810I0J-6350D01*
G01X-196850Y-127000D01*
G01X-30000Y-41750D02*
Y-45870D01*
G02X-31860Y-50360I-6350J0D01*
G01X-49220Y-67720D01*
G03X-51080Y-72210I4490J-4490D01*
G01Y-92900D01*
G02X-52940Y-97390I-6350J0D01*
G01X-67990Y-112440D01*
G02X-72480Y-114300I-4490J4490D01*
G01X-156120D01*
G03X-160610Y-116160I0J-6350D01*
G01X-196850Y-152400D01*
G01X-152700Y-25200D02*
X-152900Y-25400D01*
X-165100D01*
G03X-171450Y-31750I0J-6350D01*
G01Y-58210D01*
G03X-165960Y-63700I5490J0D01*
G01X-152700D01*
G01X-41750Y-22000D02*
X-66450D01*
G03X-69850Y-25400I0J-3400D01*
G01Y-73570D01*
G02X-71710Y-78060I-6350J0D01*
G01X-87040Y-93390D01*
G02X-91530Y-95250I-4490J4490D01*
G01X-175170D01*
G02X-179660Y-93390I0J6350D01*
G01X-196850Y-76200D01*
G01X-41750Y-18000D02*
X-69850D01*
G03X-76200Y-24350I0J-6350D01*
G01Y-67220D01*
G02X-78060Y-71710I-6350J0D01*
G01X-93390Y-87040D01*
G02X-97880Y-88900I-4490J4490D01*
G01X-162470D01*
G02X-166960Y-87040I0J6350D01*
G01X-182290Y-71710D01*
G02X-184150Y-67220I4490J4490D01*
G01Y-66130D01*
G03X-186010Y-61640I-6350J0D01*
G01X-196850Y-50800D01*
G01X-41750Y-26000D02*
X-57750D01*
G03X-63500Y-31750I0J-5750D01*
G01Y-79920D01*
G02X-65360Y-84410I-6350J0D01*
G01X-80690Y-99740D01*
G02X-85180Y-101600I-4490J4490D01*
G01X-196850D01*
G01X-41750Y22000D02*
X-51350D01*
G02X-55450Y23700I-2J5790D01*
G03X-59550Y25400I-4098J-4090D01*
G01X-168820D01*
G03X-173310Y23540I0J-6350D01*
G01X-196850Y0D01*
G01X-41750Y18000D02*
X-56100D01*
X-57880Y19780D01*
X-155390D01*
G03X-159880Y17920I0J-6350D01*
G01X-182290Y-4490D01*
G03X-184150Y-8980I4490J-4490D01*
G01Y-10070D01*
G02X-186010Y-14560I-6350J0D01*
G01X-196850Y-25400D01*
G01X-147650Y82550D02*
X-156280D01*
G02X-160770Y84410I0J6350D01*
G01X-165100Y88740D01*
G01X-41750Y26000D02*
X-48770D01*
G02X-53260Y27860I0J6350D01*
G01X-57610Y32210D01*
G03X-62100Y34070I-4490J-4490D01*
G01X-185550D01*
G03X-190040Y32210I0J-6350D01*
G01X-196850Y25400D01*
G01X-147650Y95250D02*
X-155960D01*
G03X-160450Y93390I0J-6350D01*
G01X-165100Y88740D01*
G01X-91850Y-260350D02*
Y-285750D01*
G01X-111350D02*
X-126870D01*
X-128740Y-287620D01*
X-146000D01*
G01X-111350Y-285750D02*
Y-296010D01*
X-102560Y-304800D01*
X44450D01*
X50800Y-298450D01*
Y-285750D01*
X31750Y-266700D01*
G01X-111350Y-260350D02*
G03X-109580Y-264620I6030J-2D01*
G01X-101600Y-272600D01*
Y-292100D01*
X-95250Y-298450D01*
X3040D01*
X17570Y-283920D01*
Y-283830D01*
X22000Y-279400D01*
G01X-91850Y-260350D02*
Y-246460D01*
X-92850Y-245460D01*
Y-234950D01*
G01X-146050Y-212120D02*
X-123390D01*
X-122100Y-210830D01*
G02X-119010Y-209550I3086J-3080D01*
G01X-110350D01*
G01X-111350Y-260350D02*
X-126780D01*
X-142050Y-245080D01*
X-143300D01*
X-144000Y-244380D01*
X-146000D01*
G01X-27000Y-292100D02*
X-41820D01*
G02X-46310Y-290240I0J6350D01*
G01X-67990Y-268560D01*
G02X-69850Y-264070I4490J4490D01*
G01Y-215900D01*
G03X-76200Y-209550I-6350J0D01*
G01X-92850D01*
G01X-27000Y-254000D02*
X-50800D01*
X-57150Y-247650D01*
Y-209550D01*
X-76310Y-190390D01*
X-117910D01*
G02X-122400Y-188530I0J6350D01*
G01X-142050Y-168880D01*
X-146050D01*
G01X-41750Y2000D02*
X-70970D01*
G03X-75460Y140I0J-6350D01*
G01X-100800Y-25200D01*
X-101300D01*
G01X-93650Y82550D02*
X-78650D01*
G01X-41750Y30000D02*
Y32770D01*
G03X-43610Y37260I-6350J0D01*
G01X-61640Y55290D01*
G03X-66130Y57150I-4490J-4490D01*
G01X-67220D01*
G02X-71710Y59010I0J6350D01*
G01X-80690Y67990D01*
G03X-85180Y69850I-4490J-4490D01*
G01X-93650D01*
G01X9400Y-228200D02*
Y-241970D01*
G02X7540Y-246460I-6350J0D01*
G01X1010Y-252990D01*
G03X-850Y-257480I4490J-4490D01*
G01Y-281770D01*
G02X-2710Y-286260I-6350J0D01*
G01X-6690Y-290240D01*
G02X-11180Y-292100I-4490J4490D01*
G01X-27000D01*
G01X1400Y-228200D02*
Y-239900D01*
X-12700Y-254000D01*
X-27000D01*
G01X-26000Y-41750D02*
Y-80520D01*
G02X-27860Y-85010I-6350J0D01*
G01X-61640Y-118790D01*
G03X-63500Y-123280I4490J-4490D01*
G01Y-155930D01*
G03X-61640Y-160420I6350J0D01*
G01X-44470Y-177590D01*
G03X-39980Y-179450I4490J4490D01*
G01X-31350D01*
G01X-18000Y-41750D02*
Y-97920D01*
G02X-19860Y-102410I-6350J0D01*
G01X-42590Y-125140D01*
G03X-44450Y-129630I4490J-4490D01*
G01Y-137610D01*
G03X-42610Y-139450I1840J0D01*
G01X-31350D01*
G01X-22000Y-41750D02*
Y-89220D01*
G02X-23860Y-93710I-6350J0D01*
G01X-48940Y-118790D01*
G03X-50800Y-123280I4490J-4490D01*
G01Y-137070D01*
G03X-48940Y-141560I6350J0D01*
G01X-44910Y-145590D01*
G03X-40420Y-147450I4490J4490D01*
G01X-31350D01*
G01X-14000Y-41750D02*
Y-102840D01*
X-14600Y-103440D01*
Y-114700D01*
G01X-41750Y-2000D02*
X-52520D01*
G03X-57010Y-3860I0J-6350D01*
G01X-59910Y-6760D01*
G01X-41750Y6000D02*
X-52480D01*
G02X-56970Y7860I0J6350D01*
G01X-59880Y10770D01*
G01X-18000Y41750D02*
Y51450D01*
G02X-17200Y52250I800J0D01*
G01X-15200D01*
G02X-14000Y51050I0J-1200D01*
G01Y41750D01*
G01X-13000Y13000D02*
Y17630D01*
G03X-14860Y22120I-6350J0D01*
G01X-16140Y23400D01*
G02X-18000Y27890I4490J4490D01*
G01Y41750D01*
G01X-30000D02*
Y52760D01*
G03X-31860Y57250I-6350J0D01*
G01X-32840Y58230D01*
G02X-34700Y62720I4490J4490D01*
G01Y69850D01*
G01X-22000Y41750D02*
Y96020D01*
G02X-20140Y100510I6350J0D01*
G01X-1860Y118790D01*
G02X2630Y120650I4490J-4490D01*
G01X206920D01*
G03X211410Y122510I0J6350D01*
G01X239440Y150540D01*
G03X241300Y155030I-4490J4490D01*
G01Y165100D01*
G01X31750Y-266700D02*
X44850D01*
X49150Y-262400D01*
Y-252430D01*
X41400Y-244680D01*
Y-228200D01*
G01X31750Y-266700D02*
X27000D01*
G01X33400Y-228200D02*
Y-239460D01*
X29960Y-242900D01*
X20650D01*
X14300Y-249250D01*
Y-271700D01*
X22000Y-279400D01*
G01D02*
X27000D01*
G01X14000Y-41750D02*
Y-77500D01*
G03X19050Y-82550I5050J0D01*
G01X86270D01*
G02X90760Y-84410I0J-6350D01*
G01X99740Y-93390D01*
G02X101600Y-97880I-4490J-4490D01*
G01Y-136630D01*
G02X99740Y-141120I-6350J0D01*
G01X95270Y-145590D01*
G02X90780Y-147450I-4490J4490D01*
G01X82150D01*
G01X26000Y-41750D02*
Y-52510D01*
G03X30640Y-57150I4640J0D01*
G01X98970D01*
G02X103460Y-59010I0J-6350D01*
G01X118790Y-74340D01*
G02X120650Y-78830I-4490J-4490D01*
G01Y-162470D01*
G02X118790Y-166960I-6350J0D01*
G01X108160Y-177590D01*
G02X103670Y-179450I-4490J4490D01*
G01X82150D01*
G01X22000Y-41750D02*
Y-57470D01*
G03X23860Y-61960I6350J0D01*
G01X29890Y-67990D01*
G03X34380Y-69850I4490J4490D01*
G01X98970D01*
G02X103460Y-71710I0J-6350D01*
G01X112440Y-80690D01*
G02X114300Y-85180I-4490J-4490D01*
G01Y-156120D01*
G02X112440Y-160610I-6350J0D01*
G01X103460Y-169590D01*
G02X98970Y-171450I-4490J4490D01*
G01X82150D01*
G01X18000Y-41750D02*
Y-66170D01*
G03X19860Y-70660I6350J0D01*
G01X23540Y-74340D01*
G03X28030Y-76200I4490J4490D01*
G01X92620D01*
G02X97110Y-78060I0J-6350D01*
G01X106090Y-87040D01*
G02X107950Y-91530I-4490J-4490D01*
G01Y-149770D01*
G02X106090Y-154260I-6350J0D01*
G01X98760Y-161590D01*
G02X94270Y-163450I-4490J4490D01*
G01X82150D01*
G01X2000Y-41750D02*
Y-59770D01*
G01X10000Y-41750D02*
Y-86200D01*
G03X12700Y-88900I2700J0D01*
G01X54520D01*
G02X59010Y-90760I0J-6350D01*
G01X63540Y-95290D01*
G02X65400Y-99780I-4490J-4490D01*
G01Y-114700D01*
G01X-10000Y-41750D02*
Y-88970D01*
G03X-8140Y-93460I6350J0D01*
G01X-1860Y-99740D01*
G03X2630Y-101600I4490J4490D01*
G01X39560D01*
G02X41400Y-103440I0J-1840D01*
G01Y-114700D01*
G01X-6000Y-41750D02*
Y-80270D01*
G03X-4140Y-84760I6350J0D01*
G01X4490Y-93390D01*
G03X8980Y-95250I4490J4490D01*
G01X44450D01*
G02X49400Y-100200I0J-4950D01*
G01Y-114700D01*
G01X41750Y10000D02*
X66200D01*
G02X69850Y6350I0J-3650D01*
G01Y-10070D01*
G03X71710Y-14560I6350J0D01*
G01X80690Y-23540D01*
G03X85180Y-25400I4490J4490D01*
G01X130720D01*
G02X135210Y-27260I0J-6350D01*
G01X150540Y-42590D01*
G02X152400Y-47080I-4490J-4490D01*
G01Y-219620D01*
G02X150540Y-224110I-6350J0D01*
G01X138160Y-236490D01*
G03X136300Y-240980I4490J-4490D01*
G01Y-254000D01*
G01X41750Y-2000D02*
X53740D01*
G03X56150Y-1000I2J3400D01*
G02X58560Y0I2408J-2400D01*
G01X59850D01*
G01X41750Y-26000D02*
X54520D01*
G02X59010Y-27860I0J-6350D01*
G01X67390Y-36240D01*
G03X71880Y-38100I4490J4490D01*
G01X118020D01*
G02X122510Y-39960I0J-6350D01*
G01X137840Y-55290D01*
G02X139700Y-59780I-4490J-4490D01*
G01Y-181520D01*
G02X137840Y-186010I-6350J0D01*
G01X114260Y-209590D01*
G02X109770Y-211450I-4490J4490D01*
G01X82150D01*
G01X41750Y-30000D02*
X48170D01*
G02X52660Y-31860I0J-6350D01*
G01X63390Y-42590D01*
G03X67880Y-44450I4490J4490D01*
G01X111670D01*
G02X116160Y-46310I0J-6350D01*
G01X131490Y-61640D01*
G02X133350Y-66130I-4490J-4490D01*
G01Y-175170D01*
G02X131490Y-179660I-6350J0D01*
G01X109560Y-201590D01*
G02X105070Y-203450I-4490J4490D01*
G01X82150D01*
G01X30000Y-41750D02*
X44930D01*
G02X49420Y-43610I0J-6350D01*
G01X54750Y-48940D01*
G03X59240Y-50800I4490J4490D01*
G01X105320D01*
G02X109810Y-52660I0J-6350D01*
G01X125140Y-67990D01*
G02X127000Y-72480I-4490J-4490D01*
G01Y-168820D01*
G02X125140Y-173310I-6350J0D01*
G01X112860Y-185590D01*
G02X108370Y-187450I-4490J4490D01*
G01X82150D01*
G01X41750Y14000D02*
X69850D01*
G02X76200Y7650I0J-6350D01*
G01Y-3720D01*
G03X78060Y-8210I6350J0D01*
G01X87040Y-17190D01*
G03X91530Y-19050I4490J4490D01*
G01X137070D01*
G02X141560Y-20910I0J-6350D01*
G01X156890Y-36240D01*
G02X158750Y-40730I-4490J-4490D01*
G01Y-225970D01*
G02X156890Y-230460I-6350J0D01*
G01X147910Y-239440D01*
G03X146050Y-243930I4490J-4490D01*
G01Y-260350D01*
G03X152400Y-266700I6350J0D01*
G01X174400D01*
G01X41750Y-22000D02*
X63820D01*
G02X68310Y-23860I0J-6350D01*
G01X74340Y-29890D01*
G03X78830Y-31750I4490J4490D01*
G01X124370D01*
G02X128860Y-33610I0J-6350D01*
G01X144190Y-48940D01*
G02X146050Y-53430I-4490J-4490D01*
G01Y-213270D01*
G02X144190Y-217760I-6350J0D01*
G01X122510Y-239440D01*
G03X120650Y-243930I4490J-4490D01*
G01Y-273050D01*
G03X127000Y-279400I6350J0D01*
G01X136300D01*
G01X41750Y18000D02*
X76200D01*
G02X82550Y11650I0J-6350D01*
G01Y2630D01*
G03X84410Y-1860I6350J0D01*
G01X93390Y-10840D01*
G03X97880Y-12700I4490J4490D01*
G01X143420D01*
G02X147910Y-14560I0J-6350D01*
G01X163240Y-29890D01*
G02X165100Y-34380I-4490J-4490D01*
G01Y-226870D01*
G03X166960Y-231360I6350J0D01*
G01X172630Y-237030D01*
G02X174400Y-241300I-4260J-4268D01*
G01X6000Y41750D02*
Y59850D01*
G01X41750Y26000D02*
X92620D01*
G02X97110Y24140I0J-6350D01*
G01X100340Y20910D01*
G03X104830Y19050I4490J4490D01*
G01X149770D01*
G02X154260Y17190I0J-6350D01*
G01X164340Y7110D01*
G03X168830Y5250I4490J4490D01*
G01X180000D01*
G01X41750Y22000D02*
X83320D01*
G02X87810Y20140I0J-6350D01*
G01X93390Y14560D01*
G03X97880Y12700I4490J4490D01*
G01X137070D01*
G02X141560Y10840I0J-6350D01*
G01X163290Y-10890D01*
G03X167780Y-12750I4490J4490D01*
G01X180000D01*
G01X228600Y12700D02*
X239440Y23540D01*
G02X243930Y25400I4490J-4490D01*
G01X266700D01*
G03X273050Y31750I0J6350D01*
G01Y57150D01*
G03X266700Y63500I-6350J0D01*
G01X47080D01*
G03X42590Y61640I0J-6350D01*
G01X31860Y50910D01*
G03X30000Y46420I4490J-4490D01*
G01Y41750D01*
G01X77500Y35250D02*
X69630D01*
G03X65140Y33390I0J-6350D01*
G01X63610Y31860D01*
G02X59120Y30000I-4490J4490D01*
G01X41750D01*
G01X-2000Y41750D02*
Y77920D01*
G02X-140Y82410I6350J0D01*
G01X17190Y99740D01*
G02X21680Y101600I4490J-4490D01*
G01X264070D01*
G03X268560Y103460I0J6350D01*
G01X315640Y150540D01*
G03X317500Y155030I-4490J4490D01*
G01Y165100D01*
G01X14000Y41750D02*
Y81220D01*
G02X15860Y85710I6350J0D01*
G01X23540Y93390D01*
G02X28030Y95250I4490J-4490D01*
G01X283120D01*
G03X287610Y97110I0J6350D01*
G01X341040Y150540D01*
G03X342900Y155030I-4490J4490D01*
G01Y165100D01*
G01X18000Y41750D02*
Y72520D01*
G02X19860Y77010I6350J0D01*
G01X29890Y87040D01*
G02X34380Y88900I4490J-4490D01*
G01X302170D01*
G03X306660Y90760I0J6350D01*
G01X366440Y150540D01*
G03X368300Y155030I-4490J4490D01*
G01Y165100D01*
G01X22000Y41750D02*
Y63820D01*
G02X23860Y68310I6350J0D01*
G01X36240Y80690D01*
G02X40730Y82550I4490J-4490D01*
G01X321220D01*
G03X325710Y84410I0J6350D01*
G01X391840Y150540D01*
G03X393700Y155030I-4490J4490D01*
G01Y165100D01*
G01X26000Y41750D02*
Y55120D01*
G02X27860Y59610I6350J0D01*
G01X42590Y74340D01*
G02X47080Y76200I4490J-4490D01*
G01X340270D01*
G03X344760Y78060I0J6350D01*
G01X417240Y150540D01*
G03X419100Y155030I-4490J4490D01*
G01Y165100D01*
G01X-10000Y41750D02*
Y95320D01*
G02X-8140Y99810I6350J0D01*
G01X4490Y112440D01*
G02X8980Y114300I4490J-4490D01*
G01X225970D01*
G03X230460Y116160I0J6350D01*
G01X264840Y150540D01*
G03X266700Y155030I-4490J4490D01*
G01Y165100D01*
G01X-6000Y41750D02*
Y86620D01*
G02X-4140Y91110I6350J0D01*
G01X10840Y106090D01*
G02X15330Y107950I4490J-4490D01*
G01X245020D01*
G03X249510Y109810I0J6350D01*
G01X290240Y150540D01*
G03X292100Y155030I-4490J4490D01*
G01Y165100D01*
G01X57400Y-228200D02*
Y-232570D01*
G03X59260Y-237060I6350J0D01*
G01X67990Y-245790D01*
G02X69850Y-250280I-4490J-4490D01*
G01Y-256950D01*
G01X77500Y35250D02*
X95630D01*
G02X99850Y33500I1J-5960D01*
G03X104070Y31750I4219J4210D01*
G01X162470D01*
G03X166960Y33610I0J6350D01*
G01X169590Y36240D01*
G02X174080Y38100I4490J-4490D01*
G01X228600D01*
G01X155800Y-279400D02*
X200570D01*
G02X205060Y-281260I0J-6350D01*
G01X207690Y-283890D01*
G03X212180Y-285750I4490J4490D01*
G01X359320D01*
G03X363810Y-283890I0J6350D01*
G01X379140Y-268560D01*
G02X383630Y-266700I4490J-4490D01*
G01X664120D01*
G03X668610Y-264840I0J6350D01*
G01X804590Y-128860D01*
G03X806450Y-124370I-4490J4490D01*
G01Y-104230D01*
G02X808310Y-99740I6350J0D01*
G01X825500Y-82550D01*
G01X193900Y-266700D02*
X200570D01*
G02X205060Y-268560I0J-6350D01*
G01X214040Y-277540D01*
G03X218530Y-279400I4490J4490D01*
G01X352970D01*
G03X357460Y-277540I0J6350D01*
G01X372790Y-262210D01*
G02X377280Y-260350I4490J-4490D01*
G01X657770D01*
G03X662260Y-258490I0J6350D01*
G01X791890Y-128860D01*
G03X793750Y-124370I-4490J4490D01*
G01Y-66130D01*
G02X795610Y-61640I6350J0D01*
G01X825500Y-31750D01*
G01X193900Y-292100D02*
X365670D01*
G03X370160Y-290240I0J6350D01*
G01X385490Y-274910D01*
G02X389980Y-273050I4490J-4490D01*
G01X676820D01*
G03X681310Y-271190I0J6350D01*
G01X817290Y-135210D01*
G02X821780Y-133350I4490J-4490D01*
G01X825500D01*
G01X193900Y-241300D02*
X200570D01*
G02X205060Y-243160I0J-6350D01*
G01X226740Y-264840D01*
G03X231230Y-266700I4490J4490D01*
G01X340270D01*
G03X344760Y-264840I0J6350D01*
G01X360090Y-249510D01*
G02X364580Y-247650I4490J-4490D01*
G01X635770D01*
G03X640260Y-245790I0J6350D01*
G01X655590Y-230460D01*
G03X657450Y-225970I-4490J4490D01*
G01Y-133350D01*
G01X155800Y-254000D02*
X200570D01*
G02X205060Y-255860I0J-6350D01*
G01X220390Y-271190D01*
G03X224880Y-273050I4490J4490D01*
G01X346620D01*
G03X351110Y-271190I0J6350D01*
G01X366440Y-255860D01*
G02X370930Y-254000I4490J-4490D01*
G01X646030D01*
G03X650520Y-252140I0J6350D01*
G01X757190Y-145470D01*
G03X759050Y-140980I-4490J4490D01*
G01Y-133350D01*
G01X180000Y5250D02*
X195320D01*
G02X199810Y3390I0J-6350D01*
G01X201340Y1860D01*
G03X205830Y0I4490J4490D01*
G01X266700D01*
G02X273050Y-6350I0J-6350D01*
G01Y-44450D01*
G02X266700Y-50800I-6350J0D01*
G01X243930D01*
G03X239440Y-52660I0J-6350D01*
G01X228600Y-63500D01*
G01Y-12700D02*
X190310D01*
X190260Y-12750D01*
X180000D01*
G01X393700Y-206150D02*
Y-199480D01*
G02X395560Y-194990I6350J0D01*
G01X398190Y-192360D01*
G03X400050Y-187870I-4490J4490D01*
G01Y-171450D01*
G03X393700Y-165100I-6350J0D01*
G01X369930D01*
G02X365440Y-163240I0J6350D01*
G01X351110Y-148910D01*
G03X346620Y-147050I-4490J-4490D01*
G01X323850D01*
G01X825500Y-234950D02*
X745580D01*
G03X741090Y-236810I0J-6350D01*
G01X694010Y-283890D01*
G02X689520Y-285750I-4490J4490D01*
G01X393700D01*
G01Y-225650D02*
Y-236150D01*
G01X419100Y-206150D02*
Y-180730D01*
G03X417240Y-176240I-6350J0D01*
G01X388050Y-147050D01*
X387350D01*
G01X825500Y-285750D02*
X713830D01*
G03X709340Y-287610I0J-6350D01*
G01X700360Y-296590D01*
G02X695870Y-298450I-4490J4490D01*
G01X419100D01*
G01Y-225650D02*
Y-236150D01*
G01X657450Y-133350D02*
Y-123090D01*
X658450Y-122090D01*
Y-111100D01*
G01X803500Y-209550D02*
Y-196080D01*
G02X805360Y-191590I6350J0D01*
G01X810940Y-186010D01*
G02X815430Y-184150I4490J-4490D01*
G01X825500D01*
G01X759050Y-133350D02*
Y-123090D01*
X760050Y-122090D01*
Y-111100D01*
G54D46*
X451350Y-209550D03*
X513850D03*
X621800D03*
X559300D03*
G54D28*
X-152400Y171450D03*
X38100D03*
X419100Y241300D03*
X825500Y-285750D03*
Y-234950D03*
Y-184150D03*
Y-133350D03*
Y-82550D03*
Y-31750D03*
G54D19*
X-464700Y169750D03*
X-309900D03*
G54D37*
X-14000Y-41750D03*
X-18000D03*
X-22000D03*
X-26000D03*
X-30000D03*
Y41750D03*
X-26000D03*
X-22000D03*
X-18000D03*
X-14000D03*
X30000Y-41750D03*
X26000D03*
X22000D03*
X18000D03*
X14000D03*
X10000D03*
X6000D03*
X2000D03*
X-2000D03*
X-6000D03*
X-10000D03*
Y41750D03*
X-6000D03*
X-2000D03*
X2000D03*
X6000D03*
X10000D03*
X14000D03*
X18000D03*
X22000D03*
X26000D03*
X30000D03*
G54D47*
X622300Y208350D03*
G54D29*
X-91850Y-285750D03*
X-111350D03*
X-91850Y-260350D03*
X-111350D03*
X-34700Y69850D03*
X-54200D03*
X-47400Y95250D03*
X-66900D03*
X193900Y-292100D03*
X174400D03*
X193900Y-266700D03*
X174400D03*
X155800Y-279400D03*
X136300D03*
X155800Y-254000D03*
X136300D03*
X193900Y-241300D03*
X174400D03*
X657450Y-133350D03*
X637950D03*
X739550D03*
X784000Y-209550D03*
X803500D03*
X759050Y-133350D03*
G54D38*
X-41750Y-30000D03*
Y-26000D03*
Y-22000D03*
Y-18000D03*
Y-14000D03*
Y-10000D03*
Y-6000D03*
Y-2000D03*
Y2000D03*
Y6000D03*
Y10000D03*
Y14000D03*
Y18000D03*
Y22000D03*
Y26000D03*
Y30000D03*
X41750Y14000D03*
Y10000D03*
Y6000D03*
Y2000D03*
Y-2000D03*
Y-6000D03*
Y-10000D03*
Y-14000D03*
Y-18000D03*
Y-22000D03*
Y-26000D03*
Y30000D03*
Y26000D03*
Y22000D03*
Y18000D03*
G54D39*
Y-30000D03*
G54D48*
X636950Y-63500D03*
X658450Y-54000D03*
X636950Y-101600D03*
X658450Y-92100D03*
X738550Y-63500D03*
Y-101600D03*
X760050Y-54000D03*
Y-92100D03*
G54D49*
X658450Y-73000D03*
Y-111100D03*
X760050Y-73000D03*
Y-111100D03*
M02*
