G04 ================== begin FILE IDENTIFICATION RECORD ==================*
G04 Layout Name:  D:/Project/Circuit/AVANT/FIBER-E1/FIBER-E1_01v2/pcb/FIBER-E1_01v2.brd*
G04 Film Name:    TOP*
G04 File Format:  Gerber RS274X*
G04 File Origin:  Cadence Allegro 16.6-2015-S073*
G04 Origin Date:  Tue Nov 13 09:29:43 2018*
G04 *
G04 Layer:  ETCH/TOP*
G04 Layer:  PIN/TOP*
G04 Layer:  VIA CLASS/TOP*
G04 *
G04 Offset:    (0.000 0.000)*
G04 Mirror:    No*
G04 Mode:      Positive*
G04 Rotation:  0*
G04 FullContactRelief:  No*
G04 UndefLineWidth:     0.250*
G04 ================== end FILE IDENTIFICATION RECORD ====================*
%FSLAX34Y34*MOMM*%
%IR0*IPPOS*OFA0.00000B0.00000*MIA0B0*SFA1.00000B1.00000*%
%ADD47O,1.1X.6*%
%ADD13C,1.*%
%ADD36O,.25X1.6*%
%ADD27O,1.6X.6*%
%ADD46C,2.1*%
%ADD37O,1.6X.25*%
%ADD32C,1.3*%
%ADD33O,.55X1.6*%
%ADD31R,1.6X.6*%
%ADD20C,2.3*%
%ADD38R,1.6X.25*%
%ADD34O,1.6X.55*%
%ADD28C,1.5*%
%ADD10C,6.*%
%ADD19C,3.4*%
%ADD18C,1.7*%
%ADD39R,1.6X.55*%
%ADD11C,7.2*%
%ADD49R,2.1X2.1*%
%ADD42R,1.02X.88*%
%ADD24O,1.91X.74*%
%ADD29R,1.5X1.5*%
%ADD25R,1.91X.74*%
%ADD23R,1.7X1.7*%
%AMMACRO35*
4,1,5,2.25,-1.75,
1.75,-2.25,
-2.25,-2.25,
-2.25,2.25,
2.25,2.25,
2.25,-1.75,
0.0*
%
%ADD35MACRO35*%
%ADD22R,1.4X1.*%
%ADD30R,1.X1.4*%
%ADD40R,1.5X2.*%
%ADD14O,1.8X1.*%
%ADD21R,1.8X1.*%
%ADD26R,2.X1.9*%
%ADD15R,2.8X2.*%
%ADD41R,3.8X2.*%
%ADD16R,2.X2.8*%
%ADD43R,2.3X1.8*%
%ADD48R,1.7X1.7*%
%ADD44R,2.4X2.45*%
%ADD45R,2.16X2.26*%
%ADD17R,3.43X3.25*%
%ADD12C,.8*%
%ADD50C,.4*%
%ADD51C,.5*%
%ADD52C,.25*%
G75*
%LPD*%
G75*
G36*
G01X-460490Y-278520D02*
G02X-463140Y-275870I1855J4505D01*
G01X-470980Y-279400D01*
X-463140Y-282930D01*
G02X-460490Y-280280I4505J-1855D01*
G03Y-278520I-880J880D01*
G37*
G36*
G01Y-227720D02*
G02X-463140Y-225070I1855J4505D01*
G01X-470980Y-228600D01*
X-463140Y-232130D01*
G02X-460490Y-229480I4505J-1855D01*
G03Y-227720I-880J880D01*
G37*
G36*
G01Y-202320D02*
G02X-463140Y-199670I1855J4505D01*
G01X-470980Y-203200D01*
X-463140Y-206730D01*
G02X-460490Y-204080I4505J-1855D01*
G03Y-202320I-880J880D01*
G37*
G36*
G01Y-253120D02*
G02X-463140Y-250470I1855J4505D01*
G01X-470980Y-254000D01*
X-463140Y-257530D01*
G02X-460490Y-254880I4505J-1855D01*
G03Y-253120I-880J880D01*
G37*
G36*
G01X-391930Y126490D02*
G02X-387700Y130750I7188J-2908D01*
G01X-393700Y137380D01*
X-399700Y130750D01*
G02X-395470Y126490I-2958J-7168D01*
G03X-391930I1770J1770D01*
G37*
G36*
G01X-379230Y101090D02*
G02X-375000Y105350I7188J-2908D01*
G01X-381000Y111980D01*
X-387000Y105350D01*
G02X-382770Y101090I-2958J-7168D01*
G03X-379230I1770J1770D01*
G37*
G36*
G01X-315690Y-278650D02*
G02X-320430Y-274400I2806J7898D01*
G01X-329740Y-279400D01*
X-320430Y-284400D01*
G02X-315690Y-280150I7546J-3648D01*
G03Y-278650I-1000J750D01*
G37*
G36*
G01X-297100Y-300990D02*
G02X-291450Y-294400I11152J-3844D01*
G01X-298450Y-288780D01*
X-305450Y-294400D01*
G02X-299800Y-300990I-5502J-10434D01*
G03X-297100I1350J2100D01*
G37*
G36*
G01X-286710Y-268650D02*
G02X-291450Y-264400I2806J7898D01*
G01X-298760Y-269400D01*
X-291450Y-274400D01*
G02X-286710Y-270150I7546J-3648D01*
G03Y-268650I-1000J750D01*
G37*
G36*
G01X-319250Y-202320D02*
G02X-321900Y-199670I1855J4505D01*
G01X-329740Y-203200D01*
X-321900Y-206730D01*
G02X-319250Y-204080I4505J-1855D01*
G03Y-202320I-880J880D01*
G37*
G36*
G01Y-253120D02*
G02X-321900Y-250470I1855J4505D01*
G01X-329740Y-254000D01*
X-321900Y-257530D01*
G02X-319250Y-254880I4505J-1855D01*
G03Y-253120I-880J880D01*
G37*
G36*
G01X-288220Y-212600D02*
G02X-291470Y-209290I2501J5706D01*
G01X-298760Y-213200D01*
X-291470Y-217110D01*
G02X-288220Y-213800I5751J-2396D01*
G03Y-212600I-1090J600D01*
G37*
G36*
G01X-319250Y-227720D02*
G02X-321900Y-225070I1855J4505D01*
G01X-329740Y-228600D01*
X-321900Y-232130D01*
G02X-319250Y-229480I4505J-1855D01*
G03Y-227720I-880J880D01*
G37*
G36*
G01X-299800Y-181610D02*
G02X-305450Y-188200I-11152J3844D01*
G01X-298450Y-193820D01*
X-291450Y-188200D01*
G02X-297100Y-181610I5502J10434D01*
G03X-299800I-1350J-2100D01*
G37*
G36*
G01X-353830Y101090D02*
G02X-349600Y105350I7188J-2908D01*
G01X-355600Y111980D01*
X-361600Y105350D01*
G02X-357370Y101090I-2958J-7168D01*
G03X-353830I1770J1770D01*
G37*
G36*
G01X-280510Y-285870D02*
G02X-277980Y-287230I-530J-4018D01*
G01X-268440Y-285770D01*
X-277500Y-283480D01*
G02X-280300Y-284180I-2334J3385D01*
G03X-280510Y-285870I808J-958D01*
G37*
G36*
G01X-280300Y-198420D02*
G02X-277500Y-199120I466J-4085D01*
G01X-268440Y-196830D01*
X-277980Y-195370D01*
G02X-280510Y-196730I-3060J2658D01*
G03X-280300Y-198420I1018J-732D01*
G37*
G36*
G01X-280510Y-260470D02*
G02X-277980Y-261830I-530J-4018D01*
G01X-268440Y-260370D01*
X-277500Y-258080D01*
G02X-280300Y-258780I-2334J3385D01*
G03X-280510Y-260470I808J-958D01*
G37*
G36*
G01X-280300Y-223820D02*
G02X-277500Y-224520I466J-4085D01*
G01X-268440Y-222230D01*
X-277980Y-220770D01*
G02X-280510Y-222130I-3060J2658D01*
G03X-280300Y-223820I1018J-732D01*
G37*
G36*
G01X-175420Y-285060D02*
G02X-178900Y-282050I2026J5859D01*
G01X-188760Y-285750D01*
X-178900Y-289450D01*
G02X-175420Y-286440I5506J-2849D01*
G03Y-285060I-1040J690D01*
G37*
G36*
G01X-189600Y-118500D02*
G02X-196850I-3625J8765D01*
G01X-197070Y-127220D01*
X-188350Y-127000D01*
G02Y-119750I8635J3625D01*
G03X-189600Y-118500I-1250J0D01*
G37*
G36*
G01X-167010Y-64380D02*
G02X-162690Y-68730I-3194J-7492D01*
G01X-152390Y-63700D01*
X-162690Y-58670D01*
G02X-167010Y-63020I-7514J3142D01*
G03Y-64380I1050J-680D01*
G37*
G36*
G01X-188350Y-83450D02*
G02Y-76200I8635J3625D01*
G01X-197070Y-75980D01*
X-196850Y-84700D01*
G02X-189600I3625J-8765D01*
G03X-188350Y-83450I0J1250D01*
G37*
G36*
G01Y-58050D02*
G02Y-50800I8635J3625D01*
G01X-197070Y-50580D01*
X-196850Y-59300D01*
G02X-189600I3625J-8765D01*
G03X-188350Y-58050I0J1250D01*
G37*
G36*
G01X-185720Y-100720D02*
G02X-190840Y-95600I3610J8730D01*
G01X-197160Y-101600D01*
X-190840Y-107600D01*
G02X-185720Y-102480I8730J-3610D01*
G03Y-100720I-880J880D01*
G37*
G36*
G01X-166170Y-26050D02*
G02X-162650Y-29450I-2474J-6084D01*
G01X-152390Y-25190D01*
X-162690Y-21230D01*
G02X-166180Y-24770I-6164J2587D01*
G03X-166170Y-26050I1080J-632D01*
G37*
G36*
G01X-189600Y8500D02*
G02X-196850I-3625J8765D01*
G01X-197070Y-220D01*
X-188350Y0D01*
G02Y7250I8635J3625D01*
G03X-189600Y8500I-1250J0D01*
G37*
G36*
G01Y-16900D02*
G02X-196850I-3625J8765D01*
G01X-197070Y-25620D01*
X-188350Y-25400D01*
G02Y-18150I8635J3625D01*
G03X-189600Y-16900I-1250J0D01*
G37*
G36*
G01X-190040Y33460D02*
G02X-196410Y33450I-3197J7665D01*
G01X-197070Y25180D01*
X-188800Y25840D01*
G02X-188790Y32210I7675J3173D01*
G03X-190040Y33460I-1250J0D01*
G37*
G36*
G01X-161100Y85990D02*
G02Y88740I3236J1375D01*
G01X-165320Y88960D01*
X-165100Y84740D01*
G02X-162350I1375J-3236D01*
G03X-161100Y85990I0J1250D01*
G37*
G36*
G01X-162350Y92740D02*
G02X-165100I-1375J3236D01*
G01X-165320Y88520D01*
X-161100Y88740D01*
G02Y91490I3236J1375D01*
G03X-162350Y92740I-1250J0D01*
G37*
G36*
G01X-84240Y-284510D02*
G02X-86610Y-278750I5819J5762D01*
G01X-91910Y-285800D01*
X-86610Y-292750D01*
G02X-84230Y-284910I10743J1020D01*
G03X-84240Y-284510I-1239J169D01*
G37*
G36*
G01X-110610Y-297020D02*
G02X-106730Y-292610I7330J-2537D01*
G01X-111610Y-285440D01*
X-116380Y-292730D01*
G02X-112030Y-297060I-3128J-7493D01*
G03X-110610Y-297020I681J1049D01*
G37*
G36*
G01X-122610Y-286490D02*
G02X-116600Y-292530I-4365J-10354D01*
G01X-111290Y-285750D01*
X-116600Y-278970D01*
G02X-122610Y-285010I-10375J4314D01*
G03Y-286490I1010J-740D01*
G37*
G36*
G01Y-261090D02*
G02X-116600Y-267130I-4365J-10354D01*
G01X-111290Y-260350D01*
X-116600Y-253570D01*
G02X-122610Y-259610I-10375J4314D01*
G03Y-261090I1010J-740D01*
G37*
G36*
G01X-123190Y-236300D02*
G02X-116600Y-241950I-3844J-11152D01*
G01X-110980Y-234950D01*
X-116600Y-227950D01*
G02X-123190Y-233600I-10434J5502D01*
G03Y-236300I2100J-1350D01*
G37*
G36*
G01X-84230Y-235790D02*
G02X-86610Y-227950I8363J6820D01*
G01X-91910Y-234900D01*
X-86610Y-241950D01*
G02X-84240Y-236190I8189J-2D01*
G03X-84230Y-235790I-1229J231D01*
G37*
G36*
G01X-120090Y-210180D02*
G02X-116590Y-213730I-2626J-6089D01*
G01X-111290Y-209550D01*
X-116590Y-205370D01*
G02X-120090Y-208920I-6126J2539D01*
G03Y-210180I1080J-630D01*
G37*
G36*
G01X-80590Y-208810D02*
G02X-86600Y-202770I4365J10354D01*
G01X-91910Y-209550D01*
X-86600Y-216330D01*
G02X-80590Y-210290I10375J-4314D01*
G03Y-208810I-1010J740D01*
G37*
G36*
G01X-118460Y-64960D02*
G02X-111300Y-72240I-5479J-12550D01*
G01X-100680Y-63700D01*
X-111300Y-55160D01*
G02X-118460Y-62440I-12639J5270D01*
G03Y-64960I2160J-1260D01*
G37*
G36*
G01X-105410Y1350D02*
G02X-112000Y7000I3844J11152D01*
G01X-117620Y0D01*
X-112000Y-7000D01*
G02X-105410Y-1350I10434J-5502D01*
G03Y1350I-2100J1350D01*
G37*
G36*
G01X-148590Y-1350D02*
G02X-142000Y-7000I-3844J-11152D01*
G01X-136380Y0D01*
X-142000Y7000D01*
G02X-148590Y1350I-10434J5502D01*
G03Y-1350I2100J-1350D01*
G37*
G36*
G01X-133980Y-12510D02*
G02X-132010Y-7000I8277J148D01*
G01X-137070Y620D01*
X-142000Y-7000D01*
G02X-137030Y-12890I-4967J-9233D01*
G03X-133980Y-12510I1281J2149D01*
G37*
G36*
G01X-83960Y70120D02*
G02X-85670Y72100I1822J3302D01*
G01X-93960Y69850D01*
X-85670Y67600D01*
G02X-83960Y69580I3532J-1322D01*
G03Y70120I-1220J270D01*
G37*
G36*
G01X-119570Y198620D02*
G02X-122410Y201440I2003J4858D01*
G01X-127620Y196850D01*
X-122410Y192260D01*
G02X-119570Y195080I4843J-2038D01*
G03Y198620I-1770J1770D01*
G37*
G36*
G01X-125230Y189420D02*
G02X-122410Y192260I4858J-2003D01*
G01X-127000Y197480D01*
X-131590Y192260D01*
G02X-128770Y189420I-2038J-4843D01*
G03X-125230I1770J1770D01*
G37*
G36*
G01X-109030Y195080D02*
G02X-106190Y192260I-2003J-4858D01*
G01X-100980Y196850D01*
X-106190Y201440D01*
G02X-109030Y198620I-4843J2038D01*
G03Y195080I1770J-1770D01*
G37*
G36*
G01X-125230Y164020D02*
G02X-122410Y166860I4858J-2003D01*
G01X-127000Y172080D01*
X-131590Y166860D01*
G02X-128770Y164020I-2038J-4843D01*
G03X-125230I1770J1770D01*
G37*
G36*
G01X-128770Y178880D02*
G02X-131590Y176040I-4858J2003D01*
G01X-127000Y170820D01*
X-122410Y176040D01*
G02X-125230Y178880I2038J4843D01*
G03X-128770I-1770J-1770D01*
G37*
G36*
G01X-1710Y-124200D02*
G03X2110Y-125170I3112J4250D01*
G01X2330Y-125140D01*
X2730Y-125260D01*
X4040Y-126400D01*
G02X4380Y-127150I-661J-752D01*
G01Y-129010D01*
X4280Y-129310D01*
X4180Y-129440D01*
G03X14620I5220J-3910D01*
G01X14520Y-129310D01*
X14420Y-129010D01*
Y-127150D01*
G02X14760Y-126400I1001J-2D01*
G01X16070Y-125260D01*
X16470Y-125140D01*
X16690Y-125170D01*
G03X20510Y-124200I708J5220D01*
G02X21110Y-124010I587J-811D01*
G01X21690D01*
G02X22290Y-124200I13J-1001D01*
G03X28510I3110J4250D01*
G02X29110Y-124010I587J-811D01*
G01X29690D01*
G02X30290Y-124200I13J-1001D01*
G03X36510I3110J4250D01*
G02X37110Y-124010I587J-811D01*
G01X37690D01*
G02X38290Y-124200I13J-1001D01*
G03X44510I3110J4250D01*
G02X45110Y-124010I587J-811D01*
G01X45690D01*
G02X46290Y-124200I13J-1001D01*
G03X52510I3110J4250D01*
G02X53110Y-124010I587J-811D01*
G01X53690D01*
G02X54290Y-124200I13J-1001D01*
G03X60510I3110J4250D01*
G02X61110Y-124010I587J-811D01*
G01X61690D01*
G02X62290Y-124200I13J-1001D01*
G03X67180Y-124910I3114J4250D01*
G01X67410Y-124830D01*
X67890Y-124890D01*
X69430Y-125980D01*
G02X69850Y-126790I-580J-815D01*
G01Y-127000D01*
X70060D01*
G02X70870Y-127420I-5J-1000D01*
G01X71960Y-128960D01*
X72020Y-129440D01*
X71940Y-129670D01*
G03X72650Y-134560I4960J-1776D01*
G02X72840Y-135160I-811J-587D01*
G01Y-135740D01*
G02X72650Y-136340I-1001J-13D01*
G03Y-142560I4250J-3110D01*
G02X72840Y-143160I-811J-587D01*
G01Y-143740D01*
G02X72650Y-144340I-1001J-13D01*
G03X71630Y-147420I4249J-3116D01*
G01Y-147670D01*
X71410Y-148090D01*
X69680Y-149310D01*
X69200Y-149380D01*
X68970Y-149300D01*
G03Y-161600I-2160J-6150D01*
G01X69200Y-161520D01*
X69680Y-161590D01*
X71410Y-162810D01*
X71630Y-163230D01*
Y-163480D01*
G03X72650Y-166560I5269J36D01*
G02X72840Y-167160I-811J-587D01*
G01Y-167740D01*
G02X72650Y-168340I-1001J-13D01*
G03Y-174560I4250J-3110D01*
G02X72840Y-175160I-811J-587D01*
G01Y-175740D01*
G02X72650Y-176340I-1001J-13D01*
G03Y-182560I4250J-3110D01*
G02X72840Y-183160I-811J-587D01*
G01Y-183740D01*
G02X72650Y-184340I-1001J-13D01*
G03Y-190560I4250J-3110D01*
G02X72840Y-191160I-811J-587D01*
G01Y-191740D01*
G02X72650Y-192340I-1001J-13D01*
G03Y-198560I4250J-3110D01*
G02X72840Y-199160I-811J-587D01*
G01Y-199740D01*
G02X72650Y-200340I-1001J-13D01*
G03X71830Y-204900I4249J-3118D01*
G01X71870Y-205040D01*
Y-206180D01*
X71630D01*
Y-214900D01*
G02X70630Y-215900I-1000J0D01*
G01X70430D01*
X69850Y-216480D01*
Y-216620D01*
X67890Y-218010D01*
X67410Y-218070D01*
X67180Y-217990D01*
G03X62290Y-218700I-1776J-4960D01*
G02X61690Y-218890I-587J811D01*
G01X61110D01*
G02X60510Y-218700I-13J1001D01*
G03X54290I-3110J-4250D01*
G02X53690Y-218890I-587J811D01*
G01X53110D01*
G02X52510Y-218700I-13J1001D01*
G03X46290I-3110J-4250D01*
G02X45690Y-218890I-587J811D01*
G01X45110D01*
G02X44510Y-218700I-13J1001D01*
G03X38290I-3110J-4250D01*
G02X37690Y-218890I-587J811D01*
G01X37110D01*
G02X36510Y-218700I-13J1001D01*
G03X30290I-3110J-4250D01*
G02X29690Y-218890I-587J811D01*
G01X29110D01*
G02X28510Y-218700I-13J1001D01*
G03X22290I-3110J-4250D01*
G02X21690Y-218890I-587J811D01*
G01X21110D01*
G02X20510Y-218700I-13J1001D01*
G03X14290I-3110J-4250D01*
G02X13690Y-218890I-587J811D01*
G01X13110D01*
G02X12510Y-218700I-13J1001D01*
G03X6290I-3110J-4250D01*
G02X5690Y-218890I-587J811D01*
G01X5110D01*
G02X4510Y-218700I-13J1001D01*
G03X1510Y-217680I-3118J-4248D01*
G01X1270D01*
X860Y-217460D01*
X-360Y-215790D01*
X-430Y-215330D01*
X-360Y-215100D01*
G03X-12840I-6240J1900D01*
G01X-12770Y-215330D01*
X-12840Y-215790D01*
X-14060Y-217460D01*
X-14470Y-217680D01*
X-14710D01*
G03X-16380Y-217990I114J-5269D01*
G01X-16610Y-218070D01*
X-17090Y-218010D01*
X-18630Y-216920D01*
G02X-19050Y-216110I580J815D01*
G01Y-215900D01*
X-19260D01*
G02X-20070Y-215480I5J1000D01*
G01X-21160Y-213940D01*
X-21220Y-213460D01*
X-21140Y-213230D01*
G03X-21850Y-208340I-4960J1776D01*
G02X-22040Y-207740I811J587D01*
G01Y-207160D01*
G02X-21850Y-206560I1001J13D01*
G03Y-200340I-4250J3110D01*
G02X-22040Y-199740I811J587D01*
G01Y-199160D01*
G02X-21850Y-198560I1001J13D01*
G03Y-192340I-4250J3110D01*
G02X-22040Y-191740I811J587D01*
G01Y-191160D01*
G02X-21850Y-190560I1001J13D01*
G03Y-184340I-4250J3110D01*
G02X-22040Y-183740I811J587D01*
G01Y-183160D01*
G02X-21850Y-182560I1001J13D01*
G03Y-176340I-4250J3110D01*
G02X-22040Y-175740I811J587D01*
G01Y-175160D01*
G02X-21850Y-174560I1001J13D01*
G03Y-168340I-4250J3110D01*
G02X-22040Y-167740I811J587D01*
G01Y-167160D01*
G02X-21850Y-166560I1001J13D01*
G03Y-160340I-4250J3110D01*
G02X-22040Y-159740I811J587D01*
G01Y-159160D01*
G02X-21850Y-158560I1001J13D01*
G03Y-152340I-4250J3110D01*
G02X-22040Y-151740I811J587D01*
G01Y-151160D01*
G02X-21850Y-150560I1001J13D01*
G03Y-144340I-4250J3110D01*
G02X-22040Y-143740I811J587D01*
G01Y-143160D01*
G02X-21850Y-142560I1001J13D01*
G03Y-136340I-4250J3110D01*
G02X-22040Y-135740I811J587D01*
G01Y-135160D01*
G02X-21850Y-134560I1001J13D01*
G03X-21140Y-129670I-4250J3114D01*
G01X-21220Y-129440D01*
X-21160Y-128960D01*
X-20070Y-127420D01*
G02X-19260Y-127000I815J-580D01*
G01X-19050D01*
Y-126790D01*
G02X-18630Y-125980I1000J-5D01*
G01X-17090Y-124890D01*
X-16610Y-124830D01*
X-16380Y-124910D01*
G03X-11490Y-124200I1776J4960D01*
G02X-10890Y-124010I587J-811D01*
G01X-10310D01*
G02X-9710Y-124200I13J-1001D01*
G03X-3490I3110J4250D01*
G02X-2890Y-124010I587J-811D01*
G01X-2310D01*
G02X-1710Y-124200I13J-1001D01*
G37*
G36*
G01X-37820Y-254630D02*
G02X-35000Y-257000I-1604J-4771D01*
G01X-26690Y-254000D01*
X-35000Y-251000D01*
G02X-37820Y-253370I-4424J2401D01*
G03Y-254630I1080J-630D01*
G37*
G36*
G01X-16180Y-253370D02*
G02X-19000Y-251000I1604J4771D01*
G01X-27310Y-254000D01*
X-19000Y-257000D01*
G02X-16180Y-254630I4424J-2401D01*
G03Y-253370I-1080J630D01*
G37*
G36*
G01X-42110Y-186030D02*
G02X-43540Y-184630I953J2403D01*
G01X-46850Y-187450D01*
X-43540Y-190270D01*
G02X-42110Y-188870I2383J-1003D01*
G03Y-186030I-1410J1420D01*
G37*
G36*
G01X-55880Y8020D02*
G02Y10770I3236J1375D01*
G01X-60100Y10990D01*
X-59880Y6770D01*
G02X-57130I1375J-3366D01*
G03X-55880Y8020I0J1250D01*
G37*
G36*
G01X-33920Y60380D02*
G02X-29450Y62860I5316J-4314D01*
G01X-34460Y70160D01*
X-39450Y62860D01*
G02X-34530Y60380I-626J-7362D01*
G03X-33920I305J1210D01*
G37*
G36*
G01X-35560Y81580D02*
G02X-39450Y76850I-8170J2754D01*
G01X-34450Y69220D01*
X-29450Y76850D01*
G02X-33340Y81580I4280J7484D01*
G03X-35560I-1110J-2240D01*
G37*
G36*
G01X-83420Y81660D02*
G02X-81460Y79730I-1362J-3343D01*
G01X-78340Y82550D01*
X-81460Y85370D01*
G02X-83420Y83440I-3322J1413D01*
G03Y81660I880J-890D01*
G37*
G36*
G01X-66040Y68500D02*
G02X-59450Y62850I-3844J-11152D01*
G01X-53820Y69850D01*
X-59450Y76850D01*
G02X-66040Y71200I-10434J5502D01*
G03Y68500I2100J-1350D01*
G37*
G36*
G01X-48260Y106980D02*
G02X-52150Y102250I-8170J2754D01*
G01X-47150Y94620D01*
X-42150Y102250D01*
G02X-46040Y106980I4280J7484D01*
G03X-48260I-1110J-2240D01*
G37*
G36*
G01X-78740Y93900D02*
G02X-72150Y88250I-3844J-11152D01*
G01X-66520Y95250D01*
X-72150Y102250D01*
G02X-78740Y96600I-10434J5502D01*
G03Y93900I2100J-1350D01*
G37*
G36*
G01X1110Y-55000D02*
G02X-820Y-56960I-3343J1362D01*
G01X2000Y-60080D01*
X4820Y-56960D01*
G02X2890Y-55000I1413J3322D01*
G03X1110I-890J-880D01*
G37*
G36*
G01X-4770Y14110D02*
G02X-2810Y12180I-1362J-3343D01*
G01X310Y15000D01*
X-2810Y17820D01*
G02X-4770Y15890I-3322J1413D01*
G03Y14110I880J-890D01*
G37*
G36*
G01X54380Y-2900D02*
G02X56980Y-2780I1467J-3563D01*
G01X60140Y110D01*
X55870Y300D01*
G02X53790Y-1270I-3189J2062D01*
G03X54380Y-2900I1140J-509D01*
G37*
G36*
G01X54230Y-10880D02*
G02X57170Y-13820I-2111J-5051D01*
G01X60310Y-11060D01*
X57680Y-7880D01*
G02X54730Y-8810I-2589J3068D01*
G03X54230Y-10880I383J-1188D01*
G37*
G36*
G01X6890Y55080D02*
G02X8820Y57040I3343J-1362D01*
G01X6000Y60160D01*
X3180Y57040D01*
G02X5110Y55080I-1413J-3322D01*
G03X6890I890J880D01*
G37*
G36*
G01X71200Y-288290D02*
G02X76850Y-281700I11152J-3844D01*
G01X69850Y-276080D01*
X62850Y-281700D01*
G02X68500Y-288290I-5502J-10434D01*
G03X71200I1350J2100D01*
G37*
G36*
G01X92740Y-210850D02*
G02X90150Y-208700I1458J4391D01*
G01X81840Y-211450D01*
X90150Y-214200D01*
G02X92740Y-212050I4048J-2241D01*
G03Y-210850I-1100J600D01*
G37*
G36*
G01X69340Y-249140D02*
G02X66660Y-251710I-4656J2173D01*
G01X69850Y-257010D01*
X73040Y-251710D01*
G02X70360Y-249140I1976J4743D01*
G03X69340I-510J-1140D01*
G37*
G36*
G01X89230Y56110D02*
G02X84500Y60000I2754J8170D01*
G01X76880Y55000D01*
X84500Y50000D01*
G02X89230Y53890I7484J-4280D01*
G03Y56110I-2240J1110D01*
G37*
G36*
G01X68030Y34500D02*
G02X70510Y30000I-4299J-5303D01*
G01X77810Y35010D01*
X70510Y40000D01*
G02X68030Y35120I-7274J626D01*
G03Y34500I1210J-310D01*
G37*
G36*
G01X89240Y35750D02*
G02X84500Y40000I2806J7898D01*
G01X77190Y35000D01*
X84500Y30000D01*
G02X89240Y34250I7546J-3648D01*
G03Y35750I-1000J750D01*
G37*
G36*
G01X84900Y190350D02*
G02X88900I2000J-4800D01*
G01X89340Y197290D01*
X82400Y196850D01*
G02Y192850I-4800J-2000D01*
G03X84900Y190350I2500J0D01*
G37*
G36*
G01X162220Y-294580D02*
G02X169150Y-299100I-2274J-11059D01*
G01X174770Y-292040D01*
X169150Y-285100D01*
G02X162040Y-291660I-11702J5550D01*
G03X162220Y-294580I2111J-1335D01*
G37*
G36*
G01X167050Y-278660D02*
G02X161030Y-272630I4351J10364D01*
G01X155740Y-279400D01*
X161030Y-286170D01*
G02X167050Y-280140I10371J-4334D01*
G03Y-278660I-1000J740D01*
G37*
G36*
G01X201710Y-266190D02*
G02X199130Y-263500I2121J4616D01*
G01X193840Y-266700D01*
X199130Y-269900D01*
G02X201710Y-267210I4701J-1926D01*
G03Y-266190I-1140J510D01*
G37*
G36*
G01X205150Y-291360D02*
G02X199130Y-285330I4351J10364D01*
G01X193840Y-292100D01*
X199130Y-298870D01*
G02X205150Y-292840I10371J-4334D01*
G03Y-291360I-1000J740D01*
G37*
G36*
G01X163150Y-267440D02*
G02X169170Y-273470I-4351J-10364D01*
G01X174460Y-266700D01*
X169170Y-259930D01*
G02X163150Y-265960I-10371J4334D01*
G03Y-267440I1000J-740D01*
G37*
G36*
G01X125980Y-280120D02*
G02X131070Y-285220I-3660J-8742D01*
G01X136360Y-279400D01*
X131070Y-273580D01*
G02X125980Y-278680I-8750J3642D01*
G03Y-280120I1020J-720D01*
G37*
G36*
G01X195880Y-212090D02*
G02X191150Y-208200I2754J8170D01*
G01X183520Y-213200D01*
X191150Y-218200D01*
G02X195880Y-214310I7484J-4280D01*
G03Y-212090I-2240J1110D01*
G37*
G36*
G01X247650Y-215900D02*
G02X234950I-6350J0D01*
G01Y-203200D01*
G03X228600Y-196850I-6350J0D01*
G01X194670D01*
G02X193670Y-195850I0J1000D01*
G01Y-186680D01*
G03X192670Y-185680I-1000J0D01*
G01X178800D01*
G02X177800Y-184680I0J1000D01*
G01Y-177800D01*
G02X184150Y-171450I6350J0D01*
G01X190500D01*
G03X196850Y-165100I0J6350D01*
G01Y-133350D01*
G02X203200Y-127000I6350J0D01*
G01X279400D01*
G02X285750Y-133350I0J-6350D01*
G01Y-165100D01*
G03X292100Y-171450I6350J0D01*
G01X298450D01*
G02X304800Y-177800I0J-6350D01*
G01Y-184680D01*
G02X303800Y-185680I-1000J0D01*
G01X289930D01*
G03X288930Y-186680I0J-1000D01*
G01Y-195850D01*
G02X287930Y-196850I-1000J0D01*
G01X254000D01*
G03X247650Y-203200I0J-6350D01*
G01Y-215900D01*
G37*
G36*
G01X135370Y-242710D02*
G02X131050Y-247000I-7400J3131D01*
G01X136050Y-254310D01*
X141050Y-247000D01*
G02X136730Y-242710I3080J7421D01*
G03X135370I-680J-1050D01*
G37*
G36*
G01X201710Y-240790D02*
G02X199130Y-238100I2121J4616D01*
G01X193840Y-241300D01*
X199130Y-244500D01*
G02X201710Y-241810I4701J-1926D01*
G03Y-240790I-1140J510D01*
G37*
G36*
G01X167050Y-253260D02*
G02X161030Y-247230I4351J10364D01*
G01X155740Y-254000D01*
X161030Y-260770D01*
G02X167050Y-254740I10371J-4334D01*
G03Y-253260I-1000J740D01*
G37*
G36*
G01X189320Y-34630D02*
G02X190630Y-35430I-329J-2011D01*
G01X193620Y-32180D01*
X190180Y-29430D01*
G02X188860Y-30730I-2233J947D01*
G03X189320Y-34630I1769J-1768D01*
G37*
G36*
G01X191730Y-31390D02*
G02X187000Y-27500I2754J8170D01*
G01X179380Y-32500D01*
X187000Y-37500D01*
G02X191730Y-33610I7484J-4280D01*
G03Y-31390I-2240J1110D01*
G37*
G36*
G01X168410Y4270D02*
G02X173000Y0I-2900J-7719D01*
G01X180310Y5000D01*
X173000Y10000D01*
G02X168410Y5730I-7490J3449D01*
G03Y4270I1020J-730D01*
G37*
G36*
G01X191740Y5750D02*
G02X187000Y10000I2806J7898D01*
G01X179690Y5000D01*
X187000Y0D01*
G02X191740Y4250I7546J-3648D01*
G03Y5750I-1000J750D01*
G37*
G36*
G01X168260Y-13250D02*
G02X173000Y-17500I-2806J-7898D01*
G01X180310Y-12500D01*
X173000Y-7500D01*
G02X168260Y-11750I-7546J3648D01*
G03Y-13250I1000J-750D01*
G37*
G36*
G01X191310Y-11820D02*
G02X187000Y-7500I3137J7440D01*
G01X179690Y-12500D01*
X187000Y-17500D01*
G02X191310Y-13180I7447J-3120D01*
G03Y-11820I-1050J680D01*
G37*
G36*
G01X191730Y26110D02*
G02X187000Y30000I2754J8170D01*
G01X179380Y25000D01*
X187000Y20000D01*
G02X191730Y23890I7484J-4280D01*
G03Y26110I-2240J1110D01*
G37*
G36*
G01X204700Y-216810D02*
G02X210810Y-223080I-4809J-10798D01*
G01X218920Y-215650D01*
X210810Y-208220D01*
G02X204700Y-214490I-10919J4528D01*
G03Y-216810I2210J-1160D01*
G37*
G36*
G01X219680Y-232720D02*
G02X225800Y-225650I11872J-4093D01*
G01X218300Y-215020D01*
X210800Y-225650D01*
G02X216920Y-232720I-5752J-11163D01*
G03X219680I1380J2080D01*
G37*
G36*
G01X232410Y-249000D02*
G02X239000Y-254650I-3844J-11152D01*
G01X244620Y-247650D01*
X239000Y-240650D01*
G02X232410Y-246300I-10434J5502D01*
G03Y-249000I2100J-1350D01*
G37*
G36*
G01X265210Y-230230D02*
G02X270100Y-225630I8355J-3982D01*
G01X264300Y-215020D01*
X258500Y-225630D01*
G02X263390Y-230230I-3465J-8582D01*
G03X265210I910J2330D01*
G37*
G36*
G01X275590Y-246300D02*
G02X269000Y-240650I3844J11152D01*
G01X263380Y-247650D01*
X269000Y-254650D01*
G02X275590Y-249000I10434J-5502D01*
G03Y-246300I-2100J1350D01*
G37*
G36*
G01X260980Y-235140D02*
G02X259010Y-240650I-8277J-148D01*
G01X264070Y-248270D01*
X269000Y-240650D01*
G02X264030Y-234760I4967J9233D01*
G03X260980Y-235140I-1281J-2149D01*
G37*
G36*
G01X235850Y-55000D02*
G02X228600I-3625J8765D01*
G01X228380Y-63720D01*
X237100Y-63500D01*
G02Y-56250I8765J3625D01*
G03X235850Y-55000I-1250J0D01*
G37*
G36*
G01X217470Y-13580D02*
G02X222590Y-18700I-3610J-8730D01*
G01X228910Y-12700D01*
X222590Y-6700D01*
G02X217470Y-11820I-8730J3610D01*
G03Y-13580I880J-880D01*
G37*
G36*
G01X235850Y21200D02*
G02X228600I-3625J8765D01*
G01X228380Y12480D01*
X237100Y12700D01*
G02Y19950I8765J3625D01*
G03X235850Y21200I-1250J0D01*
G37*
G36*
G01X214100Y37360D02*
G02X220110Y31330I-4315J-10310D01*
G01X228910Y38100D01*
X220110Y44870D01*
G02X214100Y38840I-10325J4280D01*
G03Y37360I1000J-740D01*
G37*
G36*
G01X242180Y155380D02*
G02X246600Y159800I7540J-3120D01*
G01X241300Y165410D01*
X236000Y159800D01*
G02X240420Y155380I-3120J-7540D01*
G03X242180I880J880D01*
G37*
G36*
G01X267580D02*
G02X272000Y159800I7540J-3120D01*
G01X266700Y165410D01*
X261400Y159800D01*
G02X265820Y155380I-3120J-7540D01*
G03X267580I880J880D01*
G37*
G36*
G01X326390Y-246300D02*
G02X319800Y-240650I3844J11152D01*
G01X314180Y-247650D01*
X319800Y-254650D01*
G02X326390Y-249000I10434J-5502D01*
G03Y-246300I-2100J1350D01*
G37*
G36*
G01X285560Y-213230D02*
G02X291450Y-218200I-3343J-9937D01*
G01X299070Y-213270D01*
X291450Y-208210D01*
G02X285940Y-210180I-5362J6307D01*
G03X285560Y-213230I1769J-1769D01*
G37*
G36*
G01X299800Y-224790D02*
G02X305450Y-218200I11152J-3844D01*
G01X298450Y-212580D01*
X291450Y-218200D01*
G02X297100Y-224790I-5502J-10434D01*
G03X299800I1350J2100D01*
G37*
G36*
G01X283210Y-249000D02*
G02X289800Y-254650I-3844J-11152D01*
G01X295420Y-247650D01*
X289800Y-240650D01*
G02X283210Y-246300I-10434J5502D01*
G03Y-249000I2100J-1350D01*
G37*
G36*
G01X333110Y-146320D02*
G02X328950Y-142650I2432J6950D01*
G01X323540Y-147050D01*
X328950Y-151450D01*
G02X333110Y-147780I6592J-3280D01*
G03Y-146320I-1020J730D01*
G37*
G36*
G01X322720Y-137830D02*
G02X318750Y-142650I-8252J2752D01*
G01X323850Y-147680D01*
X328950Y-142650D01*
G02X324980Y-137830I4282J7572D01*
G03X322720I-1130J-2230D01*
G37*
G36*
G01X333140Y-182160D02*
G02X328950Y-178750I2518J7374D01*
G01X323220Y-183150D01*
X328950Y-187550D01*
G02X333140Y-184140I6708J-3964D01*
G03Y-182160I-2300J990D01*
G37*
G36*
G01X332640Y4580D02*
G02X336900Y350I-2908J-7188D01*
G01X343520Y6350D01*
X336900Y12350D01*
G02X332640Y8120I-7168J2958D01*
G03Y4580I1770J-1770D01*
G37*
G36*
G01X318380Y155380D02*
G02X322800Y159800I7540J-3120D01*
G01X317500Y165410D01*
X312200Y159800D01*
G02X316620Y155380I-3120J-7540D01*
G03X318380I880J880D01*
G37*
G36*
G01X292980D02*
G02X297400Y159800I7540J-3120D01*
G01X292100Y165410D01*
X286800Y159800D01*
G02X291220Y155380I-3120J-7540D01*
G03X292980I880J880D01*
G37*
G36*
G01X398470Y-284860D02*
G02X396510Y-282930I1362J3343D01*
G01X393390Y-285750D01*
X396510Y-288570D01*
G02X398470Y-286640I3322J-1413D01*
G03Y-284860I-880J890D01*
G37*
G36*
G01X374260Y-224960D02*
G02X367100Y-217680I5479J12550D01*
G01X354980Y-226220D01*
X367100Y-234760D01*
G02X374260Y-227480I12639J-5270D01*
G03Y-224960I-2160J1260D01*
G37*
G36*
G01X336940Y-227480D02*
G02X344100Y-234760I-5479J-12550D01*
G01X356220Y-226220D01*
X344100Y-217680D01*
G02X336940Y-224960I-12639J5270D01*
G03Y-227480I2160J-1260D01*
G37*
G36*
G01X392810Y-232230D02*
G02X390880Y-234190I-3343J1362D01*
G01X393700Y-237310D01*
X396520Y-234190D01*
G02X394590Y-232230I1413J3322D01*
G03X392810I-890J-880D01*
G37*
G36*
G01X394440Y-236900D02*
G02X400470Y-230890I10310J-4315D01*
G01X393700Y-225590D01*
X386930Y-230890D01*
G02X392960Y-236900I-4280J-10325D01*
G03X394440I740J1000D01*
G37*
G36*
G01X393190Y-198340D02*
G02X390510Y-200910I-4656J2173D01*
G01X393700Y-206210D01*
X396890Y-200910D01*
G02X394210Y-198340I1976J4743D01*
G03X393190I-510J-1140D01*
G37*
G36*
G01X378060Y-148040D02*
G02X382250Y-151450I-2518J-7374D01*
G01X387980Y-147050D01*
X382250Y-142650D01*
G02X378060Y-146060I-6708J3964D01*
G03Y-148040I2300J-990D01*
G37*
G36*
G01Y-184140D02*
G02X382250Y-187550I-2518J-7374D01*
G01X387980Y-183150D01*
X382250Y-178750D01*
G02X378060Y-182160I-6708J3964D01*
G03Y-184140I2300J-990D01*
G37*
G36*
G01X362370Y-192420D02*
G02X367100Y-189170I6723J-4717D01*
G01X355260Y-179660D01*
X344100Y-189170D01*
G02X361890Y-192450I4926J-23169D01*
G03X362370Y-192420I85J2498D01*
G37*
G36*
G01X349110Y-192450D02*
G02X367100Y-189170I12963J-20122D01*
G01X355950Y-179660D01*
X344100Y-189170D01*
G02X348610Y-192420I-2156J-7746D01*
G03X349110Y-192450I399J2469D01*
G37*
G36*
G01X337560Y-185120D02*
G02X345570Y-188230I89J-11640D01*
G01X356220Y-180070D01*
X344100Y-174610D01*
G02X336940Y-181890I-12639J5270D01*
G03X337560Y-185120I2160J-1260D01*
G37*
G36*
G01X374260Y-181890D02*
G02X367100Y-174610I5479J12550D01*
G01X354980Y-180070D01*
X365630Y-188230D01*
G02X373640Y-185120I7921J-8530D01*
G03X374260Y-181890I-1540J1970D01*
G37*
G36*
G01X344670Y-80110D02*
G02X348900Y-75850I7188J-2908D01*
G01X342900Y-69220D01*
X336900Y-75850D01*
G02X341130Y-80110I-2958J-7168D01*
G03X344670I1770J1770D01*
G37*
G36*
G01X341130Y-59590D02*
G02X336900Y-63850I-7188J2908D01*
G01X342900Y-70480D01*
X348900Y-63850D01*
G02X344670Y-59590I2958J7168D01*
G03X341130I-1770J-1770D01*
G37*
G36*
G01X344670Y-54710D02*
G02X348900Y-50450I7188J-2908D01*
G01X342900Y-43820D01*
X336900Y-50450D01*
G02X341130Y-54710I-2958J-7168D01*
G03X344670I1770J1770D01*
G37*
G36*
G01X341130Y16610D02*
G02X336900Y12350I-7188J2908D01*
G01X342900Y5720D01*
X348900Y12350D01*
G02X344670Y16610I2958J7168D01*
G03X341130I-1770J-1770D01*
G37*
G36*
G01X344670Y21490D02*
G02X348900Y25750I7188J-2908D01*
G01X342900Y32380D01*
X336900Y25750D01*
G02X341130Y21490I-2958J-7168D01*
G03X344670I1770J1770D01*
G37*
G36*
G01X343780Y155380D02*
G02X348200Y159800I7540J-3120D01*
G01X342900Y165410D01*
X337600Y159800D01*
G02X342020Y155380I-3120J-7540D01*
G03X343780I880J880D01*
G37*
G36*
G01X369180D02*
G02X373600Y159800I7540J-3120D01*
G01X368300Y165410D01*
X363000Y159800D01*
G02X367420Y155380I-3120J-7540D01*
G03X369180I880J880D01*
G37*
G36*
G01X394580D02*
G02X399000Y159800I7540J-3120D01*
G01X393700Y165410D01*
X388400Y159800D01*
G02X392820Y155380I-3120J-7540D01*
G03X394580I880J880D01*
G37*
G36*
G01X423870Y-297560D02*
G02X421910Y-295630I1362J3343D01*
G01X418790Y-298450D01*
X421910Y-301270D01*
G02X423870Y-299340I3322J-1413D01*
G03Y-297560I-880J890D01*
G37*
G36*
G01X418360Y-194900D02*
G02X412330Y-200910I-10310J4315D01*
G01X419100Y-206210D01*
X425870Y-200910D01*
G02X419840Y-194900I4280J10325D01*
G03X418360I-740J-1000D01*
G37*
G36*
G01X470510Y-214630D02*
G02X463330Y-207350I5418J12524D01*
G01X450760Y-209330D01*
X461400Y-219920D01*
G02X469600Y-218060I6432J-9349D01*
G03X470510Y-214630I-1248J2167D01*
G37*
G36*
G01X469600Y-201040D02*
G02X461400Y-199180I-1768J11209D01*
G01X450760Y-209770D01*
X463330Y-211750D01*
G02X470510Y-204470I12598J-5244D01*
G03X469600Y-201040I-2158J1263D01*
G37*
G36*
G01X418210Y-232230D02*
G02X416280Y-234190I-3343J1362D01*
G01X419100Y-237310D01*
X421920Y-234190D01*
G02X419990Y-232230I1413J3322D01*
G03X418210I-890J-880D01*
G37*
G36*
G01X419840Y-236900D02*
G02X425870Y-230890I10310J-4315D01*
G01X419100Y-225590D01*
X412330Y-230890D01*
G02X418360Y-236900I-4280J-10325D01*
G03X419840I740J1000D01*
G37*
G36*
G01X419980Y155380D02*
G02X424400Y159800I7540J-3120D01*
G01X419100Y165410D01*
X413800Y159800D01*
G02X418220Y155380I-3120J-7540D01*
G03X419980I880J880D01*
G37*
G36*
G01X495600Y-218060D02*
G02X503800Y-219920I1768J-11209D01*
G01X514440Y-209330D01*
X501870Y-207350D01*
G02X494690Y-214630I-12598J5244D01*
G03X495600Y-218060I2158J-1263D01*
G37*
G36*
G01X494690Y-204470D02*
G02X501870Y-211750I-5418J-12524D01*
G01X514440Y-209770D01*
X503800Y-199180D01*
G02X495600Y-201040I-6432J9349D01*
G03X494690Y-204470I1248J-2167D01*
G37*
G36*
G01X603550Y-218060D02*
G02X611730Y-219920I1734J-11291D01*
G01X622390Y-209330D01*
X609810Y-207360D01*
G02X602640Y-214630I-12565J5222D01*
G03X603550Y-218060I2158J-1263D01*
G37*
G36*
G01X602640Y-204470D02*
G02X609810Y-211740I-5395J-12492D01*
G01X622390Y-209770D01*
X611730Y-199180D01*
G02X603550Y-201040I-6446J9431D01*
G03X602640Y-204470I1248J-2167D01*
G37*
G36*
G01X578460Y-214630D02*
G02X571290Y-207360I5395J12492D01*
G01X558710Y-209330D01*
X569370Y-219920D01*
G02X577550Y-218060I6446J-9431D01*
G03X578460Y-214630I-1248J2167D01*
G37*
G36*
G01X577550Y-201040D02*
G02X569370Y-199180I-1734J11291D01*
G01X558710Y-209770D01*
X571290Y-211740D01*
G02X578460Y-204470I12565J-5222D01*
G03X577550Y-201040I-2158J1263D01*
G37*
G36*
G01X614700Y-67690D02*
G02X608950Y-73900I-10647J4092D01*
G01X615950Y-79520D01*
X622950Y-73900D01*
G02X617200Y-67690I4897J10302D01*
G03X614700I-1250J-2160D01*
G37*
G36*
G01X626110Y-134700D02*
G02X632700Y-140350I-3844J-11152D01*
G01X638320Y-133350D01*
X632700Y-126350D01*
G02X626110Y-132000I-10434J5502D01*
G03Y-134700I2100J-1350D01*
G37*
G36*
G01X658450Y-145090D02*
G02X662700Y-140350I7898J-2806D01*
G01X657700Y-133040D01*
X652700Y-140350D01*
G02X656950Y-145090I-3648J-7546D01*
G03X658450I750J1000D01*
G37*
G36*
G01X656950Y-121610D02*
G02X652700Y-126350I-7898J2806D01*
G01X657700Y-133660D01*
X662700Y-126350D01*
G02X658450Y-121610I3648J7546D01*
G03X656950I-750J-1000D01*
G37*
G36*
G01X629630Y-100510D02*
G02X622950Y-93900I4745J11475D01*
G01X615460Y-98790D01*
X622950Y-103900D01*
G02X628790Y-103420I3535J-7244D01*
G03X629630Y-100510I-839J1818D01*
G37*
G36*
G01X624070Y-35660D02*
G02X628300Y-31400I7188J-2908D01*
G01X622300Y-24780D01*
X616300Y-31400D01*
G02X620530Y-35660I-2958J-7168D01*
G03X624070I1770J1770D01*
G37*
G36*
G01X674370Y-41050D02*
G02X681600Y-33900I12480J-5389D01*
G01X673100Y-24780D01*
X664600Y-33900D01*
G02X671830Y-41050I-5250J-12539D01*
G03X674370I1270J2150D01*
G37*
G36*
G01X632560Y52570D02*
G02X628300Y56800I2908J7188D01*
G01X621680Y50800D01*
X628300Y44800D01*
G02X632560Y49030I7168J-2958D01*
G03Y52570I-1770J1770D01*
G37*
G36*
G01Y27170D02*
G02X628300Y31400I2908J7188D01*
G01X621680Y25400D01*
X628300Y19400D01*
G02X632560Y23630I7168J-2958D01*
G03Y27170I-1770J1770D01*
G37*
G36*
G01X624460Y133940D02*
G02X631740Y141100I12550J-5479D01*
G01X623200Y153020D01*
X614660Y141100D01*
G02X621940Y133940I-5270J-12639D01*
G03X624460I1260J2160D01*
G37*
G36*
G01X673460D02*
G02X680740Y141100I12550J-5479D01*
G01X672200Y153020D01*
X663660Y141100D01*
G02X670940Y133940I-5270J-12639D01*
G03X673460I1260J2160D01*
G37*
G36*
G01X727710Y-134700D02*
G02X734300Y-140350I-3844J-11152D01*
G01X739920Y-133350D01*
X734300Y-126350D01*
G02X727710Y-132000I-10434J5502D01*
G03Y-134700I2100J-1350D01*
G37*
G36*
G01X716300Y-67690D02*
G02X710550Y-73900I-10647J4092D01*
G01X717550Y-79520D01*
X724550Y-73900D01*
G02X718800Y-67690I4897J10302D01*
G03X716300I-1250J-2160D01*
G37*
G36*
G01X731230Y-100510D02*
G02X724550Y-93900I4745J11475D01*
G01X717060Y-98790D01*
X724550Y-103900D01*
G02X730390Y-103420I3535J-7244D01*
G03X731230Y-100510I-839J1818D01*
G37*
G36*
G01X725670Y-35660D02*
G02X729900Y-31400I7188J-2908D01*
G01X723900Y-24780D01*
X717900Y-31400D01*
G02X722130Y-35660I-2958J-7168D01*
G03X725670I1770J1770D01*
G37*
G36*
G01X734160Y52570D02*
G02X729900Y56800I2908J7188D01*
G01X723280Y50800D01*
X729900Y44800D01*
G02X734160Y49030I7168J-2958D01*
G03Y52570I-1770J1770D01*
G37*
G36*
G01Y27170D02*
G02X729900Y31400I2908J7188D01*
G01X723280Y25400D01*
X729900Y19400D01*
G02X734160Y23630I7168J-2958D01*
G03Y27170I-1770J1770D01*
G37*
G36*
G01X726060Y133940D02*
G02X733340Y141100I12550J-5479D01*
G01X724800Y153020D01*
X716260Y141100D01*
G02X723540Y133940I-5270J-12639D01*
G03X726060I1260J2160D01*
G37*
G36*
G01X811990Y-286490D02*
G02X818000Y-292530I-4365J-10354D01*
G01X825810Y-285750D01*
X818000Y-278970D01*
G02X811990Y-285010I-10375J4314D01*
G03Y-286490I1010J-740D01*
G37*
G36*
G01X803000Y-197810D02*
G02X798750Y-202550I-7898J2806D01*
G01X803750Y-209860D01*
X808750Y-202550D01*
G02X804500Y-197810I3648J7546D01*
G03X803000I-750J-1000D01*
G37*
G36*
G01X811990Y-235690D02*
G02X818000Y-241730I-4365J-10354D01*
G01X825810Y-234950D01*
X818000Y-228170D01*
G02X811990Y-234210I-10375J4314D01*
G03Y-235690I1010J-740D01*
G37*
G36*
G01X772160Y-210900D02*
G02X778750Y-216550I-3844J-11152D01*
G01X784380Y-209550D01*
X778750Y-202550D01*
G02X772160Y-208200I-10434J5502D01*
G03Y-210900I2100J-1350D01*
G37*
G36*
G01X811990Y-184890D02*
G02X818000Y-190930I-4365J-10354D01*
G01X825810Y-184150D01*
X818000Y-177370D01*
G02X811990Y-183410I-10375J4314D01*
G03Y-184890I1010J-740D01*
G37*
G36*
G01X816100Y-135300D02*
G02X818010Y-140850I-5850J-5117D01*
G01X825810Y-133280D01*
X818010Y-125850D01*
G02X816090Y-135070I-12109J-2288D01*
G03X816100Y-135300I1249J-61D01*
G37*
G36*
G01X759400Y-141630D02*
G02X761100Y-140230I2876J-1761D01*
G01X759300Y-133040D01*
X757500Y-140230D01*
G02X759200Y-141630I-1176J-3161D01*
G03X759400I100J1250D01*
G37*
G36*
G01X758550Y-121610D02*
G02X754300Y-126350I-7898J2806D01*
G01X759300Y-133660D01*
X764300Y-126350D01*
G02X760050Y-121610I3648J7546D01*
G03X758550I-750J-1000D01*
G37*
G36*
G01X775970Y-41050D02*
G02X783200Y-33900I12480J-5389D01*
G01X774700Y-24780D01*
X766200Y-33900D01*
G02X773430Y-41050I-5250J-12539D01*
G03X775970I1270J2150D01*
G37*
G36*
G01X775060Y133940D02*
G02X782340Y141100I12550J-5479D01*
G01X773800Y153020D01*
X765260Y141100D01*
G02X772540Y133940I-5270J-12639D01*
G03X775060I1260J2160D01*
G37*
G54D10*
X-551200Y-279750D03*
X948800D03*
Y200250D03*
G54D11*
X-551200D03*
G54D20*
X-464700Y169750D03*
X-309900D03*
G54D12*
X-571000Y180450D03*
Y220050D03*
X-579200Y200250D03*
X-551200Y228250D03*
X-531400Y180450D03*
X-523200Y200250D03*
X-531400Y220050D03*
X-551200Y172250D03*
X-450850Y-298450D03*
X-444500Y-234950D03*
X-476250Y-184150D03*
X-450850Y-138970D03*
X-463550D03*
X-476250Y-76200D03*
X-431800D03*
X-476860Y12660D03*
X-432410D03*
X-381000Y-298450D03*
Y-241300D03*
Y-171450D03*
X-361950Y-138970D03*
X-412750D03*
X-400050D03*
X-381000Y-76200D03*
X-381610Y12660D03*
X-298450Y-301000D03*
Y-241300D03*
X-311150Y-138970D03*
X-298450D03*
X-349250D03*
X-298450Y-182000D03*
X-330200Y-76200D03*
X-330810Y12660D03*
X-285750Y-76200D03*
X-286360Y12660D03*
X-163500Y-140000D03*
X-162650Y69850D03*
X-165100Y88740D03*
X-177500Y158000D03*
Y202000D03*
X-123000Y-234950D03*
X-121000Y-140000D03*
X-118300Y-63700D03*
X-105250Y0D03*
X-148750D03*
X-117950Y69850D03*
X-12700Y-266700D03*
Y-279400D03*
Y-165100D03*
X-46350Y-187450D03*
X-25400Y-120650D03*
X-15000Y0D03*
X-59910Y-6760D03*
X-59880Y10770D03*
X-65700Y69850D03*
X-78650Y82550D03*
Y107950D03*
X-40000Y157000D03*
X-47150Y109000D03*
X-40000Y202000D03*
X41000Y-292100D03*
X31750Y-196850D03*
X50800D03*
X41000Y-256400D03*
X-6600Y-213200D03*
X53000Y-245000D03*
X0Y-158750D03*
X19050D03*
X0Y-171450D03*
X19050D03*
X50800Y-158750D03*
X31750D03*
X9400Y-133350D03*
X2000Y-59770D03*
X0Y-15000D03*
X15000Y0D03*
X0Y15000D03*
Y0D03*
X6000Y59850D03*
X69850Y-287700D03*
X107500Y-293500D03*
X63500Y-196850D03*
X107500Y-251000D03*
X120650Y-228600D03*
X66810Y-155450D03*
X121000Y3650D03*
X59850Y0D03*
X60000Y-11000D03*
X91000Y55000D03*
X116800Y40250D03*
X162000Y-293000D03*
X184150Y-177800D03*
X139700Y0D03*
X193000Y-32250D03*
X149700Y52000D03*
X193000Y25000D03*
X157000Y187800D03*
X157200Y169050D03*
X218300Y-233000D03*
X232000Y-247650D03*
X201000Y-213200D03*
X260350Y-133350D03*
X222250D03*
X203200Y-190500D03*
X241300D03*
X234950Y-86200D03*
X260350D03*
X200750Y-68750D03*
X201000Y-86000D03*
X212000Y-89000D03*
X211000Y187800D03*
X211100Y169050D03*
X337000Y-226220D03*
X298450Y-224950D03*
X281810Y-211950D03*
X327000Y-247650D03*
X279400D03*
X298450Y-177800D03*
X279400Y-190500D03*
X290000Y63500D03*
Y19050D03*
X393700Y-285750D03*
X375000Y-226220D03*
X393700Y-237000D03*
X362000Y-196000D03*
X349000D03*
X419100Y-298450D03*
X469900Y-215900D03*
Y-203200D03*
X419100Y-237000D03*
X495300Y-215900D03*
Y-203200D03*
X480000Y155000D03*
Y198500D03*
X603250Y-215900D03*
Y-203200D03*
X577850Y-215900D03*
Y-203200D03*
X626450Y-133350D03*
X670950Y-92100D03*
Y-73000D03*
X726020Y-133350D03*
X695000Y-111000D03*
Y-69000D03*
X766400Y-260350D03*
X772750Y-209550D03*
X808400Y-260350D03*
X772550Y-73000D03*
Y-92100D03*
G54D21*
X-329430Y-279400D03*
G54D30*
X-91600Y-285750D03*
X-111600D03*
X-91600Y-260350D03*
X-111600D03*
X-91600Y-234950D03*
X-111600D03*
Y-209550D03*
X-91600D03*
X-137000Y0D03*
X-117000D03*
X-34450Y69850D03*
X-54450D03*
X-47150Y95250D03*
X-67150D03*
X194150Y-292100D03*
X174150D03*
X194150Y-266700D03*
X174150D03*
X156050Y-279400D03*
X136050D03*
X156050Y-254000D03*
X136050D03*
X194150Y-241300D03*
X174150D03*
X244000Y-247650D03*
X264000D03*
X314800D03*
X294800D03*
X657700Y-133350D03*
X637700D03*
X739300D03*
X783750Y-209550D03*
X803750D03*
X759300Y-133350D03*
G54D40*
X264300Y-215650D03*
X241300D03*
X218300D03*
G54D22*
X-298450Y-269400D03*
Y-289400D03*
Y-213200D03*
Y-193200D03*
X69850Y-276700D03*
Y-256700D03*
X77500Y35000D03*
Y55000D03*
X184150Y-213200D03*
Y-193200D03*
X180000Y-32500D03*
Y-12500D03*
Y5000D03*
Y25000D03*
X298450Y-213200D03*
Y-193200D03*
X393700Y-225900D03*
Y-205900D03*
X419100Y-225900D03*
Y-205900D03*
X615950Y-78900D03*
Y-98900D03*
X717550Y-78900D03*
Y-98900D03*
G54D31*
X-93650Y69850D03*
X-27000Y-254000D03*
G54D13*
G01X623200Y152400D02*
Y189950D01*
X622300Y190850D01*
Y208350D01*
G01X672200Y152400D02*
Y189950D01*
X673100Y190850D01*
Y208350D01*
G01X724800Y152400D02*
Y189950D01*
X723900Y190850D01*
Y208350D01*
G01X773800Y152400D02*
Y189950D01*
X774700Y190850D01*
Y208350D01*
X-500000Y-300000D03*
Y150000D03*
X-34600Y-231450D03*
X-45000Y-45000D03*
X45000Y45000D03*
X85400Y-111450D03*
X880000Y-300000D03*
Y220000D03*
G54D50*
G01X-393700Y120650D02*
Y101600D01*
G01X-31350Y-131450D02*
X-27260Y-127360D01*
G03X-25400Y-122870I-4490J4490D01*
G01Y-120650D01*
G01X-31350Y-187450D02*
X-46350D01*
G01X615950Y-98900D02*
G03X622470Y-101600I6519J6520D01*
G01X636950D01*
G01X717550Y-98900D02*
G03X724070Y-101600I6519J6520D01*
G01X738550D01*
G54D41*
X241300Y-152650D03*
G54D14*
X-470670Y-279400D03*
Y-254000D03*
Y-228600D03*
Y-203200D03*
X-329430D03*
Y-228600D03*
Y-254000D03*
G54D23*
X-342900Y136750D03*
X-196850Y-152400D03*
X-95000Y-165000D03*
X228600Y38100D03*
X368300Y-69850D03*
X688800Y-169750D03*
G54D32*
X-101600Y196850D03*
X-127000D03*
X-101600Y171450D03*
X-127000D03*
X88900Y196850D03*
X63500D03*
X88900Y171450D03*
X63500D03*
G54D51*
G01X-450850Y-138970D02*
Y-151430D01*
G02X-454390Y-154970I-3540J0D01*
G01X-457200D01*
G01D02*
X-460010D01*
G02X-463550Y-151430I0J3540D01*
G01Y-138970D01*
G01X-457200Y-111730D02*
Y-82610D01*
G02X-455340Y-78120I6350J0D01*
G01X-453420Y-76200D01*
G01X-457200Y-30550D02*
Y-51290D01*
G03X-455340Y-55780I6350J0D01*
G01X-454350Y-56770D01*
G02X-453420Y-59020I-2250J-2247D01*
G01Y-76200D01*
G01X-393700Y136750D02*
Y120650D01*
G01Y101600D02*
X-412750Y82550D01*
X-438650D01*
X-457200Y64000D01*
Y55950D01*
G01X-361950Y-138970D02*
Y-151430D01*
G03X-358410Y-154970I3540J0D01*
G01X-355600D01*
G01X-412750Y-138970D02*
Y-151430D01*
G03X-409210Y-154970I3540J0D01*
G01X-406400D01*
G01D02*
X-403590D01*
G03X-400050Y-151430I0J3540D01*
G01Y-138970D01*
G01X-406400Y-111730D02*
Y-82610D01*
G03X-408260Y-78120I-6350J0D01*
G01X-410180Y-76200D01*
G01X-406400Y-30550D02*
Y-51290D01*
G02X-408260Y-55780I-6350J0D01*
G01X-409250Y-56770D01*
G03X-410180Y-59020I2250J-2247D01*
G01Y-76200D01*
G01X-381000Y111350D02*
Y93150D01*
X-406400Y67750D01*
Y55950D01*
G01X-298450Y-289400D02*
Y-301000D01*
G01Y-193200D02*
Y-182000D01*
G01X-355600Y-154970D02*
X-352790D01*
G03X-349250Y-151430I0J3540D01*
G01Y-138970D01*
G01X-311150D02*
Y-151430D01*
G03X-307610Y-154970I3540J0D01*
G01X-304800D01*
G01D02*
X-301990D01*
G03X-298450Y-151430I0J3540D01*
G01Y-138970D01*
G01X-304800Y-111730D02*
Y-82610D01*
G03X-306660Y-78120I-6350J0D01*
G01X-308580Y-76200D01*
G01X-304800Y-30550D02*
Y-51290D01*
G02X-306660Y-55780I-6350J0D01*
G01X-307650Y-56770D01*
G03X-308580Y-59020I2250J-2247D01*
G01Y-76200D01*
G01X-355600Y-111730D02*
Y-82610D01*
G02X-353740Y-78120I6350J0D01*
G01X-351820Y-76200D01*
G01X-355600Y-30550D02*
Y-51290D01*
G03X-353740Y-55780I6350J0D01*
G01X-352750Y-56770D01*
G02X-351820Y-59020I-2250J-2247D01*
G01Y-76200D01*
G01X-342900Y136750D02*
X-325140Y118990D01*
Y88090D01*
X-304800Y67750D01*
Y55950D01*
G01X-355600Y111350D02*
Y55950D01*
G01X-137000Y0D02*
X-135750D01*
Y-12470D01*
G02X-137610Y-16960I-6350J0D01*
G01X-143990Y-23340D01*
G02X-148480Y-25200I-4490J4490D01*
G01X-152700D01*
G01X-147650Y69850D02*
X-162650D01*
G01X-111600Y-234950D02*
X-123000D01*
G01X-101300Y-63700D02*
X-118300D01*
G01X-117000Y0D02*
X-105250D01*
G01X-148750D02*
X-137000D01*
G01X-93650Y107950D02*
X-78650D01*
G01X-67150Y95250D02*
X-93650D01*
G01D02*
X-103520D01*
G02X-108010Y97110I0J6350D01*
G01X-125140Y114240D01*
G02X-127000Y118730I4490J4490D01*
G01Y171450D01*
G01Y196850D02*
Y171450D01*
G01X-101600Y196850D02*
X-127000D01*
G01X-27000Y-266700D02*
X-12700D01*
G01X-27000Y-279400D02*
X-12700D01*
G01X-31350Y-195450D02*
X-19830D01*
G01X-31350Y-203450D02*
X-19830D01*
G01X-31350Y-211450D02*
X-19830D01*
G01X-31350Y-155450D02*
X-19830D01*
G01X-31350Y-163450D02*
X-19830D01*
G01X-31350Y-171450D02*
X-19830D01*
G01X-34450Y69850D02*
Y130550D01*
G02X-25400Y152400I30900J1D01*
G01X4490Y182290D01*
G02X8980Y184150I4490J-4490D01*
G01X73570D01*
G03X78060Y186010I0J6350D01*
G01X88900Y196850D01*
G01X-54450Y69850D02*
X-65700D01*
G01X-47150Y95250D02*
Y109000D01*
G01X27000Y-292100D02*
X41000D01*
G01X27000Y-254000D02*
X35060D01*
G02X37950Y-255200I0J-4080D01*
G03X40840Y-256400I2890J2880D01*
G01X41000D01*
G01X17400Y-228200D02*
Y-216680D01*
G01X25400Y-228200D02*
Y-216680D01*
G01X-6600Y-228200D02*
Y-213200D01*
G01X49400Y-228200D02*
Y-236320D01*
G03X53000Y-245000I12264J0D01*
G01X33400Y-126220D02*
Y-114700D01*
G01X25400Y-126220D02*
Y-114700D01*
G01X17400Y-126220D02*
Y-114700D01*
G01X1400Y-126220D02*
Y-114700D01*
G01X-6600Y-126220D02*
Y-114700D01*
G01X9400D02*
Y-133350D01*
G01X69850Y-276700D02*
Y-287700D01*
G01X70630Y-195450D02*
X82150D01*
G01X65400Y-228200D02*
Y-216680D01*
G01X70630Y-139450D02*
X82150D01*
G01X70630Y-131450D02*
X82150D01*
G01X57400Y-126220D02*
Y-114700D01*
G01X82150Y-155450D02*
X66810D01*
G01X77500Y55000D02*
X91000D01*
G01X174150Y-292100D02*
X173250Y-293000D01*
X162000D01*
G01X184150Y-213200D02*
X201000D01*
G01X184150Y-193200D02*
Y-184680D01*
G01Y-193200D02*
X194670D01*
G01X180000Y-32500D02*
X192750D01*
X193000Y-32250D01*
G01X180000Y25000D02*
X193000D01*
G01X218300Y-215650D02*
Y-233000D01*
G01X244000Y-247650D02*
X232000D01*
G01X201000Y-213200D02*
G03X206910Y-215650I5910J5903D01*
G01X218300D01*
G01X279400Y-247650D02*
X264000D01*
G01D02*
X262750D01*
Y-229450D01*
X264300Y-227900D01*
Y-215650D01*
G01X281810Y-211950D02*
X297200D01*
X298450Y-213200D01*
G01D02*
Y-224950D01*
G01X314800Y-247650D02*
X327000D01*
G01X298450Y-193200D02*
Y-184680D01*
G01X287930Y-193200D02*
X298450D01*
G01X294800Y-247650D02*
X279400D01*
G01X342900Y6350D02*
X329400D01*
G03X323850Y800I0J-5550D01*
G01Y-147050D01*
G01Y-183150D02*
X348430D01*
G03X355600Y-180180I0J10140D01*
G01Y-226220D02*
X337000D01*
G01X355600D02*
X375000D01*
G01X355600Y-180180D02*
X351280Y-184510D01*
G03X349000Y-190000I5487J-5497D01*
G01Y-196000D01*
G01X355600Y-180180D02*
X359580Y-184160D01*
G02X362000Y-190000I-5837J-5840D01*
G01Y-196000D01*
G01X342900Y-69850D02*
Y-92620D01*
G03X344760Y-97110I6350J0D01*
G01X366440Y-118790D01*
G02X368300Y-123280I-4490J-4490D01*
G01Y-137070D01*
G03X370160Y-141560I6350J0D01*
G01X373790Y-145190D01*
G03X378280Y-147050I4490J4490D01*
G01X387350D01*
G01Y-183150D02*
X362770D01*
G02X355600Y-180180I0J10140D01*
G01X342900Y-44450D02*
Y-69850D01*
G01Y31750D02*
Y6350D01*
G01X469900Y-215900D02*
X457200D01*
G02X451350Y-210050I0J5850D01*
G01Y-209550D01*
G01D02*
Y-209050D01*
G02X457200Y-203200I5850J0D01*
G01X469900D01*
G01X495300Y-215900D02*
X508000D01*
G03X513850Y-210050I0J5850D01*
G01Y-209550D01*
G01D02*
Y-209050D01*
G03X508000Y-203200I-5850J0D01*
G01X495300D01*
G01X603250Y-215900D02*
X615950D01*
G03X621800Y-210050I0J5850D01*
G01Y-209550D01*
G01D02*
Y-209050D01*
G03X615950Y-203200I-5850J0D01*
G01X603250D01*
G01X577850Y-215900D02*
X565150D01*
G02X559300Y-210050I0J5850D01*
G01Y-209550D01*
G01D02*
Y-209050D01*
G02X565150Y-203200I5850J0D01*
G01X577850D01*
G01X637700Y-133350D02*
X626450D01*
G01X658450Y-92100D02*
X670950D01*
G01X658450Y-73000D02*
X670950D01*
G01X615950Y-78900D02*
Y-69850D01*
G02X622300Y-63500I6350J0D01*
G01X636950D01*
G01X622300Y-25400D02*
Y-39870D01*
G03X624160Y-44360I6350J0D01*
G01X635090Y-55290D01*
G02X636950Y-59780I-4490J-4490D01*
G01Y-63500D01*
G01X673100Y-25400D02*
Y-49350D01*
G02X668450Y-54000I-4650J0D01*
G01X658450D01*
G01X622300Y50800D02*
X635800D01*
G03X641350Y56350I0J5550D01*
G01Y101600D01*
G01X622300Y25400D02*
X647700D01*
G03X654050Y31750I0J6350D01*
G01Y101600D01*
G01X641350D02*
G03X636860Y112440I-15330J0D01*
G01X628330Y120980D01*
G02X623200Y133350I12367J12377D01*
G01Y152400D01*
G01X654050Y101600D02*
G02X658540Y112450I15350J2D01*
G01X667070Y120980D01*
G03X672200Y133350I-12367J12377D01*
G01Y152400D01*
G01X739300Y-133350D02*
X726020D01*
G01X723900Y-25400D02*
Y-41820D01*
G03X725760Y-46310I6350J0D01*
G01X736690Y-57240D01*
G02X738550Y-61730I-4490J-4490D01*
G01Y-63500D01*
G01X717550Y-78900D02*
Y-69850D01*
G02X723900Y-63500I6350J0D01*
G01X738550D01*
G01X723900Y50800D02*
X737400D01*
G03X742950Y56350I0J5550D01*
G01Y101600D01*
G01X723900Y25400D02*
X749300D01*
G03X755650Y31750I0J6350D01*
G01Y101600D01*
G01X742950D02*
G03X738460Y112440I-15330J0D01*
G01X729930Y120980D01*
G02X724800Y133350I12367J12377D01*
G01Y152400D01*
G01X783750Y-209550D02*
X772750D01*
G01X760050Y-73000D02*
X772550D01*
G01X760050Y-92100D02*
X772550D01*
G01X774700Y-25400D02*
Y-49350D01*
G02X770050Y-54000I-4650J0D01*
G01X760050D01*
G01X755650Y101600D02*
G02X760140Y112440I15330J0D01*
G01X768670Y120980D01*
G03X773800Y133350I-12367J12377D01*
G01Y152400D01*
G54D15*
X-457200Y-154970D03*
Y-111730D03*
X-355600Y-154970D03*
X-406400D03*
X-355600Y-111730D03*
X-406400D03*
X-304800Y-154970D03*
Y-111730D03*
X-146000Y-287620D03*
X-146050Y-212120D03*
X-146000Y-244380D03*
X-146050Y-168880D03*
G54D24*
X-268750Y-285750D03*
Y-273050D03*
Y-260350D03*
Y-247650D03*
Y-234950D03*
Y-222250D03*
Y-209550D03*
Y-196850D03*
X-188450Y-260350D03*
Y-273050D03*
Y-196850D03*
Y-209550D03*
Y-222250D03*
Y-234950D03*
Y-247650D03*
G54D42*
X323850Y-147050D03*
Y-183150D03*
X387350Y-147050D03*
Y-183150D03*
G54D33*
X-14600Y-228200D03*
Y-114700D03*
X57400Y-228200D03*
X49400D03*
X41400D03*
X33400D03*
X25400D03*
X17400D03*
X9400D03*
X1400D03*
X-6600D03*
Y-114700D03*
X1400D03*
X9400D03*
X17400D03*
X25400D03*
X33400D03*
X41400D03*
X49400D03*
X57400D03*
X65400Y-228200D03*
Y-114700D03*
G54D52*
G01X-304800Y-111730D02*
X-325200D01*
G03X-327700Y-114230I0J-2500D01*
G01Y-176030D01*
X-340820Y-189150D01*
X-397970D01*
X-407750Y-198930D01*
Y-230680D01*
X-446270Y-269200D01*
X-453650D01*
G03X-456150Y-271700I0J-2500D01*
G01Y-276900D01*
G02X-458650Y-279400I-2500J0D01*
G01X-470670D01*
G01X-355600Y-111730D02*
X-335200D01*
G02X-332700Y-114230I0J-2500D01*
G01Y-173950D01*
X-342900Y-184150D01*
X-400050D01*
X-412750Y-196850D01*
Y-228600D01*
X-448350Y-264200D01*
X-453650D01*
G02X-456150Y-261700I0J2500D01*
G01Y-256500D01*
G03X-458650Y-254000I-2500J0D01*
G01X-470670D01*
G01X-406400Y-111730D02*
X-426800D01*
G03X-429300Y-114230I0J-2500D01*
G01Y-201430D01*
X-446270Y-218400D01*
X-453650D01*
G03X-456150Y-220900I0J-2500D01*
G01Y-226100D01*
G02X-458650Y-228600I-2500J0D01*
G01X-470670D01*
G01X-457200Y-111730D02*
X-436800D01*
G02X-434300Y-114230I0J-2500D01*
G01Y-199350D01*
X-448350Y-213400D01*
X-453650D01*
G02X-456150Y-210900I0J2500D01*
G01Y-205700D01*
G03X-458650Y-203200I-2500J0D01*
G01X-470670D01*
G01X-329430Y-279400D02*
X-288380D01*
G02X-283890Y-281260I0J-6350D01*
G01X-281260Y-283890D01*
G03X-276770Y-285750I4490J4490D01*
G01X-268750D01*
G01X-298450Y-269400D02*
X-287280D01*
G02X-281000Y-272000I2J-8880D01*
G03X-278470Y-273050I2533J2530D01*
G01X-268750D01*
G01X-329430Y-203200D02*
X-288380D01*
G03X-283890Y-201340I0J6350D01*
G01X-281260Y-198710D01*
G02X-276770Y-196850I4490J-4490D01*
G01X-268750D01*
G01X-329430Y-254000D02*
X-288380D01*
G02X-283890Y-255860I0J-6350D01*
G01X-281260Y-258490D01*
G03X-276770Y-260350I4490J4490D01*
G01X-268750D01*
G01X-298450Y-213200D02*
X-289310D01*
G03X-284000Y-211000I-1J7510D01*
G02X-280500Y-209550I3500J-3500D01*
G01X-268750D01*
G01X-329430Y-228600D02*
X-288380D01*
G03X-283890Y-226740I0J6350D01*
G01X-281260Y-224110D01*
G02X-276770Y-222250I4490J-4490D01*
G01X-268750D01*
G01X-188450Y-285750D02*
X-165130D01*
X-163260Y-287620D01*
X-146000D01*
G01X-146050Y-168880D02*
X-150050D01*
X-177800Y-196630D01*
Y-196850D01*
X-188450D01*
G01Y-222250D02*
X-173440D01*
X-163310Y-212120D01*
X-146050D01*
G01X-188450Y-260350D02*
X-167950D01*
G03X-163460Y-258490I0J6350D01*
G01X-150050Y-245080D01*
X-148700D01*
X-148000Y-244380D01*
X-146000D01*
G01X-41750Y-30000D02*
X-45870D01*
G03X-50360Y-31860I0J-6350D01*
G01X-55020Y-36520D01*
G03X-56880Y-41010I4490J-4490D01*
G01Y-86000D01*
G02X-58740Y-90490I-6350J0D01*
G01X-74340Y-106090D01*
G02X-78830Y-107950I-4490J4490D01*
G01X-175170D01*
G03X-179660Y-109810I0J-6350D01*
G01X-196850Y-127000D01*
G01X-30000Y-41750D02*
Y-45870D01*
G02X-31860Y-50360I-6350J0D01*
G01X-49220Y-67720D01*
G03X-51080Y-72210I4490J-4490D01*
G01Y-92900D01*
G02X-52940Y-97390I-6350J0D01*
G01X-67990Y-112440D01*
G02X-72480Y-114300I-4490J4490D01*
G01X-156120D01*
G03X-160610Y-116160I0J-6350D01*
G01X-196850Y-152400D01*
G01X-152700Y-63700D02*
X-165960D01*
G02X-171450Y-58210I0J5490D01*
G01Y-31750D01*
G02X-165100Y-25400I6350J0D01*
G01X-152900D01*
X-152700Y-25200D01*
G01X-41750Y-22000D02*
X-66450D01*
G03X-69850Y-25400I0J-3400D01*
G01Y-73570D01*
G02X-71710Y-78060I-6350J0D01*
G01X-87040Y-93390D01*
G02X-91530Y-95250I-4490J4490D01*
G01X-175170D01*
G02X-179660Y-93390I0J6350D01*
G01X-196850Y-76200D01*
G01X-41750Y-18000D02*
X-69850D01*
G03X-76200Y-24350I0J-6350D01*
G01Y-67220D01*
G02X-78060Y-71710I-6350J0D01*
G01X-93390Y-87040D01*
G02X-97880Y-88900I-4490J4490D01*
G01X-162470D01*
G02X-166960Y-87040I0J6350D01*
G01X-182290Y-71710D01*
G02X-184150Y-67220I4490J4490D01*
G01Y-66130D01*
G03X-186010Y-61640I-6350J0D01*
G01X-196850Y-50800D01*
G01X-41750Y-26000D02*
X-57750D01*
G03X-63500Y-31750I0J-5750D01*
G01Y-79920D01*
G02X-65360Y-84410I-6350J0D01*
G01X-80690Y-99740D01*
G02X-85180Y-101600I-4490J4490D01*
G01X-196850D01*
G01X-41750Y22000D02*
X-51350D01*
G02X-55450Y23700I-2J5790D01*
G03X-59550Y25400I-4098J-4090D01*
G01X-168820D01*
G03X-173310Y23540I0J-6350D01*
G01X-196850Y0D01*
G01X-41750Y18000D02*
X-56100D01*
X-57880Y19780D01*
X-155390D01*
G03X-159880Y17920I0J-6350D01*
G01X-182290Y-4490D01*
G03X-184150Y-8980I4490J-4490D01*
G01Y-10070D01*
G02X-186010Y-14560I-6350J0D01*
G01X-196850Y-25400D01*
G01X-147650Y82550D02*
X-156280D01*
G02X-160770Y84410I0J6350D01*
G01X-165100Y88740D01*
G01X-41750Y26000D02*
X-48770D01*
G02X-53260Y27860I0J6350D01*
G01X-57610Y32210D01*
G03X-62100Y34070I-4490J-4490D01*
G01X-185550D01*
G03X-190040Y32210I0J-6350D01*
G01X-196850Y25400D01*
G01X-147650Y95250D02*
X-155960D01*
G03X-160450Y93390I0J-6350D01*
G01X-165100Y88740D01*
G01X-91600Y-285750D02*
X-88900D01*
G03X-82550Y-279400I0J6350D01*
G01Y-266700D01*
G03X-88900Y-260350I-6350J0D01*
G01X31750Y-266700D02*
X50800Y-285750D01*
Y-298450D01*
X44450Y-304800D01*
X-102560D01*
G02X-111350Y-296010I0J8790D01*
G01Y-285750D01*
X-111600D01*
G01D02*
X-126870D01*
X-128740Y-287620D01*
X-146000D01*
G01X22000Y-279400D02*
X17570Y-283830D01*
Y-283920D01*
X3040Y-298450D01*
X-95250D01*
G02X-101600Y-292100I0J6350D01*
G01Y-272600D01*
X-109580Y-264620D01*
G02X-111350Y-260350I4260J4268D01*
G01X-111600D01*
G01X-91600D02*
X-88900D01*
G01D02*
G03X-82550Y-254000I0J6350D01*
G01Y-241300D01*
G03X-88900Y-234950I-6350J0D01*
G01X-91600D01*
G01X-146050Y-212120D02*
X-123390D01*
X-122100Y-210830D01*
G02X-119010Y-209550I3086J-3080D01*
G01X-111600D01*
G01Y-260350D02*
X-126780D01*
X-142050Y-245080D01*
X-143300D01*
X-144000Y-244380D01*
X-146000D01*
G01X-91600Y-209550D02*
X-76200D01*
G02X-69850Y-215900I0J-6350D01*
G01Y-264070D01*
G03X-67990Y-268560I6350J0D01*
G01X-46310Y-290240D01*
G03X-41820Y-292100I4490J4490D01*
G01X-27000D01*
G01Y-254000D02*
X-50800D01*
X-57150Y-247650D01*
Y-209550D01*
X-76310Y-190390D01*
X-117910D01*
G02X-122400Y-188530I0J6350D01*
G01X-142050Y-168880D01*
X-146050D01*
G01X-41750Y2000D02*
X-70970D01*
G03X-75460Y140I0J-6350D01*
G01X-100800Y-25200D01*
X-101300D01*
G01X-93650Y82550D02*
X-78650D01*
G01X-41750Y30000D02*
Y32770D01*
G03X-43610Y37260I-6350J0D01*
G01X-61640Y55290D01*
G03X-66130Y57150I-4490J-4490D01*
G01X-67220D01*
G02X-71710Y59010I0J6350D01*
G01X-80690Y67990D01*
G03X-85180Y69850I-4490J-4490D01*
G01X-93650D01*
G01X9400Y-228200D02*
Y-241970D01*
G02X7540Y-246460I-6350J0D01*
G01X1010Y-252990D01*
G03X-850Y-257480I4490J-4490D01*
G01Y-281770D01*
G02X-2710Y-286260I-6350J0D01*
G01X-6690Y-290240D01*
G02X-11180Y-292100I-4490J4490D01*
G01X-27000D01*
G01X1400Y-228200D02*
Y-239900D01*
X-12700Y-254000D01*
X-27000D01*
G01X-26000Y-41750D02*
Y-80520D01*
G02X-27860Y-85010I-6350J0D01*
G01X-61640Y-118790D01*
G03X-63500Y-123280I4490J-4490D01*
G01Y-155930D01*
G03X-61640Y-160420I6350J0D01*
G01X-44470Y-177590D01*
G03X-39980Y-179450I4490J4490D01*
G01X-31350D01*
G01X-18000Y-41750D02*
Y-97920D01*
G02X-19860Y-102410I-6350J0D01*
G01X-42590Y-125140D01*
G03X-44450Y-129630I4490J-4490D01*
G01Y-137610D01*
G03X-42610Y-139450I1840J0D01*
G01X-31350D01*
G01X-22000Y-41750D02*
Y-89220D01*
G02X-23860Y-93710I-6350J0D01*
G01X-48940Y-118790D01*
G03X-50800Y-123280I4490J-4490D01*
G01Y-137070D01*
G03X-48940Y-141560I6350J0D01*
G01X-44910Y-145590D01*
G03X-40420Y-147450I4490J4490D01*
G01X-31350D01*
G01X-14000Y-41750D02*
Y-102840D01*
X-14600Y-103440D01*
Y-114700D01*
G01X-41750Y-2000D02*
X-52520D01*
G03X-57010Y-3860I0J-6350D01*
G01X-59910Y-6760D01*
G01X-41750Y6000D02*
X-52480D01*
G02X-56970Y7860I0J6350D01*
G01X-59880Y10770D01*
G01X0Y15000D02*
X-9000D01*
G02X-18000Y24000I0J9000D01*
G01Y41750D01*
G01X-14000D02*
Y51050D01*
G03X-15200Y52250I-1200J0D01*
G01X-17200D01*
G03X-18000Y51450I0J-800D01*
G01Y41750D01*
G01X-30000D02*
Y52760D01*
G03X-31860Y57250I-6350J0D01*
G02X-34450Y63500I6250J6252D01*
G01Y69850D01*
G01X-22000Y41750D02*
Y96020D01*
G02X-20140Y100510I6350J0D01*
G01X-1860Y118790D01*
G02X2630Y120650I4490J-4490D01*
G01X206920D01*
G03X211410Y122510I0J6350D01*
G01X239440Y150540D01*
G03X241300Y155030I-4490J4490D01*
G01Y165100D01*
G01X41400Y-228200D02*
Y-244680D01*
X49150Y-252430D01*
Y-262400D01*
X44850Y-266700D01*
X31750D01*
G01D02*
X27000D01*
G01X22000Y-279400D02*
X27000D01*
G01X33400Y-228200D02*
Y-239460D01*
X29960Y-242900D01*
X20650D01*
X14300Y-249250D01*
Y-271700D01*
X22000Y-279400D01*
G01X14000Y-41750D02*
Y-77500D01*
G03X19050Y-82550I5050J0D01*
G01X86270D01*
G02X90760Y-84410I0J-6350D01*
G01X99740Y-93390D01*
G02X101600Y-97880I-4490J-4490D01*
G01Y-136630D01*
G02X99740Y-141120I-6350J0D01*
G01X95270Y-145590D01*
G02X90780Y-147450I-4490J4490D01*
G01X82150D01*
G01X26000Y-41750D02*
Y-52510D01*
G03X30640Y-57150I4640J0D01*
G01X98970D01*
G02X103460Y-59010I0J-6350D01*
G01X118790Y-74340D01*
G02X120650Y-78830I-4490J-4490D01*
G01Y-162470D01*
G02X118790Y-166960I-6350J0D01*
G01X108160Y-177590D01*
G02X103670Y-179450I-4490J4490D01*
G01X82150D01*
G01X22000Y-41750D02*
Y-57470D01*
G03X23860Y-61960I6350J0D01*
G01X29890Y-67990D01*
G03X34380Y-69850I4490J4490D01*
G01X98970D01*
G02X103460Y-71710I0J-6350D01*
G01X112440Y-80690D01*
G02X114300Y-85180I-4490J-4490D01*
G01Y-156120D01*
G02X112440Y-160610I-6350J0D01*
G01X103460Y-169590D01*
G02X98970Y-171450I-4490J4490D01*
G01X82150D01*
G01X18000Y-41750D02*
Y-66170D01*
G03X19860Y-70660I6350J0D01*
G01X23540Y-74340D01*
G03X28030Y-76200I4490J4490D01*
G01X92620D01*
G02X97110Y-78060I0J-6350D01*
G01X106090Y-87040D01*
G02X107950Y-91530I-4490J-4490D01*
G01Y-149770D01*
G02X106090Y-154260I-6350J0D01*
G01X98760Y-161590D01*
G02X94270Y-163450I-4490J4490D01*
G01X82150D01*
G01X2000Y-41750D02*
Y-59770D01*
G01X10000Y-41750D02*
Y-86200D01*
G03X12700Y-88900I2700J0D01*
G01X54520D01*
G02X59010Y-90760I0J-6350D01*
G01X63540Y-95290D01*
G02X65400Y-99780I-4490J-4490D01*
G01Y-114700D01*
G01X-10000Y-41750D02*
Y-88970D01*
G03X-8140Y-93460I6350J0D01*
G01X-1860Y-99740D01*
G03X2630Y-101600I4490J4490D01*
G01X39560D01*
G02X41400Y-103440I0J-1840D01*
G01Y-114700D01*
G01X-6000Y-41750D02*
Y-80270D01*
G03X-4140Y-84760I6350J0D01*
G01X4490Y-93390D01*
G03X8980Y-95250I4490J4490D01*
G01X44450D01*
G02X49400Y-100200I0J-4950D01*
G01Y-114700D01*
G01X41750Y10000D02*
X63500D01*
G02X69850Y3650I0J-6350D01*
G01Y-6350D01*
G03X74340Y-17190I15330J0D01*
G01X76200Y-19050D01*
G03X91530Y-25400I15330J15330D01*
G01X127000D01*
G02X137840Y-29890I0J-15330D01*
G01X146050Y-38100D01*
G02X152400Y-53430I-15330J-15330D01*
G01Y-215900D01*
G02X147910Y-226740I-15330J0D01*
G01X139700Y-234950D01*
G03X136050Y-243760I8810J-8811D01*
G01Y-254000D01*
G01X41750Y-2000D02*
X53740D01*
G03X56150Y-1000I2J3400D01*
G02X58560Y0I2408J-2400D01*
G01X59850D01*
G01X41750Y-26000D02*
X54520D01*
G02X59010Y-27860I0J-6350D01*
G01X67390Y-36240D01*
G03X71880Y-38100I4490J4490D01*
G01X118020D01*
G02X122510Y-39960I0J-6350D01*
G01X137840Y-55290D01*
G02X139700Y-59780I-4490J-4490D01*
G01Y-181520D01*
G02X137840Y-186010I-6350J0D01*
G01X114260Y-209590D01*
G02X109770Y-211450I-4490J4490D01*
G01X82150D01*
G01X41750Y-30000D02*
X48170D01*
G02X52660Y-31860I0J-6350D01*
G01X63390Y-42590D01*
G03X67880Y-44450I4490J4490D01*
G01X111670D01*
G02X116160Y-46310I0J-6350D01*
G01X131490Y-61640D01*
G02X133350Y-66130I-4490J-4490D01*
G01Y-175170D01*
G02X131490Y-179660I-6350J0D01*
G01X109560Y-201590D01*
G02X105070Y-203450I-4490J4490D01*
G01X82150D01*
G01X30000Y-41750D02*
X44930D01*
G02X49420Y-43610I0J-6350D01*
G01X54750Y-48940D01*
G03X59240Y-50800I4490J4490D01*
G01X105320D01*
G02X109810Y-52660I0J-6350D01*
G01X125140Y-67990D01*
G02X127000Y-72480I-4490J-4490D01*
G01Y-168820D01*
G02X125140Y-173310I-6350J0D01*
G01X112860Y-185590D01*
G02X108370Y-187450I-4490J4490D01*
G01X82150D01*
G01X41750Y-10000D02*
X57590D01*
G02X60000Y-11000I0J-3404D01*
G01X41750Y14000D02*
X69850D01*
G02X76200Y7650I0J-6350D01*
G01Y-3720D01*
G03X78060Y-8210I6350J0D01*
G01X87040Y-17190D01*
G03X91530Y-19050I4490J4490D01*
G01X137070D01*
G02X141560Y-20910I0J-6350D01*
G01X156890Y-36240D01*
G02X158750Y-40730I-4490J-4490D01*
G01Y-225970D01*
G02X156890Y-230460I-6350J0D01*
G01X147910Y-239440D01*
G03X146050Y-243930I4490J-4490D01*
G01Y-260350D01*
G03X152400Y-266700I6350J0D01*
G01X174150D01*
G01X41750Y-22000D02*
X63820D01*
G02X68310Y-23860I0J-6350D01*
G01X74340Y-29890D01*
G03X78830Y-31750I4490J4490D01*
G01X124370D01*
G02X128860Y-33610I0J-6350D01*
G01X144190Y-48940D01*
G02X146050Y-53430I-4490J-4490D01*
G01Y-213270D01*
G02X144190Y-217760I-6350J0D01*
G01X122510Y-239440D01*
G03X120650Y-243930I4490J-4490D01*
G01Y-273050D01*
G03X127000Y-279400I6350J0D01*
G01X136050D01*
G01X41750Y18000D02*
X76200D01*
G02X82550Y11650I0J-6350D01*
G01Y6350D01*
G03X87040Y-4490I15330J0D01*
G01X90760Y-8210D01*
G03X101600Y-12700I10840J10840D01*
G01X139700D01*
G02X150540Y-17190I0J-15330D01*
G01X158750Y-25400D01*
G02X165100Y-40730I-15330J-15330D01*
G01Y-222250D01*
G03X169590Y-233090I15330J0D01*
G01X171570Y-235070D01*
G02X174150Y-241300I-6232J-6230D01*
G01X6000Y41750D02*
Y59850D01*
G01X41750Y26000D02*
X92620D01*
G02X97110Y24140I0J-6350D01*
G01X100340Y20910D01*
G03X104830Y19050I4490J4490D01*
G01X149770D01*
G02X154260Y17190I0J-6350D01*
G01X164340Y7110D01*
G03X169430Y5000I5092J5090D01*
G01X180000D01*
G01X41750Y22000D02*
X83320D01*
G02X87810Y20140I0J-6350D01*
G01X93390Y14560D01*
G03X97880Y12700I4490J4490D01*
G01X137070D01*
G02X141560Y10840I0J-6350D01*
G01X163290Y-10890D01*
G03X167180Y-12500I3888J3890D01*
G01X180000D01*
G01X30000Y41750D02*
Y46420D01*
G02X31860Y50910I6350J0D01*
G01X42590Y61640D01*
G02X47080Y63500I4490J-4490D01*
G01X266700D01*
G02X273050Y57150I0J-6350D01*
G01Y31750D01*
G02X266700Y25400I-6350J0D01*
G01X243930D01*
G03X239440Y23540I0J-6350D01*
G01X228600Y12700D01*
G01X41750Y30000D02*
X59120D01*
G03X63610Y31860I0J6350D01*
G02X71190Y35000I7580J-7580D01*
G01X77500D01*
G01X-2000Y41750D02*
Y77920D01*
G02X-140Y82410I6350J0D01*
G01X17190Y99740D01*
G02X21680Y101600I4490J-4490D01*
G01X264070D01*
G03X268560Y103460I0J6350D01*
G01X315640Y150540D01*
G03X317500Y155030I-4490J4490D01*
G01Y165100D01*
G01X14000Y41750D02*
Y81220D01*
G02X15860Y85710I6350J0D01*
G01X23540Y93390D01*
G02X28030Y95250I4490J-4490D01*
G01X283120D01*
G03X287610Y97110I0J6350D01*
G01X341040Y150540D01*
G03X342900Y155030I-4490J4490D01*
G01Y165100D01*
G01X18000Y41750D02*
Y72520D01*
G02X19860Y77010I6350J0D01*
G01X29890Y87040D01*
G02X34380Y88900I4490J-4490D01*
G01X302170D01*
G03X306660Y90760I0J6350D01*
G01X366440Y150540D01*
G03X368300Y155030I-4490J4490D01*
G01Y165100D01*
G01X22000Y41750D02*
Y63820D01*
G02X23860Y68310I6350J0D01*
G01X36240Y80690D01*
G02X40730Y82550I4490J-4490D01*
G01X321220D01*
G03X325710Y84410I0J6350D01*
G01X391840Y150540D01*
G03X393700Y155030I-4490J4490D01*
G01Y165100D01*
G01X26000Y41750D02*
Y55120D01*
G02X27860Y59610I6350J0D01*
G01X42590Y74340D01*
G02X47080Y76200I4490J-4490D01*
G01X340270D01*
G03X344760Y78060I0J6350D01*
G01X417240Y150540D01*
G03X419100Y155030I-4490J4490D01*
G01Y165100D01*
G01X-10000Y41750D02*
Y95320D01*
G02X-8140Y99810I6350J0D01*
G01X4490Y112440D01*
G02X8980Y114300I4490J-4490D01*
G01X225970D01*
G03X230460Y116160I0J6350D01*
G01X264840Y150540D01*
G03X266700Y155030I-4490J4490D01*
G01Y165100D01*
G01X-6000Y41750D02*
Y86620D01*
G02X-4140Y91110I6350J0D01*
G01X10840Y106090D01*
G02X15330Y107950I4490J-4490D01*
G01X245020D01*
G03X249510Y109810I0J6350D01*
G01X290240Y150540D01*
G03X292100Y155030I-4490J4490D01*
G01Y165100D01*
G01X69850Y-256700D02*
Y-250280D01*
G03X67990Y-245790I-6350J0D01*
G01X59260Y-237060D01*
G02X57400Y-232570I4490J4490D01*
G01Y-228200D01*
G01X77500Y35000D02*
X93580D01*
G02X97510Y33380I10J-5552D01*
G03X101430Y31750I3928J3917D01*
G01X162470D01*
G03X166960Y33610I0J6350D01*
G01X169590Y36240D01*
G02X174080Y38100I4490J-4490D01*
G01X228600D01*
G01X156050Y-279400D02*
X200570D01*
G02X205060Y-281260I0J-6350D01*
G01X207690Y-283890D01*
G03X212180Y-285750I4490J4490D01*
G01X359320D01*
G03X363810Y-283890I0J6350D01*
G01X379140Y-268560D01*
G02X383630Y-266700I4490J-4490D01*
G01X664120D01*
G03X668610Y-264840I0J6350D01*
G01X804590Y-128860D01*
G03X806450Y-124370I-4490J4490D01*
G01Y-104230D01*
G02X808310Y-99740I6350J0D01*
G01X825500Y-82550D01*
G01X194150Y-266700D02*
X200570D01*
G02X205060Y-268560I0J-6350D01*
G01X214040Y-277540D01*
G03X218530Y-279400I4490J4490D01*
G01X352970D01*
G03X357460Y-277540I0J6350D01*
G01X372790Y-262210D01*
G02X377280Y-260350I4490J-4490D01*
G01X657770D01*
G03X662260Y-258490I0J6350D01*
G01X791890Y-128860D01*
G03X793750Y-124370I-4490J4490D01*
G01Y-66130D01*
G02X795610Y-61640I6350J0D01*
G01X825500Y-31750D01*
G01X194150Y-292100D02*
X365670D01*
G03X370160Y-290240I0J6350D01*
G01X385490Y-274910D01*
G02X389980Y-273050I4490J-4490D01*
G01X676820D01*
G03X681310Y-271190I0J6350D01*
G01X817290Y-135210D01*
G02X821780Y-133350I4490J-4490D01*
G01X825500D01*
G01X194150Y-241300D02*
X200570D01*
G02X205060Y-243160I0J-6350D01*
G01X226740Y-264840D01*
G03X231230Y-266700I4490J4490D01*
G01X340270D01*
G03X344760Y-264840I0J6350D01*
G01X360090Y-249510D01*
G02X364580Y-247650I4490J-4490D01*
G01X635770D01*
G03X640260Y-245790I0J6350D01*
G01X653020Y-233030D01*
G03X657700Y-221730I-11300J11299D01*
G01Y-133350D01*
G01X156050Y-254000D02*
X200570D01*
G02X205060Y-255860I0J-6350D01*
G01X220390Y-271190D01*
G03X224880Y-273050I4490J4490D01*
G01X346620D01*
G03X351110Y-271190I0J6350D01*
G01X366440Y-255860D01*
G02X370930Y-254000I4490J-4490D01*
G01X646030D01*
G03X650520Y-252140I0J6350D01*
G01X757190Y-145470D01*
G03X759300Y-140380I-5090J5092D01*
G01Y-133350D01*
G01X228600Y-63500D02*
X239440Y-52660D01*
G02X243930Y-50800I4490J-4490D01*
G01X266700D01*
G03X273050Y-44450I0J6350D01*
G01Y-6350D01*
G03X266700Y0I-6350J0D01*
G01X205830D01*
G02X201340Y1860I0J6350D01*
G03X193760Y5000I-7580J-7580D01*
G01X180000D01*
G01Y-12500D02*
X190260D01*
X190460Y-12700D01*
X228600D01*
G01X393700Y-205900D02*
Y-199480D01*
G02X395560Y-194990I6350J0D01*
G01X398190Y-192360D01*
G03X400050Y-187870I-4490J4490D01*
G01Y-171450D01*
G03X393700Y-165100I-6350J0D01*
G01X369930D01*
G02X365440Y-163240I0J6350D01*
G01X351110Y-148910D01*
G03X346620Y-147050I-4490J-4490D01*
G01X323850D01*
G01X825500Y-234950D02*
X745580D01*
G03X741090Y-236810I0J-6350D01*
G01X694010Y-283890D01*
G02X689520Y-285750I-4490J4490D01*
G01X393700D01*
G01Y-225900D02*
Y-237000D01*
G01X419100Y-205900D02*
Y-180730D01*
G03X417240Y-176240I-6350J0D01*
G01X388050Y-147050D01*
X387350D01*
G01X825500Y-285750D02*
X713830D01*
G03X709340Y-287610I0J-6350D01*
G01X700360Y-296590D01*
G02X695870Y-298450I-4490J4490D01*
G01X419100D01*
G01Y-225900D02*
Y-237000D01*
G01X658450Y-111100D02*
G03X657700Y-112910I1810J-1810D01*
G01Y-133350D01*
G01X803750Y-209550D02*
Y-193200D01*
G02X812800Y-184150I9050J0D01*
G01X825500D01*
G01X760050Y-111100D02*
G03X759300Y-112910I1810J-1810D01*
G01Y-133350D01*
G54D43*
X355600Y-226220D03*
Y-180180D03*
G54D16*
X-453420Y-76200D03*
X-410180D03*
X-351820D03*
X-308580D03*
G54D25*
X-188450Y-285750D03*
G54D34*
X-31350Y-211450D03*
Y-203450D03*
Y-195450D03*
Y-187450D03*
Y-179450D03*
Y-171450D03*
Y-163450D03*
Y-155450D03*
Y-147450D03*
Y-139450D03*
Y-131450D03*
X82150Y-195450D03*
Y-203450D03*
Y-131450D03*
Y-139450D03*
Y-147450D03*
Y-155450D03*
Y-163450D03*
Y-171450D03*
Y-179450D03*
Y-187450D03*
G54D17*
X-457200Y-30550D03*
Y55950D03*
X-406400Y-30550D03*
X-355600D03*
X-406400Y55950D03*
X-355600D03*
X-304800Y-30550D03*
Y55950D03*
G54D44*
X451350Y-209550D03*
X513850D03*
X621800D03*
X559300D03*
G54D26*
X-152700Y-63700D03*
Y-25200D03*
X-101300Y-63700D03*
Y-25200D03*
G54D35*
X0Y0D03*
G54D45*
X623200Y152400D03*
X672200D03*
X724800D03*
X773800D03*
G54D18*
X-431800Y111350D03*
X-355600D03*
X-419100Y136750D03*
X-381000Y111350D03*
X-368300Y136750D03*
X-406400Y111350D03*
X-393700Y136750D03*
X-196850Y-127000D03*
Y-50800D03*
Y-76200D03*
Y-101600D03*
Y0D03*
Y-25400D03*
Y25400D03*
X-95000Y-139600D03*
X254000Y-63500D03*
X228600D03*
X254000Y-38100D03*
X228600D03*
X254000Y-12700D03*
X228600D03*
X254000Y12700D03*
X228600D03*
X254000Y38100D03*
X342900Y-69850D03*
Y6350D03*
Y-19050D03*
Y-44450D03*
Y31750D03*
X368300Y6350D03*
Y-19050D03*
Y-44450D03*
Y31750D03*
X622300Y-25400D03*
Y25400D03*
Y50800D03*
Y76200D03*
X688800Y-144350D03*
X673100Y76200D03*
Y50800D03*
Y25400D03*
X723900Y-25400D03*
Y25400D03*
Y50800D03*
Y76200D03*
X774700D03*
Y50800D03*
Y25400D03*
G54D27*
X-147650Y69850D03*
Y82550D03*
Y95250D03*
Y107950D03*
X-93650Y82550D03*
Y107950D03*
Y95250D03*
X-27000Y-292100D03*
Y-279400D03*
Y-266700D03*
X27000D03*
Y-279400D03*
Y-292100D03*
Y-254000D03*
G54D36*
X-14000Y-41750D03*
X-18000D03*
X-22000D03*
X-26000D03*
X-30000D03*
Y41750D03*
X-26000D03*
X-22000D03*
X-18000D03*
X-14000D03*
X30000Y-41750D03*
X26000D03*
X22000D03*
X18000D03*
X14000D03*
X10000D03*
X6000D03*
X2000D03*
X-2000D03*
X-6000D03*
X-10000D03*
Y41750D03*
X-6000D03*
X-2000D03*
X2000D03*
X6000D03*
X10000D03*
X14000D03*
X18000D03*
X22000D03*
X26000D03*
X30000D03*
G54D19*
X-444500Y200250D03*
X-330200D03*
G54D28*
X-152400Y196850D03*
X-76200D03*
Y171450D03*
X38100Y196850D03*
X114300D03*
Y171450D03*
X241300Y165100D03*
X266700D03*
X241300Y241300D03*
X266700D03*
X292100Y165100D03*
X317500D03*
X292100Y241300D03*
X317500D03*
X342900Y165100D03*
X368300D03*
X393700D03*
Y241300D03*
X368300D03*
X342900D03*
X419100Y165100D03*
X850900Y-285750D03*
Y-234950D03*
Y-133350D03*
Y-184150D03*
Y-82550D03*
Y-31750D03*
G54D37*
X-41750Y-30000D03*
Y-26000D03*
Y-22000D03*
Y-18000D03*
Y-14000D03*
Y-10000D03*
Y-6000D03*
Y-2000D03*
Y2000D03*
Y6000D03*
Y10000D03*
Y14000D03*
Y18000D03*
Y22000D03*
Y26000D03*
Y30000D03*
X41750Y14000D03*
Y10000D03*
Y6000D03*
Y2000D03*
Y-2000D03*
Y-6000D03*
Y-10000D03*
Y-14000D03*
Y-18000D03*
Y-22000D03*
Y-26000D03*
Y30000D03*
Y26000D03*
Y22000D03*
Y18000D03*
G54D46*
X622300Y208350D03*
X673100D03*
X723900D03*
G54D29*
X-152400Y171450D03*
X38100D03*
X419100Y241300D03*
X825500Y-285750D03*
Y-234950D03*
Y-133350D03*
Y-184150D03*
Y-82550D03*
Y-31750D03*
G54D38*
X41750Y-30000D03*
G54D47*
X636950Y-101600D03*
X658450Y-92100D03*
Y-111100D03*
X636950Y-63500D03*
X658450Y-54000D03*
Y-73000D03*
X738550Y-101600D03*
Y-63500D03*
X760050Y-92100D03*
Y-111100D03*
Y-54000D03*
Y-73000D03*
G54D48*
X673100Y-25400D03*
X774700D03*
G54D39*
X82150Y-211450D03*
G54D49*
X774700Y208350D03*
M02*
